M48
; DRILL file {KiCad 5.1.9+dfsg1-1} date Sun Dec 12 20:19:40 2021
; FORMAT={-:-/ absolute / metric / decimal}
; #@! TF.CreationDate,2021-12-12T20:19:40+01:00
; #@! TF.GenerationSoftware,Kicad,Pcbnew,5.1.9+dfsg1-1
FMAT,2
METRIC
T1C0.400
T2C0.500
T3C0.600
T4C0.750
T5C1.000
T6C2.750
%
G90
G05
T1
X52.65Y-44.65
X52.65Y-46.05
X53.75Y-56.75
X54.05Y-44.65
X54.05Y-46.05
X54.35Y-62.2
X55.0Y-56.75
X55.0Y-78.8
X55.5Y-69.0
X56.5Y-49.0
X57.25Y-91.6
X57.25Y-92.9
X57.75Y-52.0
X58.55Y-91.6
X58.55Y-92.9
X59.9Y-87.9
X61.25Y-44.75
X61.3Y-85.8
X64.95Y-85.3
X65.25Y-47.75
X67.3Y-85.3
X69.1Y-85.3
X72.45Y-89.25
X76.0Y-47.5
X77.5Y-47.5
X80.2Y-87.7
X82.82Y-87.71
X83.0Y-85.6
X83.5Y-89.5
X91.6Y-90.9
X92.3Y-73.2
X92.35Y-86.2
X92.55Y-65.5
X92.6Y-52.15
X94.2Y-51.8
X94.6Y-58.25
X94.85Y-59.55
X95.4Y-64.6
X96.0Y-60.5
X96.05Y-72.35
X96.4Y-77.8
X96.4Y-79.1
X96.4Y-80.4
X96.5Y-54.5
X96.75Y-58.1
X97.4Y-89.7
X97.4Y-91.0
X97.4Y-92.3
X97.7Y-77.8
X97.7Y-79.1
X97.7Y-80.4
X97.7Y-81.7
X97.75Y-60.7
X98.0Y-45.0
X98.7Y-89.7
X98.7Y-91.0
X98.7Y-92.3
X98.75Y-74.75
X98.9Y-86.5
X99.6Y-47.6
X99.6Y-55.3
X99.6Y-71.1
X99.862Y-88.987
X100.0Y-92.3
X100.7Y-68.9
X101.1Y-86.6
X101.3Y-92.3
X101.4Y-47.0
X101.4Y-80.6
X101.4Y-81.8
X101.6Y-90.55
X101.9Y-53.7
X102.0Y-64.7
X102.2Y-55.5
X102.35Y-68.95
X102.5Y-92.3
X102.895Y-74.745
X103.825Y-71.975
X103.95Y-51.6
X104.1Y-69.1
X105.25Y-66.0
X105.3Y-51.05
X105.4Y-57.0
X105.4Y-77.8
X105.4Y-79.1
X105.95Y-48.1
X106.25Y-85.0
X106.6Y-51.25
X107.4Y-47.4
X107.952Y-77.602
X108.3Y-69.4
X108.45Y-52.8
X108.45Y-72.7
X109.05Y-70.85
X109.75Y-52.875
X109.9Y-56.5
X110.65Y-46.15
X111.0Y-52.875
X111.0Y-69.0
X111.2Y-72.0
X112.2Y-53.8
X113.2Y-52.2
X113.4Y-44.6
X113.45Y-88.3
X113.5Y-86.9
X114.1Y-56.25
X114.1Y-78.7
X114.7Y-44.6
X114.8Y-86.95
X114.8Y-88.35
T2
X91.9Y-92.55
X101.9Y-57.0
X107.05Y-92.05
X113.55Y-48.15
T4
X104.8Y-58.16
X104.8Y-59.43
X104.8Y-60.7
T5
X53.7Y-81.0
X56.24Y-81.0
X59.67Y-40.73
X59.67Y-43.27
X62.21Y-40.73
X62.21Y-43.27
X64.75Y-40.73
X64.75Y-43.27
X67.29Y-40.73
X67.29Y-43.27
X69.83Y-40.73
X69.83Y-43.27
X72.37Y-40.73
X72.37Y-43.27
X74.91Y-40.73
X74.91Y-43.27
X77.45Y-40.73
X77.45Y-43.27
X79.99Y-40.73
X79.99Y-43.27
X82.53Y-40.73
X82.53Y-43.27
X85.07Y-40.73
X85.07Y-43.27
X87.61Y-40.73
X87.61Y-43.27
X90.15Y-40.73
X90.15Y-43.27
X92.69Y-40.73
X92.69Y-43.27
X95.23Y-40.73
X95.23Y-43.27
X97.77Y-40.73
X97.77Y-43.27
X100.31Y-40.73
X100.31Y-43.27
X102.85Y-40.73
X102.85Y-43.27
X105.39Y-40.73
X105.39Y-43.27
X107.93Y-40.73
X107.93Y-43.27
X108.6Y-58.16
X108.6Y-60.7
X111.14Y-58.16
X111.14Y-60.7
X113.68Y-58.16
X113.68Y-60.7
X113.7Y-64.76
X113.7Y-67.3
T6
X54.8Y-42.0
X54.8Y-91.0
X112.8Y-42.0
X112.8Y-91.0
T3
G00X61.705Y-87.6
M15
G01X61.705Y-88.2
M16
G05
G00X61.705Y-91.4
M15
G01X61.705Y-92.0
M16
G05
G00X70.345Y-87.6
M15
G01X70.345Y-88.2
M16
G05
G00X70.345Y-91.4
M15
G01X70.345Y-92.0
M16
G05
T0
M30
