%TF.GenerationSoftware,KiCad,Pcbnew,5.1.9+dfsg1-1*%
%TF.CreationDate,2021-12-12T20:19:36+01:00*%
%TF.ProjectId,RaspberryPi_UPS_HAT,52617370-6265-4727-9279-50695f555053,rev?*%
%TF.SameCoordinates,Original*%
%TF.FileFunction,Paste,Top*%
%TF.FilePolarity,Positive*%
%FSLAX46Y46*%
G04 Gerber Fmt 4.6, Leading zero omitted, Abs format (unit mm)*
G04 Created by KiCad (PCBNEW 5.1.9+dfsg1-1) date 2021-12-12 20:19:36*
%MOMM*%
%LPD*%
G01*
G04 APERTURE LIST*
%ADD10R,0.650000X1.560000*%
%ADD11R,1.800000X1.100000*%
%ADD12R,1.597660X3.398520*%
%ADD13R,0.998220X4.599940*%
%ADD14R,0.700000X2.200000*%
%ADD15R,0.760000X2.200000*%
%ADD16R,0.800000X2.200000*%
G04 APERTURE END LIST*
D10*
%TO.C,U5*%
X100850000Y-70850000D03*
X102750000Y-70850000D03*
X102750000Y-73550000D03*
X101800000Y-73550000D03*
X100850000Y-73550000D03*
%TD*%
%TO.C,U1*%
X105250000Y-70850000D03*
X107150000Y-70850000D03*
X107150000Y-73550000D03*
X106200000Y-73550000D03*
X105250000Y-73550000D03*
%TD*%
D11*
%TO.C,SW2*%
X99300000Y-63250000D03*
X93100000Y-63250000D03*
X99300000Y-59550000D03*
X93100000Y-59550000D03*
%TD*%
%TO.C,SW1*%
X99300000Y-57250000D03*
X93100000Y-57250000D03*
X99300000Y-53550000D03*
X93100000Y-53550000D03*
%TD*%
%TO.C,U2*%
G36*
G01*
X103540000Y-50300000D02*
X103240000Y-50300000D01*
G75*
G02*
X103090000Y-50150000I0J150000D01*
G01*
X103090000Y-48500000D01*
G75*
G02*
X103240000Y-48350000I150000J0D01*
G01*
X103540000Y-48350000D01*
G75*
G02*
X103690000Y-48500000I0J-150000D01*
G01*
X103690000Y-50150000D01*
G75*
G02*
X103540000Y-50300000I-150000J0D01*
G01*
G37*
G36*
G01*
X104810000Y-50300000D02*
X104510000Y-50300000D01*
G75*
G02*
X104360000Y-50150000I0J150000D01*
G01*
X104360000Y-48500000D01*
G75*
G02*
X104510000Y-48350000I150000J0D01*
G01*
X104810000Y-48350000D01*
G75*
G02*
X104960000Y-48500000I0J-150000D01*
G01*
X104960000Y-50150000D01*
G75*
G02*
X104810000Y-50300000I-150000J0D01*
G01*
G37*
G36*
G01*
X106080000Y-50300000D02*
X105780000Y-50300000D01*
G75*
G02*
X105630000Y-50150000I0J150000D01*
G01*
X105630000Y-48500000D01*
G75*
G02*
X105780000Y-48350000I150000J0D01*
G01*
X106080000Y-48350000D01*
G75*
G02*
X106230000Y-48500000I0J-150000D01*
G01*
X106230000Y-50150000D01*
G75*
G02*
X106080000Y-50300000I-150000J0D01*
G01*
G37*
G36*
G01*
X107350000Y-50300000D02*
X107050000Y-50300000D01*
G75*
G02*
X106900000Y-50150000I0J150000D01*
G01*
X106900000Y-48500000D01*
G75*
G02*
X107050000Y-48350000I150000J0D01*
G01*
X107350000Y-48350000D01*
G75*
G02*
X107500000Y-48500000I0J-150000D01*
G01*
X107500000Y-50150000D01*
G75*
G02*
X107350000Y-50300000I-150000J0D01*
G01*
G37*
G36*
G01*
X108620000Y-50300000D02*
X108320000Y-50300000D01*
G75*
G02*
X108170000Y-50150000I0J150000D01*
G01*
X108170000Y-48500000D01*
G75*
G02*
X108320000Y-48350000I150000J0D01*
G01*
X108620000Y-48350000D01*
G75*
G02*
X108770000Y-48500000I0J-150000D01*
G01*
X108770000Y-50150000D01*
G75*
G02*
X108620000Y-50300000I-150000J0D01*
G01*
G37*
G36*
G01*
X109890000Y-50300000D02*
X109590000Y-50300000D01*
G75*
G02*
X109440000Y-50150000I0J150000D01*
G01*
X109440000Y-48500000D01*
G75*
G02*
X109590000Y-48350000I150000J0D01*
G01*
X109890000Y-48350000D01*
G75*
G02*
X110040000Y-48500000I0J-150000D01*
G01*
X110040000Y-50150000D01*
G75*
G02*
X109890000Y-50300000I-150000J0D01*
G01*
G37*
G36*
G01*
X111160000Y-50300000D02*
X110860000Y-50300000D01*
G75*
G02*
X110710000Y-50150000I0J150000D01*
G01*
X110710000Y-48500000D01*
G75*
G02*
X110860000Y-48350000I150000J0D01*
G01*
X111160000Y-48350000D01*
G75*
G02*
X111310000Y-48500000I0J-150000D01*
G01*
X111310000Y-50150000D01*
G75*
G02*
X111160000Y-50300000I-150000J0D01*
G01*
G37*
G36*
G01*
X111160000Y-55250000D02*
X110860000Y-55250000D01*
G75*
G02*
X110710000Y-55100000I0J150000D01*
G01*
X110710000Y-53450000D01*
G75*
G02*
X110860000Y-53300000I150000J0D01*
G01*
X111160000Y-53300000D01*
G75*
G02*
X111310000Y-53450000I0J-150000D01*
G01*
X111310000Y-55100000D01*
G75*
G02*
X111160000Y-55250000I-150000J0D01*
G01*
G37*
G36*
G01*
X109890000Y-55250000D02*
X109590000Y-55250000D01*
G75*
G02*
X109440000Y-55100000I0J150000D01*
G01*
X109440000Y-53450000D01*
G75*
G02*
X109590000Y-53300000I150000J0D01*
G01*
X109890000Y-53300000D01*
G75*
G02*
X110040000Y-53450000I0J-150000D01*
G01*
X110040000Y-55100000D01*
G75*
G02*
X109890000Y-55250000I-150000J0D01*
G01*
G37*
G36*
G01*
X108620000Y-55250000D02*
X108320000Y-55250000D01*
G75*
G02*
X108170000Y-55100000I0J150000D01*
G01*
X108170000Y-53450000D01*
G75*
G02*
X108320000Y-53300000I150000J0D01*
G01*
X108620000Y-53300000D01*
G75*
G02*
X108770000Y-53450000I0J-150000D01*
G01*
X108770000Y-55100000D01*
G75*
G02*
X108620000Y-55250000I-150000J0D01*
G01*
G37*
G36*
G01*
X107350000Y-55250000D02*
X107050000Y-55250000D01*
G75*
G02*
X106900000Y-55100000I0J150000D01*
G01*
X106900000Y-53450000D01*
G75*
G02*
X107050000Y-53300000I150000J0D01*
G01*
X107350000Y-53300000D01*
G75*
G02*
X107500000Y-53450000I0J-150000D01*
G01*
X107500000Y-55100000D01*
G75*
G02*
X107350000Y-55250000I-150000J0D01*
G01*
G37*
G36*
G01*
X106080000Y-55250000D02*
X105780000Y-55250000D01*
G75*
G02*
X105630000Y-55100000I0J150000D01*
G01*
X105630000Y-53450000D01*
G75*
G02*
X105780000Y-53300000I150000J0D01*
G01*
X106080000Y-53300000D01*
G75*
G02*
X106230000Y-53450000I0J-150000D01*
G01*
X106230000Y-55100000D01*
G75*
G02*
X106080000Y-55250000I-150000J0D01*
G01*
G37*
G36*
G01*
X104810000Y-55250000D02*
X104510000Y-55250000D01*
G75*
G02*
X104360000Y-55100000I0J150000D01*
G01*
X104360000Y-53450000D01*
G75*
G02*
X104510000Y-53300000I150000J0D01*
G01*
X104810000Y-53300000D01*
G75*
G02*
X104960000Y-53450000I0J-150000D01*
G01*
X104960000Y-55100000D01*
G75*
G02*
X104810000Y-55250000I-150000J0D01*
G01*
G37*
G36*
G01*
X103540000Y-55250000D02*
X103240000Y-55250000D01*
G75*
G02*
X103090000Y-55100000I0J150000D01*
G01*
X103090000Y-53450000D01*
G75*
G02*
X103240000Y-53300000I150000J0D01*
G01*
X103540000Y-53300000D01*
G75*
G02*
X103690000Y-53450000I0J-150000D01*
G01*
X103690000Y-55100000D01*
G75*
G02*
X103540000Y-55250000I-150000J0D01*
G01*
G37*
%TD*%
%TO.C,D4*%
G36*
G01*
X98135000Y-73681250D02*
X98135000Y-72768750D01*
G75*
G02*
X98378750Y-72525000I243750J0D01*
G01*
X98866250Y-72525000D01*
G75*
G02*
X99110000Y-72768750I0J-243750D01*
G01*
X99110000Y-73681250D01*
G75*
G02*
X98866250Y-73925000I-243750J0D01*
G01*
X98378750Y-73925000D01*
G75*
G02*
X98135000Y-73681250I0J243750D01*
G01*
G37*
G36*
G01*
X96260000Y-73681250D02*
X96260000Y-72768750D01*
G75*
G02*
X96503750Y-72525000I243750J0D01*
G01*
X96991250Y-72525000D01*
G75*
G02*
X97235000Y-72768750I0J-243750D01*
G01*
X97235000Y-73681250D01*
G75*
G02*
X96991250Y-73925000I-243750J0D01*
G01*
X96503750Y-73925000D01*
G75*
G02*
X96260000Y-73681250I0J243750D01*
G01*
G37*
%TD*%
D12*
%TO.C,J3*%
X112348520Y-82251400D03*
X105551480Y-82251400D03*
D13*
X107951780Y-87448240D03*
X109948220Y-87448240D03*
%TD*%
D14*
%TO.C,J6*%
X66525000Y-87350000D03*
X65525000Y-87350000D03*
D15*
X67545000Y-87350000D03*
X64505000Y-87350000D03*
D16*
X68775000Y-87350000D03*
X63275000Y-87350000D03*
%TD*%
M02*
