%TF.GenerationSoftware,KiCad,Pcbnew,5.1.9+dfsg1-1*%
%TF.CreationDate,2021-12-17T12:31:51+01:00*%
%TF.ProjectId,RaspberryPi_UPS_HAT,52617370-6265-4727-9279-50695f555053,rev?*%
%TF.SameCoordinates,Original*%
%TF.FileFunction,Profile,NP*%
%FSLAX46Y46*%
G04 Gerber Fmt 4.6, Leading zero omitted, Abs format (unit mm)*
G04 Created by KiCad (PCBNEW 5.1.9+dfsg1-1) date 2021-12-17 12:31:51*
%MOMM*%
%LPD*%
G01*
G04 APERTURE LIST*
%TA.AperFunction,Profile*%
%ADD10C,0.100000*%
%TD*%
%TA.AperFunction,Profile*%
%ADD11C,0.050000*%
%TD*%
G04 APERTURE END LIST*
D10*
X61114496Y-62308697D02*
X61281195Y-61993564D01*
X80600000Y-81300000D02*
X84700000Y-81300000D01*
X65200000Y-81300000D02*
X69300000Y-81300000D01*
X65600000Y-51200000D02*
X72500000Y-51200000D01*
X77250000Y-51200000D02*
X84200000Y-51200000D01*
X69298531Y-80103436D02*
G75*
G02*
X61200000Y-71200000I5694035J13314187D01*
G01*
X61281196Y-61993564D02*
G75*
G02*
X72500000Y-52400000I13729555J-4699002D01*
G01*
X77001977Y-52344351D02*
G75*
G02*
X88916905Y-62600000I-1994543J-14366400D01*
G01*
X88807914Y-71201279D02*
G75*
G02*
X80600000Y-80100000I-13807914J4501279D01*
G01*
D11*
X76666666Y-66700000D02*
G75*
G03*
X76666666Y-66700000I-1666666J0D01*
G01*
X72500000Y-66700000D02*
X77500000Y-66700000D01*
X75000000Y-64200000D02*
X75000000Y-69200000D01*
D10*
X60000000Y-71200000D02*
G75*
G02*
X61200000Y-71200000I600000J0D01*
G01*
X69300000Y-80100000D02*
G75*
G02*
X69300000Y-81300000I0J-600000D01*
G01*
X80600000Y-81300000D02*
G75*
G02*
X80600000Y-80100000I0J600000D01*
G01*
X88808164Y-71201361D02*
G75*
G02*
X90000000Y-71300000I591836J-98639D01*
G01*
X90000000Y-62300000D02*
G75*
G02*
X88916905Y-62600000I-583095J0D01*
G01*
X77001718Y-52346220D02*
G75*
G02*
X77250000Y-51200000I248282J546220D01*
G01*
X61114496Y-62308697D02*
G75*
G02*
X60000000Y-62000000I-514496J308697D01*
G01*
X72500000Y-51200000D02*
G75*
G02*
X72500000Y-52400000I0J-600000D01*
G01*
X87200000Y-50000000D02*
X90200000Y-50000000D01*
X87200000Y-51200000D02*
X89000000Y-51200000D01*
X90000000Y-54300000D02*
X90000000Y-52200000D01*
X91200000Y-54300000D02*
X91200000Y-51000000D01*
X62600000Y-51200000D02*
X61000000Y-51200000D01*
X62600000Y-50000000D02*
X59800000Y-50000000D01*
X58800000Y-51000000D02*
X58800000Y-54300000D01*
X60000000Y-52200000D02*
X60000000Y-54300000D01*
X58800000Y-79600000D02*
X58800000Y-81500000D01*
X60000000Y-79600000D02*
X60000000Y-80300000D01*
X61000000Y-81300000D02*
X62200000Y-81300000D01*
X59800000Y-82500000D02*
X62200000Y-82500000D01*
X91200000Y-81500000D02*
X91200000Y-79500000D01*
X87700000Y-82500000D02*
X90200000Y-82500000D01*
X90000000Y-80300000D02*
X90000000Y-79500000D01*
X87700000Y-81300000D02*
X89000000Y-81300000D01*
X91200000Y-78600000D02*
G75*
G03*
X91200000Y-78600000I-200000J0D01*
G01*
X91200000Y-78000000D02*
G75*
G03*
X91200000Y-78000000I-200000J0D01*
G01*
X90000000Y-79500000D02*
G75*
G02*
X91200000Y-79500000I600000J0D01*
G01*
X91200000Y-77400000D02*
G75*
G03*
X91200000Y-77400000I-200000J0D01*
G01*
X91200000Y-76500000D02*
G75*
G02*
X90000000Y-76500000I-600000J0D01*
G01*
X86400000Y-82300000D02*
G75*
G03*
X86400000Y-82300000I-200000J0D01*
G01*
X87700000Y-82500000D02*
G75*
G02*
X87700000Y-81300000I0J600000D01*
G01*
X87000000Y-82300000D02*
G75*
G03*
X87000000Y-82300000I-200000J0D01*
G01*
X84700000Y-81300000D02*
G75*
G02*
X84700000Y-82500000I0J-600000D01*
G01*
X85800000Y-82300000D02*
G75*
G03*
X85800000Y-82300000I-200000J0D01*
G01*
X63900000Y-82300000D02*
G75*
G03*
X63900000Y-82300000I-200000J0D01*
G01*
X65200000Y-82500000D02*
G75*
G02*
X65200000Y-81300000I0J600000D01*
G01*
X62200000Y-81300000D02*
G75*
G02*
X62200000Y-82500000I0J-600000D01*
G01*
X63300000Y-82300000D02*
G75*
G03*
X63300000Y-82300000I-200000J0D01*
G01*
X64500000Y-82300000D02*
G75*
G03*
X64500000Y-82300000I-200000J0D01*
G01*
X58800000Y-79600000D02*
G75*
G02*
X60000000Y-79600000I600000J0D01*
G01*
X59200000Y-77500000D02*
G75*
G03*
X59200000Y-77500000I-200000J0D01*
G01*
X60000000Y-76600000D02*
G75*
G02*
X58800000Y-76600000I-600000J0D01*
G01*
X59200000Y-78700000D02*
G75*
G03*
X59200000Y-78700000I-200000J0D01*
G01*
X59200000Y-78100000D02*
G75*
G03*
X59200000Y-78100000I-200000J0D01*
G01*
X59200000Y-55800000D02*
G75*
G03*
X59200000Y-55800000I-200000J0D01*
G01*
X60000000Y-54300000D02*
G75*
G02*
X58800000Y-54300000I-600000J0D01*
G01*
X59200000Y-55200000D02*
G75*
G03*
X59200000Y-55200000I-200000J0D01*
G01*
X59200000Y-56400000D02*
G75*
G03*
X59200000Y-56400000I-200000J0D01*
G01*
X58800000Y-57300000D02*
G75*
G02*
X60000000Y-57300000I600000J0D01*
G01*
X62600000Y-50000000D02*
G75*
G02*
X62600000Y-51200000I0J-600000D01*
G01*
X65600000Y-51200000D02*
G75*
G02*
X65600000Y-50000000I0J600000D01*
G01*
X63700000Y-50200000D02*
G75*
G03*
X63700000Y-50200000I-200000J0D01*
G01*
X64300000Y-50200000D02*
G75*
G03*
X64300000Y-50200000I-200000J0D01*
G01*
X64900000Y-50200000D02*
G75*
G03*
X64900000Y-50200000I-200000J0D01*
G01*
X85300000Y-50200000D02*
G75*
G03*
X85300000Y-50200000I-200000J0D01*
G01*
X85900000Y-50200000D02*
G75*
G03*
X85900000Y-50200000I-200000J0D01*
G01*
X86500000Y-50200000D02*
G75*
G03*
X86500000Y-50200000I-200000J0D01*
G01*
X84200000Y-50000000D02*
G75*
G02*
X84200000Y-51200000I0J-600000D01*
G01*
X87200000Y-51200000D02*
G75*
G02*
X87200000Y-50000000I0J600000D01*
G01*
X90000000Y-57300000D02*
G75*
G02*
X91200000Y-57300000I600000J0D01*
G01*
X91200000Y-55800000D02*
G75*
G03*
X91200000Y-55800000I-200000J0D01*
G01*
X91200000Y-55200000D02*
G75*
G03*
X91200000Y-55200000I-200000J0D01*
G01*
X91200000Y-54300000D02*
G75*
G02*
X90000000Y-54300000I-600000J0D01*
G01*
X91200000Y-56400000D02*
G75*
G03*
X91200000Y-56400000I-200000J0D01*
G01*
X60000000Y-57300000D02*
X60000000Y-62000000D01*
X58800000Y-57300000D02*
X58800000Y-68200000D01*
X90000000Y-57300000D02*
X90000000Y-62300000D01*
X91200000Y-57300000D02*
X91200000Y-65300000D01*
X89000000Y-81300000D02*
G75*
G03*
X90000000Y-80300000I0J1000000D01*
G01*
X60000000Y-80300000D02*
G75*
G03*
X61000000Y-81300000I1000000J0D01*
G01*
X61000000Y-51200000D02*
G75*
G03*
X60000000Y-52200000I0J-1000000D01*
G01*
X90000000Y-52200000D02*
G75*
G03*
X89000000Y-51200000I-1000000J0D01*
G01*
X51300000Y-41500000D02*
X51300000Y-91500000D01*
X58800000Y-68200000D02*
X58800000Y-76600000D01*
X59800000Y-50000000D02*
G75*
G03*
X58800000Y-51000000I0J-1000000D01*
G01*
X58800000Y-81500000D02*
G75*
G03*
X59800000Y-82500000I1000000J0D01*
G01*
X54300000Y-94500000D02*
X113300000Y-94500000D01*
X90200000Y-82500000D02*
G75*
G03*
X91200000Y-81500000I0J1000000D01*
G01*
X91200000Y-51000000D02*
G75*
G03*
X90200000Y-50000000I-1000000J0D01*
G01*
X113300000Y-94500000D02*
G75*
G03*
X116300000Y-91500000I0J3000000D01*
G01*
X51300000Y-91500000D02*
G75*
G03*
X54300000Y-94500000I3000000J0D01*
G01*
X54300000Y-38500000D02*
G75*
G03*
X51300000Y-41500000I0J-3000000D01*
G01*
X116300000Y-41500000D02*
G75*
G03*
X113300000Y-38500000I-3000000J0D01*
G01*
X65200000Y-82500000D02*
X84700000Y-82500000D01*
X65600000Y-50000000D02*
X84200000Y-50000000D01*
X91200000Y-65300000D02*
X91200000Y-76500000D01*
X116300000Y-41500000D02*
X116300000Y-91500000D01*
X54300000Y-38500000D02*
X113300000Y-38500000D01*
D11*
X63500000Y-78700000D02*
G75*
G03*
X63500000Y-78700000I-500000J0D01*
G01*
X87500000Y-78700000D02*
G75*
G03*
X87500000Y-78700000I-500000J0D01*
G01*
X87500000Y-54700000D02*
G75*
G03*
X87500000Y-54700000I-500000J0D01*
G01*
X63500000Y-54700000D02*
G75*
G03*
X63500000Y-54700000I-500000J0D01*
G01*
D10*
X60000000Y-76600000D02*
X60000000Y-71200000D01*
X90000000Y-71300000D02*
X90000000Y-76500000D01*
M02*
