%TF.GenerationSoftware,KiCad,Pcbnew,5.1.9+dfsg1-1*%
%TF.CreationDate,2021-12-20T12:13:36+01:00*%
%TF.ProjectId,RaspberryPi_UPS_HAT,52617370-6265-4727-9279-50695f555053,rev?*%
%TF.SameCoordinates,Original*%
%TF.FileFunction,Legend,Top*%
%TF.FilePolarity,Positive*%
%FSLAX46Y46*%
G04 Gerber Fmt 4.6, Leading zero omitted, Abs format (unit mm)*
G04 Created by KiCad (PCBNEW 5.1.9+dfsg1-1) date 2021-12-20 12:13:36*
%MOMM*%
%LPD*%
G01*
G04 APERTURE LIST*
%ADD10C,0.150000*%
%ADD11C,0.010000*%
%ADD12C,0.203200*%
%ADD13C,0.127000*%
%ADD14C,0.120000*%
%ADD15C,0.200000*%
%ADD16C,0.101600*%
%ADD17C,0.177800*%
%ADD18C,0.015000*%
G04 APERTURE END LIST*
D10*
X52483333Y-46627380D02*
X52483333Y-45627380D01*
X52911904Y-46627380D02*
X52911904Y-46103571D01*
X52864285Y-46008333D01*
X52769047Y-45960714D01*
X52626190Y-45960714D01*
X52530952Y-46008333D01*
X52483333Y-46055952D01*
X53245238Y-45960714D02*
X53626190Y-45960714D01*
X53388095Y-45627380D02*
X53388095Y-46484523D01*
X53435714Y-46579761D01*
X53530952Y-46627380D01*
X53626190Y-46627380D01*
X53816666Y-45960714D02*
X54197619Y-45960714D01*
X53959523Y-45627380D02*
X53959523Y-46484523D01*
X54007142Y-46579761D01*
X54102380Y-46627380D01*
X54197619Y-46627380D01*
X54530952Y-45960714D02*
X54530952Y-46960714D01*
X54530952Y-46008333D02*
X54626190Y-45960714D01*
X54816666Y-45960714D01*
X54911904Y-46008333D01*
X54959523Y-46055952D01*
X55007142Y-46151190D01*
X55007142Y-46436904D01*
X54959523Y-46532142D01*
X54911904Y-46579761D01*
X54816666Y-46627380D01*
X54626190Y-46627380D01*
X54530952Y-46579761D01*
X55388095Y-46579761D02*
X55483333Y-46627380D01*
X55673809Y-46627380D01*
X55769047Y-46579761D01*
X55816666Y-46484523D01*
X55816666Y-46436904D01*
X55769047Y-46341666D01*
X55673809Y-46294047D01*
X55530952Y-46294047D01*
X55435714Y-46246428D01*
X55388095Y-46151190D01*
X55388095Y-46103571D01*
X55435714Y-46008333D01*
X55530952Y-45960714D01*
X55673809Y-45960714D01*
X55769047Y-46008333D01*
X56245238Y-46532142D02*
X56292857Y-46579761D01*
X56245238Y-46627380D01*
X56197619Y-46579761D01*
X56245238Y-46532142D01*
X56245238Y-46627380D01*
X56245238Y-46008333D02*
X56292857Y-46055952D01*
X56245238Y-46103571D01*
X56197619Y-46055952D01*
X56245238Y-46008333D01*
X56245238Y-46103571D01*
X57435714Y-45579761D02*
X56578571Y-46865476D01*
X58483333Y-45579761D02*
X57626190Y-46865476D01*
X59245238Y-45960714D02*
X59245238Y-46770238D01*
X59197619Y-46865476D01*
X59150000Y-46913095D01*
X59054761Y-46960714D01*
X58911904Y-46960714D01*
X58816666Y-46913095D01*
X59245238Y-46579761D02*
X59150000Y-46627380D01*
X58959523Y-46627380D01*
X58864285Y-46579761D01*
X58816666Y-46532142D01*
X58769047Y-46436904D01*
X58769047Y-46151190D01*
X58816666Y-46055952D01*
X58864285Y-46008333D01*
X58959523Y-45960714D01*
X59150000Y-45960714D01*
X59245238Y-46008333D01*
X59721428Y-46627380D02*
X59721428Y-45960714D01*
X59721428Y-45627380D02*
X59673809Y-45675000D01*
X59721428Y-45722619D01*
X59769047Y-45675000D01*
X59721428Y-45627380D01*
X59721428Y-45722619D01*
X60054761Y-45960714D02*
X60435714Y-45960714D01*
X60197619Y-45627380D02*
X60197619Y-46484523D01*
X60245238Y-46579761D01*
X60340476Y-46627380D01*
X60435714Y-46627380D01*
X60769047Y-46627380D02*
X60769047Y-45627380D01*
X61197619Y-46627380D02*
X61197619Y-46103571D01*
X61150000Y-46008333D01*
X61054761Y-45960714D01*
X60911904Y-45960714D01*
X60816666Y-46008333D01*
X60769047Y-46055952D01*
X62102380Y-45960714D02*
X62102380Y-46627380D01*
X61673809Y-45960714D02*
X61673809Y-46484523D01*
X61721428Y-46579761D01*
X61816666Y-46627380D01*
X61959523Y-46627380D01*
X62054761Y-46579761D01*
X62102380Y-46532142D01*
X62578571Y-46627380D02*
X62578571Y-45627380D01*
X62578571Y-46008333D02*
X62673809Y-45960714D01*
X62864285Y-45960714D01*
X62959523Y-46008333D01*
X63007142Y-46055952D01*
X63054761Y-46151190D01*
X63054761Y-46436904D01*
X63007142Y-46532142D01*
X62959523Y-46579761D01*
X62864285Y-46627380D01*
X62673809Y-46627380D01*
X62578571Y-46579761D01*
X63483333Y-46532142D02*
X63530952Y-46579761D01*
X63483333Y-46627380D01*
X63435714Y-46579761D01*
X63483333Y-46532142D01*
X63483333Y-46627380D01*
X64388095Y-46579761D02*
X64292857Y-46627380D01*
X64102380Y-46627380D01*
X64007142Y-46579761D01*
X63959523Y-46532142D01*
X63911904Y-46436904D01*
X63911904Y-46151190D01*
X63959523Y-46055952D01*
X64007142Y-46008333D01*
X64102380Y-45960714D01*
X64292857Y-45960714D01*
X64388095Y-46008333D01*
X64959523Y-46627380D02*
X64864285Y-46579761D01*
X64816666Y-46532142D01*
X64769047Y-46436904D01*
X64769047Y-46151190D01*
X64816666Y-46055952D01*
X64864285Y-46008333D01*
X64959523Y-45960714D01*
X65102380Y-45960714D01*
X65197619Y-46008333D01*
X65245238Y-46055952D01*
X65292857Y-46151190D01*
X65292857Y-46436904D01*
X65245238Y-46532142D01*
X65197619Y-46579761D01*
X65102380Y-46627380D01*
X64959523Y-46627380D01*
X65721428Y-46627380D02*
X65721428Y-45960714D01*
X65721428Y-46055952D02*
X65769047Y-46008333D01*
X65864285Y-45960714D01*
X66007142Y-45960714D01*
X66102380Y-46008333D01*
X66150000Y-46103571D01*
X66150000Y-46627380D01*
X66150000Y-46103571D02*
X66197619Y-46008333D01*
X66292857Y-45960714D01*
X66435714Y-45960714D01*
X66530952Y-46008333D01*
X66578571Y-46103571D01*
X66578571Y-46627380D01*
X67769047Y-45579761D02*
X66911904Y-46865476D01*
X68530952Y-45960714D02*
X68530952Y-46770238D01*
X68483333Y-46865476D01*
X68435714Y-46913095D01*
X68340476Y-46960714D01*
X68197619Y-46960714D01*
X68102380Y-46913095D01*
X68530952Y-46579761D02*
X68435714Y-46627380D01*
X68245238Y-46627380D01*
X68150000Y-46579761D01*
X68102380Y-46532142D01*
X68054761Y-46436904D01*
X68054761Y-46151190D01*
X68102380Y-46055952D01*
X68150000Y-46008333D01*
X68245238Y-45960714D01*
X68435714Y-45960714D01*
X68530952Y-46008333D01*
X68911904Y-45960714D02*
X69150000Y-46627380D01*
X69388095Y-45960714D01*
X69911904Y-46627380D02*
X69816666Y-46579761D01*
X69769047Y-46532142D01*
X69721428Y-46436904D01*
X69721428Y-46151190D01*
X69769047Y-46055952D01*
X69816666Y-46008333D01*
X69911904Y-45960714D01*
X70054761Y-45960714D01*
X70150000Y-46008333D01*
X70197619Y-46055952D01*
X70245238Y-46151190D01*
X70245238Y-46436904D01*
X70197619Y-46532142D01*
X70150000Y-46579761D01*
X70054761Y-46627380D01*
X69911904Y-46627380D01*
X70673809Y-46627380D02*
X70673809Y-45960714D01*
X70673809Y-45627380D02*
X70626190Y-45675000D01*
X70673809Y-45722619D01*
X70721428Y-45675000D01*
X70673809Y-45627380D01*
X70673809Y-45722619D01*
X71578571Y-45960714D02*
X71578571Y-46770238D01*
X71530952Y-46865476D01*
X71483333Y-46913095D01*
X71388095Y-46960714D01*
X71245238Y-46960714D01*
X71150000Y-46913095D01*
X71578571Y-46579761D02*
X71483333Y-46627380D01*
X71292857Y-46627380D01*
X71197619Y-46579761D01*
X71150000Y-46532142D01*
X71102380Y-46436904D01*
X71102380Y-46151190D01*
X71150000Y-46055952D01*
X71197619Y-46008333D01*
X71292857Y-45960714D01*
X71483333Y-45960714D01*
X71578571Y-46008333D01*
X71911904Y-45960714D02*
X72292857Y-45960714D01*
X72054761Y-45627380D02*
X72054761Y-46484523D01*
X72102380Y-46579761D01*
X72197619Y-46627380D01*
X72292857Y-46627380D01*
X72769047Y-46627380D02*
X72673809Y-46579761D01*
X72626190Y-46484523D01*
X72626190Y-45627380D01*
X73578571Y-46627380D02*
X73578571Y-46103571D01*
X73530952Y-46008333D01*
X73435714Y-45960714D01*
X73245238Y-45960714D01*
X73150000Y-46008333D01*
X73578571Y-46579761D02*
X73483333Y-46627380D01*
X73245238Y-46627380D01*
X73150000Y-46579761D01*
X73102380Y-46484523D01*
X73102380Y-46389285D01*
X73150000Y-46294047D01*
X73245238Y-46246428D01*
X73483333Y-46246428D01*
X73578571Y-46198809D01*
X74435714Y-46579761D02*
X74340476Y-46627380D01*
X74150000Y-46627380D01*
X74054761Y-46579761D01*
X74007142Y-46484523D01*
X74007142Y-46103571D01*
X74054761Y-46008333D01*
X74150000Y-45960714D01*
X74340476Y-45960714D01*
X74435714Y-46008333D01*
X74483333Y-46103571D01*
X74483333Y-46198809D01*
X74007142Y-46294047D01*
X74911904Y-45960714D02*
X74911904Y-46627380D01*
X74911904Y-46055952D02*
X74959523Y-46008333D01*
X75054761Y-45960714D01*
X75197619Y-45960714D01*
X75292857Y-46008333D01*
X75340476Y-46103571D01*
X75340476Y-46627380D01*
X76245238Y-46627380D02*
X76245238Y-45627380D01*
X76245238Y-46579761D02*
X76150000Y-46627380D01*
X75959523Y-46627380D01*
X75864285Y-46579761D01*
X75816666Y-46532142D01*
X75769047Y-46436904D01*
X75769047Y-46151190D01*
X75816666Y-46055952D01*
X75864285Y-46008333D01*
X75959523Y-45960714D01*
X76150000Y-45960714D01*
X76245238Y-46008333D01*
X77102380Y-46579761D02*
X77007142Y-46627380D01*
X76816666Y-46627380D01*
X76721428Y-46579761D01*
X76673809Y-46484523D01*
X76673809Y-46103571D01*
X76721428Y-46008333D01*
X76816666Y-45960714D01*
X77007142Y-45960714D01*
X77102380Y-46008333D01*
X77150000Y-46103571D01*
X77150000Y-46198809D01*
X76673809Y-46294047D01*
X77578571Y-46627380D02*
X77578571Y-45960714D01*
X77578571Y-46151190D02*
X77626190Y-46055952D01*
X77673809Y-46008333D01*
X77769047Y-45960714D01*
X77864285Y-45960714D01*
X78911904Y-45579761D02*
X78054761Y-46865476D01*
X79816666Y-46627380D02*
X79483333Y-46151190D01*
X79245238Y-46627380D02*
X79245238Y-45627380D01*
X79626190Y-45627380D01*
X79721428Y-45675000D01*
X79769047Y-45722619D01*
X79816666Y-45817857D01*
X79816666Y-45960714D01*
X79769047Y-46055952D01*
X79721428Y-46103571D01*
X79626190Y-46151190D01*
X79245238Y-46151190D01*
X80673809Y-46627380D02*
X80673809Y-46103571D01*
X80626190Y-46008333D01*
X80530952Y-45960714D01*
X80340476Y-45960714D01*
X80245238Y-46008333D01*
X80673809Y-46579761D02*
X80578571Y-46627380D01*
X80340476Y-46627380D01*
X80245238Y-46579761D01*
X80197619Y-46484523D01*
X80197619Y-46389285D01*
X80245238Y-46294047D01*
X80340476Y-46246428D01*
X80578571Y-46246428D01*
X80673809Y-46198809D01*
X81102380Y-46579761D02*
X81197619Y-46627380D01*
X81388095Y-46627380D01*
X81483333Y-46579761D01*
X81530952Y-46484523D01*
X81530952Y-46436904D01*
X81483333Y-46341666D01*
X81388095Y-46294047D01*
X81245238Y-46294047D01*
X81150000Y-46246428D01*
X81102380Y-46151190D01*
X81102380Y-46103571D01*
X81150000Y-46008333D01*
X81245238Y-45960714D01*
X81388095Y-45960714D01*
X81483333Y-46008333D01*
X81959523Y-45960714D02*
X81959523Y-46960714D01*
X81959523Y-46008333D02*
X82054761Y-45960714D01*
X82245238Y-45960714D01*
X82340476Y-46008333D01*
X82388095Y-46055952D01*
X82435714Y-46151190D01*
X82435714Y-46436904D01*
X82388095Y-46532142D01*
X82340476Y-46579761D01*
X82245238Y-46627380D01*
X82054761Y-46627380D01*
X81959523Y-46579761D01*
X82864285Y-46627380D02*
X82864285Y-45627380D01*
X82864285Y-46008333D02*
X82959523Y-45960714D01*
X83149999Y-45960714D01*
X83245238Y-46008333D01*
X83292857Y-46055952D01*
X83340476Y-46151190D01*
X83340476Y-46436904D01*
X83292857Y-46532142D01*
X83245238Y-46579761D01*
X83149999Y-46627380D01*
X82959523Y-46627380D01*
X82864285Y-46579761D01*
X84149999Y-46579761D02*
X84054761Y-46627380D01*
X83864285Y-46627380D01*
X83769047Y-46579761D01*
X83721428Y-46484523D01*
X83721428Y-46103571D01*
X83769047Y-46008333D01*
X83864285Y-45960714D01*
X84054761Y-45960714D01*
X84149999Y-46008333D01*
X84197619Y-46103571D01*
X84197619Y-46198809D01*
X83721428Y-46294047D01*
X84626190Y-46627380D02*
X84626190Y-45960714D01*
X84626190Y-46151190D02*
X84673809Y-46055952D01*
X84721428Y-46008333D01*
X84816666Y-45960714D01*
X84911904Y-45960714D01*
X85245238Y-46627380D02*
X85245238Y-45960714D01*
X85245238Y-46151190D02*
X85292857Y-46055952D01*
X85340476Y-46008333D01*
X85435714Y-45960714D01*
X85530952Y-45960714D01*
X85769047Y-45960714D02*
X86007142Y-46627380D01*
X86245238Y-45960714D02*
X86007142Y-46627380D01*
X85911904Y-46865476D01*
X85864285Y-46913095D01*
X85769047Y-46960714D01*
X86626190Y-46627380D02*
X86626190Y-45627380D01*
X87007142Y-45627380D01*
X87102380Y-45675000D01*
X87150000Y-45722619D01*
X87197619Y-45817857D01*
X87197619Y-45960714D01*
X87150000Y-46055952D01*
X87102380Y-46103571D01*
X87007142Y-46151190D01*
X86626190Y-46151190D01*
X87626190Y-46627380D02*
X87626190Y-45960714D01*
X87626190Y-45627380D02*
X87578571Y-45675000D01*
X87626190Y-45722619D01*
X87673809Y-45675000D01*
X87626190Y-45627380D01*
X87626190Y-45722619D01*
X87864285Y-46722619D02*
X88626190Y-46722619D01*
X88864285Y-45627380D02*
X88864285Y-46436904D01*
X88911904Y-46532142D01*
X88959523Y-46579761D01*
X89054761Y-46627380D01*
X89245238Y-46627380D01*
X89340476Y-46579761D01*
X89388095Y-46532142D01*
X89435714Y-46436904D01*
X89435714Y-45627380D01*
X89911904Y-46627380D02*
X89911904Y-45627380D01*
X90292857Y-45627380D01*
X90388095Y-45675000D01*
X90435714Y-45722619D01*
X90483333Y-45817857D01*
X90483333Y-45960714D01*
X90435714Y-46055952D01*
X90388095Y-46103571D01*
X90292857Y-46151190D01*
X89911904Y-46151190D01*
X90864285Y-46579761D02*
X91007142Y-46627380D01*
X91245238Y-46627380D01*
X91340476Y-46579761D01*
X91388095Y-46532142D01*
X91435714Y-46436904D01*
X91435714Y-46341666D01*
X91388095Y-46246428D01*
X91340476Y-46198809D01*
X91245238Y-46151190D01*
X91054761Y-46103571D01*
X90959523Y-46055952D01*
X90911904Y-46008333D01*
X90864285Y-45913095D01*
X90864285Y-45817857D01*
X90911904Y-45722619D01*
X90959523Y-45675000D01*
X91054761Y-45627380D01*
X91292857Y-45627380D01*
X91435714Y-45675000D01*
X91626190Y-46722619D02*
X92388095Y-46722619D01*
X92626190Y-46627380D02*
X92626190Y-45627380D01*
X92626190Y-46103571D02*
X93197619Y-46103571D01*
X93197619Y-46627380D02*
X93197619Y-45627380D01*
X93626190Y-46341666D02*
X94102380Y-46341666D01*
X93530952Y-46627380D02*
X93864285Y-45627380D01*
X94197619Y-46627380D01*
X94388095Y-45627380D02*
X94959523Y-45627380D01*
X94673809Y-46627380D02*
X94673809Y-45627380D01*
X65721428Y-47372619D02*
X65769047Y-47325000D01*
X65864285Y-47277380D01*
X66102380Y-47277380D01*
X66197619Y-47325000D01*
X66245238Y-47372619D01*
X66292857Y-47467857D01*
X66292857Y-47563095D01*
X66245238Y-47705952D01*
X65673809Y-48277380D01*
X66292857Y-48277380D01*
X66911904Y-47277380D02*
X67007142Y-47277380D01*
X67102380Y-47325000D01*
X67150000Y-47372619D01*
X67197619Y-47467857D01*
X67245238Y-47658333D01*
X67245238Y-47896428D01*
X67197619Y-48086904D01*
X67150000Y-48182142D01*
X67102380Y-48229761D01*
X67007142Y-48277380D01*
X66911904Y-48277380D01*
X66816666Y-48229761D01*
X66769047Y-48182142D01*
X66721428Y-48086904D01*
X66673809Y-47896428D01*
X66673809Y-47658333D01*
X66721428Y-47467857D01*
X66769047Y-47372619D01*
X66816666Y-47325000D01*
X66911904Y-47277380D01*
X67626190Y-47372619D02*
X67673809Y-47325000D01*
X67769047Y-47277380D01*
X68007142Y-47277380D01*
X68102380Y-47325000D01*
X68150000Y-47372619D01*
X68197619Y-47467857D01*
X68197619Y-47563095D01*
X68150000Y-47705952D01*
X67578571Y-48277380D01*
X68197619Y-48277380D01*
X69150000Y-48277380D02*
X68578571Y-48277380D01*
X68864285Y-48277380D02*
X68864285Y-47277380D01*
X68769047Y-47420238D01*
X68673809Y-47515476D01*
X68578571Y-47563095D01*
X69578571Y-47896428D02*
X70340476Y-47896428D01*
X71340476Y-48277380D02*
X70769047Y-48277380D01*
X71054761Y-48277380D02*
X71054761Y-47277380D01*
X70959523Y-47420238D01*
X70864285Y-47515476D01*
X70769047Y-47563095D01*
X71721428Y-47372619D02*
X71769047Y-47325000D01*
X71864285Y-47277380D01*
X72102380Y-47277380D01*
X72197619Y-47325000D01*
X72245238Y-47372619D01*
X72292857Y-47467857D01*
X72292857Y-47563095D01*
X72245238Y-47705952D01*
X71673809Y-48277380D01*
X72292857Y-48277380D01*
X72721428Y-47896428D02*
X73483333Y-47896428D01*
X73911904Y-47372619D02*
X73959523Y-47325000D01*
X74054761Y-47277380D01*
X74292857Y-47277380D01*
X74388095Y-47325000D01*
X74435714Y-47372619D01*
X74483333Y-47467857D01*
X74483333Y-47563095D01*
X74435714Y-47705952D01*
X73864285Y-48277380D01*
X74483333Y-48277380D01*
X75102380Y-47277380D02*
X75197619Y-47277380D01*
X75292857Y-47325000D01*
X75340476Y-47372619D01*
X75388095Y-47467857D01*
X75435714Y-47658333D01*
X75435714Y-47896428D01*
X75388095Y-48086904D01*
X75340476Y-48182142D01*
X75292857Y-48229761D01*
X75197619Y-48277380D01*
X75102380Y-48277380D01*
X75007142Y-48229761D01*
X74959523Y-48182142D01*
X74911904Y-48086904D01*
X74864285Y-47896428D01*
X74864285Y-47658333D01*
X74911904Y-47467857D01*
X74959523Y-47372619D01*
X75007142Y-47325000D01*
X75102380Y-47277380D01*
X76626190Y-48277380D02*
X76626190Y-47610714D01*
X76626190Y-47801190D02*
X76673809Y-47705952D01*
X76721428Y-47658333D01*
X76816666Y-47610714D01*
X76911904Y-47610714D01*
X77626190Y-48229761D02*
X77530952Y-48277380D01*
X77340476Y-48277380D01*
X77245238Y-48229761D01*
X77197619Y-48134523D01*
X77197619Y-47753571D01*
X77245238Y-47658333D01*
X77340476Y-47610714D01*
X77530952Y-47610714D01*
X77626190Y-47658333D01*
X77673809Y-47753571D01*
X77673809Y-47848809D01*
X77197619Y-47944047D01*
X78007142Y-47610714D02*
X78245238Y-48277380D01*
X78483333Y-47610714D01*
X79816666Y-47277380D02*
X79911904Y-47277380D01*
X80007142Y-47325000D01*
X80054761Y-47372619D01*
X80102380Y-47467857D01*
X80150000Y-47658333D01*
X80150000Y-47896428D01*
X80102380Y-48086904D01*
X80054761Y-48182142D01*
X80007142Y-48229761D01*
X79911904Y-48277380D01*
X79816666Y-48277380D01*
X79721428Y-48229761D01*
X79673809Y-48182142D01*
X79626190Y-48086904D01*
X79578571Y-47896428D01*
X79578571Y-47658333D01*
X79626190Y-47467857D01*
X79673809Y-47372619D01*
X79721428Y-47325000D01*
X79816666Y-47277380D01*
X80578571Y-48182142D02*
X80626190Y-48229761D01*
X80578571Y-48277380D01*
X80530952Y-48229761D01*
X80578571Y-48182142D01*
X80578571Y-48277380D01*
X80959523Y-47277380D02*
X81578571Y-47277380D01*
X81245238Y-47658333D01*
X81388095Y-47658333D01*
X81483333Y-47705952D01*
X81530952Y-47753571D01*
X81578571Y-47848809D01*
X81578571Y-48086904D01*
X81530952Y-48182142D01*
X81483333Y-48229761D01*
X81388095Y-48277380D01*
X81102380Y-48277380D01*
X81007142Y-48229761D01*
X80959523Y-48182142D01*
X94416666Y-64678571D02*
X94559523Y-64726190D01*
X94607142Y-64773809D01*
X94654761Y-64869047D01*
X94654761Y-65011904D01*
X94607142Y-65107142D01*
X94559523Y-65154761D01*
X94464285Y-65202380D01*
X94083333Y-65202380D01*
X94083333Y-64202380D01*
X94416666Y-64202380D01*
X94511904Y-64250000D01*
X94559523Y-64297619D01*
X94607142Y-64392857D01*
X94607142Y-64488095D01*
X94559523Y-64583333D01*
X94511904Y-64630952D01*
X94416666Y-64678571D01*
X94083333Y-64678571D01*
X94940476Y-64202380D02*
X95511904Y-64202380D01*
X95226190Y-65202380D02*
X95226190Y-64202380D01*
X95845238Y-65202380D02*
X95845238Y-64202380D01*
X96416666Y-65202380D01*
X96416666Y-64202380D01*
X52095238Y-60452380D02*
X52714285Y-60452380D01*
X52380952Y-60833333D01*
X52523809Y-60833333D01*
X52619047Y-60880952D01*
X52666666Y-60928571D01*
X52714285Y-61023809D01*
X52714285Y-61261904D01*
X52666666Y-61357142D01*
X52619047Y-61404761D01*
X52523809Y-61452380D01*
X52238095Y-61452380D01*
X52142857Y-61404761D01*
X52095238Y-61357142D01*
X53000000Y-60452380D02*
X53333333Y-61452380D01*
X53666666Y-60452380D01*
X53904761Y-60452380D02*
X54523809Y-60452380D01*
X54190476Y-60833333D01*
X54333333Y-60833333D01*
X54428571Y-60880952D01*
X54476190Y-60928571D01*
X54523809Y-61023809D01*
X54523809Y-61261904D01*
X54476190Y-61357142D01*
X54428571Y-61404761D01*
X54333333Y-61452380D01*
X54047619Y-61452380D01*
X53952380Y-61404761D01*
X53904761Y-61357142D01*
X56952380Y-60452380D02*
X56476190Y-60452380D01*
X56428571Y-60928571D01*
X56476190Y-60880952D01*
X56571428Y-60833333D01*
X56809523Y-60833333D01*
X56904761Y-60880952D01*
X56952380Y-60928571D01*
X57000000Y-61023809D01*
X57000000Y-61261904D01*
X56952380Y-61357142D01*
X56904761Y-61404761D01*
X56809523Y-61452380D01*
X56571428Y-61452380D01*
X56476190Y-61404761D01*
X56428571Y-61357142D01*
X57285714Y-60452380D02*
X57619047Y-61452380D01*
X57952380Y-60452380D01*
X102188095Y-63852380D02*
X102759523Y-63852380D01*
X102473809Y-64852380D02*
X102473809Y-63852380D01*
X102997619Y-63852380D02*
X103664285Y-64852380D01*
X103664285Y-63852380D02*
X102997619Y-64852380D01*
X57219047Y-83371428D02*
X57980952Y-83371428D01*
X57600000Y-83752380D02*
X57600000Y-82990476D01*
D11*
%TO.C,REF\u002A\u002A*%
G36*
X100453600Y-88139054D02*
G01*
X100464465Y-88252993D01*
X100496082Y-88360616D01*
X100546985Y-88459615D01*
X100615707Y-88547684D01*
X100700781Y-88622516D01*
X100797768Y-88680384D01*
X100904036Y-88720005D01*
X101011050Y-88738573D01*
X101116700Y-88737434D01*
X101218875Y-88717930D01*
X101315466Y-88681406D01*
X101404362Y-88629205D01*
X101483454Y-88562673D01*
X101550631Y-88483152D01*
X101603783Y-88391987D01*
X101640801Y-88290523D01*
X101659573Y-88180102D01*
X101661511Y-88130206D01*
X101661511Y-88042267D01*
X101713440Y-88042267D01*
X101749747Y-88045111D01*
X101776645Y-88056911D01*
X101803751Y-88080649D01*
X101842133Y-88119031D01*
X101842133Y-90310602D01*
X101842124Y-90572739D01*
X101842092Y-90813241D01*
X101842028Y-91033048D01*
X101841924Y-91233101D01*
X101841773Y-91414344D01*
X101841566Y-91577716D01*
X101841294Y-91724160D01*
X101840950Y-91854617D01*
X101840526Y-91970029D01*
X101840013Y-92071338D01*
X101839403Y-92159484D01*
X101838688Y-92235410D01*
X101837860Y-92300057D01*
X101836911Y-92354367D01*
X101835833Y-92399280D01*
X101834617Y-92435740D01*
X101833255Y-92464687D01*
X101831739Y-92487063D01*
X101830062Y-92503809D01*
X101828214Y-92515868D01*
X101826187Y-92524180D01*
X101823975Y-92529687D01*
X101822892Y-92531537D01*
X101818729Y-92538549D01*
X101815195Y-92544996D01*
X101811365Y-92550900D01*
X101806318Y-92556286D01*
X101799129Y-92561178D01*
X101788877Y-92565598D01*
X101774636Y-92569572D01*
X101755486Y-92573121D01*
X101730501Y-92576270D01*
X101698760Y-92579042D01*
X101659338Y-92581461D01*
X101611314Y-92583551D01*
X101553763Y-92585335D01*
X101485763Y-92586837D01*
X101406390Y-92588080D01*
X101314721Y-92589089D01*
X101209834Y-92589885D01*
X101090804Y-92590494D01*
X100956710Y-92590939D01*
X100806627Y-92591243D01*
X100639633Y-92591430D01*
X100454804Y-92591524D01*
X100251217Y-92591548D01*
X100027950Y-92591525D01*
X99784078Y-92591480D01*
X99518679Y-92591437D01*
X99480296Y-92591432D01*
X99213318Y-92591389D01*
X98967998Y-92591318D01*
X98743417Y-92591213D01*
X98538655Y-92591066D01*
X98352794Y-92590869D01*
X98184912Y-92590616D01*
X98034092Y-92590300D01*
X97899413Y-92589913D01*
X97779956Y-92589447D01*
X97674801Y-92588897D01*
X97583029Y-92588253D01*
X97503721Y-92587511D01*
X97435957Y-92586661D01*
X97378818Y-92585697D01*
X97331383Y-92584611D01*
X97292734Y-92583397D01*
X97261951Y-92582047D01*
X97238115Y-92580555D01*
X97220306Y-92578911D01*
X97207605Y-92577111D01*
X97199092Y-92575145D01*
X97194734Y-92573477D01*
X97186272Y-92569906D01*
X97178503Y-92567270D01*
X97171398Y-92564634D01*
X97164927Y-92561062D01*
X97159061Y-92555621D01*
X97153771Y-92547375D01*
X97149026Y-92535390D01*
X97144798Y-92518731D01*
X97141057Y-92496463D01*
X97137773Y-92467652D01*
X97134917Y-92431363D01*
X97132460Y-92386661D01*
X97130371Y-92332611D01*
X97128622Y-92268279D01*
X97127183Y-92192730D01*
X97126024Y-92105030D01*
X97125117Y-92004243D01*
X97124431Y-91889434D01*
X97123937Y-91759670D01*
X97123605Y-91614015D01*
X97123407Y-91451535D01*
X97123313Y-91271295D01*
X97123292Y-91072360D01*
X97123315Y-90853796D01*
X97123354Y-90614668D01*
X97123378Y-90354040D01*
X97123378Y-90311889D01*
X97123364Y-90048992D01*
X97123339Y-89807732D01*
X97123329Y-89587165D01*
X97123358Y-89386352D01*
X97123452Y-89204349D01*
X97123638Y-89040216D01*
X97123941Y-88893011D01*
X97124386Y-88761792D01*
X97124966Y-88651867D01*
X97427803Y-88651867D01*
X97467593Y-88709711D01*
X97478764Y-88725479D01*
X97488834Y-88739441D01*
X97497862Y-88752784D01*
X97505903Y-88766693D01*
X97513014Y-88782356D01*
X97519253Y-88800958D01*
X97524675Y-88823686D01*
X97529338Y-88851727D01*
X97533299Y-88886267D01*
X97536615Y-88928492D01*
X97539341Y-88979589D01*
X97541536Y-89040744D01*
X97543255Y-89113144D01*
X97544556Y-89197975D01*
X97545495Y-89296422D01*
X97546130Y-89409674D01*
X97546516Y-89538916D01*
X97546712Y-89685334D01*
X97546773Y-89850116D01*
X97546757Y-90034447D01*
X97546720Y-90239513D01*
X97546711Y-90362133D01*
X97546735Y-90579082D01*
X97546769Y-90774642D01*
X97546757Y-90949999D01*
X97546642Y-91106341D01*
X97546370Y-91244857D01*
X97545882Y-91366734D01*
X97545124Y-91473160D01*
X97544038Y-91565322D01*
X97542569Y-91644409D01*
X97540660Y-91711608D01*
X97538256Y-91768107D01*
X97535299Y-91815093D01*
X97531734Y-91853755D01*
X97527505Y-91885280D01*
X97522554Y-91910855D01*
X97516827Y-91931670D01*
X97510267Y-91948911D01*
X97502817Y-91963765D01*
X97494421Y-91977422D01*
X97485024Y-91991069D01*
X97474568Y-92005893D01*
X97468477Y-92014783D01*
X97429704Y-92072400D01*
X97961268Y-92072400D01*
X98084517Y-92072365D01*
X98187013Y-92072215D01*
X98270580Y-92071878D01*
X98337044Y-92071286D01*
X98388229Y-92070367D01*
X98425959Y-92069051D01*
X98452060Y-92067269D01*
X98468356Y-92064951D01*
X98476672Y-92062026D01*
X98478832Y-92058424D01*
X98476661Y-92054075D01*
X98475465Y-92052645D01*
X98450315Y-92015573D01*
X98424417Y-91962772D01*
X98400808Y-91900770D01*
X98392539Y-91874357D01*
X98387922Y-91856416D01*
X98384021Y-91835355D01*
X98380752Y-91809089D01*
X98378034Y-91775532D01*
X98375785Y-91732599D01*
X98373923Y-91678204D01*
X98372364Y-91610262D01*
X98371028Y-91526688D01*
X98369831Y-91425395D01*
X98368692Y-91304300D01*
X98368315Y-91259600D01*
X98367298Y-91134449D01*
X98366540Y-91030082D01*
X98366097Y-90944707D01*
X98366030Y-90876533D01*
X98366395Y-90823765D01*
X98367252Y-90784614D01*
X98368659Y-90757285D01*
X98370675Y-90739986D01*
X98373357Y-90730926D01*
X98376764Y-90728312D01*
X98380956Y-90730351D01*
X98385429Y-90734667D01*
X98395784Y-90747602D01*
X98417842Y-90776676D01*
X98450043Y-90819759D01*
X98490826Y-90874718D01*
X98538630Y-90939423D01*
X98591895Y-91011742D01*
X98649060Y-91089544D01*
X98708563Y-91170698D01*
X98768845Y-91253072D01*
X98828345Y-91334536D01*
X98885502Y-91412957D01*
X98938755Y-91486204D01*
X98986543Y-91552147D01*
X99027307Y-91608654D01*
X99059484Y-91653593D01*
X99081515Y-91684834D01*
X99086083Y-91691466D01*
X99109004Y-91728369D01*
X99135812Y-91776359D01*
X99161211Y-91825897D01*
X99164432Y-91832577D01*
X99186110Y-91880772D01*
X99198696Y-91918334D01*
X99204426Y-91954160D01*
X99205544Y-91996200D01*
X99204910Y-92072400D01*
X100359349Y-92072400D01*
X100268185Y-91978669D01*
X100221388Y-91928775D01*
X100171101Y-91872295D01*
X100125056Y-91818026D01*
X100104631Y-91792673D01*
X100074193Y-91753128D01*
X100034138Y-91699916D01*
X99985639Y-91634667D01*
X99929865Y-91559011D01*
X99867989Y-91474577D01*
X99801181Y-91382994D01*
X99730613Y-91285892D01*
X99657455Y-91184901D01*
X99582879Y-91081650D01*
X99508056Y-90977768D01*
X99434157Y-90874885D01*
X99362354Y-90774631D01*
X99293816Y-90678636D01*
X99229716Y-90588527D01*
X99171225Y-90505936D01*
X99119514Y-90432492D01*
X99075753Y-90369824D01*
X99041115Y-90319561D01*
X99016770Y-90283334D01*
X99003889Y-90262771D01*
X99002131Y-90258668D01*
X99010090Y-90247342D01*
X99030885Y-90220162D01*
X99063153Y-90178829D01*
X99105530Y-90125044D01*
X99156653Y-90060506D01*
X99215159Y-89986918D01*
X99279686Y-89905978D01*
X99348869Y-89819388D01*
X99421347Y-89728848D01*
X99495754Y-89636060D01*
X99555483Y-89561702D01*
X100566489Y-89561702D01*
X100572398Y-89574659D01*
X100586728Y-89596908D01*
X100587775Y-89598391D01*
X100606562Y-89628544D01*
X100626209Y-89665375D01*
X100630108Y-89673511D01*
X100633644Y-89681940D01*
X100636770Y-89692059D01*
X100639514Y-89705260D01*
X100641908Y-89722938D01*
X100643981Y-89746484D01*
X100645765Y-89777293D01*
X100647288Y-89816757D01*
X100648581Y-89866269D01*
X100649674Y-89927223D01*
X100650597Y-90001011D01*
X100651381Y-90089028D01*
X100652055Y-90192665D01*
X100652650Y-90313316D01*
X100653195Y-90452374D01*
X100653721Y-90611232D01*
X100654255Y-90790089D01*
X100654794Y-90975207D01*
X100655228Y-91139145D01*
X100655491Y-91283303D01*
X100655516Y-91409079D01*
X100655235Y-91517871D01*
X100654581Y-91611077D01*
X100653486Y-91690097D01*
X100651882Y-91756328D01*
X100649703Y-91811170D01*
X100646881Y-91856021D01*
X100643349Y-91892278D01*
X100639039Y-91921341D01*
X100633883Y-91944609D01*
X100627815Y-91963479D01*
X100620767Y-91979351D01*
X100612671Y-91993622D01*
X100603460Y-92007691D01*
X100594960Y-92020158D01*
X100577824Y-92046452D01*
X100567678Y-92064037D01*
X100566489Y-92067257D01*
X100577396Y-92068334D01*
X100608589Y-92069335D01*
X100657777Y-92070235D01*
X100722667Y-92071010D01*
X100800970Y-92071637D01*
X100890393Y-92072091D01*
X100988644Y-92072349D01*
X101057555Y-92072400D01*
X101162548Y-92072180D01*
X101259390Y-92071548D01*
X101345893Y-92070549D01*
X101419868Y-92069227D01*
X101479126Y-92067626D01*
X101521480Y-92065791D01*
X101544740Y-92063765D01*
X101548622Y-92062493D01*
X101540924Y-92047591D01*
X101532926Y-92039560D01*
X101519754Y-92022434D01*
X101502515Y-91992183D01*
X101490593Y-91967622D01*
X101463955Y-91908711D01*
X101460880Y-90731845D01*
X101457805Y-89554978D01*
X101012147Y-89554978D01*
X100914330Y-89555142D01*
X100823936Y-89555611D01*
X100743370Y-89556347D01*
X100675038Y-89557316D01*
X100621344Y-89558480D01*
X100584695Y-89559803D01*
X100567496Y-89561249D01*
X100566489Y-89561702D01*
X99555483Y-89561702D01*
X99570730Y-89542722D01*
X99644910Y-89450537D01*
X99716931Y-89361204D01*
X99785431Y-89276424D01*
X99849045Y-89197898D01*
X99906412Y-89127326D01*
X99956167Y-89066409D01*
X99996948Y-89016847D01*
X100014112Y-88996178D01*
X100100404Y-88895516D01*
X100177003Y-88812259D01*
X100245817Y-88744438D01*
X100308752Y-88690089D01*
X100318133Y-88682722D01*
X100357644Y-88652117D01*
X99225884Y-88651867D01*
X99231173Y-88699844D01*
X99227870Y-88757188D01*
X99206339Y-88825463D01*
X99166365Y-88905212D01*
X99121057Y-88977495D01*
X99104839Y-89000140D01*
X99076786Y-89037696D01*
X99038570Y-89088021D01*
X98991863Y-89148973D01*
X98938339Y-89218411D01*
X98879669Y-89294194D01*
X98817525Y-89374180D01*
X98753579Y-89456228D01*
X98689505Y-89538196D01*
X98626973Y-89617943D01*
X98567657Y-89693327D01*
X98513229Y-89762207D01*
X98465361Y-89822442D01*
X98425725Y-89871889D01*
X98395994Y-89908408D01*
X98377839Y-89929858D01*
X98374780Y-89933156D01*
X98371921Y-89925149D01*
X98369707Y-89894855D01*
X98368143Y-89842556D01*
X98367233Y-89768531D01*
X98366980Y-89673063D01*
X98367387Y-89556434D01*
X98368296Y-89436445D01*
X98369618Y-89304333D01*
X98371143Y-89192594D01*
X98373119Y-89099025D01*
X98375794Y-89021419D01*
X98379418Y-88957574D01*
X98384239Y-88905283D01*
X98390506Y-88862344D01*
X98398468Y-88826551D01*
X98408373Y-88795700D01*
X98420469Y-88767586D01*
X98435007Y-88740005D01*
X98449689Y-88714966D01*
X98487686Y-88651867D01*
X97427803Y-88651867D01*
X97124966Y-88651867D01*
X97124999Y-88645617D01*
X97125805Y-88543544D01*
X97126830Y-88454633D01*
X97128100Y-88377941D01*
X97129640Y-88312527D01*
X97131476Y-88257449D01*
X97133633Y-88211765D01*
X97136137Y-88174534D01*
X97139013Y-88144813D01*
X97142287Y-88121662D01*
X97145985Y-88104139D01*
X97150131Y-88091301D01*
X97154753Y-88082208D01*
X97159874Y-88075918D01*
X97165522Y-88071488D01*
X97171721Y-88067978D01*
X97178496Y-88064445D01*
X97184492Y-88060876D01*
X97189725Y-88058300D01*
X97197901Y-88055972D01*
X97210114Y-88053878D01*
X97227459Y-88052007D01*
X97251031Y-88050347D01*
X97281923Y-88048884D01*
X97321232Y-88047608D01*
X97370050Y-88046504D01*
X97429473Y-88045561D01*
X97500596Y-88044767D01*
X97584512Y-88044109D01*
X97682317Y-88043575D01*
X97795106Y-88043153D01*
X97923971Y-88042829D01*
X98070009Y-88042592D01*
X98234314Y-88042430D01*
X98417980Y-88042330D01*
X98622103Y-88042280D01*
X98833247Y-88042267D01*
X100453600Y-88042267D01*
X100453600Y-88139054D01*
G37*
X100453600Y-88139054D02*
X100464465Y-88252993D01*
X100496082Y-88360616D01*
X100546985Y-88459615D01*
X100615707Y-88547684D01*
X100700781Y-88622516D01*
X100797768Y-88680384D01*
X100904036Y-88720005D01*
X101011050Y-88738573D01*
X101116700Y-88737434D01*
X101218875Y-88717930D01*
X101315466Y-88681406D01*
X101404362Y-88629205D01*
X101483454Y-88562673D01*
X101550631Y-88483152D01*
X101603783Y-88391987D01*
X101640801Y-88290523D01*
X101659573Y-88180102D01*
X101661511Y-88130206D01*
X101661511Y-88042267D01*
X101713440Y-88042267D01*
X101749747Y-88045111D01*
X101776645Y-88056911D01*
X101803751Y-88080649D01*
X101842133Y-88119031D01*
X101842133Y-90310602D01*
X101842124Y-90572739D01*
X101842092Y-90813241D01*
X101842028Y-91033048D01*
X101841924Y-91233101D01*
X101841773Y-91414344D01*
X101841566Y-91577716D01*
X101841294Y-91724160D01*
X101840950Y-91854617D01*
X101840526Y-91970029D01*
X101840013Y-92071338D01*
X101839403Y-92159484D01*
X101838688Y-92235410D01*
X101837860Y-92300057D01*
X101836911Y-92354367D01*
X101835833Y-92399280D01*
X101834617Y-92435740D01*
X101833255Y-92464687D01*
X101831739Y-92487063D01*
X101830062Y-92503809D01*
X101828214Y-92515868D01*
X101826187Y-92524180D01*
X101823975Y-92529687D01*
X101822892Y-92531537D01*
X101818729Y-92538549D01*
X101815195Y-92544996D01*
X101811365Y-92550900D01*
X101806318Y-92556286D01*
X101799129Y-92561178D01*
X101788877Y-92565598D01*
X101774636Y-92569572D01*
X101755486Y-92573121D01*
X101730501Y-92576270D01*
X101698760Y-92579042D01*
X101659338Y-92581461D01*
X101611314Y-92583551D01*
X101553763Y-92585335D01*
X101485763Y-92586837D01*
X101406390Y-92588080D01*
X101314721Y-92589089D01*
X101209834Y-92589885D01*
X101090804Y-92590494D01*
X100956710Y-92590939D01*
X100806627Y-92591243D01*
X100639633Y-92591430D01*
X100454804Y-92591524D01*
X100251217Y-92591548D01*
X100027950Y-92591525D01*
X99784078Y-92591480D01*
X99518679Y-92591437D01*
X99480296Y-92591432D01*
X99213318Y-92591389D01*
X98967998Y-92591318D01*
X98743417Y-92591213D01*
X98538655Y-92591066D01*
X98352794Y-92590869D01*
X98184912Y-92590616D01*
X98034092Y-92590300D01*
X97899413Y-92589913D01*
X97779956Y-92589447D01*
X97674801Y-92588897D01*
X97583029Y-92588253D01*
X97503721Y-92587511D01*
X97435957Y-92586661D01*
X97378818Y-92585697D01*
X97331383Y-92584611D01*
X97292734Y-92583397D01*
X97261951Y-92582047D01*
X97238115Y-92580555D01*
X97220306Y-92578911D01*
X97207605Y-92577111D01*
X97199092Y-92575145D01*
X97194734Y-92573477D01*
X97186272Y-92569906D01*
X97178503Y-92567270D01*
X97171398Y-92564634D01*
X97164927Y-92561062D01*
X97159061Y-92555621D01*
X97153771Y-92547375D01*
X97149026Y-92535390D01*
X97144798Y-92518731D01*
X97141057Y-92496463D01*
X97137773Y-92467652D01*
X97134917Y-92431363D01*
X97132460Y-92386661D01*
X97130371Y-92332611D01*
X97128622Y-92268279D01*
X97127183Y-92192730D01*
X97126024Y-92105030D01*
X97125117Y-92004243D01*
X97124431Y-91889434D01*
X97123937Y-91759670D01*
X97123605Y-91614015D01*
X97123407Y-91451535D01*
X97123313Y-91271295D01*
X97123292Y-91072360D01*
X97123315Y-90853796D01*
X97123354Y-90614668D01*
X97123378Y-90354040D01*
X97123378Y-90311889D01*
X97123364Y-90048992D01*
X97123339Y-89807732D01*
X97123329Y-89587165D01*
X97123358Y-89386352D01*
X97123452Y-89204349D01*
X97123638Y-89040216D01*
X97123941Y-88893011D01*
X97124386Y-88761792D01*
X97124966Y-88651867D01*
X97427803Y-88651867D01*
X97467593Y-88709711D01*
X97478764Y-88725479D01*
X97488834Y-88739441D01*
X97497862Y-88752784D01*
X97505903Y-88766693D01*
X97513014Y-88782356D01*
X97519253Y-88800958D01*
X97524675Y-88823686D01*
X97529338Y-88851727D01*
X97533299Y-88886267D01*
X97536615Y-88928492D01*
X97539341Y-88979589D01*
X97541536Y-89040744D01*
X97543255Y-89113144D01*
X97544556Y-89197975D01*
X97545495Y-89296422D01*
X97546130Y-89409674D01*
X97546516Y-89538916D01*
X97546712Y-89685334D01*
X97546773Y-89850116D01*
X97546757Y-90034447D01*
X97546720Y-90239513D01*
X97546711Y-90362133D01*
X97546735Y-90579082D01*
X97546769Y-90774642D01*
X97546757Y-90949999D01*
X97546642Y-91106341D01*
X97546370Y-91244857D01*
X97545882Y-91366734D01*
X97545124Y-91473160D01*
X97544038Y-91565322D01*
X97542569Y-91644409D01*
X97540660Y-91711608D01*
X97538256Y-91768107D01*
X97535299Y-91815093D01*
X97531734Y-91853755D01*
X97527505Y-91885280D01*
X97522554Y-91910855D01*
X97516827Y-91931670D01*
X97510267Y-91948911D01*
X97502817Y-91963765D01*
X97494421Y-91977422D01*
X97485024Y-91991069D01*
X97474568Y-92005893D01*
X97468477Y-92014783D01*
X97429704Y-92072400D01*
X97961268Y-92072400D01*
X98084517Y-92072365D01*
X98187013Y-92072215D01*
X98270580Y-92071878D01*
X98337044Y-92071286D01*
X98388229Y-92070367D01*
X98425959Y-92069051D01*
X98452060Y-92067269D01*
X98468356Y-92064951D01*
X98476672Y-92062026D01*
X98478832Y-92058424D01*
X98476661Y-92054075D01*
X98475465Y-92052645D01*
X98450315Y-92015573D01*
X98424417Y-91962772D01*
X98400808Y-91900770D01*
X98392539Y-91874357D01*
X98387922Y-91856416D01*
X98384021Y-91835355D01*
X98380752Y-91809089D01*
X98378034Y-91775532D01*
X98375785Y-91732599D01*
X98373923Y-91678204D01*
X98372364Y-91610262D01*
X98371028Y-91526688D01*
X98369831Y-91425395D01*
X98368692Y-91304300D01*
X98368315Y-91259600D01*
X98367298Y-91134449D01*
X98366540Y-91030082D01*
X98366097Y-90944707D01*
X98366030Y-90876533D01*
X98366395Y-90823765D01*
X98367252Y-90784614D01*
X98368659Y-90757285D01*
X98370675Y-90739986D01*
X98373357Y-90730926D01*
X98376764Y-90728312D01*
X98380956Y-90730351D01*
X98385429Y-90734667D01*
X98395784Y-90747602D01*
X98417842Y-90776676D01*
X98450043Y-90819759D01*
X98490826Y-90874718D01*
X98538630Y-90939423D01*
X98591895Y-91011742D01*
X98649060Y-91089544D01*
X98708563Y-91170698D01*
X98768845Y-91253072D01*
X98828345Y-91334536D01*
X98885502Y-91412957D01*
X98938755Y-91486204D01*
X98986543Y-91552147D01*
X99027307Y-91608654D01*
X99059484Y-91653593D01*
X99081515Y-91684834D01*
X99086083Y-91691466D01*
X99109004Y-91728369D01*
X99135812Y-91776359D01*
X99161211Y-91825897D01*
X99164432Y-91832577D01*
X99186110Y-91880772D01*
X99198696Y-91918334D01*
X99204426Y-91954160D01*
X99205544Y-91996200D01*
X99204910Y-92072400D01*
X100359349Y-92072400D01*
X100268185Y-91978669D01*
X100221388Y-91928775D01*
X100171101Y-91872295D01*
X100125056Y-91818026D01*
X100104631Y-91792673D01*
X100074193Y-91753128D01*
X100034138Y-91699916D01*
X99985639Y-91634667D01*
X99929865Y-91559011D01*
X99867989Y-91474577D01*
X99801181Y-91382994D01*
X99730613Y-91285892D01*
X99657455Y-91184901D01*
X99582879Y-91081650D01*
X99508056Y-90977768D01*
X99434157Y-90874885D01*
X99362354Y-90774631D01*
X99293816Y-90678636D01*
X99229716Y-90588527D01*
X99171225Y-90505936D01*
X99119514Y-90432492D01*
X99075753Y-90369824D01*
X99041115Y-90319561D01*
X99016770Y-90283334D01*
X99003889Y-90262771D01*
X99002131Y-90258668D01*
X99010090Y-90247342D01*
X99030885Y-90220162D01*
X99063153Y-90178829D01*
X99105530Y-90125044D01*
X99156653Y-90060506D01*
X99215159Y-89986918D01*
X99279686Y-89905978D01*
X99348869Y-89819388D01*
X99421347Y-89728848D01*
X99495754Y-89636060D01*
X99555483Y-89561702D01*
X100566489Y-89561702D01*
X100572398Y-89574659D01*
X100586728Y-89596908D01*
X100587775Y-89598391D01*
X100606562Y-89628544D01*
X100626209Y-89665375D01*
X100630108Y-89673511D01*
X100633644Y-89681940D01*
X100636770Y-89692059D01*
X100639514Y-89705260D01*
X100641908Y-89722938D01*
X100643981Y-89746484D01*
X100645765Y-89777293D01*
X100647288Y-89816757D01*
X100648581Y-89866269D01*
X100649674Y-89927223D01*
X100650597Y-90001011D01*
X100651381Y-90089028D01*
X100652055Y-90192665D01*
X100652650Y-90313316D01*
X100653195Y-90452374D01*
X100653721Y-90611232D01*
X100654255Y-90790089D01*
X100654794Y-90975207D01*
X100655228Y-91139145D01*
X100655491Y-91283303D01*
X100655516Y-91409079D01*
X100655235Y-91517871D01*
X100654581Y-91611077D01*
X100653486Y-91690097D01*
X100651882Y-91756328D01*
X100649703Y-91811170D01*
X100646881Y-91856021D01*
X100643349Y-91892278D01*
X100639039Y-91921341D01*
X100633883Y-91944609D01*
X100627815Y-91963479D01*
X100620767Y-91979351D01*
X100612671Y-91993622D01*
X100603460Y-92007691D01*
X100594960Y-92020158D01*
X100577824Y-92046452D01*
X100567678Y-92064037D01*
X100566489Y-92067257D01*
X100577396Y-92068334D01*
X100608589Y-92069335D01*
X100657777Y-92070235D01*
X100722667Y-92071010D01*
X100800970Y-92071637D01*
X100890393Y-92072091D01*
X100988644Y-92072349D01*
X101057555Y-92072400D01*
X101162548Y-92072180D01*
X101259390Y-92071548D01*
X101345893Y-92070549D01*
X101419868Y-92069227D01*
X101479126Y-92067626D01*
X101521480Y-92065791D01*
X101544740Y-92063765D01*
X101548622Y-92062493D01*
X101540924Y-92047591D01*
X101532926Y-92039560D01*
X101519754Y-92022434D01*
X101502515Y-91992183D01*
X101490593Y-91967622D01*
X101463955Y-91908711D01*
X101460880Y-90731845D01*
X101457805Y-89554978D01*
X101012147Y-89554978D01*
X100914330Y-89555142D01*
X100823936Y-89555611D01*
X100743370Y-89556347D01*
X100675038Y-89557316D01*
X100621344Y-89558480D01*
X100584695Y-89559803D01*
X100567496Y-89561249D01*
X100566489Y-89561702D01*
X99555483Y-89561702D01*
X99570730Y-89542722D01*
X99644910Y-89450537D01*
X99716931Y-89361204D01*
X99785431Y-89276424D01*
X99849045Y-89197898D01*
X99906412Y-89127326D01*
X99956167Y-89066409D01*
X99996948Y-89016847D01*
X100014112Y-88996178D01*
X100100404Y-88895516D01*
X100177003Y-88812259D01*
X100245817Y-88744438D01*
X100308752Y-88690089D01*
X100318133Y-88682722D01*
X100357644Y-88652117D01*
X99225884Y-88651867D01*
X99231173Y-88699844D01*
X99227870Y-88757188D01*
X99206339Y-88825463D01*
X99166365Y-88905212D01*
X99121057Y-88977495D01*
X99104839Y-89000140D01*
X99076786Y-89037696D01*
X99038570Y-89088021D01*
X98991863Y-89148973D01*
X98938339Y-89218411D01*
X98879669Y-89294194D01*
X98817525Y-89374180D01*
X98753579Y-89456228D01*
X98689505Y-89538196D01*
X98626973Y-89617943D01*
X98567657Y-89693327D01*
X98513229Y-89762207D01*
X98465361Y-89822442D01*
X98425725Y-89871889D01*
X98395994Y-89908408D01*
X98377839Y-89929858D01*
X98374780Y-89933156D01*
X98371921Y-89925149D01*
X98369707Y-89894855D01*
X98368143Y-89842556D01*
X98367233Y-89768531D01*
X98366980Y-89673063D01*
X98367387Y-89556434D01*
X98368296Y-89436445D01*
X98369618Y-89304333D01*
X98371143Y-89192594D01*
X98373119Y-89099025D01*
X98375794Y-89021419D01*
X98379418Y-88957574D01*
X98384239Y-88905283D01*
X98390506Y-88862344D01*
X98398468Y-88826551D01*
X98408373Y-88795700D01*
X98420469Y-88767586D01*
X98435007Y-88740005D01*
X98449689Y-88714966D01*
X98487686Y-88651867D01*
X97427803Y-88651867D01*
X97124966Y-88651867D01*
X97124999Y-88645617D01*
X97125805Y-88543544D01*
X97126830Y-88454633D01*
X97128100Y-88377941D01*
X97129640Y-88312527D01*
X97131476Y-88257449D01*
X97133633Y-88211765D01*
X97136137Y-88174534D01*
X97139013Y-88144813D01*
X97142287Y-88121662D01*
X97145985Y-88104139D01*
X97150131Y-88091301D01*
X97154753Y-88082208D01*
X97159874Y-88075918D01*
X97165522Y-88071488D01*
X97171721Y-88067978D01*
X97178496Y-88064445D01*
X97184492Y-88060876D01*
X97189725Y-88058300D01*
X97197901Y-88055972D01*
X97210114Y-88053878D01*
X97227459Y-88052007D01*
X97251031Y-88050347D01*
X97281923Y-88048884D01*
X97321232Y-88047608D01*
X97370050Y-88046504D01*
X97429473Y-88045561D01*
X97500596Y-88044767D01*
X97584512Y-88044109D01*
X97682317Y-88043575D01*
X97795106Y-88043153D01*
X97923971Y-88042829D01*
X98070009Y-88042592D01*
X98234314Y-88042430D01*
X98417980Y-88042330D01*
X98622103Y-88042280D01*
X98833247Y-88042267D01*
X100453600Y-88042267D01*
X100453600Y-88139054D01*
G36*
X103728429Y-88599071D02*
G01*
X103888570Y-88620245D01*
X104052510Y-88660385D01*
X104222313Y-88719889D01*
X104400043Y-88799154D01*
X104411310Y-88804699D01*
X104469005Y-88832725D01*
X104520552Y-88856802D01*
X104562191Y-88875249D01*
X104590162Y-88886386D01*
X104599733Y-88888933D01*
X104618950Y-88893941D01*
X104623561Y-88898147D01*
X104618458Y-88908580D01*
X104602418Y-88934868D01*
X104577288Y-88974257D01*
X104544914Y-89023991D01*
X104507143Y-89081315D01*
X104465822Y-89143476D01*
X104422798Y-89207718D01*
X104379917Y-89271285D01*
X104339026Y-89331425D01*
X104301971Y-89385380D01*
X104270600Y-89430397D01*
X104246759Y-89463721D01*
X104232294Y-89482597D01*
X104230309Y-89484787D01*
X104220191Y-89480138D01*
X104197850Y-89462962D01*
X104167280Y-89436440D01*
X104151536Y-89421964D01*
X104055047Y-89346682D01*
X103948336Y-89291241D01*
X103832832Y-89256141D01*
X103709962Y-89241880D01*
X103640561Y-89243051D01*
X103519423Y-89260212D01*
X103410205Y-89296094D01*
X103312582Y-89350959D01*
X103226228Y-89425070D01*
X103150815Y-89518688D01*
X103086018Y-89632076D01*
X103048601Y-89718667D01*
X103004748Y-89854366D01*
X102972428Y-90001850D01*
X102951557Y-90157314D01*
X102942051Y-90316956D01*
X102943827Y-90476973D01*
X102956803Y-90633561D01*
X102980894Y-90782918D01*
X103016018Y-90921240D01*
X103062092Y-91044724D01*
X103078373Y-91078978D01*
X103146620Y-91193064D01*
X103227079Y-91289557D01*
X103318570Y-91367670D01*
X103419911Y-91426617D01*
X103529920Y-91465612D01*
X103647415Y-91483868D01*
X103688883Y-91485211D01*
X103810441Y-91474290D01*
X103930878Y-91441474D01*
X104048666Y-91387439D01*
X104162277Y-91312865D01*
X104253685Y-91234539D01*
X104300215Y-91190008D01*
X104481483Y-91487271D01*
X104526580Y-91561433D01*
X104567819Y-91629646D01*
X104603735Y-91689459D01*
X104632866Y-91738420D01*
X104653750Y-91774079D01*
X104664924Y-91793984D01*
X104666375Y-91797079D01*
X104658146Y-91806718D01*
X104632567Y-91823999D01*
X104592873Y-91847283D01*
X104542297Y-91874934D01*
X104484074Y-91905315D01*
X104421437Y-91936790D01*
X104357621Y-91967722D01*
X104295860Y-91996473D01*
X104239388Y-92021408D01*
X104191438Y-92040889D01*
X104167986Y-92049318D01*
X104034221Y-92087133D01*
X103896327Y-92112136D01*
X103748622Y-92125140D01*
X103621833Y-92127468D01*
X103553878Y-92126373D01*
X103488277Y-92124275D01*
X103430847Y-92121434D01*
X103387403Y-92118106D01*
X103373298Y-92116422D01*
X103234284Y-92087587D01*
X103092757Y-92042468D01*
X102955275Y-91983750D01*
X102828394Y-91914120D01*
X102750889Y-91861441D01*
X102623481Y-91753239D01*
X102505178Y-91626671D01*
X102398172Y-91484866D01*
X102304652Y-91330951D01*
X102226810Y-91168053D01*
X102182956Y-91050756D01*
X102132708Y-90867128D01*
X102099209Y-90672581D01*
X102082449Y-90471325D01*
X102082416Y-90267568D01*
X102099101Y-90065521D01*
X102132493Y-89869392D01*
X102182580Y-89683391D01*
X102186397Y-89671803D01*
X102249281Y-89509750D01*
X102326028Y-89361832D01*
X102419242Y-89223865D01*
X102531527Y-89091661D01*
X102575392Y-89046399D01*
X102711534Y-88922457D01*
X102851491Y-88819915D01*
X102997411Y-88737656D01*
X103151442Y-88674564D01*
X103315732Y-88629523D01*
X103411289Y-88612033D01*
X103570023Y-88596466D01*
X103728429Y-88599071D01*
G37*
X103728429Y-88599071D02*
X103888570Y-88620245D01*
X104052510Y-88660385D01*
X104222313Y-88719889D01*
X104400043Y-88799154D01*
X104411310Y-88804699D01*
X104469005Y-88832725D01*
X104520552Y-88856802D01*
X104562191Y-88875249D01*
X104590162Y-88886386D01*
X104599733Y-88888933D01*
X104618950Y-88893941D01*
X104623561Y-88898147D01*
X104618458Y-88908580D01*
X104602418Y-88934868D01*
X104577288Y-88974257D01*
X104544914Y-89023991D01*
X104507143Y-89081315D01*
X104465822Y-89143476D01*
X104422798Y-89207718D01*
X104379917Y-89271285D01*
X104339026Y-89331425D01*
X104301971Y-89385380D01*
X104270600Y-89430397D01*
X104246759Y-89463721D01*
X104232294Y-89482597D01*
X104230309Y-89484787D01*
X104220191Y-89480138D01*
X104197850Y-89462962D01*
X104167280Y-89436440D01*
X104151536Y-89421964D01*
X104055047Y-89346682D01*
X103948336Y-89291241D01*
X103832832Y-89256141D01*
X103709962Y-89241880D01*
X103640561Y-89243051D01*
X103519423Y-89260212D01*
X103410205Y-89296094D01*
X103312582Y-89350959D01*
X103226228Y-89425070D01*
X103150815Y-89518688D01*
X103086018Y-89632076D01*
X103048601Y-89718667D01*
X103004748Y-89854366D01*
X102972428Y-90001850D01*
X102951557Y-90157314D01*
X102942051Y-90316956D01*
X102943827Y-90476973D01*
X102956803Y-90633561D01*
X102980894Y-90782918D01*
X103016018Y-90921240D01*
X103062092Y-91044724D01*
X103078373Y-91078978D01*
X103146620Y-91193064D01*
X103227079Y-91289557D01*
X103318570Y-91367670D01*
X103419911Y-91426617D01*
X103529920Y-91465612D01*
X103647415Y-91483868D01*
X103688883Y-91485211D01*
X103810441Y-91474290D01*
X103930878Y-91441474D01*
X104048666Y-91387439D01*
X104162277Y-91312865D01*
X104253685Y-91234539D01*
X104300215Y-91190008D01*
X104481483Y-91487271D01*
X104526580Y-91561433D01*
X104567819Y-91629646D01*
X104603735Y-91689459D01*
X104632866Y-91738420D01*
X104653750Y-91774079D01*
X104664924Y-91793984D01*
X104666375Y-91797079D01*
X104658146Y-91806718D01*
X104632567Y-91823999D01*
X104592873Y-91847283D01*
X104542297Y-91874934D01*
X104484074Y-91905315D01*
X104421437Y-91936790D01*
X104357621Y-91967722D01*
X104295860Y-91996473D01*
X104239388Y-92021408D01*
X104191438Y-92040889D01*
X104167986Y-92049318D01*
X104034221Y-92087133D01*
X103896327Y-92112136D01*
X103748622Y-92125140D01*
X103621833Y-92127468D01*
X103553878Y-92126373D01*
X103488277Y-92124275D01*
X103430847Y-92121434D01*
X103387403Y-92118106D01*
X103373298Y-92116422D01*
X103234284Y-92087587D01*
X103092757Y-92042468D01*
X102955275Y-91983750D01*
X102828394Y-91914120D01*
X102750889Y-91861441D01*
X102623481Y-91753239D01*
X102505178Y-91626671D01*
X102398172Y-91484866D01*
X102304652Y-91330951D01*
X102226810Y-91168053D01*
X102182956Y-91050756D01*
X102132708Y-90867128D01*
X102099209Y-90672581D01*
X102082449Y-90471325D01*
X102082416Y-90267568D01*
X102099101Y-90065521D01*
X102132493Y-89869392D01*
X102182580Y-89683391D01*
X102186397Y-89671803D01*
X102249281Y-89509750D01*
X102326028Y-89361832D01*
X102419242Y-89223865D01*
X102531527Y-89091661D01*
X102575392Y-89046399D01*
X102711534Y-88922457D01*
X102851491Y-88819915D01*
X102997411Y-88737656D01*
X103151442Y-88674564D01*
X103315732Y-88629523D01*
X103411289Y-88612033D01*
X103570023Y-88596466D01*
X103728429Y-88599071D01*
G36*
X106073574Y-89516552D02*
G01*
X106225492Y-89536567D01*
X106360756Y-89570202D01*
X106480239Y-89617725D01*
X106584815Y-89679405D01*
X106662424Y-89742965D01*
X106731265Y-89817099D01*
X106785006Y-89896871D01*
X106827910Y-89989091D01*
X106843384Y-90032161D01*
X106856244Y-90071142D01*
X106867446Y-90107289D01*
X106877120Y-90142434D01*
X106885396Y-90178410D01*
X106892403Y-90217050D01*
X106898272Y-90260185D01*
X106903131Y-90309649D01*
X106907110Y-90367273D01*
X106910340Y-90434891D01*
X106912949Y-90514334D01*
X106915067Y-90607436D01*
X106916824Y-90716027D01*
X106918349Y-90841942D01*
X106919772Y-90987012D01*
X106921025Y-91129778D01*
X106922351Y-91285968D01*
X106923556Y-91421239D01*
X106924766Y-91537246D01*
X106926106Y-91635645D01*
X106927700Y-91718093D01*
X106929675Y-91786246D01*
X106932156Y-91841760D01*
X106935269Y-91886292D01*
X106939138Y-91921498D01*
X106943889Y-91949034D01*
X106949648Y-91970556D01*
X106956539Y-91987722D01*
X106964689Y-92002186D01*
X106974223Y-92015606D01*
X106985266Y-92029638D01*
X106989566Y-92035071D01*
X107005386Y-92057910D01*
X107012422Y-92073463D01*
X107012444Y-92073922D01*
X107001567Y-92076121D01*
X106970582Y-92078147D01*
X106921957Y-92079942D01*
X106858163Y-92081451D01*
X106781669Y-92082616D01*
X106694944Y-92083380D01*
X106600457Y-92083686D01*
X106589550Y-92083689D01*
X106166657Y-92083689D01*
X106163395Y-91987622D01*
X106160133Y-91891556D01*
X106098044Y-91942543D01*
X106000714Y-92010057D01*
X105890813Y-92064749D01*
X105804349Y-92094978D01*
X105735278Y-92109666D01*
X105651925Y-92119659D01*
X105562159Y-92124646D01*
X105473845Y-92124313D01*
X105394851Y-92118351D01*
X105358622Y-92112638D01*
X105218603Y-92074776D01*
X105092178Y-92019932D01*
X104980260Y-91948924D01*
X104883762Y-91862568D01*
X104803600Y-91761679D01*
X104740687Y-91647076D01*
X104696312Y-91520984D01*
X104683978Y-91464401D01*
X104676368Y-91402202D01*
X104672739Y-91327363D01*
X104672245Y-91293467D01*
X104672310Y-91290282D01*
X105432248Y-91290282D01*
X105441541Y-91365333D01*
X105469728Y-91429160D01*
X105518197Y-91484798D01*
X105523254Y-91489211D01*
X105571548Y-91524037D01*
X105623257Y-91546620D01*
X105683989Y-91558540D01*
X105759352Y-91561383D01*
X105777459Y-91560978D01*
X105831278Y-91558325D01*
X105871308Y-91552909D01*
X105906324Y-91542745D01*
X105945103Y-91525850D01*
X105955745Y-91520672D01*
X106016396Y-91484844D01*
X106063215Y-91442212D01*
X106075952Y-91426973D01*
X106120622Y-91370462D01*
X106120622Y-91174586D01*
X106120086Y-91095939D01*
X106118396Y-91037988D01*
X106115428Y-90998875D01*
X106111057Y-90976741D01*
X106106972Y-90970274D01*
X106091047Y-90967111D01*
X106057264Y-90964488D01*
X106010340Y-90962655D01*
X105954993Y-90961857D01*
X105946106Y-90961842D01*
X105825330Y-90967096D01*
X105722660Y-90983263D01*
X105636106Y-91010961D01*
X105563681Y-91050808D01*
X105508751Y-91097758D01*
X105464204Y-91155645D01*
X105439480Y-91218693D01*
X105432248Y-91290282D01*
X104672310Y-91290282D01*
X104674178Y-91199712D01*
X104682522Y-91120812D01*
X104698768Y-91049590D01*
X104724405Y-90978864D01*
X104748401Y-90926493D01*
X104807020Y-90831196D01*
X104885117Y-90743170D01*
X104980315Y-90664017D01*
X105090238Y-90595340D01*
X105212510Y-90538741D01*
X105344755Y-90495821D01*
X105409422Y-90480882D01*
X105545604Y-90458777D01*
X105694049Y-90444194D01*
X105845505Y-90437813D01*
X105972064Y-90439445D01*
X106133950Y-90446224D01*
X106126530Y-90387245D01*
X106107238Y-90288092D01*
X106076104Y-90207372D01*
X106032269Y-90144466D01*
X105974871Y-90098756D01*
X105903048Y-90069622D01*
X105815941Y-90056447D01*
X105712686Y-90058611D01*
X105674711Y-90062612D01*
X105533520Y-90087780D01*
X105396707Y-90128814D01*
X105302178Y-90166815D01*
X105257018Y-90186190D01*
X105218585Y-90201760D01*
X105192234Y-90211405D01*
X105184546Y-90213452D01*
X105174802Y-90204374D01*
X105158083Y-90175405D01*
X105134232Y-90126217D01*
X105103093Y-90056484D01*
X105064507Y-89965879D01*
X105057910Y-89950089D01*
X105027853Y-89877772D01*
X105000874Y-89812425D01*
X104978136Y-89756906D01*
X104960806Y-89714072D01*
X104950048Y-89686781D01*
X104946941Y-89677942D01*
X104956940Y-89673187D01*
X104983217Y-89667910D01*
X105011489Y-89664231D01*
X105041646Y-89659474D01*
X105089433Y-89650028D01*
X105150612Y-89636820D01*
X105220946Y-89620776D01*
X105296194Y-89602820D01*
X105324755Y-89595797D01*
X105429816Y-89570209D01*
X105517480Y-89550147D01*
X105592068Y-89534969D01*
X105657903Y-89524035D01*
X105719307Y-89516704D01*
X105780602Y-89512335D01*
X105846110Y-89510287D01*
X105904128Y-89509889D01*
X106073574Y-89516552D01*
G37*
X106073574Y-89516552D02*
X106225492Y-89536567D01*
X106360756Y-89570202D01*
X106480239Y-89617725D01*
X106584815Y-89679405D01*
X106662424Y-89742965D01*
X106731265Y-89817099D01*
X106785006Y-89896871D01*
X106827910Y-89989091D01*
X106843384Y-90032161D01*
X106856244Y-90071142D01*
X106867446Y-90107289D01*
X106877120Y-90142434D01*
X106885396Y-90178410D01*
X106892403Y-90217050D01*
X106898272Y-90260185D01*
X106903131Y-90309649D01*
X106907110Y-90367273D01*
X106910340Y-90434891D01*
X106912949Y-90514334D01*
X106915067Y-90607436D01*
X106916824Y-90716027D01*
X106918349Y-90841942D01*
X106919772Y-90987012D01*
X106921025Y-91129778D01*
X106922351Y-91285968D01*
X106923556Y-91421239D01*
X106924766Y-91537246D01*
X106926106Y-91635645D01*
X106927700Y-91718093D01*
X106929675Y-91786246D01*
X106932156Y-91841760D01*
X106935269Y-91886292D01*
X106939138Y-91921498D01*
X106943889Y-91949034D01*
X106949648Y-91970556D01*
X106956539Y-91987722D01*
X106964689Y-92002186D01*
X106974223Y-92015606D01*
X106985266Y-92029638D01*
X106989566Y-92035071D01*
X107005386Y-92057910D01*
X107012422Y-92073463D01*
X107012444Y-92073922D01*
X107001567Y-92076121D01*
X106970582Y-92078147D01*
X106921957Y-92079942D01*
X106858163Y-92081451D01*
X106781669Y-92082616D01*
X106694944Y-92083380D01*
X106600457Y-92083686D01*
X106589550Y-92083689D01*
X106166657Y-92083689D01*
X106163395Y-91987622D01*
X106160133Y-91891556D01*
X106098044Y-91942543D01*
X106000714Y-92010057D01*
X105890813Y-92064749D01*
X105804349Y-92094978D01*
X105735278Y-92109666D01*
X105651925Y-92119659D01*
X105562159Y-92124646D01*
X105473845Y-92124313D01*
X105394851Y-92118351D01*
X105358622Y-92112638D01*
X105218603Y-92074776D01*
X105092178Y-92019932D01*
X104980260Y-91948924D01*
X104883762Y-91862568D01*
X104803600Y-91761679D01*
X104740687Y-91647076D01*
X104696312Y-91520984D01*
X104683978Y-91464401D01*
X104676368Y-91402202D01*
X104672739Y-91327363D01*
X104672245Y-91293467D01*
X104672310Y-91290282D01*
X105432248Y-91290282D01*
X105441541Y-91365333D01*
X105469728Y-91429160D01*
X105518197Y-91484798D01*
X105523254Y-91489211D01*
X105571548Y-91524037D01*
X105623257Y-91546620D01*
X105683989Y-91558540D01*
X105759352Y-91561383D01*
X105777459Y-91560978D01*
X105831278Y-91558325D01*
X105871308Y-91552909D01*
X105906324Y-91542745D01*
X105945103Y-91525850D01*
X105955745Y-91520672D01*
X106016396Y-91484844D01*
X106063215Y-91442212D01*
X106075952Y-91426973D01*
X106120622Y-91370462D01*
X106120622Y-91174586D01*
X106120086Y-91095939D01*
X106118396Y-91037988D01*
X106115428Y-90998875D01*
X106111057Y-90976741D01*
X106106972Y-90970274D01*
X106091047Y-90967111D01*
X106057264Y-90964488D01*
X106010340Y-90962655D01*
X105954993Y-90961857D01*
X105946106Y-90961842D01*
X105825330Y-90967096D01*
X105722660Y-90983263D01*
X105636106Y-91010961D01*
X105563681Y-91050808D01*
X105508751Y-91097758D01*
X105464204Y-91155645D01*
X105439480Y-91218693D01*
X105432248Y-91290282D01*
X104672310Y-91290282D01*
X104674178Y-91199712D01*
X104682522Y-91120812D01*
X104698768Y-91049590D01*
X104724405Y-90978864D01*
X104748401Y-90926493D01*
X104807020Y-90831196D01*
X104885117Y-90743170D01*
X104980315Y-90664017D01*
X105090238Y-90595340D01*
X105212510Y-90538741D01*
X105344755Y-90495821D01*
X105409422Y-90480882D01*
X105545604Y-90458777D01*
X105694049Y-90444194D01*
X105845505Y-90437813D01*
X105972064Y-90439445D01*
X106133950Y-90446224D01*
X106126530Y-90387245D01*
X106107238Y-90288092D01*
X106076104Y-90207372D01*
X106032269Y-90144466D01*
X105974871Y-90098756D01*
X105903048Y-90069622D01*
X105815941Y-90056447D01*
X105712686Y-90058611D01*
X105674711Y-90062612D01*
X105533520Y-90087780D01*
X105396707Y-90128814D01*
X105302178Y-90166815D01*
X105257018Y-90186190D01*
X105218585Y-90201760D01*
X105192234Y-90211405D01*
X105184546Y-90213452D01*
X105174802Y-90204374D01*
X105158083Y-90175405D01*
X105134232Y-90126217D01*
X105103093Y-90056484D01*
X105064507Y-89965879D01*
X105057910Y-89950089D01*
X105027853Y-89877772D01*
X105000874Y-89812425D01*
X104978136Y-89756906D01*
X104960806Y-89714072D01*
X104950048Y-89686781D01*
X104946941Y-89677942D01*
X104956940Y-89673187D01*
X104983217Y-89667910D01*
X105011489Y-89664231D01*
X105041646Y-89659474D01*
X105089433Y-89650028D01*
X105150612Y-89636820D01*
X105220946Y-89620776D01*
X105296194Y-89602820D01*
X105324755Y-89595797D01*
X105429816Y-89570209D01*
X105517480Y-89550147D01*
X105592068Y-89534969D01*
X105657903Y-89524035D01*
X105719307Y-89516704D01*
X105780602Y-89512335D01*
X105846110Y-89510287D01*
X105904128Y-89509889D01*
X106073574Y-89516552D01*
G36*
X109586507Y-90122245D02*
G01*
X109586526Y-90356662D01*
X109586552Y-90569603D01*
X109586625Y-90762168D01*
X109586782Y-90935459D01*
X109587064Y-91090576D01*
X109587509Y-91228620D01*
X109588156Y-91350692D01*
X109589045Y-91457894D01*
X109590213Y-91551326D01*
X109591701Y-91632090D01*
X109593546Y-91701286D01*
X109595789Y-91760015D01*
X109598469Y-91809379D01*
X109601623Y-91850478D01*
X109605292Y-91884413D01*
X109609513Y-91912286D01*
X109614327Y-91935198D01*
X109619773Y-91954249D01*
X109625888Y-91970540D01*
X109632712Y-91985173D01*
X109640285Y-91999249D01*
X109648645Y-92013868D01*
X109653839Y-92022974D01*
X109688104Y-92083689D01*
X108829955Y-92083689D01*
X108829955Y-91987733D01*
X108829224Y-91944370D01*
X108827272Y-91911205D01*
X108824463Y-91893424D01*
X108823221Y-91891778D01*
X108811799Y-91898662D01*
X108789084Y-91916505D01*
X108766385Y-91935879D01*
X108711800Y-91976614D01*
X108642321Y-92017617D01*
X108565270Y-92055123D01*
X108487965Y-92085364D01*
X108457113Y-92095012D01*
X108388616Y-92109578D01*
X108305764Y-92119539D01*
X108216371Y-92124583D01*
X108128248Y-92124396D01*
X108049207Y-92118666D01*
X108011511Y-92112858D01*
X107873414Y-92074797D01*
X107746113Y-92017073D01*
X107630292Y-91940211D01*
X107526637Y-91844739D01*
X107435833Y-91731179D01*
X107369031Y-91620381D01*
X107314164Y-91503625D01*
X107272163Y-91384276D01*
X107242167Y-91258283D01*
X107223311Y-91121594D01*
X107214732Y-90970158D01*
X107214006Y-90892711D01*
X107216100Y-90835934D01*
X108045217Y-90835934D01*
X108045424Y-90929002D01*
X108048337Y-91016692D01*
X108054000Y-91093772D01*
X108062455Y-91155009D01*
X108065038Y-91167350D01*
X108096840Y-91274633D01*
X108138498Y-91361658D01*
X108190363Y-91428642D01*
X108252781Y-91475805D01*
X108326100Y-91503365D01*
X108410669Y-91511541D01*
X108506835Y-91500551D01*
X108570311Y-91484829D01*
X108619454Y-91466639D01*
X108673583Y-91440791D01*
X108714244Y-91417089D01*
X108784800Y-91370721D01*
X108784800Y-90220530D01*
X108717392Y-90176962D01*
X108638867Y-90136040D01*
X108554681Y-90109389D01*
X108469557Y-90097465D01*
X108388216Y-90100722D01*
X108315380Y-90119615D01*
X108283426Y-90135184D01*
X108225501Y-90178181D01*
X108176544Y-90234953D01*
X108135390Y-90307575D01*
X108100874Y-90398121D01*
X108071833Y-90508666D01*
X108070552Y-90514533D01*
X108060381Y-90576788D01*
X108052739Y-90654594D01*
X108047670Y-90742720D01*
X108045217Y-90835934D01*
X107216100Y-90835934D01*
X107221857Y-90679895D01*
X107243802Y-90484059D01*
X107279786Y-90305332D01*
X107329759Y-90143845D01*
X107393668Y-89999726D01*
X107471462Y-89873106D01*
X107563089Y-89764115D01*
X107668497Y-89672883D01*
X107713662Y-89641932D01*
X107814611Y-89585785D01*
X107917901Y-89546174D01*
X108027989Y-89522014D01*
X108149330Y-89512219D01*
X108241836Y-89513265D01*
X108371490Y-89524231D01*
X108484084Y-89546046D01*
X108582875Y-89579714D01*
X108671121Y-89626236D01*
X108719986Y-89660448D01*
X108749353Y-89682362D01*
X108771043Y-89697333D01*
X108779253Y-89701733D01*
X108780868Y-89690904D01*
X108782159Y-89660251D01*
X108783138Y-89612526D01*
X108783817Y-89550479D01*
X108784210Y-89476862D01*
X108784330Y-89394427D01*
X108784188Y-89305925D01*
X108783797Y-89214107D01*
X108783171Y-89121724D01*
X108782320Y-89031528D01*
X108781260Y-88946271D01*
X108780001Y-88868703D01*
X108778556Y-88801576D01*
X108776938Y-88747641D01*
X108775161Y-88709650D01*
X108774669Y-88702667D01*
X108767092Y-88632251D01*
X108755531Y-88577102D01*
X108737792Y-88529981D01*
X108711682Y-88483647D01*
X108705415Y-88474067D01*
X108680983Y-88437378D01*
X109586311Y-88437378D01*
X109586507Y-90122245D01*
G37*
X109586507Y-90122245D02*
X109586526Y-90356662D01*
X109586552Y-90569603D01*
X109586625Y-90762168D01*
X109586782Y-90935459D01*
X109587064Y-91090576D01*
X109587509Y-91228620D01*
X109588156Y-91350692D01*
X109589045Y-91457894D01*
X109590213Y-91551326D01*
X109591701Y-91632090D01*
X109593546Y-91701286D01*
X109595789Y-91760015D01*
X109598469Y-91809379D01*
X109601623Y-91850478D01*
X109605292Y-91884413D01*
X109609513Y-91912286D01*
X109614327Y-91935198D01*
X109619773Y-91954249D01*
X109625888Y-91970540D01*
X109632712Y-91985173D01*
X109640285Y-91999249D01*
X109648645Y-92013868D01*
X109653839Y-92022974D01*
X109688104Y-92083689D01*
X108829955Y-92083689D01*
X108829955Y-91987733D01*
X108829224Y-91944370D01*
X108827272Y-91911205D01*
X108824463Y-91893424D01*
X108823221Y-91891778D01*
X108811799Y-91898662D01*
X108789084Y-91916505D01*
X108766385Y-91935879D01*
X108711800Y-91976614D01*
X108642321Y-92017617D01*
X108565270Y-92055123D01*
X108487965Y-92085364D01*
X108457113Y-92095012D01*
X108388616Y-92109578D01*
X108305764Y-92119539D01*
X108216371Y-92124583D01*
X108128248Y-92124396D01*
X108049207Y-92118666D01*
X108011511Y-92112858D01*
X107873414Y-92074797D01*
X107746113Y-92017073D01*
X107630292Y-91940211D01*
X107526637Y-91844739D01*
X107435833Y-91731179D01*
X107369031Y-91620381D01*
X107314164Y-91503625D01*
X107272163Y-91384276D01*
X107242167Y-91258283D01*
X107223311Y-91121594D01*
X107214732Y-90970158D01*
X107214006Y-90892711D01*
X107216100Y-90835934D01*
X108045217Y-90835934D01*
X108045424Y-90929002D01*
X108048337Y-91016692D01*
X108054000Y-91093772D01*
X108062455Y-91155009D01*
X108065038Y-91167350D01*
X108096840Y-91274633D01*
X108138498Y-91361658D01*
X108190363Y-91428642D01*
X108252781Y-91475805D01*
X108326100Y-91503365D01*
X108410669Y-91511541D01*
X108506835Y-91500551D01*
X108570311Y-91484829D01*
X108619454Y-91466639D01*
X108673583Y-91440791D01*
X108714244Y-91417089D01*
X108784800Y-91370721D01*
X108784800Y-90220530D01*
X108717392Y-90176962D01*
X108638867Y-90136040D01*
X108554681Y-90109389D01*
X108469557Y-90097465D01*
X108388216Y-90100722D01*
X108315380Y-90119615D01*
X108283426Y-90135184D01*
X108225501Y-90178181D01*
X108176544Y-90234953D01*
X108135390Y-90307575D01*
X108100874Y-90398121D01*
X108071833Y-90508666D01*
X108070552Y-90514533D01*
X108060381Y-90576788D01*
X108052739Y-90654594D01*
X108047670Y-90742720D01*
X108045217Y-90835934D01*
X107216100Y-90835934D01*
X107221857Y-90679895D01*
X107243802Y-90484059D01*
X107279786Y-90305332D01*
X107329759Y-90143845D01*
X107393668Y-89999726D01*
X107471462Y-89873106D01*
X107563089Y-89764115D01*
X107668497Y-89672883D01*
X107713662Y-89641932D01*
X107814611Y-89585785D01*
X107917901Y-89546174D01*
X108027989Y-89522014D01*
X108149330Y-89512219D01*
X108241836Y-89513265D01*
X108371490Y-89524231D01*
X108484084Y-89546046D01*
X108582875Y-89579714D01*
X108671121Y-89626236D01*
X108719986Y-89660448D01*
X108749353Y-89682362D01*
X108771043Y-89697333D01*
X108779253Y-89701733D01*
X108780868Y-89690904D01*
X108782159Y-89660251D01*
X108783138Y-89612526D01*
X108783817Y-89550479D01*
X108784210Y-89476862D01*
X108784330Y-89394427D01*
X108784188Y-89305925D01*
X108783797Y-89214107D01*
X108783171Y-89121724D01*
X108782320Y-89031528D01*
X108781260Y-88946271D01*
X108780001Y-88868703D01*
X108778556Y-88801576D01*
X108776938Y-88747641D01*
X108775161Y-88709650D01*
X108774669Y-88702667D01*
X108767092Y-88632251D01*
X108755531Y-88577102D01*
X108737792Y-88529981D01*
X108711682Y-88483647D01*
X108705415Y-88474067D01*
X108680983Y-88437378D01*
X109586311Y-88437378D01*
X109586507Y-90122245D01*
G36*
X101126957Y-87676571D02*
G01*
X101223232Y-87700809D01*
X101309816Y-87743641D01*
X101384627Y-87803419D01*
X101445582Y-87878494D01*
X101490601Y-87967220D01*
X101516864Y-88063530D01*
X101522714Y-88160795D01*
X101507860Y-88254654D01*
X101474160Y-88342511D01*
X101423472Y-88421770D01*
X101357655Y-88489836D01*
X101278566Y-88544112D01*
X101188066Y-88582002D01*
X101136800Y-88594426D01*
X101092302Y-88601947D01*
X101058001Y-88604919D01*
X101025040Y-88603094D01*
X100984566Y-88596225D01*
X100951469Y-88589250D01*
X100858053Y-88557741D01*
X100774381Y-88506617D01*
X100702335Y-88437429D01*
X100643800Y-88351728D01*
X100629852Y-88324489D01*
X100613414Y-88288122D01*
X100603106Y-88257582D01*
X100597540Y-88225450D01*
X100595331Y-88184307D01*
X100595052Y-88138222D01*
X100599139Y-88053865D01*
X100612554Y-87984586D01*
X100637744Y-87923961D01*
X100677154Y-87865567D01*
X100715702Y-87821302D01*
X100787594Y-87755484D01*
X100862687Y-87710053D01*
X100945438Y-87682850D01*
X101023072Y-87672576D01*
X101126957Y-87676571D01*
G37*
X101126957Y-87676571D02*
X101223232Y-87700809D01*
X101309816Y-87743641D01*
X101384627Y-87803419D01*
X101445582Y-87878494D01*
X101490601Y-87967220D01*
X101516864Y-88063530D01*
X101522714Y-88160795D01*
X101507860Y-88254654D01*
X101474160Y-88342511D01*
X101423472Y-88421770D01*
X101357655Y-88489836D01*
X101278566Y-88544112D01*
X101188066Y-88582002D01*
X101136800Y-88594426D01*
X101092302Y-88601947D01*
X101058001Y-88604919D01*
X101025040Y-88603094D01*
X100984566Y-88596225D01*
X100951469Y-88589250D01*
X100858053Y-88557741D01*
X100774381Y-88506617D01*
X100702335Y-88437429D01*
X100643800Y-88351728D01*
X100629852Y-88324489D01*
X100613414Y-88288122D01*
X100603106Y-88257582D01*
X100597540Y-88225450D01*
X100595331Y-88184307D01*
X100595052Y-88138222D01*
X100599139Y-88053865D01*
X100612554Y-87984586D01*
X100637744Y-87923961D01*
X100677154Y-87865567D01*
X100715702Y-87821302D01*
X100787594Y-87755484D01*
X100862687Y-87710053D01*
X100945438Y-87682850D01*
X101023072Y-87672576D01*
X101126957Y-87676571D01*
G36*
X97278629Y-92919066D02*
G01*
X97318111Y-92919467D01*
X97433800Y-92922259D01*
X97530689Y-92930550D01*
X97612081Y-92945232D01*
X97681277Y-92967193D01*
X97741580Y-92997322D01*
X97796292Y-93036510D01*
X97815833Y-93053532D01*
X97848250Y-93093363D01*
X97877480Y-93147413D01*
X97900009Y-93207323D01*
X97912321Y-93264739D01*
X97913600Y-93285956D01*
X97905583Y-93344769D01*
X97884101Y-93409013D01*
X97853001Y-93469821D01*
X97816134Y-93518330D01*
X97810146Y-93524182D01*
X97759421Y-93565321D01*
X97703875Y-93597435D01*
X97640304Y-93621365D01*
X97565506Y-93637953D01*
X97476278Y-93648041D01*
X97369418Y-93652469D01*
X97320472Y-93652845D01*
X97258238Y-93652545D01*
X97214472Y-93651292D01*
X97185069Y-93648554D01*
X97165921Y-93643801D01*
X97152923Y-93636501D01*
X97145955Y-93630267D01*
X97139374Y-93622694D01*
X97134212Y-93612924D01*
X97130297Y-93598340D01*
X97127457Y-93576326D01*
X97125520Y-93544264D01*
X97124316Y-93499536D01*
X97123672Y-93439526D01*
X97123417Y-93361617D01*
X97123378Y-93285956D01*
X97123130Y-93185041D01*
X97123183Y-93104427D01*
X97124143Y-93065822D01*
X97270133Y-93065822D01*
X97270133Y-93506089D01*
X97363266Y-93506004D01*
X97419307Y-93504396D01*
X97478001Y-93500256D01*
X97526972Y-93494464D01*
X97528462Y-93494226D01*
X97607608Y-93475090D01*
X97668998Y-93445287D01*
X97715695Y-93402878D01*
X97745365Y-93356961D01*
X97763647Y-93306026D01*
X97762229Y-93258200D01*
X97741012Y-93206933D01*
X97699511Y-93153899D01*
X97642002Y-93114600D01*
X97567250Y-93088331D01*
X97517292Y-93079035D01*
X97460584Y-93072507D01*
X97400481Y-93067782D01*
X97349361Y-93065817D01*
X97346333Y-93065808D01*
X97270133Y-93065822D01*
X97124143Y-93065822D01*
X97124740Y-93041851D01*
X97129002Y-92995055D01*
X97137170Y-92961778D01*
X97150444Y-92939759D01*
X97170026Y-92926739D01*
X97197117Y-92920457D01*
X97232918Y-92918653D01*
X97278629Y-92919066D01*
G37*
X97278629Y-92919066D02*
X97318111Y-92919467D01*
X97433800Y-92922259D01*
X97530689Y-92930550D01*
X97612081Y-92945232D01*
X97681277Y-92967193D01*
X97741580Y-92997322D01*
X97796292Y-93036510D01*
X97815833Y-93053532D01*
X97848250Y-93093363D01*
X97877480Y-93147413D01*
X97900009Y-93207323D01*
X97912321Y-93264739D01*
X97913600Y-93285956D01*
X97905583Y-93344769D01*
X97884101Y-93409013D01*
X97853001Y-93469821D01*
X97816134Y-93518330D01*
X97810146Y-93524182D01*
X97759421Y-93565321D01*
X97703875Y-93597435D01*
X97640304Y-93621365D01*
X97565506Y-93637953D01*
X97476278Y-93648041D01*
X97369418Y-93652469D01*
X97320472Y-93652845D01*
X97258238Y-93652545D01*
X97214472Y-93651292D01*
X97185069Y-93648554D01*
X97165921Y-93643801D01*
X97152923Y-93636501D01*
X97145955Y-93630267D01*
X97139374Y-93622694D01*
X97134212Y-93612924D01*
X97130297Y-93598340D01*
X97127457Y-93576326D01*
X97125520Y-93544264D01*
X97124316Y-93499536D01*
X97123672Y-93439526D01*
X97123417Y-93361617D01*
X97123378Y-93285956D01*
X97123130Y-93185041D01*
X97123183Y-93104427D01*
X97124143Y-93065822D01*
X97270133Y-93065822D01*
X97270133Y-93506089D01*
X97363266Y-93506004D01*
X97419307Y-93504396D01*
X97478001Y-93500256D01*
X97526972Y-93494464D01*
X97528462Y-93494226D01*
X97607608Y-93475090D01*
X97668998Y-93445287D01*
X97715695Y-93402878D01*
X97745365Y-93356961D01*
X97763647Y-93306026D01*
X97762229Y-93258200D01*
X97741012Y-93206933D01*
X97699511Y-93153899D01*
X97642002Y-93114600D01*
X97567250Y-93088331D01*
X97517292Y-93079035D01*
X97460584Y-93072507D01*
X97400481Y-93067782D01*
X97349361Y-93065817D01*
X97346333Y-93065808D01*
X97270133Y-93065822D01*
X97124143Y-93065822D01*
X97124740Y-93041851D01*
X97129002Y-92995055D01*
X97137170Y-92961778D01*
X97150444Y-92939759D01*
X97170026Y-92926739D01*
X97197117Y-92920457D01*
X97232918Y-92918653D01*
X97278629Y-92919066D01*
G36*
X98687206Y-92919146D02*
G01*
X98756614Y-92919518D01*
X98809003Y-92920385D01*
X98847153Y-92921946D01*
X98873841Y-92924403D01*
X98891847Y-92927957D01*
X98903951Y-92932810D01*
X98912931Y-92939161D01*
X98916182Y-92942084D01*
X98935957Y-92973142D01*
X98939518Y-93008828D01*
X98926509Y-93040510D01*
X98920494Y-93046913D01*
X98910765Y-93053121D01*
X98895099Y-93057910D01*
X98870592Y-93061514D01*
X98834339Y-93064164D01*
X98783435Y-93066095D01*
X98714974Y-93067539D01*
X98652383Y-93068418D01*
X98404666Y-93071467D01*
X98401281Y-93136378D01*
X98397895Y-93201289D01*
X98566042Y-93201289D01*
X98639041Y-93201919D01*
X98692483Y-93204553D01*
X98729372Y-93210309D01*
X98752712Y-93220304D01*
X98765506Y-93235656D01*
X98770758Y-93257482D01*
X98771555Y-93277738D01*
X98769077Y-93302592D01*
X98759723Y-93320906D01*
X98740617Y-93333637D01*
X98708882Y-93341741D01*
X98661641Y-93346176D01*
X98596017Y-93347899D01*
X98560199Y-93348045D01*
X98399022Y-93348045D01*
X98399022Y-93506089D01*
X98647378Y-93506089D01*
X98728787Y-93506202D01*
X98790658Y-93506712D01*
X98836032Y-93507870D01*
X98867946Y-93509930D01*
X98889441Y-93513146D01*
X98903557Y-93517772D01*
X98913332Y-93524059D01*
X98918311Y-93528667D01*
X98935390Y-93555560D01*
X98940889Y-93579467D01*
X98933037Y-93608667D01*
X98918311Y-93630267D01*
X98910454Y-93637066D01*
X98900312Y-93642346D01*
X98885156Y-93646298D01*
X98862259Y-93649113D01*
X98828891Y-93650982D01*
X98782325Y-93652098D01*
X98719833Y-93652651D01*
X98638686Y-93652833D01*
X98596578Y-93652845D01*
X98506402Y-93652765D01*
X98436076Y-93652398D01*
X98382871Y-93651552D01*
X98344060Y-93650036D01*
X98316913Y-93647659D01*
X98298702Y-93644229D01*
X98286700Y-93639554D01*
X98278178Y-93633444D01*
X98274844Y-93630267D01*
X98268245Y-93622670D01*
X98263073Y-93612870D01*
X98259154Y-93598239D01*
X98256316Y-93576152D01*
X98254385Y-93543982D01*
X98253188Y-93499103D01*
X98252552Y-93438889D01*
X98252303Y-93360713D01*
X98252266Y-93287923D01*
X98252300Y-93194707D01*
X98252535Y-93121431D01*
X98253170Y-93065458D01*
X98254406Y-93024151D01*
X98256444Y-92994872D01*
X98259483Y-92974984D01*
X98263723Y-92961850D01*
X98269365Y-92952832D01*
X98276609Y-92945293D01*
X98278394Y-92943612D01*
X98287055Y-92936172D01*
X98297118Y-92930409D01*
X98311375Y-92926112D01*
X98332617Y-92923064D01*
X98363636Y-92921051D01*
X98407223Y-92919860D01*
X98466169Y-92919275D01*
X98543266Y-92919083D01*
X98597999Y-92919067D01*
X98687206Y-92919146D01*
G37*
X98687206Y-92919146D02*
X98756614Y-92919518D01*
X98809003Y-92920385D01*
X98847153Y-92921946D01*
X98873841Y-92924403D01*
X98891847Y-92927957D01*
X98903951Y-92932810D01*
X98912931Y-92939161D01*
X98916182Y-92942084D01*
X98935957Y-92973142D01*
X98939518Y-93008828D01*
X98926509Y-93040510D01*
X98920494Y-93046913D01*
X98910765Y-93053121D01*
X98895099Y-93057910D01*
X98870592Y-93061514D01*
X98834339Y-93064164D01*
X98783435Y-93066095D01*
X98714974Y-93067539D01*
X98652383Y-93068418D01*
X98404666Y-93071467D01*
X98401281Y-93136378D01*
X98397895Y-93201289D01*
X98566042Y-93201289D01*
X98639041Y-93201919D01*
X98692483Y-93204553D01*
X98729372Y-93210309D01*
X98752712Y-93220304D01*
X98765506Y-93235656D01*
X98770758Y-93257482D01*
X98771555Y-93277738D01*
X98769077Y-93302592D01*
X98759723Y-93320906D01*
X98740617Y-93333637D01*
X98708882Y-93341741D01*
X98661641Y-93346176D01*
X98596017Y-93347899D01*
X98560199Y-93348045D01*
X98399022Y-93348045D01*
X98399022Y-93506089D01*
X98647378Y-93506089D01*
X98728787Y-93506202D01*
X98790658Y-93506712D01*
X98836032Y-93507870D01*
X98867946Y-93509930D01*
X98889441Y-93513146D01*
X98903557Y-93517772D01*
X98913332Y-93524059D01*
X98918311Y-93528667D01*
X98935390Y-93555560D01*
X98940889Y-93579467D01*
X98933037Y-93608667D01*
X98918311Y-93630267D01*
X98910454Y-93637066D01*
X98900312Y-93642346D01*
X98885156Y-93646298D01*
X98862259Y-93649113D01*
X98828891Y-93650982D01*
X98782325Y-93652098D01*
X98719833Y-93652651D01*
X98638686Y-93652833D01*
X98596578Y-93652845D01*
X98506402Y-93652765D01*
X98436076Y-93652398D01*
X98382871Y-93651552D01*
X98344060Y-93650036D01*
X98316913Y-93647659D01*
X98298702Y-93644229D01*
X98286700Y-93639554D01*
X98278178Y-93633444D01*
X98274844Y-93630267D01*
X98268245Y-93622670D01*
X98263073Y-93612870D01*
X98259154Y-93598239D01*
X98256316Y-93576152D01*
X98254385Y-93543982D01*
X98253188Y-93499103D01*
X98252552Y-93438889D01*
X98252303Y-93360713D01*
X98252266Y-93287923D01*
X98252300Y-93194707D01*
X98252535Y-93121431D01*
X98253170Y-93065458D01*
X98254406Y-93024151D01*
X98256444Y-92994872D01*
X98259483Y-92974984D01*
X98263723Y-92961850D01*
X98269365Y-92952832D01*
X98276609Y-92945293D01*
X98278394Y-92943612D01*
X98287055Y-92936172D01*
X98297118Y-92930409D01*
X98311375Y-92926112D01*
X98332617Y-92923064D01*
X98363636Y-92921051D01*
X98407223Y-92919860D01*
X98466169Y-92919275D01*
X98543266Y-92919083D01*
X98597999Y-92919067D01*
X98687206Y-92919146D01*
G36*
X99708297Y-92920351D02*
G01*
X99783112Y-92925581D01*
X99852694Y-92933750D01*
X99912998Y-92944550D01*
X99959980Y-92957673D01*
X99989594Y-92972813D01*
X99994140Y-92977269D01*
X100009946Y-93011850D01*
X100005153Y-93047351D01*
X99980636Y-93077725D01*
X99979466Y-93078596D01*
X99965046Y-93087954D01*
X99949992Y-93092876D01*
X99928995Y-93093473D01*
X99896743Y-93089861D01*
X99847927Y-93082154D01*
X99844000Y-93081505D01*
X99771261Y-93072569D01*
X99692783Y-93068161D01*
X99614073Y-93068119D01*
X99540639Y-93072279D01*
X99477989Y-93080479D01*
X99431630Y-93092557D01*
X99428584Y-93093771D01*
X99394952Y-93112615D01*
X99383136Y-93131685D01*
X99392386Y-93150439D01*
X99421953Y-93168337D01*
X99471089Y-93184837D01*
X99539043Y-93199396D01*
X99584355Y-93206406D01*
X99678544Y-93219889D01*
X99753456Y-93232214D01*
X99812283Y-93244449D01*
X99858215Y-93257661D01*
X99894445Y-93272917D01*
X99924162Y-93291285D01*
X99950558Y-93313831D01*
X99971770Y-93335971D01*
X99996935Y-93366819D01*
X100009319Y-93393345D01*
X100013192Y-93426026D01*
X100013333Y-93437995D01*
X100010424Y-93477712D01*
X99998798Y-93507259D01*
X99978677Y-93533486D01*
X99937784Y-93573576D01*
X99892183Y-93604149D01*
X99838487Y-93626203D01*
X99773308Y-93640735D01*
X99693256Y-93648741D01*
X99594943Y-93651218D01*
X99578711Y-93651177D01*
X99513151Y-93649818D01*
X99448134Y-93646730D01*
X99390748Y-93642356D01*
X99348078Y-93637140D01*
X99344628Y-93636541D01*
X99302204Y-93626491D01*
X99266220Y-93613796D01*
X99245850Y-93602190D01*
X99226893Y-93571572D01*
X99225573Y-93535918D01*
X99241915Y-93504144D01*
X99245571Y-93500551D01*
X99260685Y-93489876D01*
X99279585Y-93485276D01*
X99308838Y-93486059D01*
X99344349Y-93490127D01*
X99384030Y-93493762D01*
X99439655Y-93496828D01*
X99504594Y-93499053D01*
X99572215Y-93500164D01*
X99590000Y-93500237D01*
X99657872Y-93499964D01*
X99707546Y-93498646D01*
X99743390Y-93495827D01*
X99769776Y-93491050D01*
X99791074Y-93483857D01*
X99803874Y-93477867D01*
X99832000Y-93461233D01*
X99849932Y-93446168D01*
X99852553Y-93441897D01*
X99847024Y-93424263D01*
X99820740Y-93407192D01*
X99775522Y-93391458D01*
X99713192Y-93377838D01*
X99694829Y-93374804D01*
X99598910Y-93359738D01*
X99522359Y-93347146D01*
X99462220Y-93336111D01*
X99415540Y-93325720D01*
X99379363Y-93315056D01*
X99350735Y-93303205D01*
X99326702Y-93289251D01*
X99304308Y-93272281D01*
X99280598Y-93251378D01*
X99272620Y-93244049D01*
X99244647Y-93216699D01*
X99229840Y-93195029D01*
X99224048Y-93170232D01*
X99223111Y-93138983D01*
X99233425Y-93077705D01*
X99264248Y-93025640D01*
X99315405Y-92982958D01*
X99386717Y-92949825D01*
X99437600Y-92934964D01*
X99492900Y-92925366D01*
X99559147Y-92919936D01*
X99632294Y-92918367D01*
X99708297Y-92920351D01*
G37*
X99708297Y-92920351D02*
X99783112Y-92925581D01*
X99852694Y-92933750D01*
X99912998Y-92944550D01*
X99959980Y-92957673D01*
X99989594Y-92972813D01*
X99994140Y-92977269D01*
X100009946Y-93011850D01*
X100005153Y-93047351D01*
X99980636Y-93077725D01*
X99979466Y-93078596D01*
X99965046Y-93087954D01*
X99949992Y-93092876D01*
X99928995Y-93093473D01*
X99896743Y-93089861D01*
X99847927Y-93082154D01*
X99844000Y-93081505D01*
X99771261Y-93072569D01*
X99692783Y-93068161D01*
X99614073Y-93068119D01*
X99540639Y-93072279D01*
X99477989Y-93080479D01*
X99431630Y-93092557D01*
X99428584Y-93093771D01*
X99394952Y-93112615D01*
X99383136Y-93131685D01*
X99392386Y-93150439D01*
X99421953Y-93168337D01*
X99471089Y-93184837D01*
X99539043Y-93199396D01*
X99584355Y-93206406D01*
X99678544Y-93219889D01*
X99753456Y-93232214D01*
X99812283Y-93244449D01*
X99858215Y-93257661D01*
X99894445Y-93272917D01*
X99924162Y-93291285D01*
X99950558Y-93313831D01*
X99971770Y-93335971D01*
X99996935Y-93366819D01*
X100009319Y-93393345D01*
X100013192Y-93426026D01*
X100013333Y-93437995D01*
X100010424Y-93477712D01*
X99998798Y-93507259D01*
X99978677Y-93533486D01*
X99937784Y-93573576D01*
X99892183Y-93604149D01*
X99838487Y-93626203D01*
X99773308Y-93640735D01*
X99693256Y-93648741D01*
X99594943Y-93651218D01*
X99578711Y-93651177D01*
X99513151Y-93649818D01*
X99448134Y-93646730D01*
X99390748Y-93642356D01*
X99348078Y-93637140D01*
X99344628Y-93636541D01*
X99302204Y-93626491D01*
X99266220Y-93613796D01*
X99245850Y-93602190D01*
X99226893Y-93571572D01*
X99225573Y-93535918D01*
X99241915Y-93504144D01*
X99245571Y-93500551D01*
X99260685Y-93489876D01*
X99279585Y-93485276D01*
X99308838Y-93486059D01*
X99344349Y-93490127D01*
X99384030Y-93493762D01*
X99439655Y-93496828D01*
X99504594Y-93499053D01*
X99572215Y-93500164D01*
X99590000Y-93500237D01*
X99657872Y-93499964D01*
X99707546Y-93498646D01*
X99743390Y-93495827D01*
X99769776Y-93491050D01*
X99791074Y-93483857D01*
X99803874Y-93477867D01*
X99832000Y-93461233D01*
X99849932Y-93446168D01*
X99852553Y-93441897D01*
X99847024Y-93424263D01*
X99820740Y-93407192D01*
X99775522Y-93391458D01*
X99713192Y-93377838D01*
X99694829Y-93374804D01*
X99598910Y-93359738D01*
X99522359Y-93347146D01*
X99462220Y-93336111D01*
X99415540Y-93325720D01*
X99379363Y-93315056D01*
X99350735Y-93303205D01*
X99326702Y-93289251D01*
X99304308Y-93272281D01*
X99280598Y-93251378D01*
X99272620Y-93244049D01*
X99244647Y-93216699D01*
X99229840Y-93195029D01*
X99224048Y-93170232D01*
X99223111Y-93138983D01*
X99233425Y-93077705D01*
X99264248Y-93025640D01*
X99315405Y-92982958D01*
X99386717Y-92949825D01*
X99437600Y-92934964D01*
X99492900Y-92925366D01*
X99559147Y-92919936D01*
X99632294Y-92918367D01*
X99708297Y-92920351D01*
G36*
X100476178Y-92941645D02*
G01*
X100482758Y-92949218D01*
X100487921Y-92958987D01*
X100491836Y-92973571D01*
X100494676Y-92995585D01*
X100496613Y-93027648D01*
X100497817Y-93072375D01*
X100498461Y-93132385D01*
X100498716Y-93210294D01*
X100498755Y-93285956D01*
X100498686Y-93379802D01*
X100498362Y-93453689D01*
X100497614Y-93510232D01*
X100496268Y-93552049D01*
X100494154Y-93581757D01*
X100491100Y-93601973D01*
X100486934Y-93615314D01*
X100481484Y-93624398D01*
X100476178Y-93630267D01*
X100443174Y-93649947D01*
X100408009Y-93648181D01*
X100376545Y-93626717D01*
X100369316Y-93618337D01*
X100363666Y-93608614D01*
X100359401Y-93594861D01*
X100356327Y-93574389D01*
X100354248Y-93544512D01*
X100352970Y-93502541D01*
X100352299Y-93445789D01*
X100352041Y-93371567D01*
X100352000Y-93287537D01*
X100352000Y-92974485D01*
X100379709Y-92946776D01*
X100413863Y-92923463D01*
X100446994Y-92922623D01*
X100476178Y-92941645D01*
G37*
X100476178Y-92941645D02*
X100482758Y-92949218D01*
X100487921Y-92958987D01*
X100491836Y-92973571D01*
X100494676Y-92995585D01*
X100496613Y-93027648D01*
X100497817Y-93072375D01*
X100498461Y-93132385D01*
X100498716Y-93210294D01*
X100498755Y-93285956D01*
X100498686Y-93379802D01*
X100498362Y-93453689D01*
X100497614Y-93510232D01*
X100496268Y-93552049D01*
X100494154Y-93581757D01*
X100491100Y-93601973D01*
X100486934Y-93615314D01*
X100481484Y-93624398D01*
X100476178Y-93630267D01*
X100443174Y-93649947D01*
X100408009Y-93648181D01*
X100376545Y-93626717D01*
X100369316Y-93618337D01*
X100363666Y-93608614D01*
X100359401Y-93594861D01*
X100356327Y-93574389D01*
X100354248Y-93544512D01*
X100352970Y-93502541D01*
X100352299Y-93445789D01*
X100352041Y-93371567D01*
X100352000Y-93287537D01*
X100352000Y-92974485D01*
X100379709Y-92946776D01*
X100413863Y-92923463D01*
X100446994Y-92922623D01*
X100476178Y-92941645D01*
G36*
X101449919Y-92924599D02*
G01*
X101518435Y-92936095D01*
X101571057Y-92953967D01*
X101605292Y-92977499D01*
X101614621Y-92990924D01*
X101624107Y-93022148D01*
X101617723Y-93050395D01*
X101597570Y-93077182D01*
X101566255Y-93089713D01*
X101520817Y-93088696D01*
X101485674Y-93081906D01*
X101407581Y-93068971D01*
X101327774Y-93067742D01*
X101238445Y-93078241D01*
X101213771Y-93082690D01*
X101130709Y-93106108D01*
X101065727Y-93140945D01*
X101019539Y-93186604D01*
X100992855Y-93242494D01*
X100987337Y-93271388D01*
X100990949Y-93330012D01*
X101014271Y-93381879D01*
X101055176Y-93425978D01*
X101111541Y-93461299D01*
X101181240Y-93486829D01*
X101262148Y-93501559D01*
X101352140Y-93504478D01*
X101449090Y-93494575D01*
X101454564Y-93493641D01*
X101493125Y-93486459D01*
X101514506Y-93479521D01*
X101523773Y-93469227D01*
X101525994Y-93451976D01*
X101526044Y-93442841D01*
X101526044Y-93404489D01*
X101457569Y-93404489D01*
X101397100Y-93400347D01*
X101355835Y-93387147D01*
X101331825Y-93363730D01*
X101323123Y-93328936D01*
X101323017Y-93324394D01*
X101328108Y-93294654D01*
X101345567Y-93273419D01*
X101378061Y-93259366D01*
X101428257Y-93251173D01*
X101476877Y-93248161D01*
X101547544Y-93246433D01*
X101598802Y-93249070D01*
X101633761Y-93258800D01*
X101655530Y-93278353D01*
X101667220Y-93310456D01*
X101671940Y-93357838D01*
X101672800Y-93420071D01*
X101671391Y-93489535D01*
X101667152Y-93536786D01*
X101660064Y-93562012D01*
X101658689Y-93563988D01*
X101619772Y-93595508D01*
X101562714Y-93620470D01*
X101491131Y-93638340D01*
X101408642Y-93648586D01*
X101318861Y-93650673D01*
X101225408Y-93644068D01*
X101170444Y-93635956D01*
X101084234Y-93611554D01*
X101004108Y-93571662D01*
X100937023Y-93519887D01*
X100926827Y-93509539D01*
X100893698Y-93466035D01*
X100863806Y-93412118D01*
X100840643Y-93355592D01*
X100827702Y-93304259D01*
X100826142Y-93284544D01*
X100832782Y-93243419D01*
X100850432Y-93192252D01*
X100875703Y-93138394D01*
X100905211Y-93089195D01*
X100931281Y-93056334D01*
X100992235Y-93007452D01*
X101071031Y-92968545D01*
X101164843Y-92940494D01*
X101270850Y-92924179D01*
X101368000Y-92920192D01*
X101449919Y-92924599D01*
G37*
X101449919Y-92924599D02*
X101518435Y-92936095D01*
X101571057Y-92953967D01*
X101605292Y-92977499D01*
X101614621Y-92990924D01*
X101624107Y-93022148D01*
X101617723Y-93050395D01*
X101597570Y-93077182D01*
X101566255Y-93089713D01*
X101520817Y-93088696D01*
X101485674Y-93081906D01*
X101407581Y-93068971D01*
X101327774Y-93067742D01*
X101238445Y-93078241D01*
X101213771Y-93082690D01*
X101130709Y-93106108D01*
X101065727Y-93140945D01*
X101019539Y-93186604D01*
X100992855Y-93242494D01*
X100987337Y-93271388D01*
X100990949Y-93330012D01*
X101014271Y-93381879D01*
X101055176Y-93425978D01*
X101111541Y-93461299D01*
X101181240Y-93486829D01*
X101262148Y-93501559D01*
X101352140Y-93504478D01*
X101449090Y-93494575D01*
X101454564Y-93493641D01*
X101493125Y-93486459D01*
X101514506Y-93479521D01*
X101523773Y-93469227D01*
X101525994Y-93451976D01*
X101526044Y-93442841D01*
X101526044Y-93404489D01*
X101457569Y-93404489D01*
X101397100Y-93400347D01*
X101355835Y-93387147D01*
X101331825Y-93363730D01*
X101323123Y-93328936D01*
X101323017Y-93324394D01*
X101328108Y-93294654D01*
X101345567Y-93273419D01*
X101378061Y-93259366D01*
X101428257Y-93251173D01*
X101476877Y-93248161D01*
X101547544Y-93246433D01*
X101598802Y-93249070D01*
X101633761Y-93258800D01*
X101655530Y-93278353D01*
X101667220Y-93310456D01*
X101671940Y-93357838D01*
X101672800Y-93420071D01*
X101671391Y-93489535D01*
X101667152Y-93536786D01*
X101660064Y-93562012D01*
X101658689Y-93563988D01*
X101619772Y-93595508D01*
X101562714Y-93620470D01*
X101491131Y-93638340D01*
X101408642Y-93648586D01*
X101318861Y-93650673D01*
X101225408Y-93644068D01*
X101170444Y-93635956D01*
X101084234Y-93611554D01*
X101004108Y-93571662D01*
X100937023Y-93519887D01*
X100926827Y-93509539D01*
X100893698Y-93466035D01*
X100863806Y-93412118D01*
X100840643Y-93355592D01*
X100827702Y-93304259D01*
X100826142Y-93284544D01*
X100832782Y-93243419D01*
X100850432Y-93192252D01*
X100875703Y-93138394D01*
X100905211Y-93089195D01*
X100931281Y-93056334D01*
X100992235Y-93007452D01*
X101071031Y-92968545D01*
X101164843Y-92940494D01*
X101270850Y-92924179D01*
X101368000Y-92920192D01*
X101449919Y-92924599D01*
G36*
X102099886Y-92923448D02*
G01*
X102123452Y-92937273D01*
X102154265Y-92959881D01*
X102193922Y-92992338D01*
X102244020Y-93035708D01*
X102306157Y-93091058D01*
X102381928Y-93159451D01*
X102468666Y-93238084D01*
X102649289Y-93401878D01*
X102654933Y-93182029D01*
X102656971Y-93106351D01*
X102658937Y-93049994D01*
X102661266Y-93009706D01*
X102664394Y-92982235D01*
X102668755Y-92964329D01*
X102674784Y-92952737D01*
X102682916Y-92944208D01*
X102687228Y-92940623D01*
X102721759Y-92921670D01*
X102754617Y-92924441D01*
X102780682Y-92940633D01*
X102807333Y-92962199D01*
X102810648Y-93277151D01*
X102811565Y-93369779D01*
X102812032Y-93442544D01*
X102811887Y-93498161D01*
X102810968Y-93539342D01*
X102809113Y-93568803D01*
X102806161Y-93589255D01*
X102801950Y-93603413D01*
X102796318Y-93613991D01*
X102790073Y-93622474D01*
X102776561Y-93638207D01*
X102763117Y-93648636D01*
X102747876Y-93652639D01*
X102728974Y-93649094D01*
X102704545Y-93636879D01*
X102672727Y-93614871D01*
X102631652Y-93581949D01*
X102579458Y-93536991D01*
X102514278Y-93478875D01*
X102440444Y-93412099D01*
X102175155Y-93171458D01*
X102169511Y-93390589D01*
X102167469Y-93466128D01*
X102165498Y-93522354D01*
X102163161Y-93562524D01*
X102160019Y-93589896D01*
X102155636Y-93607728D01*
X102149576Y-93619279D01*
X102141400Y-93627807D01*
X102137216Y-93631282D01*
X102100235Y-93650372D01*
X102065292Y-93647493D01*
X102034864Y-93623100D01*
X102027903Y-93613286D01*
X102022477Y-93601826D01*
X102018397Y-93585968D01*
X102015471Y-93562963D01*
X102013508Y-93530062D01*
X102012317Y-93484516D01*
X102011708Y-93423573D01*
X102011489Y-93344486D01*
X102011466Y-93285956D01*
X102011540Y-93194407D01*
X102011887Y-93122687D01*
X102012699Y-93068045D01*
X102014167Y-93027732D01*
X102016481Y-92998998D01*
X102019833Y-92979093D01*
X102024412Y-92965268D01*
X102030411Y-92954772D01*
X102034864Y-92948811D01*
X102046150Y-92934691D01*
X102056699Y-92924029D01*
X102068107Y-92917892D01*
X102081970Y-92917343D01*
X102099886Y-92923448D01*
G37*
X102099886Y-92923448D02*
X102123452Y-92937273D01*
X102154265Y-92959881D01*
X102193922Y-92992338D01*
X102244020Y-93035708D01*
X102306157Y-93091058D01*
X102381928Y-93159451D01*
X102468666Y-93238084D01*
X102649289Y-93401878D01*
X102654933Y-93182029D01*
X102656971Y-93106351D01*
X102658937Y-93049994D01*
X102661266Y-93009706D01*
X102664394Y-92982235D01*
X102668755Y-92964329D01*
X102674784Y-92952737D01*
X102682916Y-92944208D01*
X102687228Y-92940623D01*
X102721759Y-92921670D01*
X102754617Y-92924441D01*
X102780682Y-92940633D01*
X102807333Y-92962199D01*
X102810648Y-93277151D01*
X102811565Y-93369779D01*
X102812032Y-93442544D01*
X102811887Y-93498161D01*
X102810968Y-93539342D01*
X102809113Y-93568803D01*
X102806161Y-93589255D01*
X102801950Y-93603413D01*
X102796318Y-93613991D01*
X102790073Y-93622474D01*
X102776561Y-93638207D01*
X102763117Y-93648636D01*
X102747876Y-93652639D01*
X102728974Y-93649094D01*
X102704545Y-93636879D01*
X102672727Y-93614871D01*
X102631652Y-93581949D01*
X102579458Y-93536991D01*
X102514278Y-93478875D01*
X102440444Y-93412099D01*
X102175155Y-93171458D01*
X102169511Y-93390589D01*
X102167469Y-93466128D01*
X102165498Y-93522354D01*
X102163161Y-93562524D01*
X102160019Y-93589896D01*
X102155636Y-93607728D01*
X102149576Y-93619279D01*
X102141400Y-93627807D01*
X102137216Y-93631282D01*
X102100235Y-93650372D01*
X102065292Y-93647493D01*
X102034864Y-93623100D01*
X102027903Y-93613286D01*
X102022477Y-93601826D01*
X102018397Y-93585968D01*
X102015471Y-93562963D01*
X102013508Y-93530062D01*
X102012317Y-93484516D01*
X102011708Y-93423573D01*
X102011489Y-93344486D01*
X102011466Y-93285956D01*
X102011540Y-93194407D01*
X102011887Y-93122687D01*
X102012699Y-93068045D01*
X102014167Y-93027732D01*
X102016481Y-92998998D01*
X102019833Y-92979093D01*
X102024412Y-92965268D01*
X102030411Y-92954772D01*
X102034864Y-92948811D01*
X102046150Y-92934691D01*
X102056699Y-92924029D01*
X102068107Y-92917892D01*
X102081970Y-92917343D01*
X102099886Y-92923448D01*
G36*
X103630343Y-92919260D02*
G01*
X103706701Y-92920174D01*
X103765217Y-92922311D01*
X103808255Y-92926175D01*
X103838183Y-92932267D01*
X103857368Y-92941090D01*
X103868176Y-92953146D01*
X103872973Y-92968939D01*
X103874127Y-92988970D01*
X103874133Y-92991335D01*
X103873131Y-93013992D01*
X103868396Y-93031503D01*
X103857333Y-93044574D01*
X103837348Y-93053913D01*
X103805846Y-93060227D01*
X103760232Y-93064222D01*
X103697913Y-93066606D01*
X103616293Y-93068086D01*
X103591277Y-93068414D01*
X103349200Y-93071467D01*
X103345814Y-93136378D01*
X103342429Y-93201289D01*
X103510576Y-93201289D01*
X103576266Y-93201531D01*
X103623172Y-93202556D01*
X103655083Y-93204811D01*
X103675791Y-93208742D01*
X103689084Y-93214798D01*
X103698755Y-93223424D01*
X103698817Y-93223493D01*
X103716356Y-93257112D01*
X103715722Y-93293448D01*
X103697314Y-93324423D01*
X103693671Y-93327607D01*
X103680741Y-93335812D01*
X103663024Y-93341521D01*
X103636570Y-93345162D01*
X103597432Y-93347167D01*
X103541662Y-93347964D01*
X103505994Y-93348045D01*
X103343555Y-93348045D01*
X103343555Y-93506089D01*
X103590161Y-93506089D01*
X103671580Y-93506231D01*
X103733410Y-93506814D01*
X103778637Y-93508068D01*
X103810248Y-93510227D01*
X103831231Y-93513523D01*
X103844573Y-93518189D01*
X103853261Y-93524457D01*
X103855450Y-93526733D01*
X103871614Y-93558280D01*
X103872797Y-93594168D01*
X103859536Y-93625285D01*
X103849043Y-93635271D01*
X103838129Y-93640769D01*
X103821217Y-93645022D01*
X103795633Y-93648180D01*
X103758701Y-93650392D01*
X103707746Y-93651806D01*
X103640094Y-93652572D01*
X103553069Y-93652838D01*
X103533394Y-93652845D01*
X103444911Y-93652787D01*
X103376227Y-93652467D01*
X103324564Y-93651667D01*
X103287145Y-93650167D01*
X103261190Y-93647749D01*
X103243922Y-93644194D01*
X103232562Y-93639282D01*
X103224332Y-93632795D01*
X103219817Y-93628138D01*
X103213021Y-93619889D01*
X103207712Y-93609669D01*
X103203706Y-93594800D01*
X103200821Y-93572602D01*
X103198874Y-93540393D01*
X103197681Y-93495496D01*
X103197061Y-93435228D01*
X103196829Y-93356911D01*
X103196800Y-93290994D01*
X103196871Y-93198628D01*
X103197208Y-93126117D01*
X103197998Y-93070737D01*
X103199426Y-93029765D01*
X103201679Y-93000478D01*
X103204943Y-92980153D01*
X103209404Y-92966066D01*
X103215248Y-92955495D01*
X103220197Y-92948811D01*
X103243594Y-92919067D01*
X103533774Y-92919067D01*
X103630343Y-92919260D01*
G37*
X103630343Y-92919260D02*
X103706701Y-92920174D01*
X103765217Y-92922311D01*
X103808255Y-92926175D01*
X103838183Y-92932267D01*
X103857368Y-92941090D01*
X103868176Y-92953146D01*
X103872973Y-92968939D01*
X103874127Y-92988970D01*
X103874133Y-92991335D01*
X103873131Y-93013992D01*
X103868396Y-93031503D01*
X103857333Y-93044574D01*
X103837348Y-93053913D01*
X103805846Y-93060227D01*
X103760232Y-93064222D01*
X103697913Y-93066606D01*
X103616293Y-93068086D01*
X103591277Y-93068414D01*
X103349200Y-93071467D01*
X103345814Y-93136378D01*
X103342429Y-93201289D01*
X103510576Y-93201289D01*
X103576266Y-93201531D01*
X103623172Y-93202556D01*
X103655083Y-93204811D01*
X103675791Y-93208742D01*
X103689084Y-93214798D01*
X103698755Y-93223424D01*
X103698817Y-93223493D01*
X103716356Y-93257112D01*
X103715722Y-93293448D01*
X103697314Y-93324423D01*
X103693671Y-93327607D01*
X103680741Y-93335812D01*
X103663024Y-93341521D01*
X103636570Y-93345162D01*
X103597432Y-93347167D01*
X103541662Y-93347964D01*
X103505994Y-93348045D01*
X103343555Y-93348045D01*
X103343555Y-93506089D01*
X103590161Y-93506089D01*
X103671580Y-93506231D01*
X103733410Y-93506814D01*
X103778637Y-93508068D01*
X103810248Y-93510227D01*
X103831231Y-93513523D01*
X103844573Y-93518189D01*
X103853261Y-93524457D01*
X103855450Y-93526733D01*
X103871614Y-93558280D01*
X103872797Y-93594168D01*
X103859536Y-93625285D01*
X103849043Y-93635271D01*
X103838129Y-93640769D01*
X103821217Y-93645022D01*
X103795633Y-93648180D01*
X103758701Y-93650392D01*
X103707746Y-93651806D01*
X103640094Y-93652572D01*
X103553069Y-93652838D01*
X103533394Y-93652845D01*
X103444911Y-93652787D01*
X103376227Y-93652467D01*
X103324564Y-93651667D01*
X103287145Y-93650167D01*
X103261190Y-93647749D01*
X103243922Y-93644194D01*
X103232562Y-93639282D01*
X103224332Y-93632795D01*
X103219817Y-93628138D01*
X103213021Y-93619889D01*
X103207712Y-93609669D01*
X103203706Y-93594800D01*
X103200821Y-93572602D01*
X103198874Y-93540393D01*
X103197681Y-93495496D01*
X103197061Y-93435228D01*
X103196829Y-93356911D01*
X103196800Y-93290994D01*
X103196871Y-93198628D01*
X103197208Y-93126117D01*
X103197998Y-93070737D01*
X103199426Y-93029765D01*
X103201679Y-93000478D01*
X103204943Y-92980153D01*
X103209404Y-92966066D01*
X103215248Y-92955495D01*
X103220197Y-92948811D01*
X103243594Y-92919067D01*
X103533774Y-92919067D01*
X103630343Y-92919260D01*
G36*
X104418309Y-92919275D02*
G01*
X104547288Y-92923636D01*
X104656991Y-92936861D01*
X104749226Y-92959741D01*
X104825802Y-92993070D01*
X104888527Y-93037638D01*
X104939212Y-93094236D01*
X104979663Y-93163658D01*
X104980459Y-93165351D01*
X105004601Y-93227483D01*
X105013203Y-93282509D01*
X105006231Y-93337887D01*
X104983654Y-93401073D01*
X104979372Y-93410689D01*
X104950172Y-93466966D01*
X104917356Y-93510451D01*
X104875002Y-93547417D01*
X104817190Y-93584135D01*
X104813831Y-93586052D01*
X104763504Y-93610227D01*
X104706621Y-93628282D01*
X104639527Y-93640839D01*
X104558565Y-93648522D01*
X104460082Y-93651953D01*
X104425286Y-93652251D01*
X104259594Y-93652845D01*
X104236197Y-93623100D01*
X104229257Y-93613319D01*
X104223842Y-93601897D01*
X104219765Y-93586095D01*
X104216837Y-93563175D01*
X104214867Y-93530396D01*
X104214225Y-93506089D01*
X104370844Y-93506089D01*
X104464726Y-93506089D01*
X104519664Y-93504483D01*
X104576060Y-93500255D01*
X104622345Y-93494292D01*
X104625139Y-93493790D01*
X104707348Y-93471736D01*
X104771114Y-93438600D01*
X104818452Y-93392847D01*
X104851382Y-93332939D01*
X104857108Y-93317061D01*
X104862721Y-93292333D01*
X104860291Y-93267902D01*
X104848467Y-93235400D01*
X104841340Y-93219434D01*
X104818000Y-93177006D01*
X104789880Y-93147240D01*
X104758940Y-93126511D01*
X104696966Y-93099537D01*
X104617651Y-93079998D01*
X104525253Y-93068746D01*
X104458333Y-93066270D01*
X104370844Y-93065822D01*
X104370844Y-93506089D01*
X104214225Y-93506089D01*
X104213668Y-93485021D01*
X104213050Y-93424311D01*
X104212825Y-93345526D01*
X104212800Y-93283920D01*
X104212800Y-92974485D01*
X104240509Y-92946776D01*
X104252806Y-92935544D01*
X104266103Y-92927853D01*
X104284672Y-92923040D01*
X104312786Y-92920446D01*
X104354717Y-92919410D01*
X104414737Y-92919270D01*
X104418309Y-92919275D01*
G37*
X104418309Y-92919275D02*
X104547288Y-92923636D01*
X104656991Y-92936861D01*
X104749226Y-92959741D01*
X104825802Y-92993070D01*
X104888527Y-93037638D01*
X104939212Y-93094236D01*
X104979663Y-93163658D01*
X104980459Y-93165351D01*
X105004601Y-93227483D01*
X105013203Y-93282509D01*
X105006231Y-93337887D01*
X104983654Y-93401073D01*
X104979372Y-93410689D01*
X104950172Y-93466966D01*
X104917356Y-93510451D01*
X104875002Y-93547417D01*
X104817190Y-93584135D01*
X104813831Y-93586052D01*
X104763504Y-93610227D01*
X104706621Y-93628282D01*
X104639527Y-93640839D01*
X104558565Y-93648522D01*
X104460082Y-93651953D01*
X104425286Y-93652251D01*
X104259594Y-93652845D01*
X104236197Y-93623100D01*
X104229257Y-93613319D01*
X104223842Y-93601897D01*
X104219765Y-93586095D01*
X104216837Y-93563175D01*
X104214867Y-93530396D01*
X104214225Y-93506089D01*
X104370844Y-93506089D01*
X104464726Y-93506089D01*
X104519664Y-93504483D01*
X104576060Y-93500255D01*
X104622345Y-93494292D01*
X104625139Y-93493790D01*
X104707348Y-93471736D01*
X104771114Y-93438600D01*
X104818452Y-93392847D01*
X104851382Y-93332939D01*
X104857108Y-93317061D01*
X104862721Y-93292333D01*
X104860291Y-93267902D01*
X104848467Y-93235400D01*
X104841340Y-93219434D01*
X104818000Y-93177006D01*
X104789880Y-93147240D01*
X104758940Y-93126511D01*
X104696966Y-93099537D01*
X104617651Y-93079998D01*
X104525253Y-93068746D01*
X104458333Y-93066270D01*
X104370844Y-93065822D01*
X104370844Y-93506089D01*
X104214225Y-93506089D01*
X104213668Y-93485021D01*
X104213050Y-93424311D01*
X104212825Y-93345526D01*
X104212800Y-93283920D01*
X104212800Y-92974485D01*
X104240509Y-92946776D01*
X104252806Y-92935544D01*
X104266103Y-92927853D01*
X104284672Y-92923040D01*
X104312786Y-92920446D01*
X104354717Y-92919410D01*
X104414737Y-92919270D01*
X104418309Y-92919275D01*
G36*
X107144665Y-92921034D02*
G01*
X107164255Y-92928035D01*
X107165010Y-92928377D01*
X107191613Y-92948678D01*
X107206270Y-92969561D01*
X107209138Y-92979352D01*
X107208996Y-92992361D01*
X107204961Y-93010895D01*
X107196146Y-93037257D01*
X107181669Y-93073752D01*
X107160645Y-93122687D01*
X107132188Y-93186365D01*
X107095415Y-93267093D01*
X107075175Y-93311216D01*
X107038625Y-93389985D01*
X107004315Y-93462423D01*
X106973552Y-93525880D01*
X106947648Y-93577708D01*
X106927910Y-93615259D01*
X106915650Y-93635884D01*
X106913224Y-93638733D01*
X106882183Y-93651302D01*
X106847121Y-93649619D01*
X106819000Y-93634332D01*
X106817854Y-93633089D01*
X106806668Y-93616154D01*
X106787904Y-93583170D01*
X106763875Y-93538380D01*
X106736897Y-93486032D01*
X106727201Y-93466742D01*
X106654014Y-93320150D01*
X106574240Y-93479393D01*
X106545767Y-93534415D01*
X106519350Y-93582132D01*
X106497148Y-93618893D01*
X106481319Y-93641044D01*
X106475954Y-93645741D01*
X106434257Y-93652102D01*
X106399849Y-93638733D01*
X106389728Y-93624446D01*
X106372214Y-93592692D01*
X106348735Y-93546597D01*
X106320720Y-93489285D01*
X106289599Y-93423880D01*
X106256799Y-93353507D01*
X106223750Y-93281291D01*
X106191881Y-93210355D01*
X106162619Y-93143825D01*
X106137395Y-93084826D01*
X106117636Y-93036481D01*
X106104772Y-93001915D01*
X106100231Y-92984253D01*
X106100277Y-92983613D01*
X106111326Y-92961388D01*
X106133410Y-92938753D01*
X106134710Y-92937768D01*
X106161853Y-92922425D01*
X106186958Y-92922574D01*
X106196368Y-92925466D01*
X106207834Y-92931718D01*
X106220010Y-92944014D01*
X106234357Y-92964908D01*
X106252336Y-92996949D01*
X106275407Y-93042688D01*
X106305030Y-93104677D01*
X106331745Y-93161898D01*
X106362480Y-93228226D01*
X106390021Y-93287874D01*
X106412938Y-93337725D01*
X106429798Y-93374664D01*
X106439173Y-93395573D01*
X106440540Y-93398845D01*
X106446689Y-93393497D01*
X106460822Y-93371109D01*
X106481057Y-93334946D01*
X106505515Y-93288277D01*
X106515248Y-93269022D01*
X106548217Y-93204004D01*
X106573643Y-93156654D01*
X106593612Y-93124219D01*
X106610210Y-93103946D01*
X106625524Y-93093082D01*
X106641640Y-93088875D01*
X106652143Y-93088400D01*
X106670670Y-93090042D01*
X106686904Y-93096831D01*
X106703035Y-93111566D01*
X106721251Y-93137044D01*
X106743739Y-93176061D01*
X106772689Y-93231414D01*
X106788662Y-93262903D01*
X106814570Y-93313087D01*
X106837167Y-93354704D01*
X106854458Y-93384242D01*
X106864450Y-93398189D01*
X106865809Y-93398770D01*
X106872261Y-93387793D01*
X106886708Y-93359290D01*
X106907703Y-93316244D01*
X106933797Y-93261638D01*
X106963546Y-93198454D01*
X106978180Y-93167071D01*
X107016250Y-93086078D01*
X107046905Y-93023756D01*
X107071737Y-92978071D01*
X107092337Y-92946989D01*
X107110298Y-92928478D01*
X107127210Y-92920504D01*
X107144665Y-92921034D01*
G37*
X107144665Y-92921034D02*
X107164255Y-92928035D01*
X107165010Y-92928377D01*
X107191613Y-92948678D01*
X107206270Y-92969561D01*
X107209138Y-92979352D01*
X107208996Y-92992361D01*
X107204961Y-93010895D01*
X107196146Y-93037257D01*
X107181669Y-93073752D01*
X107160645Y-93122687D01*
X107132188Y-93186365D01*
X107095415Y-93267093D01*
X107075175Y-93311216D01*
X107038625Y-93389985D01*
X107004315Y-93462423D01*
X106973552Y-93525880D01*
X106947648Y-93577708D01*
X106927910Y-93615259D01*
X106915650Y-93635884D01*
X106913224Y-93638733D01*
X106882183Y-93651302D01*
X106847121Y-93649619D01*
X106819000Y-93634332D01*
X106817854Y-93633089D01*
X106806668Y-93616154D01*
X106787904Y-93583170D01*
X106763875Y-93538380D01*
X106736897Y-93486032D01*
X106727201Y-93466742D01*
X106654014Y-93320150D01*
X106574240Y-93479393D01*
X106545767Y-93534415D01*
X106519350Y-93582132D01*
X106497148Y-93618893D01*
X106481319Y-93641044D01*
X106475954Y-93645741D01*
X106434257Y-93652102D01*
X106399849Y-93638733D01*
X106389728Y-93624446D01*
X106372214Y-93592692D01*
X106348735Y-93546597D01*
X106320720Y-93489285D01*
X106289599Y-93423880D01*
X106256799Y-93353507D01*
X106223750Y-93281291D01*
X106191881Y-93210355D01*
X106162619Y-93143825D01*
X106137395Y-93084826D01*
X106117636Y-93036481D01*
X106104772Y-93001915D01*
X106100231Y-92984253D01*
X106100277Y-92983613D01*
X106111326Y-92961388D01*
X106133410Y-92938753D01*
X106134710Y-92937768D01*
X106161853Y-92922425D01*
X106186958Y-92922574D01*
X106196368Y-92925466D01*
X106207834Y-92931718D01*
X106220010Y-92944014D01*
X106234357Y-92964908D01*
X106252336Y-92996949D01*
X106275407Y-93042688D01*
X106305030Y-93104677D01*
X106331745Y-93161898D01*
X106362480Y-93228226D01*
X106390021Y-93287874D01*
X106412938Y-93337725D01*
X106429798Y-93374664D01*
X106439173Y-93395573D01*
X106440540Y-93398845D01*
X106446689Y-93393497D01*
X106460822Y-93371109D01*
X106481057Y-93334946D01*
X106505515Y-93288277D01*
X106515248Y-93269022D01*
X106548217Y-93204004D01*
X106573643Y-93156654D01*
X106593612Y-93124219D01*
X106610210Y-93103946D01*
X106625524Y-93093082D01*
X106641640Y-93088875D01*
X106652143Y-93088400D01*
X106670670Y-93090042D01*
X106686904Y-93096831D01*
X106703035Y-93111566D01*
X106721251Y-93137044D01*
X106743739Y-93176061D01*
X106772689Y-93231414D01*
X106788662Y-93262903D01*
X106814570Y-93313087D01*
X106837167Y-93354704D01*
X106854458Y-93384242D01*
X106864450Y-93398189D01*
X106865809Y-93398770D01*
X106872261Y-93387793D01*
X106886708Y-93359290D01*
X106907703Y-93316244D01*
X106933797Y-93261638D01*
X106963546Y-93198454D01*
X106978180Y-93167071D01*
X107016250Y-93086078D01*
X107046905Y-93023756D01*
X107071737Y-92978071D01*
X107092337Y-92946989D01*
X107110298Y-92928478D01*
X107127210Y-92920504D01*
X107144665Y-92921034D01*
G36*
X107588614Y-92925877D02*
G01*
X107612327Y-92940647D01*
X107638978Y-92962227D01*
X107638978Y-93283773D01*
X107638893Y-93377830D01*
X107638529Y-93451932D01*
X107637724Y-93508704D01*
X107636313Y-93550768D01*
X107634133Y-93580748D01*
X107631021Y-93601267D01*
X107626814Y-93614949D01*
X107621348Y-93624416D01*
X107617472Y-93629082D01*
X107586034Y-93649575D01*
X107550233Y-93648739D01*
X107518873Y-93631264D01*
X107492222Y-93609684D01*
X107492222Y-92962227D01*
X107518873Y-92940647D01*
X107544594Y-92924949D01*
X107565600Y-92919067D01*
X107588614Y-92925877D01*
G37*
X107588614Y-92925877D02*
X107612327Y-92940647D01*
X107638978Y-92962227D01*
X107638978Y-93283773D01*
X107638893Y-93377830D01*
X107638529Y-93451932D01*
X107637724Y-93508704D01*
X107636313Y-93550768D01*
X107634133Y-93580748D01*
X107631021Y-93601267D01*
X107626814Y-93614949D01*
X107621348Y-93624416D01*
X107617472Y-93629082D01*
X107586034Y-93649575D01*
X107550233Y-93648739D01*
X107518873Y-93631264D01*
X107492222Y-93609684D01*
X107492222Y-92962227D01*
X107518873Y-92940647D01*
X107544594Y-92924949D01*
X107565600Y-92919067D01*
X107588614Y-92925877D01*
G36*
X108363065Y-92919163D02*
G01*
X108441772Y-92919542D01*
X108502863Y-92920333D01*
X108548817Y-92921670D01*
X108582114Y-92923683D01*
X108605236Y-92926506D01*
X108620662Y-92930269D01*
X108630871Y-92935105D01*
X108635813Y-92938822D01*
X108661457Y-92971358D01*
X108664559Y-93005138D01*
X108648711Y-93035826D01*
X108638348Y-93048089D01*
X108627196Y-93056450D01*
X108611035Y-93061657D01*
X108585642Y-93064457D01*
X108546798Y-93065596D01*
X108490280Y-93065821D01*
X108479180Y-93065822D01*
X108333244Y-93065822D01*
X108333244Y-93336756D01*
X108333148Y-93422154D01*
X108332711Y-93487864D01*
X108331712Y-93536774D01*
X108329928Y-93571773D01*
X108327137Y-93595749D01*
X108323117Y-93611593D01*
X108317645Y-93622191D01*
X108310666Y-93630267D01*
X108277734Y-93650112D01*
X108243354Y-93648548D01*
X108212176Y-93625906D01*
X108209886Y-93623100D01*
X108202429Y-93612492D01*
X108196747Y-93600081D01*
X108192601Y-93582850D01*
X108189750Y-93557784D01*
X108187954Y-93521867D01*
X108186972Y-93472083D01*
X108186564Y-93405417D01*
X108186489Y-93329589D01*
X108186489Y-93065822D01*
X108047127Y-93065822D01*
X107987322Y-93065418D01*
X107945918Y-93063840D01*
X107918748Y-93060547D01*
X107901646Y-93054992D01*
X107890443Y-93046631D01*
X107889083Y-93045178D01*
X107872725Y-93011939D01*
X107874172Y-92974362D01*
X107892978Y-92941645D01*
X107900250Y-92935298D01*
X107909627Y-92930266D01*
X107923609Y-92926396D01*
X107944696Y-92923537D01*
X107975389Y-92921535D01*
X108018189Y-92920239D01*
X108075595Y-92919498D01*
X108150110Y-92919158D01*
X108244233Y-92919068D01*
X108264260Y-92919067D01*
X108363065Y-92919163D01*
G37*
X108363065Y-92919163D02*
X108441772Y-92919542D01*
X108502863Y-92920333D01*
X108548817Y-92921670D01*
X108582114Y-92923683D01*
X108605236Y-92926506D01*
X108620662Y-92930269D01*
X108630871Y-92935105D01*
X108635813Y-92938822D01*
X108661457Y-92971358D01*
X108664559Y-93005138D01*
X108648711Y-93035826D01*
X108638348Y-93048089D01*
X108627196Y-93056450D01*
X108611035Y-93061657D01*
X108585642Y-93064457D01*
X108546798Y-93065596D01*
X108490280Y-93065821D01*
X108479180Y-93065822D01*
X108333244Y-93065822D01*
X108333244Y-93336756D01*
X108333148Y-93422154D01*
X108332711Y-93487864D01*
X108331712Y-93536774D01*
X108329928Y-93571773D01*
X108327137Y-93595749D01*
X108323117Y-93611593D01*
X108317645Y-93622191D01*
X108310666Y-93630267D01*
X108277734Y-93650112D01*
X108243354Y-93648548D01*
X108212176Y-93625906D01*
X108209886Y-93623100D01*
X108202429Y-93612492D01*
X108196747Y-93600081D01*
X108192601Y-93582850D01*
X108189750Y-93557784D01*
X108187954Y-93521867D01*
X108186972Y-93472083D01*
X108186564Y-93405417D01*
X108186489Y-93329589D01*
X108186489Y-93065822D01*
X108047127Y-93065822D01*
X107987322Y-93065418D01*
X107945918Y-93063840D01*
X107918748Y-93060547D01*
X107901646Y-93054992D01*
X107890443Y-93046631D01*
X107889083Y-93045178D01*
X107872725Y-93011939D01*
X107874172Y-92974362D01*
X107892978Y-92941645D01*
X107900250Y-92935298D01*
X107909627Y-92930266D01*
X107923609Y-92926396D01*
X107944696Y-92923537D01*
X107975389Y-92921535D01*
X108018189Y-92920239D01*
X108075595Y-92919498D01*
X108150110Y-92919158D01*
X108244233Y-92919068D01*
X108264260Y-92919067D01*
X108363065Y-92919163D01*
G36*
X109628823Y-92924533D02*
G01*
X109660202Y-92946776D01*
X109687911Y-92974485D01*
X109687911Y-93283920D01*
X109687838Y-93375799D01*
X109687495Y-93447840D01*
X109686692Y-93502780D01*
X109685241Y-93543360D01*
X109682952Y-93572317D01*
X109679636Y-93592391D01*
X109675105Y-93606321D01*
X109669169Y-93616845D01*
X109664514Y-93623100D01*
X109633783Y-93647673D01*
X109598496Y-93650341D01*
X109566245Y-93635271D01*
X109555588Y-93626374D01*
X109548464Y-93614557D01*
X109544167Y-93595526D01*
X109541991Y-93564992D01*
X109541228Y-93518662D01*
X109541155Y-93482871D01*
X109541155Y-93348045D01*
X109044444Y-93348045D01*
X109044444Y-93470700D01*
X109043931Y-93526787D01*
X109041876Y-93565333D01*
X109037508Y-93591361D01*
X109030056Y-93609897D01*
X109021047Y-93623100D01*
X108990144Y-93647604D01*
X108955196Y-93650506D01*
X108921738Y-93633089D01*
X108912604Y-93623959D01*
X108906152Y-93611855D01*
X108901897Y-93593001D01*
X108899352Y-93563620D01*
X108898029Y-93519937D01*
X108897443Y-93458175D01*
X108897375Y-93444000D01*
X108896891Y-93327631D01*
X108896641Y-93231727D01*
X108896723Y-93154177D01*
X108897231Y-93092869D01*
X108898262Y-93045690D01*
X108899913Y-93010530D01*
X108902279Y-92985276D01*
X108905457Y-92967817D01*
X108909544Y-92956041D01*
X108914634Y-92947835D01*
X108920266Y-92941645D01*
X108952128Y-92921844D01*
X108985357Y-92924533D01*
X109016735Y-92946776D01*
X109029433Y-92961126D01*
X109037526Y-92976978D01*
X109042042Y-92999554D01*
X109044006Y-93034078D01*
X109044444Y-93085776D01*
X109044444Y-93201289D01*
X109541155Y-93201289D01*
X109541155Y-93082756D01*
X109541662Y-93028148D01*
X109543698Y-92991275D01*
X109548035Y-92967307D01*
X109555447Y-92951415D01*
X109563733Y-92941645D01*
X109595594Y-92921844D01*
X109628823Y-92924533D01*
G37*
X109628823Y-92924533D02*
X109660202Y-92946776D01*
X109687911Y-92974485D01*
X109687911Y-93283920D01*
X109687838Y-93375799D01*
X109687495Y-93447840D01*
X109686692Y-93502780D01*
X109685241Y-93543360D01*
X109682952Y-93572317D01*
X109679636Y-93592391D01*
X109675105Y-93606321D01*
X109669169Y-93616845D01*
X109664514Y-93623100D01*
X109633783Y-93647673D01*
X109598496Y-93650341D01*
X109566245Y-93635271D01*
X109555588Y-93626374D01*
X109548464Y-93614557D01*
X109544167Y-93595526D01*
X109541991Y-93564992D01*
X109541228Y-93518662D01*
X109541155Y-93482871D01*
X109541155Y-93348045D01*
X109044444Y-93348045D01*
X109044444Y-93470700D01*
X109043931Y-93526787D01*
X109041876Y-93565333D01*
X109037508Y-93591361D01*
X109030056Y-93609897D01*
X109021047Y-93623100D01*
X108990144Y-93647604D01*
X108955196Y-93650506D01*
X108921738Y-93633089D01*
X108912604Y-93623959D01*
X108906152Y-93611855D01*
X108901897Y-93593001D01*
X108899352Y-93563620D01*
X108898029Y-93519937D01*
X108897443Y-93458175D01*
X108897375Y-93444000D01*
X108896891Y-93327631D01*
X108896641Y-93231727D01*
X108896723Y-93154177D01*
X108897231Y-93092869D01*
X108898262Y-93045690D01*
X108899913Y-93010530D01*
X108902279Y-92985276D01*
X108905457Y-92967817D01*
X108909544Y-92956041D01*
X108914634Y-92947835D01*
X108920266Y-92941645D01*
X108952128Y-92921844D01*
X108985357Y-92924533D01*
X109016735Y-92946776D01*
X109029433Y-92961126D01*
X109037526Y-92976978D01*
X109042042Y-92999554D01*
X109044006Y-93034078D01*
X109044444Y-93085776D01*
X109044444Y-93201289D01*
X109541155Y-93201289D01*
X109541155Y-93082756D01*
X109541662Y-93028148D01*
X109543698Y-92991275D01*
X109548035Y-92967307D01*
X109555447Y-92951415D01*
X109563733Y-92941645D01*
X109595594Y-92921844D01*
X109628823Y-92924533D01*
G36*
X101649744Y-85719918D02*
G01*
X101705201Y-85747568D01*
X101754148Y-85798480D01*
X101767629Y-85817338D01*
X101782314Y-85842015D01*
X101791842Y-85868816D01*
X101797293Y-85904587D01*
X101799747Y-85956169D01*
X101800286Y-86024267D01*
X101797852Y-86117588D01*
X101789394Y-86187657D01*
X101773174Y-86239931D01*
X101747454Y-86279869D01*
X101710497Y-86312929D01*
X101707782Y-86314886D01*
X101671360Y-86334908D01*
X101627502Y-86344815D01*
X101571724Y-86347257D01*
X101481048Y-86347257D01*
X101481010Y-86435283D01*
X101480166Y-86484308D01*
X101475024Y-86513065D01*
X101461587Y-86530311D01*
X101435858Y-86544808D01*
X101429679Y-86547769D01*
X101400764Y-86561648D01*
X101378376Y-86570414D01*
X101361729Y-86571171D01*
X101350036Y-86561023D01*
X101342510Y-86537073D01*
X101338366Y-86496426D01*
X101336815Y-86436186D01*
X101337071Y-86353455D01*
X101338349Y-86245339D01*
X101338748Y-86213000D01*
X101340185Y-86101524D01*
X101341472Y-86028603D01*
X101480971Y-86028603D01*
X101481755Y-86090499D01*
X101485240Y-86130997D01*
X101493124Y-86157708D01*
X101507105Y-86178244D01*
X101516597Y-86188260D01*
X101555404Y-86217567D01*
X101589763Y-86219952D01*
X101625216Y-86195750D01*
X101626114Y-86194857D01*
X101640539Y-86176153D01*
X101649313Y-86150732D01*
X101653739Y-86111584D01*
X101655118Y-86051697D01*
X101655143Y-86038430D01*
X101651812Y-85955901D01*
X101640969Y-85898691D01*
X101621340Y-85863766D01*
X101591650Y-85848094D01*
X101574491Y-85846514D01*
X101533766Y-85853926D01*
X101505832Y-85878330D01*
X101489017Y-85922980D01*
X101481650Y-85991130D01*
X101480971Y-86028603D01*
X101341472Y-86028603D01*
X101341708Y-86015245D01*
X101343677Y-85950333D01*
X101346450Y-85902958D01*
X101350388Y-85869290D01*
X101355849Y-85845498D01*
X101363192Y-85827753D01*
X101372777Y-85812224D01*
X101376887Y-85806381D01*
X101431405Y-85751185D01*
X101500336Y-85719890D01*
X101580072Y-85711165D01*
X101649744Y-85719918D01*
G37*
X101649744Y-85719918D02*
X101705201Y-85747568D01*
X101754148Y-85798480D01*
X101767629Y-85817338D01*
X101782314Y-85842015D01*
X101791842Y-85868816D01*
X101797293Y-85904587D01*
X101799747Y-85956169D01*
X101800286Y-86024267D01*
X101797852Y-86117588D01*
X101789394Y-86187657D01*
X101773174Y-86239931D01*
X101747454Y-86279869D01*
X101710497Y-86312929D01*
X101707782Y-86314886D01*
X101671360Y-86334908D01*
X101627502Y-86344815D01*
X101571724Y-86347257D01*
X101481048Y-86347257D01*
X101481010Y-86435283D01*
X101480166Y-86484308D01*
X101475024Y-86513065D01*
X101461587Y-86530311D01*
X101435858Y-86544808D01*
X101429679Y-86547769D01*
X101400764Y-86561648D01*
X101378376Y-86570414D01*
X101361729Y-86571171D01*
X101350036Y-86561023D01*
X101342510Y-86537073D01*
X101338366Y-86496426D01*
X101336815Y-86436186D01*
X101337071Y-86353455D01*
X101338349Y-86245339D01*
X101338748Y-86213000D01*
X101340185Y-86101524D01*
X101341472Y-86028603D01*
X101480971Y-86028603D01*
X101481755Y-86090499D01*
X101485240Y-86130997D01*
X101493124Y-86157708D01*
X101507105Y-86178244D01*
X101516597Y-86188260D01*
X101555404Y-86217567D01*
X101589763Y-86219952D01*
X101625216Y-86195750D01*
X101626114Y-86194857D01*
X101640539Y-86176153D01*
X101649313Y-86150732D01*
X101653739Y-86111584D01*
X101655118Y-86051697D01*
X101655143Y-86038430D01*
X101651812Y-85955901D01*
X101640969Y-85898691D01*
X101621340Y-85863766D01*
X101591650Y-85848094D01*
X101574491Y-85846514D01*
X101533766Y-85853926D01*
X101505832Y-85878330D01*
X101489017Y-85922980D01*
X101481650Y-85991130D01*
X101480971Y-86028603D01*
X101341472Y-86028603D01*
X101341708Y-86015245D01*
X101343677Y-85950333D01*
X101346450Y-85902958D01*
X101350388Y-85869290D01*
X101355849Y-85845498D01*
X101363192Y-85827753D01*
X101372777Y-85812224D01*
X101376887Y-85806381D01*
X101431405Y-85751185D01*
X101500336Y-85719890D01*
X101580072Y-85711165D01*
X101649744Y-85719918D01*
G36*
X102766093Y-85727780D02*
G01*
X102812672Y-85754723D01*
X102845057Y-85781466D01*
X102868742Y-85809484D01*
X102885059Y-85843748D01*
X102895339Y-85889227D01*
X102900914Y-85950892D01*
X102903116Y-86033711D01*
X102903371Y-86093246D01*
X102903371Y-86312391D01*
X102841686Y-86340044D01*
X102780000Y-86367697D01*
X102772743Y-86127670D01*
X102769744Y-86038028D01*
X102766598Y-85972962D01*
X102762701Y-85928026D01*
X102757447Y-85898770D01*
X102750231Y-85880748D01*
X102740450Y-85869511D01*
X102737312Y-85867079D01*
X102689761Y-85848083D01*
X102641697Y-85855600D01*
X102613086Y-85875543D01*
X102601447Y-85889675D01*
X102593391Y-85908220D01*
X102588271Y-85936334D01*
X102585441Y-85979173D01*
X102584256Y-86041895D01*
X102584057Y-86107261D01*
X102584018Y-86189268D01*
X102582614Y-86247316D01*
X102577914Y-86286465D01*
X102567987Y-86311780D01*
X102550903Y-86328323D01*
X102524732Y-86341156D01*
X102489775Y-86354491D01*
X102451596Y-86369007D01*
X102456141Y-86111389D01*
X102457971Y-86018519D01*
X102460112Y-85949889D01*
X102463181Y-85900711D01*
X102467794Y-85866198D01*
X102474568Y-85841562D01*
X102484119Y-85822016D01*
X102495634Y-85804770D01*
X102551190Y-85749680D01*
X102618980Y-85717822D01*
X102692713Y-85710191D01*
X102766093Y-85727780D01*
G37*
X102766093Y-85727780D02*
X102812672Y-85754723D01*
X102845057Y-85781466D01*
X102868742Y-85809484D01*
X102885059Y-85843748D01*
X102895339Y-85889227D01*
X102900914Y-85950892D01*
X102903116Y-86033711D01*
X102903371Y-86093246D01*
X102903371Y-86312391D01*
X102841686Y-86340044D01*
X102780000Y-86367697D01*
X102772743Y-86127670D01*
X102769744Y-86038028D01*
X102766598Y-85972962D01*
X102762701Y-85928026D01*
X102757447Y-85898770D01*
X102750231Y-85880748D01*
X102740450Y-85869511D01*
X102737312Y-85867079D01*
X102689761Y-85848083D01*
X102641697Y-85855600D01*
X102613086Y-85875543D01*
X102601447Y-85889675D01*
X102593391Y-85908220D01*
X102588271Y-85936334D01*
X102585441Y-85979173D01*
X102584256Y-86041895D01*
X102584057Y-86107261D01*
X102584018Y-86189268D01*
X102582614Y-86247316D01*
X102577914Y-86286465D01*
X102567987Y-86311780D01*
X102550903Y-86328323D01*
X102524732Y-86341156D01*
X102489775Y-86354491D01*
X102451596Y-86369007D01*
X102456141Y-86111389D01*
X102457971Y-86018519D01*
X102460112Y-85949889D01*
X102463181Y-85900711D01*
X102467794Y-85866198D01*
X102474568Y-85841562D01*
X102484119Y-85822016D01*
X102495634Y-85804770D01*
X102551190Y-85749680D01*
X102618980Y-85717822D01*
X102692713Y-85710191D01*
X102766093Y-85727780D01*
G36*
X101091115Y-85721962D02*
G01*
X101159145Y-85757733D01*
X101209351Y-85815301D01*
X101227185Y-85852312D01*
X101241063Y-85907882D01*
X101248167Y-85978096D01*
X101248840Y-86054727D01*
X101243427Y-86129552D01*
X101232270Y-86194342D01*
X101215714Y-86240873D01*
X101210626Y-86248887D01*
X101150355Y-86308707D01*
X101078769Y-86344535D01*
X101001092Y-86355020D01*
X100922548Y-86338810D01*
X100900689Y-86329092D01*
X100858122Y-86299143D01*
X100820763Y-86259433D01*
X100817232Y-86254397D01*
X100802881Y-86230124D01*
X100793394Y-86204178D01*
X100787790Y-86170022D01*
X100785086Y-86121119D01*
X100784299Y-86050935D01*
X100784286Y-86035200D01*
X100784322Y-86030192D01*
X100929429Y-86030192D01*
X100930273Y-86096430D01*
X100933596Y-86140386D01*
X100940583Y-86168779D01*
X100952416Y-86188325D01*
X100958457Y-86194857D01*
X100993186Y-86219680D01*
X101026903Y-86218548D01*
X101060995Y-86197016D01*
X101081329Y-86174029D01*
X101093371Y-86140478D01*
X101100134Y-86087569D01*
X101100598Y-86081399D01*
X101101752Y-85985513D01*
X101089688Y-85914299D01*
X101064570Y-85868194D01*
X101026560Y-85847635D01*
X101012992Y-85846514D01*
X100977364Y-85852152D01*
X100952994Y-85871686D01*
X100938093Y-85909042D01*
X100930875Y-85968150D01*
X100929429Y-86030192D01*
X100784322Y-86030192D01*
X100784826Y-85960413D01*
X100787096Y-85908159D01*
X100792068Y-85871949D01*
X100800713Y-85845299D01*
X100814005Y-85821722D01*
X100816943Y-85817338D01*
X100866313Y-85758249D01*
X100920109Y-85723947D01*
X100985602Y-85710331D01*
X101007842Y-85709665D01*
X101091115Y-85721962D01*
G37*
X101091115Y-85721962D02*
X101159145Y-85757733D01*
X101209351Y-85815301D01*
X101227185Y-85852312D01*
X101241063Y-85907882D01*
X101248167Y-85978096D01*
X101248840Y-86054727D01*
X101243427Y-86129552D01*
X101232270Y-86194342D01*
X101215714Y-86240873D01*
X101210626Y-86248887D01*
X101150355Y-86308707D01*
X101078769Y-86344535D01*
X101001092Y-86355020D01*
X100922548Y-86338810D01*
X100900689Y-86329092D01*
X100858122Y-86299143D01*
X100820763Y-86259433D01*
X100817232Y-86254397D01*
X100802881Y-86230124D01*
X100793394Y-86204178D01*
X100787790Y-86170022D01*
X100785086Y-86121119D01*
X100784299Y-86050935D01*
X100784286Y-86035200D01*
X100784322Y-86030192D01*
X100929429Y-86030192D01*
X100930273Y-86096430D01*
X100933596Y-86140386D01*
X100940583Y-86168779D01*
X100952416Y-86188325D01*
X100958457Y-86194857D01*
X100993186Y-86219680D01*
X101026903Y-86218548D01*
X101060995Y-86197016D01*
X101081329Y-86174029D01*
X101093371Y-86140478D01*
X101100134Y-86087569D01*
X101100598Y-86081399D01*
X101101752Y-85985513D01*
X101089688Y-85914299D01*
X101064570Y-85868194D01*
X101026560Y-85847635D01*
X101012992Y-85846514D01*
X100977364Y-85852152D01*
X100952994Y-85871686D01*
X100938093Y-85909042D01*
X100930875Y-85968150D01*
X100929429Y-86030192D01*
X100784322Y-86030192D01*
X100784826Y-85960413D01*
X100787096Y-85908159D01*
X100792068Y-85871949D01*
X100800713Y-85845299D01*
X100814005Y-85821722D01*
X100816943Y-85817338D01*
X100866313Y-85758249D01*
X100920109Y-85723947D01*
X100985602Y-85710331D01*
X101007842Y-85709665D01*
X101091115Y-85721962D01*
G36*
X102218303Y-85731239D02*
G01*
X102275527Y-85769735D01*
X102319749Y-85825335D01*
X102346167Y-85896086D01*
X102351510Y-85948162D01*
X102350903Y-85969893D01*
X102345822Y-85986531D01*
X102331855Y-86001437D01*
X102304589Y-86017973D01*
X102259612Y-86039498D01*
X102192511Y-86069374D01*
X102192171Y-86069524D01*
X102130407Y-86097813D01*
X102079759Y-86122933D01*
X102045404Y-86142179D01*
X102032518Y-86152848D01*
X102032514Y-86152934D01*
X102043872Y-86176166D01*
X102070431Y-86201774D01*
X102100923Y-86220221D01*
X102116370Y-86223886D01*
X102158515Y-86211212D01*
X102194808Y-86179471D01*
X102212517Y-86144572D01*
X102229552Y-86118845D01*
X102262922Y-86089546D01*
X102302149Y-86064235D01*
X102336756Y-86050471D01*
X102343993Y-86049714D01*
X102352139Y-86062160D01*
X102352630Y-86093972D01*
X102346643Y-86136866D01*
X102335357Y-86182558D01*
X102319950Y-86222761D01*
X102319171Y-86224322D01*
X102272804Y-86289062D01*
X102212711Y-86333097D01*
X102144465Y-86354711D01*
X102073638Y-86352185D01*
X102005804Y-86323804D01*
X102002788Y-86321808D01*
X101949427Y-86273448D01*
X101914340Y-86210352D01*
X101894922Y-86127387D01*
X101892316Y-86104078D01*
X101887701Y-85994055D01*
X101893233Y-85942748D01*
X102032514Y-85942748D01*
X102034324Y-85974753D01*
X102044222Y-85984093D01*
X102068898Y-85977105D01*
X102107795Y-85960587D01*
X102151275Y-85939881D01*
X102152356Y-85939333D01*
X102189209Y-85919949D01*
X102204000Y-85907013D01*
X102200353Y-85893451D01*
X102184995Y-85875632D01*
X102145923Y-85849845D01*
X102103846Y-85847950D01*
X102066103Y-85866717D01*
X102040034Y-85902915D01*
X102032514Y-85942748D01*
X101893233Y-85942748D01*
X101897194Y-85906027D01*
X101921550Y-85836212D01*
X101955456Y-85787302D01*
X102016653Y-85737878D01*
X102084063Y-85713359D01*
X102152880Y-85711797D01*
X102218303Y-85731239D01*
G37*
X102218303Y-85731239D02*
X102275527Y-85769735D01*
X102319749Y-85825335D01*
X102346167Y-85896086D01*
X102351510Y-85948162D01*
X102350903Y-85969893D01*
X102345822Y-85986531D01*
X102331855Y-86001437D01*
X102304589Y-86017973D01*
X102259612Y-86039498D01*
X102192511Y-86069374D01*
X102192171Y-86069524D01*
X102130407Y-86097813D01*
X102079759Y-86122933D01*
X102045404Y-86142179D01*
X102032518Y-86152848D01*
X102032514Y-86152934D01*
X102043872Y-86176166D01*
X102070431Y-86201774D01*
X102100923Y-86220221D01*
X102116370Y-86223886D01*
X102158515Y-86211212D01*
X102194808Y-86179471D01*
X102212517Y-86144572D01*
X102229552Y-86118845D01*
X102262922Y-86089546D01*
X102302149Y-86064235D01*
X102336756Y-86050471D01*
X102343993Y-86049714D01*
X102352139Y-86062160D01*
X102352630Y-86093972D01*
X102346643Y-86136866D01*
X102335357Y-86182558D01*
X102319950Y-86222761D01*
X102319171Y-86224322D01*
X102272804Y-86289062D01*
X102212711Y-86333097D01*
X102144465Y-86354711D01*
X102073638Y-86352185D01*
X102005804Y-86323804D01*
X102002788Y-86321808D01*
X101949427Y-86273448D01*
X101914340Y-86210352D01*
X101894922Y-86127387D01*
X101892316Y-86104078D01*
X101887701Y-85994055D01*
X101893233Y-85942748D01*
X102032514Y-85942748D01*
X102034324Y-85974753D01*
X102044222Y-85984093D01*
X102068898Y-85977105D01*
X102107795Y-85960587D01*
X102151275Y-85939881D01*
X102152356Y-85939333D01*
X102189209Y-85919949D01*
X102204000Y-85907013D01*
X102200353Y-85893451D01*
X102184995Y-85875632D01*
X102145923Y-85849845D01*
X102103846Y-85847950D01*
X102066103Y-85866717D01*
X102040034Y-85902915D01*
X102032514Y-85942748D01*
X101893233Y-85942748D01*
X101897194Y-85906027D01*
X101921550Y-85836212D01*
X101955456Y-85787302D01*
X102016653Y-85737878D01*
X102084063Y-85713359D01*
X102152880Y-85711797D01*
X102218303Y-85731239D01*
G36*
X103425886Y-85651289D02*
G01*
X103430139Y-85710613D01*
X103435025Y-85745572D01*
X103441795Y-85760820D01*
X103451702Y-85761015D01*
X103454914Y-85759195D01*
X103497644Y-85746015D01*
X103553227Y-85746785D01*
X103609737Y-85760333D01*
X103645082Y-85777861D01*
X103681321Y-85805861D01*
X103707813Y-85837549D01*
X103725999Y-85877813D01*
X103737322Y-85931543D01*
X103743222Y-86003626D01*
X103745143Y-86098951D01*
X103745177Y-86117237D01*
X103745200Y-86322646D01*
X103699491Y-86338580D01*
X103667027Y-86349420D01*
X103649215Y-86354468D01*
X103648691Y-86354514D01*
X103646937Y-86340828D01*
X103645444Y-86303076D01*
X103644326Y-86246224D01*
X103643697Y-86175234D01*
X103643600Y-86132073D01*
X103643398Y-86046973D01*
X103642358Y-85985981D01*
X103639831Y-85944177D01*
X103635164Y-85916642D01*
X103627707Y-85898456D01*
X103616811Y-85884698D01*
X103610007Y-85878073D01*
X103563272Y-85851375D01*
X103512272Y-85849375D01*
X103466001Y-85871955D01*
X103457444Y-85880107D01*
X103444893Y-85895436D01*
X103436188Y-85913618D01*
X103430631Y-85939909D01*
X103427526Y-85979562D01*
X103426176Y-86037832D01*
X103425886Y-86118173D01*
X103425886Y-86322646D01*
X103380177Y-86338580D01*
X103347713Y-86349420D01*
X103329901Y-86354468D01*
X103329377Y-86354514D01*
X103328037Y-86340623D01*
X103326828Y-86301439D01*
X103325801Y-86240700D01*
X103325002Y-86162141D01*
X103324481Y-86069498D01*
X103324286Y-85966509D01*
X103324286Y-85569342D01*
X103371457Y-85549444D01*
X103418629Y-85529547D01*
X103425886Y-85651289D01*
G37*
X103425886Y-85651289D02*
X103430139Y-85710613D01*
X103435025Y-85745572D01*
X103441795Y-85760820D01*
X103451702Y-85761015D01*
X103454914Y-85759195D01*
X103497644Y-85746015D01*
X103553227Y-85746785D01*
X103609737Y-85760333D01*
X103645082Y-85777861D01*
X103681321Y-85805861D01*
X103707813Y-85837549D01*
X103725999Y-85877813D01*
X103737322Y-85931543D01*
X103743222Y-86003626D01*
X103745143Y-86098951D01*
X103745177Y-86117237D01*
X103745200Y-86322646D01*
X103699491Y-86338580D01*
X103667027Y-86349420D01*
X103649215Y-86354468D01*
X103648691Y-86354514D01*
X103646937Y-86340828D01*
X103645444Y-86303076D01*
X103644326Y-86246224D01*
X103643697Y-86175234D01*
X103643600Y-86132073D01*
X103643398Y-86046973D01*
X103642358Y-85985981D01*
X103639831Y-85944177D01*
X103635164Y-85916642D01*
X103627707Y-85898456D01*
X103616811Y-85884698D01*
X103610007Y-85878073D01*
X103563272Y-85851375D01*
X103512272Y-85849375D01*
X103466001Y-85871955D01*
X103457444Y-85880107D01*
X103444893Y-85895436D01*
X103436188Y-85913618D01*
X103430631Y-85939909D01*
X103427526Y-85979562D01*
X103426176Y-86037832D01*
X103425886Y-86118173D01*
X103425886Y-86322646D01*
X103380177Y-86338580D01*
X103347713Y-86349420D01*
X103329901Y-86354468D01*
X103329377Y-86354514D01*
X103328037Y-86340623D01*
X103326828Y-86301439D01*
X103325801Y-86240700D01*
X103325002Y-86162141D01*
X103324481Y-86069498D01*
X103324286Y-85966509D01*
X103324286Y-85569342D01*
X103371457Y-85549444D01*
X103418629Y-85529547D01*
X103425886Y-85651289D01*
G36*
X104089744Y-85750968D02*
G01*
X104146616Y-85772087D01*
X104147267Y-85772493D01*
X104182440Y-85798380D01*
X104208407Y-85828633D01*
X104226670Y-85868058D01*
X104238732Y-85921462D01*
X104246096Y-85993651D01*
X104250264Y-86089432D01*
X104250629Y-86103078D01*
X104255876Y-86308842D01*
X104211716Y-86331678D01*
X104179763Y-86347110D01*
X104160470Y-86354423D01*
X104159578Y-86354514D01*
X104156239Y-86341022D01*
X104153587Y-86304626D01*
X104151956Y-86251452D01*
X104151600Y-86208393D01*
X104151592Y-86138641D01*
X104148403Y-86094837D01*
X104137288Y-86073944D01*
X104113501Y-86072925D01*
X104072296Y-86088741D01*
X104010086Y-86117815D01*
X103964341Y-86141963D01*
X103940813Y-86162913D01*
X103933896Y-86185747D01*
X103933886Y-86186877D01*
X103945299Y-86226212D01*
X103979092Y-86247462D01*
X104030809Y-86250539D01*
X104068061Y-86250006D01*
X104087703Y-86260735D01*
X104099952Y-86286505D01*
X104107002Y-86319337D01*
X104096842Y-86337966D01*
X104093017Y-86340632D01*
X104057001Y-86351340D01*
X104006566Y-86352856D01*
X103954626Y-86345759D01*
X103917822Y-86332788D01*
X103866938Y-86289585D01*
X103838014Y-86229446D01*
X103832286Y-86182462D01*
X103836657Y-86140082D01*
X103852475Y-86105488D01*
X103883797Y-86074763D01*
X103934678Y-86043990D01*
X104009176Y-86009252D01*
X104013714Y-86007288D01*
X104080821Y-85976287D01*
X104122232Y-85950862D01*
X104139981Y-85928014D01*
X104136107Y-85904745D01*
X104112643Y-85878056D01*
X104105627Y-85871914D01*
X104058630Y-85848100D01*
X104009933Y-85849103D01*
X103967522Y-85872451D01*
X103939384Y-85915675D01*
X103936769Y-85924160D01*
X103911308Y-85965308D01*
X103879001Y-85985128D01*
X103832286Y-86004770D01*
X103832286Y-85953950D01*
X103846496Y-85880082D01*
X103888675Y-85812327D01*
X103910624Y-85789661D01*
X103960517Y-85760569D01*
X104023967Y-85747400D01*
X104089744Y-85750968D01*
G37*
X104089744Y-85750968D02*
X104146616Y-85772087D01*
X104147267Y-85772493D01*
X104182440Y-85798380D01*
X104208407Y-85828633D01*
X104226670Y-85868058D01*
X104238732Y-85921462D01*
X104246096Y-85993651D01*
X104250264Y-86089432D01*
X104250629Y-86103078D01*
X104255876Y-86308842D01*
X104211716Y-86331678D01*
X104179763Y-86347110D01*
X104160470Y-86354423D01*
X104159578Y-86354514D01*
X104156239Y-86341022D01*
X104153587Y-86304626D01*
X104151956Y-86251452D01*
X104151600Y-86208393D01*
X104151592Y-86138641D01*
X104148403Y-86094837D01*
X104137288Y-86073944D01*
X104113501Y-86072925D01*
X104072296Y-86088741D01*
X104010086Y-86117815D01*
X103964341Y-86141963D01*
X103940813Y-86162913D01*
X103933896Y-86185747D01*
X103933886Y-86186877D01*
X103945299Y-86226212D01*
X103979092Y-86247462D01*
X104030809Y-86250539D01*
X104068061Y-86250006D01*
X104087703Y-86260735D01*
X104099952Y-86286505D01*
X104107002Y-86319337D01*
X104096842Y-86337966D01*
X104093017Y-86340632D01*
X104057001Y-86351340D01*
X104006566Y-86352856D01*
X103954626Y-86345759D01*
X103917822Y-86332788D01*
X103866938Y-86289585D01*
X103838014Y-86229446D01*
X103832286Y-86182462D01*
X103836657Y-86140082D01*
X103852475Y-86105488D01*
X103883797Y-86074763D01*
X103934678Y-86043990D01*
X104009176Y-86009252D01*
X104013714Y-86007288D01*
X104080821Y-85976287D01*
X104122232Y-85950862D01*
X104139981Y-85928014D01*
X104136107Y-85904745D01*
X104112643Y-85878056D01*
X104105627Y-85871914D01*
X104058630Y-85848100D01*
X104009933Y-85849103D01*
X103967522Y-85872451D01*
X103939384Y-85915675D01*
X103936769Y-85924160D01*
X103911308Y-85965308D01*
X103879001Y-85985128D01*
X103832286Y-86004770D01*
X103832286Y-85953950D01*
X103846496Y-85880082D01*
X103888675Y-85812327D01*
X103910624Y-85789661D01*
X103960517Y-85760569D01*
X104023967Y-85747400D01*
X104089744Y-85750968D01*
G36*
X104579926Y-85749755D02*
G01*
X104645858Y-85774084D01*
X104699273Y-85817117D01*
X104720164Y-85847409D01*
X104742939Y-85902994D01*
X104742466Y-85943186D01*
X104718562Y-85970217D01*
X104709717Y-85974813D01*
X104671530Y-85989144D01*
X104652028Y-85985472D01*
X104645422Y-85961407D01*
X104645086Y-85948114D01*
X104632992Y-85899210D01*
X104601471Y-85864999D01*
X104557659Y-85848476D01*
X104508695Y-85852634D01*
X104468894Y-85874227D01*
X104455450Y-85886544D01*
X104445921Y-85901487D01*
X104439485Y-85924075D01*
X104435317Y-85959328D01*
X104432597Y-86012266D01*
X104430502Y-86087907D01*
X104429960Y-86111857D01*
X104427981Y-86193790D01*
X104425731Y-86251455D01*
X104422357Y-86289608D01*
X104417006Y-86313004D01*
X104408824Y-86326398D01*
X104396959Y-86334545D01*
X104389362Y-86338144D01*
X104357102Y-86350452D01*
X104338111Y-86354514D01*
X104331836Y-86340948D01*
X104328006Y-86299934D01*
X104326600Y-86230999D01*
X104327598Y-86133669D01*
X104327908Y-86118657D01*
X104330101Y-86029859D01*
X104332693Y-85965019D01*
X104336382Y-85919067D01*
X104341864Y-85886935D01*
X104349835Y-85863553D01*
X104360993Y-85843852D01*
X104366830Y-85835410D01*
X104400296Y-85798057D01*
X104437727Y-85769003D01*
X104442309Y-85766467D01*
X104509426Y-85746443D01*
X104579926Y-85749755D01*
G37*
X104579926Y-85749755D02*
X104645858Y-85774084D01*
X104699273Y-85817117D01*
X104720164Y-85847409D01*
X104742939Y-85902994D01*
X104742466Y-85943186D01*
X104718562Y-85970217D01*
X104709717Y-85974813D01*
X104671530Y-85989144D01*
X104652028Y-85985472D01*
X104645422Y-85961407D01*
X104645086Y-85948114D01*
X104632992Y-85899210D01*
X104601471Y-85864999D01*
X104557659Y-85848476D01*
X104508695Y-85852634D01*
X104468894Y-85874227D01*
X104455450Y-85886544D01*
X104445921Y-85901487D01*
X104439485Y-85924075D01*
X104435317Y-85959328D01*
X104432597Y-86012266D01*
X104430502Y-86087907D01*
X104429960Y-86111857D01*
X104427981Y-86193790D01*
X104425731Y-86251455D01*
X104422357Y-86289608D01*
X104417006Y-86313004D01*
X104408824Y-86326398D01*
X104396959Y-86334545D01*
X104389362Y-86338144D01*
X104357102Y-86350452D01*
X104338111Y-86354514D01*
X104331836Y-86340948D01*
X104328006Y-86299934D01*
X104326600Y-86230999D01*
X104327598Y-86133669D01*
X104327908Y-86118657D01*
X104330101Y-86029859D01*
X104332693Y-85965019D01*
X104336382Y-85919067D01*
X104341864Y-85886935D01*
X104349835Y-85863553D01*
X104360993Y-85843852D01*
X104366830Y-85835410D01*
X104400296Y-85798057D01*
X104437727Y-85769003D01*
X104442309Y-85766467D01*
X104509426Y-85746443D01*
X104579926Y-85749755D01*
G36*
X105240117Y-85865358D02*
G01*
X105239933Y-85973837D01*
X105239219Y-86057287D01*
X105237675Y-86119704D01*
X105235001Y-86165085D01*
X105230894Y-86197429D01*
X105225055Y-86220733D01*
X105217182Y-86238995D01*
X105211221Y-86249418D01*
X105161855Y-86305945D01*
X105099264Y-86341377D01*
X105030013Y-86354090D01*
X104960668Y-86342463D01*
X104919375Y-86321568D01*
X104876025Y-86285422D01*
X104846481Y-86241276D01*
X104828655Y-86183462D01*
X104820463Y-86106313D01*
X104819302Y-86049714D01*
X104819458Y-86045647D01*
X104920857Y-86045647D01*
X104921476Y-86110550D01*
X104924314Y-86153514D01*
X104930840Y-86181622D01*
X104942523Y-86201953D01*
X104956483Y-86217288D01*
X105003365Y-86246890D01*
X105053701Y-86249419D01*
X105101276Y-86224705D01*
X105104979Y-86221356D01*
X105120783Y-86203935D01*
X105130693Y-86183209D01*
X105136058Y-86152362D01*
X105138228Y-86104577D01*
X105138571Y-86051748D01*
X105137827Y-85985381D01*
X105134748Y-85941106D01*
X105128061Y-85912009D01*
X105116496Y-85891173D01*
X105107013Y-85880107D01*
X105062960Y-85852198D01*
X105012224Y-85848843D01*
X104963796Y-85870159D01*
X104954450Y-85878073D01*
X104938540Y-85895647D01*
X104928610Y-85916587D01*
X104923278Y-85947782D01*
X104921163Y-85996122D01*
X104920857Y-86045647D01*
X104819458Y-86045647D01*
X104822810Y-85958568D01*
X104834726Y-85890086D01*
X104857135Y-85838600D01*
X104892124Y-85798443D01*
X104919375Y-85777861D01*
X104968907Y-85755625D01*
X105026316Y-85745304D01*
X105079682Y-85748067D01*
X105109543Y-85759212D01*
X105121261Y-85762383D01*
X105129037Y-85750557D01*
X105134465Y-85718866D01*
X105138571Y-85670593D01*
X105143067Y-85616829D01*
X105149313Y-85584482D01*
X105160676Y-85565985D01*
X105180528Y-85553770D01*
X105193000Y-85548362D01*
X105240171Y-85528601D01*
X105240117Y-85865358D01*
G37*
X105240117Y-85865358D02*
X105239933Y-85973837D01*
X105239219Y-86057287D01*
X105237675Y-86119704D01*
X105235001Y-86165085D01*
X105230894Y-86197429D01*
X105225055Y-86220733D01*
X105217182Y-86238995D01*
X105211221Y-86249418D01*
X105161855Y-86305945D01*
X105099264Y-86341377D01*
X105030013Y-86354090D01*
X104960668Y-86342463D01*
X104919375Y-86321568D01*
X104876025Y-86285422D01*
X104846481Y-86241276D01*
X104828655Y-86183462D01*
X104820463Y-86106313D01*
X104819302Y-86049714D01*
X104819458Y-86045647D01*
X104920857Y-86045647D01*
X104921476Y-86110550D01*
X104924314Y-86153514D01*
X104930840Y-86181622D01*
X104942523Y-86201953D01*
X104956483Y-86217288D01*
X105003365Y-86246890D01*
X105053701Y-86249419D01*
X105101276Y-86224705D01*
X105104979Y-86221356D01*
X105120783Y-86203935D01*
X105130693Y-86183209D01*
X105136058Y-86152362D01*
X105138228Y-86104577D01*
X105138571Y-86051748D01*
X105137827Y-85985381D01*
X105134748Y-85941106D01*
X105128061Y-85912009D01*
X105116496Y-85891173D01*
X105107013Y-85880107D01*
X105062960Y-85852198D01*
X105012224Y-85848843D01*
X104963796Y-85870159D01*
X104954450Y-85878073D01*
X104938540Y-85895647D01*
X104928610Y-85916587D01*
X104923278Y-85947782D01*
X104921163Y-85996122D01*
X104920857Y-86045647D01*
X104819458Y-86045647D01*
X104822810Y-85958568D01*
X104834726Y-85890086D01*
X104857135Y-85838600D01*
X104892124Y-85798443D01*
X104919375Y-85777861D01*
X104968907Y-85755625D01*
X105026316Y-85745304D01*
X105079682Y-85748067D01*
X105109543Y-85759212D01*
X105121261Y-85762383D01*
X105129037Y-85750557D01*
X105134465Y-85718866D01*
X105138571Y-85670593D01*
X105143067Y-85616829D01*
X105149313Y-85584482D01*
X105160676Y-85565985D01*
X105180528Y-85553770D01*
X105193000Y-85548362D01*
X105240171Y-85528601D01*
X105240117Y-85865358D01*
G36*
X105829833Y-85758663D02*
G01*
X105832048Y-85796850D01*
X105833784Y-85854886D01*
X105834899Y-85928180D01*
X105835257Y-86005055D01*
X105835257Y-86265196D01*
X105789326Y-86311127D01*
X105757675Y-86339429D01*
X105729890Y-86350893D01*
X105691915Y-86350168D01*
X105676840Y-86348321D01*
X105629726Y-86342948D01*
X105590756Y-86339869D01*
X105581257Y-86339585D01*
X105549233Y-86341445D01*
X105503432Y-86346114D01*
X105485674Y-86348321D01*
X105442057Y-86351735D01*
X105412745Y-86344320D01*
X105383680Y-86321427D01*
X105373188Y-86311127D01*
X105327257Y-86265196D01*
X105327257Y-85778602D01*
X105364226Y-85761758D01*
X105396059Y-85749282D01*
X105414683Y-85744914D01*
X105419458Y-85758718D01*
X105423921Y-85797286D01*
X105427775Y-85856356D01*
X105430722Y-85931663D01*
X105432143Y-85995286D01*
X105436114Y-86245657D01*
X105470759Y-86250556D01*
X105502268Y-86247131D01*
X105517708Y-86236041D01*
X105522023Y-86215308D01*
X105525708Y-86171145D01*
X105528469Y-86109146D01*
X105530012Y-86034909D01*
X105530235Y-85996706D01*
X105530457Y-85776783D01*
X105576166Y-85760849D01*
X105608518Y-85750015D01*
X105626115Y-85744962D01*
X105626623Y-85744914D01*
X105628388Y-85758648D01*
X105630329Y-85796730D01*
X105632282Y-85854482D01*
X105634084Y-85927227D01*
X105635343Y-85995286D01*
X105639314Y-86245657D01*
X105726400Y-86245657D01*
X105730396Y-86017240D01*
X105734392Y-85788822D01*
X105776847Y-85766868D01*
X105808192Y-85751793D01*
X105826744Y-85744951D01*
X105827279Y-85744914D01*
X105829833Y-85758663D01*
G37*
X105829833Y-85758663D02*
X105832048Y-85796850D01*
X105833784Y-85854886D01*
X105834899Y-85928180D01*
X105835257Y-86005055D01*
X105835257Y-86265196D01*
X105789326Y-86311127D01*
X105757675Y-86339429D01*
X105729890Y-86350893D01*
X105691915Y-86350168D01*
X105676840Y-86348321D01*
X105629726Y-86342948D01*
X105590756Y-86339869D01*
X105581257Y-86339585D01*
X105549233Y-86341445D01*
X105503432Y-86346114D01*
X105485674Y-86348321D01*
X105442057Y-86351735D01*
X105412745Y-86344320D01*
X105383680Y-86321427D01*
X105373188Y-86311127D01*
X105327257Y-86265196D01*
X105327257Y-85778602D01*
X105364226Y-85761758D01*
X105396059Y-85749282D01*
X105414683Y-85744914D01*
X105419458Y-85758718D01*
X105423921Y-85797286D01*
X105427775Y-85856356D01*
X105430722Y-85931663D01*
X105432143Y-85995286D01*
X105436114Y-86245657D01*
X105470759Y-86250556D01*
X105502268Y-86247131D01*
X105517708Y-86236041D01*
X105522023Y-86215308D01*
X105525708Y-86171145D01*
X105528469Y-86109146D01*
X105530012Y-86034909D01*
X105530235Y-85996706D01*
X105530457Y-85776783D01*
X105576166Y-85760849D01*
X105608518Y-85750015D01*
X105626115Y-85744962D01*
X105626623Y-85744914D01*
X105628388Y-85758648D01*
X105630329Y-85796730D01*
X105632282Y-85854482D01*
X105634084Y-85927227D01*
X105635343Y-85995286D01*
X105639314Y-86245657D01*
X105726400Y-86245657D01*
X105730396Y-86017240D01*
X105734392Y-85788822D01*
X105776847Y-85766868D01*
X105808192Y-85751793D01*
X105826744Y-85744951D01*
X105827279Y-85744914D01*
X105829833Y-85758663D01*
G36*
X106194876Y-85756335D02*
G01*
X106236667Y-85775344D01*
X106269469Y-85798378D01*
X106293503Y-85824133D01*
X106310097Y-85857358D01*
X106320577Y-85902800D01*
X106326271Y-85965207D01*
X106328507Y-86049327D01*
X106328743Y-86104721D01*
X106328743Y-86320826D01*
X106291774Y-86337670D01*
X106262656Y-86349981D01*
X106248231Y-86354514D01*
X106245472Y-86341025D01*
X106243282Y-86304653D01*
X106241942Y-86251542D01*
X106241657Y-86209372D01*
X106240434Y-86148447D01*
X106237136Y-86100115D01*
X106232321Y-86070518D01*
X106228496Y-86064229D01*
X106202783Y-86070652D01*
X106162418Y-86087125D01*
X106115679Y-86109458D01*
X106070845Y-86133457D01*
X106036193Y-86154930D01*
X106020002Y-86169685D01*
X106019938Y-86169845D01*
X106021330Y-86197152D01*
X106033818Y-86223219D01*
X106055743Y-86244392D01*
X106087743Y-86251474D01*
X106115092Y-86250649D01*
X106153826Y-86250042D01*
X106174158Y-86259116D01*
X106186369Y-86283092D01*
X106187909Y-86287613D01*
X106193203Y-86321806D01*
X106179047Y-86342568D01*
X106142148Y-86352462D01*
X106102289Y-86354292D01*
X106030562Y-86340727D01*
X105993432Y-86321355D01*
X105947576Y-86275845D01*
X105923256Y-86219983D01*
X105921073Y-86160957D01*
X105941629Y-86105953D01*
X105972549Y-86071486D01*
X106003420Y-86052189D01*
X106051942Y-86027759D01*
X106108485Y-86002985D01*
X106117910Y-85999199D01*
X106180019Y-85971791D01*
X106215822Y-85947634D01*
X106227337Y-85923619D01*
X106216580Y-85896635D01*
X106198114Y-85875543D01*
X106154469Y-85849572D01*
X106106446Y-85847624D01*
X106062406Y-85867637D01*
X106030709Y-85907551D01*
X106026549Y-85917848D01*
X106002327Y-85955724D01*
X105966965Y-85983842D01*
X105922343Y-86006917D01*
X105922343Y-85941485D01*
X105924969Y-85901506D01*
X105936230Y-85869997D01*
X105961199Y-85836378D01*
X105985169Y-85810484D01*
X106022441Y-85773817D01*
X106051401Y-85754121D01*
X106082505Y-85746220D01*
X106117713Y-85744914D01*
X106194876Y-85756335D01*
G37*
X106194876Y-85756335D02*
X106236667Y-85775344D01*
X106269469Y-85798378D01*
X106293503Y-85824133D01*
X106310097Y-85857358D01*
X106320577Y-85902800D01*
X106326271Y-85965207D01*
X106328507Y-86049327D01*
X106328743Y-86104721D01*
X106328743Y-86320826D01*
X106291774Y-86337670D01*
X106262656Y-86349981D01*
X106248231Y-86354514D01*
X106245472Y-86341025D01*
X106243282Y-86304653D01*
X106241942Y-86251542D01*
X106241657Y-86209372D01*
X106240434Y-86148447D01*
X106237136Y-86100115D01*
X106232321Y-86070518D01*
X106228496Y-86064229D01*
X106202783Y-86070652D01*
X106162418Y-86087125D01*
X106115679Y-86109458D01*
X106070845Y-86133457D01*
X106036193Y-86154930D01*
X106020002Y-86169685D01*
X106019938Y-86169845D01*
X106021330Y-86197152D01*
X106033818Y-86223219D01*
X106055743Y-86244392D01*
X106087743Y-86251474D01*
X106115092Y-86250649D01*
X106153826Y-86250042D01*
X106174158Y-86259116D01*
X106186369Y-86283092D01*
X106187909Y-86287613D01*
X106193203Y-86321806D01*
X106179047Y-86342568D01*
X106142148Y-86352462D01*
X106102289Y-86354292D01*
X106030562Y-86340727D01*
X105993432Y-86321355D01*
X105947576Y-86275845D01*
X105923256Y-86219983D01*
X105921073Y-86160957D01*
X105941629Y-86105953D01*
X105972549Y-86071486D01*
X106003420Y-86052189D01*
X106051942Y-86027759D01*
X106108485Y-86002985D01*
X106117910Y-85999199D01*
X106180019Y-85971791D01*
X106215822Y-85947634D01*
X106227337Y-85923619D01*
X106216580Y-85896635D01*
X106198114Y-85875543D01*
X106154469Y-85849572D01*
X106106446Y-85847624D01*
X106062406Y-85867637D01*
X106030709Y-85907551D01*
X106026549Y-85917848D01*
X106002327Y-85955724D01*
X105966965Y-85983842D01*
X105922343Y-86006917D01*
X105922343Y-85941485D01*
X105924969Y-85901506D01*
X105936230Y-85869997D01*
X105961199Y-85836378D01*
X105985169Y-85810484D01*
X106022441Y-85773817D01*
X106051401Y-85754121D01*
X106082505Y-85746220D01*
X106117713Y-85744914D01*
X106194876Y-85756335D01*
G36*
X106702600Y-85758752D02*
G01*
X106719948Y-85766334D01*
X106761356Y-85799128D01*
X106796765Y-85846547D01*
X106818664Y-85897151D01*
X106822229Y-85922098D01*
X106810279Y-85956927D01*
X106784067Y-85975357D01*
X106755964Y-85986516D01*
X106743095Y-85988572D01*
X106736829Y-85973649D01*
X106724456Y-85941175D01*
X106719028Y-85926502D01*
X106688590Y-85875744D01*
X106644520Y-85850427D01*
X106588010Y-85851206D01*
X106583825Y-85852203D01*
X106553655Y-85866507D01*
X106531476Y-85894393D01*
X106516327Y-85939287D01*
X106507250Y-86004615D01*
X106503286Y-86093804D01*
X106502914Y-86141261D01*
X106502730Y-86216071D01*
X106501522Y-86267069D01*
X106498309Y-86299471D01*
X106492109Y-86318495D01*
X106481940Y-86329356D01*
X106466819Y-86337272D01*
X106465946Y-86337670D01*
X106436828Y-86349981D01*
X106422403Y-86354514D01*
X106420186Y-86340809D01*
X106418289Y-86302925D01*
X106416847Y-86245715D01*
X106415998Y-86174027D01*
X106415829Y-86121565D01*
X106416692Y-86020047D01*
X106420070Y-85943032D01*
X106427142Y-85886023D01*
X106439088Y-85844526D01*
X106457090Y-85814043D01*
X106482327Y-85790080D01*
X106507247Y-85773355D01*
X106567171Y-85751097D01*
X106636911Y-85746076D01*
X106702600Y-85758752D01*
G37*
X106702600Y-85758752D02*
X106719948Y-85766334D01*
X106761356Y-85799128D01*
X106796765Y-85846547D01*
X106818664Y-85897151D01*
X106822229Y-85922098D01*
X106810279Y-85956927D01*
X106784067Y-85975357D01*
X106755964Y-85986516D01*
X106743095Y-85988572D01*
X106736829Y-85973649D01*
X106724456Y-85941175D01*
X106719028Y-85926502D01*
X106688590Y-85875744D01*
X106644520Y-85850427D01*
X106588010Y-85851206D01*
X106583825Y-85852203D01*
X106553655Y-85866507D01*
X106531476Y-85894393D01*
X106516327Y-85939287D01*
X106507250Y-86004615D01*
X106503286Y-86093804D01*
X106502914Y-86141261D01*
X106502730Y-86216071D01*
X106501522Y-86267069D01*
X106498309Y-86299471D01*
X106492109Y-86318495D01*
X106481940Y-86329356D01*
X106466819Y-86337272D01*
X106465946Y-86337670D01*
X106436828Y-86349981D01*
X106422403Y-86354514D01*
X106420186Y-86340809D01*
X106418289Y-86302925D01*
X106416847Y-86245715D01*
X106415998Y-86174027D01*
X106415829Y-86121565D01*
X106416692Y-86020047D01*
X106420070Y-85943032D01*
X106427142Y-85886023D01*
X106439088Y-85844526D01*
X106457090Y-85814043D01*
X106482327Y-85790080D01*
X106507247Y-85773355D01*
X106567171Y-85751097D01*
X106636911Y-85746076D01*
X106702600Y-85758752D01*
G36*
X107203595Y-85766966D02*
G01*
X107261021Y-85804497D01*
X107288719Y-85838096D01*
X107310662Y-85899064D01*
X107312405Y-85947308D01*
X107308457Y-86011816D01*
X107159686Y-86076934D01*
X107087349Y-86110202D01*
X107040084Y-86136964D01*
X107015507Y-86160144D01*
X107011237Y-86182667D01*
X107024889Y-86207455D01*
X107039943Y-86223886D01*
X107083746Y-86250235D01*
X107131389Y-86252081D01*
X107175145Y-86231546D01*
X107207289Y-86190752D01*
X107213038Y-86176347D01*
X107240576Y-86131356D01*
X107272258Y-86112182D01*
X107315714Y-86095779D01*
X107315714Y-86157966D01*
X107311872Y-86200283D01*
X107296823Y-86235969D01*
X107265280Y-86276943D01*
X107260592Y-86282267D01*
X107225506Y-86318720D01*
X107195347Y-86338283D01*
X107157615Y-86347283D01*
X107126335Y-86350230D01*
X107070385Y-86350965D01*
X107030555Y-86341660D01*
X107005708Y-86327846D01*
X106966656Y-86297467D01*
X106939625Y-86264613D01*
X106922517Y-86223294D01*
X106913238Y-86167521D01*
X106909693Y-86091305D01*
X106909410Y-86052622D01*
X106910372Y-86006247D01*
X106998007Y-86006247D01*
X106999023Y-86031126D01*
X107001556Y-86035200D01*
X107018274Y-86029665D01*
X107054249Y-86015017D01*
X107102331Y-85994190D01*
X107112386Y-85989714D01*
X107173152Y-85958814D01*
X107206632Y-85931657D01*
X107213990Y-85906220D01*
X107196391Y-85880481D01*
X107181856Y-85869109D01*
X107129410Y-85846364D01*
X107080322Y-85850122D01*
X107039227Y-85877884D01*
X107010758Y-85927152D01*
X107001631Y-85966257D01*
X106998007Y-86006247D01*
X106910372Y-86006247D01*
X106911285Y-85962249D01*
X106918196Y-85895384D01*
X106931884Y-85846695D01*
X106954096Y-85810849D01*
X106986574Y-85782513D01*
X107000733Y-85773355D01*
X107065053Y-85749507D01*
X107135473Y-85748006D01*
X107203595Y-85766966D01*
G37*
X107203595Y-85766966D02*
X107261021Y-85804497D01*
X107288719Y-85838096D01*
X107310662Y-85899064D01*
X107312405Y-85947308D01*
X107308457Y-86011816D01*
X107159686Y-86076934D01*
X107087349Y-86110202D01*
X107040084Y-86136964D01*
X107015507Y-86160144D01*
X107011237Y-86182667D01*
X107024889Y-86207455D01*
X107039943Y-86223886D01*
X107083746Y-86250235D01*
X107131389Y-86252081D01*
X107175145Y-86231546D01*
X107207289Y-86190752D01*
X107213038Y-86176347D01*
X107240576Y-86131356D01*
X107272258Y-86112182D01*
X107315714Y-86095779D01*
X107315714Y-86157966D01*
X107311872Y-86200283D01*
X107296823Y-86235969D01*
X107265280Y-86276943D01*
X107260592Y-86282267D01*
X107225506Y-86318720D01*
X107195347Y-86338283D01*
X107157615Y-86347283D01*
X107126335Y-86350230D01*
X107070385Y-86350965D01*
X107030555Y-86341660D01*
X107005708Y-86327846D01*
X106966656Y-86297467D01*
X106939625Y-86264613D01*
X106922517Y-86223294D01*
X106913238Y-86167521D01*
X106909693Y-86091305D01*
X106909410Y-86052622D01*
X106910372Y-86006247D01*
X106998007Y-86006247D01*
X106999023Y-86031126D01*
X107001556Y-86035200D01*
X107018274Y-86029665D01*
X107054249Y-86015017D01*
X107102331Y-85994190D01*
X107112386Y-85989714D01*
X107173152Y-85958814D01*
X107206632Y-85931657D01*
X107213990Y-85906220D01*
X107196391Y-85880481D01*
X107181856Y-85869109D01*
X107129410Y-85846364D01*
X107080322Y-85850122D01*
X107039227Y-85877884D01*
X107010758Y-85927152D01*
X107001631Y-85966257D01*
X106998007Y-86006247D01*
X106910372Y-86006247D01*
X106911285Y-85962249D01*
X106918196Y-85895384D01*
X106931884Y-85846695D01*
X106954096Y-85810849D01*
X106986574Y-85782513D01*
X107000733Y-85773355D01*
X107065053Y-85749507D01*
X107135473Y-85748006D01*
X107203595Y-85766966D01*
G36*
X104153910Y-81042348D02*
G01*
X104232454Y-81042778D01*
X104289298Y-81043942D01*
X104328105Y-81046207D01*
X104352538Y-81049940D01*
X104366262Y-81055506D01*
X104372940Y-81063273D01*
X104376236Y-81073605D01*
X104376556Y-81074943D01*
X104381562Y-81099079D01*
X104390829Y-81146701D01*
X104403392Y-81212741D01*
X104418287Y-81292128D01*
X104434551Y-81379796D01*
X104435119Y-81382875D01*
X104451410Y-81468789D01*
X104466652Y-81544696D01*
X104479861Y-81606045D01*
X104490054Y-81648282D01*
X104496248Y-81666855D01*
X104496543Y-81667184D01*
X104514788Y-81676253D01*
X104552405Y-81691367D01*
X104601271Y-81709262D01*
X104601543Y-81709358D01*
X104663093Y-81732493D01*
X104735657Y-81761965D01*
X104804057Y-81791597D01*
X104807294Y-81793062D01*
X104918702Y-81843626D01*
X105165399Y-81675160D01*
X105241077Y-81623803D01*
X105309631Y-81577889D01*
X105367088Y-81540030D01*
X105409476Y-81512837D01*
X105432825Y-81498921D01*
X105435042Y-81497889D01*
X105452010Y-81502484D01*
X105483701Y-81524655D01*
X105531352Y-81565447D01*
X105596198Y-81625905D01*
X105662397Y-81690227D01*
X105726214Y-81753612D01*
X105783329Y-81811451D01*
X105830305Y-81860175D01*
X105863703Y-81896210D01*
X105880085Y-81915984D01*
X105880694Y-81917002D01*
X105882505Y-81930572D01*
X105875683Y-81952733D01*
X105858540Y-81986478D01*
X105829393Y-82034800D01*
X105786555Y-82100692D01*
X105729448Y-82185517D01*
X105678766Y-82260177D01*
X105633461Y-82327140D01*
X105596150Y-82382516D01*
X105569452Y-82422420D01*
X105555985Y-82442962D01*
X105555137Y-82444356D01*
X105556781Y-82464038D01*
X105569245Y-82502293D01*
X105590048Y-82551889D01*
X105597462Y-82567728D01*
X105629814Y-82638290D01*
X105664328Y-82718353D01*
X105692365Y-82787629D01*
X105712568Y-82839045D01*
X105728615Y-82878119D01*
X105737888Y-82898541D01*
X105739041Y-82900114D01*
X105756096Y-82902721D01*
X105796298Y-82909863D01*
X105854302Y-82920523D01*
X105924763Y-82933685D01*
X106002335Y-82948333D01*
X106081672Y-82963449D01*
X106157431Y-82978018D01*
X106224264Y-82991022D01*
X106276828Y-83001445D01*
X106309776Y-83008270D01*
X106317857Y-83010199D01*
X106326205Y-83014962D01*
X106332506Y-83025718D01*
X106337045Y-83046098D01*
X106340104Y-83079734D01*
X106341967Y-83130255D01*
X106342918Y-83201292D01*
X106343240Y-83296476D01*
X106343257Y-83335492D01*
X106343257Y-83652799D01*
X106267057Y-83667839D01*
X106224663Y-83675995D01*
X106161400Y-83687899D01*
X106084962Y-83702116D01*
X106003043Y-83717210D01*
X105980400Y-83721355D01*
X105904806Y-83736053D01*
X105838953Y-83750505D01*
X105788366Y-83763375D01*
X105758574Y-83773322D01*
X105753612Y-83776287D01*
X105741426Y-83797283D01*
X105723953Y-83837967D01*
X105704577Y-83890322D01*
X105700734Y-83901600D01*
X105675339Y-83971523D01*
X105643817Y-84050418D01*
X105612969Y-84121266D01*
X105612817Y-84121595D01*
X105561447Y-84232733D01*
X105730399Y-84481253D01*
X105899352Y-84729772D01*
X105682429Y-84947058D01*
X105616819Y-85011726D01*
X105556979Y-85068733D01*
X105506267Y-85115033D01*
X105468046Y-85147584D01*
X105445675Y-85163343D01*
X105442466Y-85164343D01*
X105423626Y-85156469D01*
X105385180Y-85134578D01*
X105331330Y-85101267D01*
X105266276Y-85059131D01*
X105195940Y-85011943D01*
X105124555Y-84963810D01*
X105060908Y-84921928D01*
X105009041Y-84888871D01*
X104972995Y-84867218D01*
X104956867Y-84859543D01*
X104937189Y-84866037D01*
X104899875Y-84883150D01*
X104852621Y-84907326D01*
X104847612Y-84910013D01*
X104783977Y-84941927D01*
X104740341Y-84957579D01*
X104713202Y-84957745D01*
X104699057Y-84943204D01*
X104698975Y-84943000D01*
X104691905Y-84925779D01*
X104675042Y-84884899D01*
X104649695Y-84823525D01*
X104617171Y-84744819D01*
X104578778Y-84651947D01*
X104535822Y-84548072D01*
X104494222Y-84447502D01*
X104448504Y-84336516D01*
X104406526Y-84233703D01*
X104369548Y-84142215D01*
X104338827Y-84065201D01*
X104315622Y-84005815D01*
X104301190Y-83967209D01*
X104296743Y-83952800D01*
X104307896Y-83936272D01*
X104337069Y-83909930D01*
X104375971Y-83880887D01*
X104486757Y-83789039D01*
X104573351Y-83683759D01*
X104634716Y-83567266D01*
X104669815Y-83441776D01*
X104677608Y-83309507D01*
X104671943Y-83248457D01*
X104641078Y-83121795D01*
X104587920Y-83009941D01*
X104515767Y-82914001D01*
X104427917Y-82835076D01*
X104327665Y-82774270D01*
X104218310Y-82732687D01*
X104103147Y-82711428D01*
X103985475Y-82711599D01*
X103868590Y-82734301D01*
X103755789Y-82780638D01*
X103650369Y-82851713D01*
X103606368Y-82891911D01*
X103521979Y-82995129D01*
X103463222Y-83107925D01*
X103429704Y-83227010D01*
X103421035Y-83349095D01*
X103436823Y-83470893D01*
X103476678Y-83589116D01*
X103540207Y-83700475D01*
X103627021Y-83801684D01*
X103724029Y-83880887D01*
X103764437Y-83911162D01*
X103792982Y-83937219D01*
X103803257Y-83952825D01*
X103797877Y-83969843D01*
X103782575Y-84010500D01*
X103758612Y-84071642D01*
X103727244Y-84150119D01*
X103689732Y-84242780D01*
X103647333Y-84346472D01*
X103605663Y-84447526D01*
X103559690Y-84558607D01*
X103517107Y-84661541D01*
X103479221Y-84753165D01*
X103447340Y-84830316D01*
X103422771Y-84889831D01*
X103406820Y-84928544D01*
X103400910Y-84943000D01*
X103386948Y-84957685D01*
X103359940Y-84957642D01*
X103316413Y-84942099D01*
X103252890Y-84910284D01*
X103252388Y-84910013D01*
X103204560Y-84885323D01*
X103165897Y-84867338D01*
X103144095Y-84859614D01*
X103143133Y-84859543D01*
X103126721Y-84867378D01*
X103090487Y-84889165D01*
X103038474Y-84922328D01*
X102974725Y-84964291D01*
X102904060Y-85011943D01*
X102832116Y-85060191D01*
X102767274Y-85102151D01*
X102713735Y-85135227D01*
X102675697Y-85156821D01*
X102657533Y-85164343D01*
X102640808Y-85154457D01*
X102607180Y-85126826D01*
X102560010Y-85084495D01*
X102502658Y-85030505D01*
X102438484Y-84967899D01*
X102417497Y-84946983D01*
X102200499Y-84729623D01*
X102365668Y-84487220D01*
X102415864Y-84412781D01*
X102459919Y-84345972D01*
X102495362Y-84290665D01*
X102519719Y-84250729D01*
X102530522Y-84230036D01*
X102530838Y-84228563D01*
X102525143Y-84209058D01*
X102509826Y-84169822D01*
X102487537Y-84117430D01*
X102471893Y-84082355D01*
X102442641Y-84015201D01*
X102415094Y-83947358D01*
X102393737Y-83890034D01*
X102387935Y-83872572D01*
X102371452Y-83825938D01*
X102355340Y-83789905D01*
X102346490Y-83776287D01*
X102326960Y-83767952D01*
X102284334Y-83756137D01*
X102224145Y-83742181D01*
X102151922Y-83727422D01*
X102119600Y-83721355D01*
X102037522Y-83706273D01*
X101958795Y-83691669D01*
X101891109Y-83678980D01*
X101842160Y-83669642D01*
X101832943Y-83667839D01*
X101756743Y-83652799D01*
X101756743Y-83335492D01*
X101756914Y-83231154D01*
X101757616Y-83152213D01*
X101759134Y-83095038D01*
X101761749Y-83055999D01*
X101765746Y-83031465D01*
X101771409Y-83017805D01*
X101779020Y-83011389D01*
X101782143Y-83010199D01*
X101800978Y-83005980D01*
X101842588Y-82997562D01*
X101901630Y-82985961D01*
X101972757Y-82972195D01*
X102050625Y-82957280D01*
X102129887Y-82942232D01*
X102205198Y-82928069D01*
X102271213Y-82915806D01*
X102322587Y-82906461D01*
X102353975Y-82901050D01*
X102360959Y-82900114D01*
X102367285Y-82887596D01*
X102381290Y-82854246D01*
X102400355Y-82806377D01*
X102407634Y-82787629D01*
X102436996Y-82715195D01*
X102471571Y-82635170D01*
X102502537Y-82567728D01*
X102525323Y-82516159D01*
X102540482Y-82473785D01*
X102545542Y-82447834D01*
X102544736Y-82444356D01*
X102534041Y-82427936D01*
X102509620Y-82391417D01*
X102474095Y-82338687D01*
X102430087Y-82273635D01*
X102380217Y-82200151D01*
X102370356Y-82185645D01*
X102312492Y-82099704D01*
X102269956Y-82034261D01*
X102241054Y-81986304D01*
X102224090Y-81952820D01*
X102217367Y-81930795D01*
X102219190Y-81917217D01*
X102219236Y-81917131D01*
X102233586Y-81899297D01*
X102265323Y-81864817D01*
X102311010Y-81817268D01*
X102367204Y-81760222D01*
X102430468Y-81697255D01*
X102437602Y-81690227D01*
X102517330Y-81613020D01*
X102578857Y-81556330D01*
X102623421Y-81519110D01*
X102652257Y-81500315D01*
X102664958Y-81497889D01*
X102683494Y-81508471D01*
X102721961Y-81532916D01*
X102776386Y-81568612D01*
X102842798Y-81612947D01*
X102917225Y-81663311D01*
X102934601Y-81675160D01*
X103181297Y-81843626D01*
X103292706Y-81793062D01*
X103360457Y-81763595D01*
X103433183Y-81733959D01*
X103495703Y-81710330D01*
X103498457Y-81709358D01*
X103547360Y-81691457D01*
X103585057Y-81676320D01*
X103603425Y-81667210D01*
X103603456Y-81667184D01*
X103609285Y-81650717D01*
X103619192Y-81610219D01*
X103632195Y-81550242D01*
X103647309Y-81475340D01*
X103663552Y-81390064D01*
X103664881Y-81382875D01*
X103681175Y-81295014D01*
X103696133Y-81215260D01*
X103708791Y-81148681D01*
X103718186Y-81100347D01*
X103723354Y-81075325D01*
X103723444Y-81074943D01*
X103726589Y-81064299D01*
X103732704Y-81056262D01*
X103745453Y-81050467D01*
X103768500Y-81046547D01*
X103805509Y-81044135D01*
X103860144Y-81042865D01*
X103936067Y-81042371D01*
X104036944Y-81042286D01*
X104050000Y-81042286D01*
X104153910Y-81042348D01*
G37*
X104153910Y-81042348D02*
X104232454Y-81042778D01*
X104289298Y-81043942D01*
X104328105Y-81046207D01*
X104352538Y-81049940D01*
X104366262Y-81055506D01*
X104372940Y-81063273D01*
X104376236Y-81073605D01*
X104376556Y-81074943D01*
X104381562Y-81099079D01*
X104390829Y-81146701D01*
X104403392Y-81212741D01*
X104418287Y-81292128D01*
X104434551Y-81379796D01*
X104435119Y-81382875D01*
X104451410Y-81468789D01*
X104466652Y-81544696D01*
X104479861Y-81606045D01*
X104490054Y-81648282D01*
X104496248Y-81666855D01*
X104496543Y-81667184D01*
X104514788Y-81676253D01*
X104552405Y-81691367D01*
X104601271Y-81709262D01*
X104601543Y-81709358D01*
X104663093Y-81732493D01*
X104735657Y-81761965D01*
X104804057Y-81791597D01*
X104807294Y-81793062D01*
X104918702Y-81843626D01*
X105165399Y-81675160D01*
X105241077Y-81623803D01*
X105309631Y-81577889D01*
X105367088Y-81540030D01*
X105409476Y-81512837D01*
X105432825Y-81498921D01*
X105435042Y-81497889D01*
X105452010Y-81502484D01*
X105483701Y-81524655D01*
X105531352Y-81565447D01*
X105596198Y-81625905D01*
X105662397Y-81690227D01*
X105726214Y-81753612D01*
X105783329Y-81811451D01*
X105830305Y-81860175D01*
X105863703Y-81896210D01*
X105880085Y-81915984D01*
X105880694Y-81917002D01*
X105882505Y-81930572D01*
X105875683Y-81952733D01*
X105858540Y-81986478D01*
X105829393Y-82034800D01*
X105786555Y-82100692D01*
X105729448Y-82185517D01*
X105678766Y-82260177D01*
X105633461Y-82327140D01*
X105596150Y-82382516D01*
X105569452Y-82422420D01*
X105555985Y-82442962D01*
X105555137Y-82444356D01*
X105556781Y-82464038D01*
X105569245Y-82502293D01*
X105590048Y-82551889D01*
X105597462Y-82567728D01*
X105629814Y-82638290D01*
X105664328Y-82718353D01*
X105692365Y-82787629D01*
X105712568Y-82839045D01*
X105728615Y-82878119D01*
X105737888Y-82898541D01*
X105739041Y-82900114D01*
X105756096Y-82902721D01*
X105796298Y-82909863D01*
X105854302Y-82920523D01*
X105924763Y-82933685D01*
X106002335Y-82948333D01*
X106081672Y-82963449D01*
X106157431Y-82978018D01*
X106224264Y-82991022D01*
X106276828Y-83001445D01*
X106309776Y-83008270D01*
X106317857Y-83010199D01*
X106326205Y-83014962D01*
X106332506Y-83025718D01*
X106337045Y-83046098D01*
X106340104Y-83079734D01*
X106341967Y-83130255D01*
X106342918Y-83201292D01*
X106343240Y-83296476D01*
X106343257Y-83335492D01*
X106343257Y-83652799D01*
X106267057Y-83667839D01*
X106224663Y-83675995D01*
X106161400Y-83687899D01*
X106084962Y-83702116D01*
X106003043Y-83717210D01*
X105980400Y-83721355D01*
X105904806Y-83736053D01*
X105838953Y-83750505D01*
X105788366Y-83763375D01*
X105758574Y-83773322D01*
X105753612Y-83776287D01*
X105741426Y-83797283D01*
X105723953Y-83837967D01*
X105704577Y-83890322D01*
X105700734Y-83901600D01*
X105675339Y-83971523D01*
X105643817Y-84050418D01*
X105612969Y-84121266D01*
X105612817Y-84121595D01*
X105561447Y-84232733D01*
X105730399Y-84481253D01*
X105899352Y-84729772D01*
X105682429Y-84947058D01*
X105616819Y-85011726D01*
X105556979Y-85068733D01*
X105506267Y-85115033D01*
X105468046Y-85147584D01*
X105445675Y-85163343D01*
X105442466Y-85164343D01*
X105423626Y-85156469D01*
X105385180Y-85134578D01*
X105331330Y-85101267D01*
X105266276Y-85059131D01*
X105195940Y-85011943D01*
X105124555Y-84963810D01*
X105060908Y-84921928D01*
X105009041Y-84888871D01*
X104972995Y-84867218D01*
X104956867Y-84859543D01*
X104937189Y-84866037D01*
X104899875Y-84883150D01*
X104852621Y-84907326D01*
X104847612Y-84910013D01*
X104783977Y-84941927D01*
X104740341Y-84957579D01*
X104713202Y-84957745D01*
X104699057Y-84943204D01*
X104698975Y-84943000D01*
X104691905Y-84925779D01*
X104675042Y-84884899D01*
X104649695Y-84823525D01*
X104617171Y-84744819D01*
X104578778Y-84651947D01*
X104535822Y-84548072D01*
X104494222Y-84447502D01*
X104448504Y-84336516D01*
X104406526Y-84233703D01*
X104369548Y-84142215D01*
X104338827Y-84065201D01*
X104315622Y-84005815D01*
X104301190Y-83967209D01*
X104296743Y-83952800D01*
X104307896Y-83936272D01*
X104337069Y-83909930D01*
X104375971Y-83880887D01*
X104486757Y-83789039D01*
X104573351Y-83683759D01*
X104634716Y-83567266D01*
X104669815Y-83441776D01*
X104677608Y-83309507D01*
X104671943Y-83248457D01*
X104641078Y-83121795D01*
X104587920Y-83009941D01*
X104515767Y-82914001D01*
X104427917Y-82835076D01*
X104327665Y-82774270D01*
X104218310Y-82732687D01*
X104103147Y-82711428D01*
X103985475Y-82711599D01*
X103868590Y-82734301D01*
X103755789Y-82780638D01*
X103650369Y-82851713D01*
X103606368Y-82891911D01*
X103521979Y-82995129D01*
X103463222Y-83107925D01*
X103429704Y-83227010D01*
X103421035Y-83349095D01*
X103436823Y-83470893D01*
X103476678Y-83589116D01*
X103540207Y-83700475D01*
X103627021Y-83801684D01*
X103724029Y-83880887D01*
X103764437Y-83911162D01*
X103792982Y-83937219D01*
X103803257Y-83952825D01*
X103797877Y-83969843D01*
X103782575Y-84010500D01*
X103758612Y-84071642D01*
X103727244Y-84150119D01*
X103689732Y-84242780D01*
X103647333Y-84346472D01*
X103605663Y-84447526D01*
X103559690Y-84558607D01*
X103517107Y-84661541D01*
X103479221Y-84753165D01*
X103447340Y-84830316D01*
X103422771Y-84889831D01*
X103406820Y-84928544D01*
X103400910Y-84943000D01*
X103386948Y-84957685D01*
X103359940Y-84957642D01*
X103316413Y-84942099D01*
X103252890Y-84910284D01*
X103252388Y-84910013D01*
X103204560Y-84885323D01*
X103165897Y-84867338D01*
X103144095Y-84859614D01*
X103143133Y-84859543D01*
X103126721Y-84867378D01*
X103090487Y-84889165D01*
X103038474Y-84922328D01*
X102974725Y-84964291D01*
X102904060Y-85011943D01*
X102832116Y-85060191D01*
X102767274Y-85102151D01*
X102713735Y-85135227D01*
X102675697Y-85156821D01*
X102657533Y-85164343D01*
X102640808Y-85154457D01*
X102607180Y-85126826D01*
X102560010Y-85084495D01*
X102502658Y-85030505D01*
X102438484Y-84967899D01*
X102417497Y-84946983D01*
X102200499Y-84729623D01*
X102365668Y-84487220D01*
X102415864Y-84412781D01*
X102459919Y-84345972D01*
X102495362Y-84290665D01*
X102519719Y-84250729D01*
X102530522Y-84230036D01*
X102530838Y-84228563D01*
X102525143Y-84209058D01*
X102509826Y-84169822D01*
X102487537Y-84117430D01*
X102471893Y-84082355D01*
X102442641Y-84015201D01*
X102415094Y-83947358D01*
X102393737Y-83890034D01*
X102387935Y-83872572D01*
X102371452Y-83825938D01*
X102355340Y-83789905D01*
X102346490Y-83776287D01*
X102326960Y-83767952D01*
X102284334Y-83756137D01*
X102224145Y-83742181D01*
X102151922Y-83727422D01*
X102119600Y-83721355D01*
X102037522Y-83706273D01*
X101958795Y-83691669D01*
X101891109Y-83678980D01*
X101842160Y-83669642D01*
X101832943Y-83667839D01*
X101756743Y-83652799D01*
X101756743Y-83335492D01*
X101756914Y-83231154D01*
X101757616Y-83152213D01*
X101759134Y-83095038D01*
X101761749Y-83055999D01*
X101765746Y-83031465D01*
X101771409Y-83017805D01*
X101779020Y-83011389D01*
X101782143Y-83010199D01*
X101800978Y-83005980D01*
X101842588Y-82997562D01*
X101901630Y-82985961D01*
X101972757Y-82972195D01*
X102050625Y-82957280D01*
X102129887Y-82942232D01*
X102205198Y-82928069D01*
X102271213Y-82915806D01*
X102322587Y-82906461D01*
X102353975Y-82901050D01*
X102360959Y-82900114D01*
X102367285Y-82887596D01*
X102381290Y-82854246D01*
X102400355Y-82806377D01*
X102407634Y-82787629D01*
X102436996Y-82715195D01*
X102471571Y-82635170D01*
X102502537Y-82567728D01*
X102525323Y-82516159D01*
X102540482Y-82473785D01*
X102545542Y-82447834D01*
X102544736Y-82444356D01*
X102534041Y-82427936D01*
X102509620Y-82391417D01*
X102474095Y-82338687D01*
X102430087Y-82273635D01*
X102380217Y-82200151D01*
X102370356Y-82185645D01*
X102312492Y-82099704D01*
X102269956Y-82034261D01*
X102241054Y-81986304D01*
X102224090Y-81952820D01*
X102217367Y-81930795D01*
X102219190Y-81917217D01*
X102219236Y-81917131D01*
X102233586Y-81899297D01*
X102265323Y-81864817D01*
X102311010Y-81817268D01*
X102367204Y-81760222D01*
X102430468Y-81697255D01*
X102437602Y-81690227D01*
X102517330Y-81613020D01*
X102578857Y-81556330D01*
X102623421Y-81519110D01*
X102652257Y-81500315D01*
X102664958Y-81497889D01*
X102683494Y-81508471D01*
X102721961Y-81532916D01*
X102776386Y-81568612D01*
X102842798Y-81612947D01*
X102917225Y-81663311D01*
X102934601Y-81675160D01*
X103181297Y-81843626D01*
X103292706Y-81793062D01*
X103360457Y-81763595D01*
X103433183Y-81733959D01*
X103495703Y-81710330D01*
X103498457Y-81709358D01*
X103547360Y-81691457D01*
X103585057Y-81676320D01*
X103603425Y-81667210D01*
X103603456Y-81667184D01*
X103609285Y-81650717D01*
X103619192Y-81610219D01*
X103632195Y-81550242D01*
X103647309Y-81475340D01*
X103663552Y-81390064D01*
X103664881Y-81382875D01*
X103681175Y-81295014D01*
X103696133Y-81215260D01*
X103708791Y-81148681D01*
X103718186Y-81100347D01*
X103723354Y-81075325D01*
X103723444Y-81074943D01*
X103726589Y-81064299D01*
X103732704Y-81056262D01*
X103745453Y-81050467D01*
X103768500Y-81046547D01*
X103805509Y-81044135D01*
X103860144Y-81042865D01*
X103936067Y-81042371D01*
X104036944Y-81042286D01*
X104050000Y-81042286D01*
X104153910Y-81042348D01*
D12*
%TO.C,J3*%
X114697860Y-68301020D02*
X114697860Y-65801660D01*
X114697860Y-65801660D02*
X115497960Y-65801660D01*
X107502040Y-65801660D02*
X108302140Y-65801660D01*
X108302140Y-65801660D02*
X108302140Y-68301020D01*
D13*
X109269880Y-73297200D02*
X113765680Y-73297200D01*
X115515740Y-69799620D02*
X115515740Y-65799120D01*
X115515740Y-65799120D02*
X114667380Y-65799120D01*
X114667380Y-65799120D02*
X114667380Y-68298480D01*
X114667380Y-68298480D02*
X113265300Y-68298480D01*
X109770260Y-68298480D02*
X108368180Y-68298480D01*
X108368180Y-68298480D02*
X108368180Y-65799120D01*
X108368180Y-65799120D02*
X107519820Y-65799120D01*
X107519820Y-65799120D02*
X107519820Y-69799620D01*
D14*
%TO.C,TP3*%
X106250000Y-77900000D02*
G75*
G03*
X106250000Y-77900000I-700000J0D01*
G01*
%TO.C,TP4*%
X99650000Y-63450000D02*
G75*
G03*
X99650000Y-63450000I-700000J0D01*
G01*
%TO.C,J1*%
X106520000Y-51330000D02*
X106520000Y-50000000D01*
X107850000Y-51330000D02*
X106520000Y-51330000D01*
X106520000Y-48730000D02*
X106520000Y-46130000D01*
X109120000Y-48730000D02*
X106520000Y-48730000D01*
X109120000Y-51330000D02*
X109120000Y-48730000D01*
X106520000Y-46130000D02*
X114260000Y-46130000D01*
X109120000Y-51330000D02*
X114260000Y-51330000D01*
X114260000Y-51330000D02*
X114260000Y-46130000D01*
%TO.C,J4*%
X104180000Y-67990000D02*
X93900000Y-67990000D01*
X93900000Y-67990000D02*
X93900000Y-70650000D01*
X93900000Y-70650000D02*
X104180000Y-70650000D01*
X104180000Y-70650000D02*
X104180000Y-67990000D01*
X103230000Y-70650000D02*
X103230000Y-76650000D01*
X103230000Y-76650000D02*
X102470000Y-76650000D01*
X102470000Y-76650000D02*
X102470000Y-70650000D01*
X103170000Y-70650000D02*
X103170000Y-76650000D01*
X103050000Y-70650000D02*
X103050000Y-76650000D01*
X102930000Y-70650000D02*
X102930000Y-76650000D01*
X102810000Y-70650000D02*
X102810000Y-76650000D01*
X102690000Y-70650000D02*
X102690000Y-76650000D01*
X102570000Y-70650000D02*
X102570000Y-76650000D01*
X103230000Y-67660000D02*
X103230000Y-67990000D01*
X102470000Y-67660000D02*
X102470000Y-67990000D01*
X101580000Y-67990000D02*
X101580000Y-70650000D01*
X100690000Y-70650000D02*
X100690000Y-76650000D01*
X100690000Y-76650000D02*
X99930000Y-76650000D01*
X99930000Y-76650000D02*
X99930000Y-70650000D01*
X100690000Y-67592929D02*
X100690000Y-67990000D01*
X99930000Y-67592929D02*
X99930000Y-67990000D01*
X99040000Y-67990000D02*
X99040000Y-70650000D01*
X98150000Y-70650000D02*
X98150000Y-76650000D01*
X98150000Y-76650000D02*
X97390000Y-76650000D01*
X97390000Y-76650000D02*
X97390000Y-70650000D01*
X98150000Y-67592929D02*
X98150000Y-67990000D01*
X97390000Y-67592929D02*
X97390000Y-67990000D01*
X96500000Y-67990000D02*
X96500000Y-70650000D01*
X95610000Y-70650000D02*
X95610000Y-76650000D01*
X95610000Y-76650000D02*
X94850000Y-76650000D01*
X94850000Y-76650000D02*
X94850000Y-70650000D01*
X95610000Y-67592929D02*
X95610000Y-67990000D01*
X94850000Y-67592929D02*
X94850000Y-67990000D01*
X102850000Y-65280000D02*
X104120000Y-65280000D01*
X104120000Y-65280000D02*
X104120000Y-66550000D01*
%TO.C,F1*%
X72390000Y-85613748D02*
X72390000Y-88386252D01*
X75810000Y-85613748D02*
X75810000Y-88386252D01*
%TO.C,JP1*%
X56550000Y-59960000D02*
X53750000Y-59960000D01*
X53100000Y-59260000D02*
X53100000Y-58660000D01*
X53750000Y-57960000D02*
X56550000Y-57960000D01*
X57200000Y-58660000D02*
X57200000Y-59260000D01*
X56350000Y-57760000D02*
X56650000Y-57460000D01*
X56650000Y-57460000D02*
X56050000Y-57460000D01*
X56350000Y-57760000D02*
X56050000Y-57460000D01*
X57200000Y-59260000D02*
G75*
G02*
X56500000Y-59960000I-700000J0D01*
G01*
X56500000Y-57960000D02*
G75*
G02*
X57200000Y-58660000I0J-700000D01*
G01*
X53100000Y-58660000D02*
G75*
G02*
X53800000Y-57960000I700000J0D01*
G01*
X53800000Y-59960000D02*
G75*
G02*
X53100000Y-59260000I0J700000D01*
G01*
%TO.C,J5*%
X52430000Y-82270000D02*
X52430000Y-81000000D01*
X53700000Y-82270000D02*
X52430000Y-82270000D01*
X56620000Y-79957071D02*
X56620000Y-79560000D01*
X55860000Y-79957071D02*
X55860000Y-79560000D01*
X56620000Y-70900000D02*
X56620000Y-76900000D01*
X55860000Y-70900000D02*
X56620000Y-70900000D01*
X55860000Y-76900000D02*
X55860000Y-70900000D01*
X54970000Y-79560000D02*
X54970000Y-76900000D01*
X54080000Y-79890000D02*
X54080000Y-79560000D01*
X53320000Y-79890000D02*
X53320000Y-79560000D01*
X53980000Y-76900000D02*
X53980000Y-70900000D01*
X53860000Y-76900000D02*
X53860000Y-70900000D01*
X53740000Y-76900000D02*
X53740000Y-70900000D01*
X53620000Y-76900000D02*
X53620000Y-70900000D01*
X53500000Y-76900000D02*
X53500000Y-70900000D01*
X53380000Y-76900000D02*
X53380000Y-70900000D01*
X54080000Y-70900000D02*
X54080000Y-76900000D01*
X53320000Y-70900000D02*
X54080000Y-70900000D01*
X53320000Y-76900000D02*
X53320000Y-70900000D01*
X52370000Y-76900000D02*
X52370000Y-79560000D01*
X57570000Y-76900000D02*
X52370000Y-76900000D01*
X57570000Y-79560000D02*
X57570000Y-76900000D01*
X52370000Y-79560000D02*
X57570000Y-79560000D01*
%TO.C,SW2*%
X93610000Y-48630000D02*
X95690000Y-48630000D01*
X97370000Y-52800000D02*
X96880000Y-53290000D01*
X93610000Y-54070000D02*
X95690000Y-54070000D01*
X97370000Y-49900000D02*
X96880000Y-49410000D01*
X97370000Y-49900000D02*
X97370000Y-52800000D01*
X91930000Y-49900000D02*
X92420000Y-49410000D01*
X91930000Y-49900000D02*
X91930000Y-52800000D01*
X91930000Y-52800000D02*
X92420000Y-53290000D01*
%TO.C,SW1*%
X93610000Y-57480000D02*
X95690000Y-57480000D01*
X97370000Y-61650000D02*
X96880000Y-62140000D01*
X93610000Y-62920000D02*
X95690000Y-62920000D01*
X97370000Y-58750000D02*
X96880000Y-58260000D01*
X97370000Y-58750000D02*
X97370000Y-61650000D01*
X91930000Y-58750000D02*
X92420000Y-58260000D01*
X91930000Y-58750000D02*
X91930000Y-61650000D01*
X91930000Y-61650000D02*
X92420000Y-62140000D01*
%TO.C,TP2*%
X97850000Y-79000000D02*
G75*
G03*
X97850000Y-79000000I-700000J0D01*
G01*
%TO.C,TP1*%
X109550000Y-77850000D02*
G75*
G03*
X109550000Y-77850000I-700000J0D01*
G01*
%TO.C,U2*%
X104665000Y-56450000D02*
X104665000Y-58400000D01*
X104665000Y-56450000D02*
X104665000Y-54500000D01*
X113535000Y-56450000D02*
X113535000Y-58400000D01*
X113535000Y-56450000D02*
X113535000Y-53000000D01*
%TO.C,D4*%
X90122500Y-84540000D02*
X87437500Y-84540000D01*
X90122500Y-86460000D02*
X90122500Y-84540000D01*
X87437500Y-86460000D02*
X90122500Y-86460000D01*
D15*
%TO.C,J6*%
X70495000Y-94300000D02*
X70495000Y-93150000D01*
X61555000Y-94300000D02*
X70495000Y-94300000D01*
X61555000Y-93150000D02*
X61555000Y-94300000D01*
%TO.C,J3*%
D16*
X111126666Y-70054523D02*
X111126666Y-70961666D01*
X111066190Y-71143095D01*
X110945238Y-71264047D01*
X110763809Y-71324523D01*
X110642857Y-71324523D01*
X111610476Y-70054523D02*
X112396666Y-70054523D01*
X111973333Y-70538333D01*
X112154761Y-70538333D01*
X112275714Y-70598809D01*
X112336190Y-70659285D01*
X112396666Y-70780238D01*
X112396666Y-71082619D01*
X112336190Y-71203571D01*
X112275714Y-71264047D01*
X112154761Y-71324523D01*
X111791904Y-71324523D01*
X111670952Y-71264047D01*
X111610476Y-71203571D01*
X106509285Y-69337380D02*
X106569761Y-69155952D01*
X106630238Y-69095476D01*
X106751190Y-69035000D01*
X106932619Y-69035000D01*
X107053571Y-69095476D01*
X107114047Y-69155952D01*
X107174523Y-69276904D01*
X107174523Y-69760714D01*
X105904523Y-69760714D01*
X105904523Y-69337380D01*
X105965000Y-69216428D01*
X106025476Y-69155952D01*
X106146428Y-69095476D01*
X106267380Y-69095476D01*
X106388333Y-69155952D01*
X106448809Y-69216428D01*
X106509285Y-69337380D01*
X106509285Y-69760714D01*
X106811666Y-68551190D02*
X106811666Y-67946428D01*
X107174523Y-68672142D02*
X105904523Y-68248809D01*
X107174523Y-67825476D01*
X105904523Y-67583571D02*
X105904523Y-66857857D01*
X107174523Y-67220714D02*
X105904523Y-67220714D01*
D17*
X113917233Y-65014260D02*
X115000966Y-65014260D01*
X114459100Y-65556126D02*
X114459100Y-64472393D01*
X108202233Y-65014260D02*
X109285966Y-65014260D01*
%TO.C,TP3*%
D10*
X104788095Y-75700000D02*
X104692857Y-75652380D01*
X104550000Y-75652380D01*
X104407142Y-75700000D01*
X104311904Y-75795238D01*
X104264285Y-75890476D01*
X104216666Y-76080952D01*
X104216666Y-76223809D01*
X104264285Y-76414285D01*
X104311904Y-76509523D01*
X104407142Y-76604761D01*
X104550000Y-76652380D01*
X104645238Y-76652380D01*
X104788095Y-76604761D01*
X104835714Y-76557142D01*
X104835714Y-76223809D01*
X104645238Y-76223809D01*
X105264285Y-76652380D02*
X105264285Y-75652380D01*
X105835714Y-76652380D01*
X105835714Y-75652380D01*
X106311904Y-76652380D02*
X106311904Y-75652380D01*
X106550000Y-75652380D01*
X106692857Y-75700000D01*
X106788095Y-75795238D01*
X106835714Y-75890476D01*
X106883333Y-76080952D01*
X106883333Y-76223809D01*
X106835714Y-76414285D01*
X106788095Y-76509523D01*
X106692857Y-76604761D01*
X106550000Y-76652380D01*
X106311904Y-76652380D01*
%TO.C,TP4*%
X99911904Y-61802380D02*
X100530952Y-61802380D01*
X100197619Y-62183333D01*
X100340476Y-62183333D01*
X100435714Y-62230952D01*
X100483333Y-62278571D01*
X100530952Y-62373809D01*
X100530952Y-62611904D01*
X100483333Y-62707142D01*
X100435714Y-62754761D01*
X100340476Y-62802380D01*
X100054761Y-62802380D01*
X99959523Y-62754761D01*
X99911904Y-62707142D01*
X100816666Y-61802380D02*
X101150000Y-62802380D01*
X101483333Y-61802380D01*
X101721428Y-61802380D02*
X102340476Y-61802380D01*
X102007142Y-62183333D01*
X102150000Y-62183333D01*
X102245238Y-62230952D01*
X102292857Y-62278571D01*
X102340476Y-62373809D01*
X102340476Y-62611904D01*
X102292857Y-62707142D01*
X102245238Y-62754761D01*
X102150000Y-62802380D01*
X101864285Y-62802380D01*
X101769047Y-62754761D01*
X101721428Y-62707142D01*
%TO.C,J1*%
X104972380Y-49063333D02*
X105686666Y-49063333D01*
X105829523Y-49110952D01*
X105924761Y-49206190D01*
X105972380Y-49349047D01*
X105972380Y-49444285D01*
X105972380Y-48063333D02*
X105972380Y-48634761D01*
X105972380Y-48349047D02*
X104972380Y-48349047D01*
X105115238Y-48444285D01*
X105210476Y-48539523D01*
X105258095Y-48634761D01*
%TO.C,J4*%
X92702380Y-69533333D02*
X93416666Y-69533333D01*
X93559523Y-69580952D01*
X93654761Y-69676190D01*
X93702380Y-69819047D01*
X93702380Y-69914285D01*
X93035714Y-68628571D02*
X93702380Y-68628571D01*
X92654761Y-68866666D02*
X93369047Y-69104761D01*
X93369047Y-68485714D01*
%TO.C,F1*%
X73716666Y-90928571D02*
X73383333Y-90928571D01*
X73383333Y-91452380D02*
X73383333Y-90452380D01*
X73859523Y-90452380D01*
X74764285Y-91452380D02*
X74192857Y-91452380D01*
X74478571Y-91452380D02*
X74478571Y-90452380D01*
X74383333Y-90595238D01*
X74288095Y-90690476D01*
X74192857Y-90738095D01*
%TO.C,JP1*%
X53530952Y-56678571D02*
X53197619Y-56678571D01*
X53197619Y-57202380D02*
X53197619Y-56202380D01*
X53673809Y-56202380D01*
X54007142Y-56916666D02*
X54483333Y-56916666D01*
X53911904Y-57202380D02*
X54245238Y-56202380D01*
X54578571Y-57202380D01*
X54911904Y-57202380D02*
X54911904Y-56202380D01*
X55483333Y-57202380D01*
X55483333Y-56202380D01*
X56578571Y-56202380D02*
X56911904Y-57202380D01*
X57245238Y-56202380D01*
%TO.C,J5*%
X54190476Y-83728571D02*
X53857142Y-83728571D01*
X53857142Y-84252380D02*
X53857142Y-83252380D01*
X54333333Y-83252380D01*
X54666666Y-83966666D02*
X55142857Y-83966666D01*
X54571428Y-84252380D02*
X54904761Y-83252380D01*
X55238095Y-84252380D01*
X55571428Y-84252380D02*
X55571428Y-83252380D01*
X56142857Y-84252380D01*
X56142857Y-83252380D01*
%TO.C,SW2*%
X98702380Y-52797619D02*
X98226190Y-53130952D01*
X98702380Y-53369047D02*
X97702380Y-53369047D01*
X97702380Y-52988095D01*
X97750000Y-52892857D01*
X97797619Y-52845238D01*
X97892857Y-52797619D01*
X98035714Y-52797619D01*
X98130952Y-52845238D01*
X98178571Y-52892857D01*
X98226190Y-52988095D01*
X98226190Y-53369047D01*
X98654761Y-52416666D02*
X98702380Y-52273809D01*
X98702380Y-52035714D01*
X98654761Y-51940476D01*
X98607142Y-51892857D01*
X98511904Y-51845238D01*
X98416666Y-51845238D01*
X98321428Y-51892857D01*
X98273809Y-51940476D01*
X98226190Y-52035714D01*
X98178571Y-52226190D01*
X98130952Y-52321428D01*
X98083333Y-52369047D01*
X97988095Y-52416666D01*
X97892857Y-52416666D01*
X97797619Y-52369047D01*
X97750000Y-52321428D01*
X97702380Y-52226190D01*
X97702380Y-51988095D01*
X97750000Y-51845238D01*
X97702380Y-51559523D02*
X97702380Y-50988095D01*
X98702380Y-51273809D02*
X97702380Y-51273809D01*
%TO.C,SW1*%
X98178571Y-59983333D02*
X98226190Y-59840476D01*
X98273809Y-59792857D01*
X98369047Y-59745238D01*
X98511904Y-59745238D01*
X98607142Y-59792857D01*
X98654761Y-59840476D01*
X98702380Y-59935714D01*
X98702380Y-60316666D01*
X97702380Y-60316666D01*
X97702380Y-59983333D01*
X97750000Y-59888095D01*
X97797619Y-59840476D01*
X97892857Y-59792857D01*
X97988095Y-59792857D01*
X98083333Y-59840476D01*
X98130952Y-59888095D01*
X98178571Y-59983333D01*
X98178571Y-60316666D01*
X97702380Y-59459523D02*
X97702380Y-58888095D01*
X98702380Y-59173809D02*
X97702380Y-59173809D01*
X98702380Y-58554761D02*
X97702380Y-58554761D01*
X98702380Y-57983333D01*
X97702380Y-57983333D01*
%TO.C,TP2*%
X91985714Y-79354761D02*
X92128571Y-79402380D01*
X92366666Y-79402380D01*
X92461904Y-79354761D01*
X92509523Y-79307142D01*
X92557142Y-79211904D01*
X92557142Y-79116666D01*
X92509523Y-79021428D01*
X92461904Y-78973809D01*
X92366666Y-78926190D01*
X92176190Y-78878571D01*
X92080952Y-78830952D01*
X92033333Y-78783333D01*
X91985714Y-78688095D01*
X91985714Y-78592857D01*
X92033333Y-78497619D01*
X92080952Y-78450000D01*
X92176190Y-78402380D01*
X92414285Y-78402380D01*
X92557142Y-78450000D01*
X93176190Y-78402380D02*
X93366666Y-78402380D01*
X93461904Y-78450000D01*
X93557142Y-78545238D01*
X93604761Y-78735714D01*
X93604761Y-79069047D01*
X93557142Y-79259523D01*
X93461904Y-79354761D01*
X93366666Y-79402380D01*
X93176190Y-79402380D01*
X93080952Y-79354761D01*
X92985714Y-79259523D01*
X92938095Y-79069047D01*
X92938095Y-78735714D01*
X92985714Y-78545238D01*
X93080952Y-78450000D01*
X93176190Y-78402380D01*
X94033333Y-78402380D02*
X94033333Y-79211904D01*
X94080952Y-79307142D01*
X94128571Y-79354761D01*
X94223809Y-79402380D01*
X94414285Y-79402380D01*
X94509523Y-79354761D01*
X94557142Y-79307142D01*
X94604761Y-79211904D01*
X94604761Y-78402380D01*
X94938095Y-78402380D02*
X95509523Y-78402380D01*
X95223809Y-79402380D02*
X95223809Y-78402380D01*
%TO.C,TP1*%
X110202380Y-78204761D02*
X110345238Y-78252380D01*
X110583333Y-78252380D01*
X110678571Y-78204761D01*
X110726190Y-78157142D01*
X110773809Y-78061904D01*
X110773809Y-77966666D01*
X110726190Y-77871428D01*
X110678571Y-77823809D01*
X110583333Y-77776190D01*
X110392857Y-77728571D01*
X110297619Y-77680952D01*
X110250000Y-77633333D01*
X110202380Y-77538095D01*
X110202380Y-77442857D01*
X110250000Y-77347619D01*
X110297619Y-77300000D01*
X110392857Y-77252380D01*
X110630952Y-77252380D01*
X110773809Y-77300000D01*
X111202380Y-78252380D02*
X111202380Y-77252380D01*
X111678571Y-78252380D02*
X111678571Y-77252380D01*
X112250000Y-78252380D01*
X112250000Y-77252380D01*
%TO.C,U2*%
X113832380Y-57211904D02*
X114641904Y-57211904D01*
X114737142Y-57164285D01*
X114784761Y-57116666D01*
X114832380Y-57021428D01*
X114832380Y-56830952D01*
X114784761Y-56735714D01*
X114737142Y-56688095D01*
X114641904Y-56640476D01*
X113832380Y-56640476D01*
X113927619Y-56211904D02*
X113880000Y-56164285D01*
X113832380Y-56069047D01*
X113832380Y-55830952D01*
X113880000Y-55735714D01*
X113927619Y-55688095D01*
X114022857Y-55640476D01*
X114118095Y-55640476D01*
X114260952Y-55688095D01*
X114832380Y-56259523D01*
X114832380Y-55640476D01*
%TO.C,D4*%
X87661904Y-88252380D02*
X87661904Y-87252380D01*
X87900000Y-87252380D01*
X88042857Y-87300000D01*
X88138095Y-87395238D01*
X88185714Y-87490476D01*
X88233333Y-87680952D01*
X88233333Y-87823809D01*
X88185714Y-88014285D01*
X88138095Y-88109523D01*
X88042857Y-88204761D01*
X87900000Y-88252380D01*
X87661904Y-88252380D01*
X89090476Y-87585714D02*
X89090476Y-88252380D01*
X88852380Y-87204761D02*
X88614285Y-87919047D01*
X89233333Y-87919047D01*
%TO.C,J6*%
D18*
X65666666Y-91052380D02*
X65666666Y-91766666D01*
X65619047Y-91909523D01*
X65523809Y-92004761D01*
X65380952Y-92052380D01*
X65285714Y-92052380D01*
X66571428Y-91052380D02*
X66380952Y-91052380D01*
X66285714Y-91100000D01*
X66238095Y-91147619D01*
X66142857Y-91290476D01*
X66095238Y-91480952D01*
X66095238Y-91861904D01*
X66142857Y-91957142D01*
X66190476Y-92004761D01*
X66285714Y-92052380D01*
X66476190Y-92052380D01*
X66571428Y-92004761D01*
X66619047Y-91957142D01*
X66666666Y-91861904D01*
X66666666Y-91623809D01*
X66619047Y-91528571D01*
X66571428Y-91480952D01*
X66476190Y-91433333D01*
X66285714Y-91433333D01*
X66190476Y-91480952D01*
X66142857Y-91528571D01*
X66095238Y-91623809D01*
%TD*%
M02*
