%TF.GenerationSoftware,KiCad,Pcbnew,5.1.9+dfsg1-1*%
%TF.CreationDate,2021-12-12T20:19:36+01:00*%
%TF.ProjectId,RaspberryPi_UPS_HAT,52617370-6265-4727-9279-50695f555053,rev?*%
%TF.SameCoordinates,Original*%
%TF.FileFunction,Legend,Top*%
%TF.FilePolarity,Positive*%
%FSLAX46Y46*%
G04 Gerber Fmt 4.6, Leading zero omitted, Abs format (unit mm)*
G04 Created by KiCad (PCBNEW 5.1.9+dfsg1-1) date 2021-12-12 20:19:36*
%MOMM*%
%LPD*%
G01*
G04 APERTURE LIST*
%ADD10C,0.150000*%
%ADD11C,0.120000*%
%ADD12C,0.127000*%
%ADD13C,0.203200*%
%ADD14C,0.200000*%
%ADD15C,0.101600*%
%ADD16C,0.177800*%
%ADD17C,0.015000*%
G04 APERTURE END LIST*
D10*
X52095238Y-60452380D02*
X52714285Y-60452380D01*
X52380952Y-60833333D01*
X52523809Y-60833333D01*
X52619047Y-60880952D01*
X52666666Y-60928571D01*
X52714285Y-61023809D01*
X52714285Y-61261904D01*
X52666666Y-61357142D01*
X52619047Y-61404761D01*
X52523809Y-61452380D01*
X52238095Y-61452380D01*
X52142857Y-61404761D01*
X52095238Y-61357142D01*
X53000000Y-60452380D02*
X53333333Y-61452380D01*
X53666666Y-60452380D01*
X53904761Y-60452380D02*
X54523809Y-60452380D01*
X54190476Y-60833333D01*
X54333333Y-60833333D01*
X54428571Y-60880952D01*
X54476190Y-60928571D01*
X54523809Y-61023809D01*
X54523809Y-61261904D01*
X54476190Y-61357142D01*
X54428571Y-61404761D01*
X54333333Y-61452380D01*
X54047619Y-61452380D01*
X53952380Y-61404761D01*
X53904761Y-61357142D01*
X56952380Y-60452380D02*
X56476190Y-60452380D01*
X56428571Y-60928571D01*
X56476190Y-60880952D01*
X56571428Y-60833333D01*
X56809523Y-60833333D01*
X56904761Y-60880952D01*
X56952380Y-60928571D01*
X57000000Y-61023809D01*
X57000000Y-61261904D01*
X56952380Y-61357142D01*
X56904761Y-61404761D01*
X56809523Y-61452380D01*
X56571428Y-61452380D01*
X56476190Y-61404761D01*
X56428571Y-61357142D01*
X57285714Y-60452380D02*
X57619047Y-61452380D01*
X57952380Y-60452380D01*
X114438095Y-69052380D02*
X115009523Y-69052380D01*
X114723809Y-70052380D02*
X114723809Y-69052380D01*
X115247619Y-69052380D02*
X115914285Y-70052380D01*
X115914285Y-69052380D02*
X115247619Y-70052380D01*
X57219047Y-83371428D02*
X57980952Y-83371428D01*
X57600000Y-83752380D02*
X57600000Y-82990476D01*
D11*
%TO.C,JP1*%
X56550000Y-59960000D02*
X53750000Y-59960000D01*
X53100000Y-59260000D02*
X53100000Y-58660000D01*
X53750000Y-57960000D02*
X56550000Y-57960000D01*
X57200000Y-58660000D02*
X57200000Y-59260000D01*
X56350000Y-57760000D02*
X56650000Y-57460000D01*
X56650000Y-57460000D02*
X56050000Y-57460000D01*
X56350000Y-57760000D02*
X56050000Y-57460000D01*
X57200000Y-59260000D02*
G75*
G02*
X56500000Y-59960000I-700000J0D01*
G01*
X56500000Y-57960000D02*
G75*
G02*
X57200000Y-58660000I0J-700000D01*
G01*
X53100000Y-58660000D02*
G75*
G02*
X53800000Y-57960000I700000J0D01*
G01*
X53800000Y-59960000D02*
G75*
G02*
X53100000Y-59260000I0J700000D01*
G01*
%TO.C,J5*%
X52430000Y-82270000D02*
X52430000Y-81000000D01*
X53700000Y-82270000D02*
X52430000Y-82270000D01*
X56620000Y-79957071D02*
X56620000Y-79560000D01*
X55860000Y-79957071D02*
X55860000Y-79560000D01*
X56620000Y-70900000D02*
X56620000Y-76900000D01*
X55860000Y-70900000D02*
X56620000Y-70900000D01*
X55860000Y-76900000D02*
X55860000Y-70900000D01*
X54970000Y-79560000D02*
X54970000Y-76900000D01*
X54080000Y-79890000D02*
X54080000Y-79560000D01*
X53320000Y-79890000D02*
X53320000Y-79560000D01*
X53980000Y-76900000D02*
X53980000Y-70900000D01*
X53860000Y-76900000D02*
X53860000Y-70900000D01*
X53740000Y-76900000D02*
X53740000Y-70900000D01*
X53620000Y-76900000D02*
X53620000Y-70900000D01*
X53500000Y-76900000D02*
X53500000Y-70900000D01*
X53380000Y-76900000D02*
X53380000Y-70900000D01*
X54080000Y-70900000D02*
X54080000Y-76900000D01*
X53320000Y-70900000D02*
X54080000Y-70900000D01*
X53320000Y-76900000D02*
X53320000Y-70900000D01*
X52370000Y-76900000D02*
X52370000Y-79560000D01*
X57570000Y-76900000D02*
X52370000Y-76900000D01*
X57570000Y-79560000D02*
X57570000Y-76900000D01*
X52370000Y-79560000D02*
X57570000Y-79560000D01*
%TO.C,U5*%
X100190000Y-71300000D02*
X100190000Y-73750000D01*
X103410000Y-73100000D02*
X103410000Y-71300000D01*
%TO.C,U1*%
X104590000Y-71300000D02*
X104590000Y-73750000D01*
X107810000Y-73100000D02*
X107810000Y-71300000D01*
%TO.C,SW2*%
X93480000Y-62440000D02*
X93480000Y-60360000D01*
X97650000Y-58680000D02*
X98140000Y-59170000D01*
X98920000Y-62440000D02*
X98920000Y-60360000D01*
X94750000Y-58680000D02*
X94260000Y-59170000D01*
X94750000Y-58680000D02*
X97650000Y-58680000D01*
X94750000Y-64120000D02*
X94260000Y-63630000D01*
X94750000Y-64120000D02*
X97650000Y-64120000D01*
X97650000Y-64120000D02*
X98140000Y-63630000D01*
%TO.C,SW1*%
X93480000Y-56440000D02*
X93480000Y-54360000D01*
X97650000Y-52680000D02*
X98140000Y-53170000D01*
X98920000Y-56440000D02*
X98920000Y-54360000D01*
X94750000Y-52680000D02*
X94260000Y-53170000D01*
X94750000Y-52680000D02*
X97650000Y-52680000D01*
X94750000Y-58120000D02*
X94260000Y-57630000D01*
X94750000Y-58120000D02*
X97650000Y-58120000D01*
X97650000Y-58120000D02*
X98140000Y-57630000D01*
%TO.C,TP4*%
X102600000Y-57000000D02*
G75*
G03*
X102600000Y-57000000I-700000J0D01*
G01*
%TO.C,TP3*%
X114250000Y-48150000D02*
G75*
G03*
X114250000Y-48150000I-700000J0D01*
G01*
%TO.C,TP2*%
X107750000Y-92050000D02*
G75*
G03*
X107750000Y-92050000I-700000J0D01*
G01*
%TO.C,TP1*%
X92600000Y-92550000D02*
G75*
G03*
X92600000Y-92550000I-700000J0D01*
G01*
%TO.C,J1*%
X107270000Y-62030000D02*
X107270000Y-60700000D01*
X108600000Y-62030000D02*
X107270000Y-62030000D01*
X107270000Y-59430000D02*
X107270000Y-56830000D01*
X109870000Y-59430000D02*
X107270000Y-59430000D01*
X109870000Y-62030000D02*
X109870000Y-59430000D01*
X107270000Y-56830000D02*
X115010000Y-56830000D01*
X109870000Y-62030000D02*
X115010000Y-62030000D01*
X115010000Y-62030000D02*
X115010000Y-56830000D01*
%TO.C,U2*%
X102765000Y-51800000D02*
X102765000Y-55250000D01*
X102765000Y-51800000D02*
X102765000Y-49850000D01*
X111635000Y-51800000D02*
X111635000Y-53750000D01*
X111635000Y-51800000D02*
X111635000Y-49850000D01*
%TO.C,D4*%
X96000000Y-74185000D02*
X98685000Y-74185000D01*
X96000000Y-72265000D02*
X96000000Y-74185000D01*
X98685000Y-72265000D02*
X96000000Y-72265000D01*
D12*
%TO.C,J3*%
X112930180Y-88250880D02*
X112930180Y-84250380D01*
X112081820Y-88250880D02*
X112930180Y-88250880D01*
X112081820Y-85751520D02*
X112081820Y-88250880D01*
X110679740Y-85751520D02*
X112081820Y-85751520D01*
X105782620Y-85751520D02*
X107184700Y-85751520D01*
X105782620Y-88250880D02*
X105782620Y-85751520D01*
X104934260Y-88250880D02*
X105782620Y-88250880D01*
X104934260Y-84250380D02*
X104934260Y-88250880D01*
X111180120Y-80752800D02*
X106684320Y-80752800D01*
D13*
X112147860Y-88248340D02*
X112147860Y-85748980D01*
X112947960Y-88248340D02*
X112147860Y-88248340D01*
X105752140Y-88248340D02*
X104952040Y-88248340D01*
X105752140Y-85748980D02*
X105752140Y-88248340D01*
D14*
%TO.C,J6*%
X61555000Y-93150000D02*
X61555000Y-94300000D01*
X61555000Y-94300000D02*
X70495000Y-94300000D01*
X70495000Y-94300000D02*
X70495000Y-93150000D01*
D11*
%TO.C,J4*%
X114970000Y-68570000D02*
X113700000Y-68570000D01*
X114970000Y-67300000D02*
X114970000Y-68570000D01*
X112657071Y-64380000D02*
X112260000Y-64380000D01*
X112657071Y-65140000D02*
X112260000Y-65140000D01*
X103600000Y-64380000D02*
X109600000Y-64380000D01*
X103600000Y-65140000D02*
X103600000Y-64380000D01*
X109600000Y-65140000D02*
X103600000Y-65140000D01*
X112260000Y-66030000D02*
X109600000Y-66030000D01*
X112590000Y-66920000D02*
X112260000Y-66920000D01*
X112590000Y-67680000D02*
X112260000Y-67680000D01*
X109600000Y-67020000D02*
X103600000Y-67020000D01*
X109600000Y-67140000D02*
X103600000Y-67140000D01*
X109600000Y-67260000D02*
X103600000Y-67260000D01*
X109600000Y-67380000D02*
X103600000Y-67380000D01*
X109600000Y-67500000D02*
X103600000Y-67500000D01*
X109600000Y-67620000D02*
X103600000Y-67620000D01*
X103600000Y-66920000D02*
X109600000Y-66920000D01*
X103600000Y-67680000D02*
X103600000Y-66920000D01*
X109600000Y-67680000D02*
X103600000Y-67680000D01*
X109600000Y-68630000D02*
X112260000Y-68630000D01*
X109600000Y-63430000D02*
X109600000Y-68630000D01*
X112260000Y-63430000D02*
X109600000Y-63430000D01*
X112260000Y-68630000D02*
X112260000Y-63430000D01*
%TO.C,JP1*%
D10*
X53530952Y-56678571D02*
X53197619Y-56678571D01*
X53197619Y-57202380D02*
X53197619Y-56202380D01*
X53673809Y-56202380D01*
X54007142Y-56916666D02*
X54483333Y-56916666D01*
X53911904Y-57202380D02*
X54245238Y-56202380D01*
X54578571Y-57202380D01*
X54911904Y-57202380D02*
X54911904Y-56202380D01*
X55483333Y-57202380D01*
X55483333Y-56202380D01*
X56578571Y-56202380D02*
X56911904Y-57202380D01*
X57245238Y-56202380D01*
%TO.C,J5*%
X54190476Y-83728571D02*
X53857142Y-83728571D01*
X53857142Y-84252380D02*
X53857142Y-83252380D01*
X54333333Y-83252380D01*
X54666666Y-83966666D02*
X55142857Y-83966666D01*
X54571428Y-84252380D02*
X54904761Y-83252380D01*
X55238095Y-84252380D01*
X55571428Y-84252380D02*
X55571428Y-83252380D01*
X56142857Y-84252380D01*
X56142857Y-83252380D01*
%TO.C,U5*%
X101038095Y-74852380D02*
X101038095Y-75661904D01*
X101085714Y-75757142D01*
X101133333Y-75804761D01*
X101228571Y-75852380D01*
X101419047Y-75852380D01*
X101514285Y-75804761D01*
X101561904Y-75757142D01*
X101609523Y-75661904D01*
X101609523Y-74852380D01*
X102561904Y-74852380D02*
X102085714Y-74852380D01*
X102038095Y-75328571D01*
X102085714Y-75280952D01*
X102180952Y-75233333D01*
X102419047Y-75233333D01*
X102514285Y-75280952D01*
X102561904Y-75328571D01*
X102609523Y-75423809D01*
X102609523Y-75661904D01*
X102561904Y-75757142D01*
X102514285Y-75804761D01*
X102419047Y-75852380D01*
X102180952Y-75852380D01*
X102085714Y-75804761D01*
X102038095Y-75757142D01*
X101228571Y-69552380D02*
X100752380Y-69552380D01*
X100752380Y-68552380D01*
X101419047Y-68552380D02*
X101990476Y-68552380D01*
X101704761Y-69552380D02*
X101704761Y-68552380D01*
X102895238Y-69457142D02*
X102847619Y-69504761D01*
X102704761Y-69552380D01*
X102609523Y-69552380D01*
X102466666Y-69504761D01*
X102371428Y-69409523D01*
X102323809Y-69314285D01*
X102276190Y-69123809D01*
X102276190Y-68980952D01*
X102323809Y-68790476D01*
X102371428Y-68695238D01*
X102466666Y-68600000D01*
X102609523Y-68552380D01*
X102704761Y-68552380D01*
X102847619Y-68600000D01*
X102895238Y-68647619D01*
%TO.C,U1*%
X105438095Y-74852380D02*
X105438095Y-75661904D01*
X105485714Y-75757142D01*
X105533333Y-75804761D01*
X105628571Y-75852380D01*
X105819047Y-75852380D01*
X105914285Y-75804761D01*
X105961904Y-75757142D01*
X106009523Y-75661904D01*
X106009523Y-74852380D01*
X107009523Y-75852380D02*
X106438095Y-75852380D01*
X106723809Y-75852380D02*
X106723809Y-74852380D01*
X106628571Y-74995238D01*
X106533333Y-75090476D01*
X106438095Y-75138095D01*
X105128571Y-69552380D02*
X105128571Y-68552380D01*
X105461904Y-69266666D01*
X105795238Y-68552380D01*
X105795238Y-69552380D01*
X106271428Y-69552380D02*
X106271428Y-68552380D01*
X107319047Y-69457142D02*
X107271428Y-69504761D01*
X107128571Y-69552380D01*
X107033333Y-69552380D01*
X106890476Y-69504761D01*
X106795238Y-69409523D01*
X106747619Y-69314285D01*
X106700000Y-69123809D01*
X106700000Y-68980952D01*
X106747619Y-68790476D01*
X106795238Y-68695238D01*
X106890476Y-68600000D01*
X107033333Y-68552380D01*
X107128571Y-68552380D01*
X107271428Y-68600000D01*
X107319047Y-68647619D01*
%TO.C,SW2*%
X95652380Y-65452380D02*
X95319047Y-64976190D01*
X95080952Y-65452380D02*
X95080952Y-64452380D01*
X95461904Y-64452380D01*
X95557142Y-64500000D01*
X95604761Y-64547619D01*
X95652380Y-64642857D01*
X95652380Y-64785714D01*
X95604761Y-64880952D01*
X95557142Y-64928571D01*
X95461904Y-64976190D01*
X95080952Y-64976190D01*
X96033333Y-65404761D02*
X96176190Y-65452380D01*
X96414285Y-65452380D01*
X96509523Y-65404761D01*
X96557142Y-65357142D01*
X96604761Y-65261904D01*
X96604761Y-65166666D01*
X96557142Y-65071428D01*
X96509523Y-65023809D01*
X96414285Y-64976190D01*
X96223809Y-64928571D01*
X96128571Y-64880952D01*
X96080952Y-64833333D01*
X96033333Y-64738095D01*
X96033333Y-64642857D01*
X96080952Y-64547619D01*
X96128571Y-64500000D01*
X96223809Y-64452380D01*
X96461904Y-64452380D01*
X96604761Y-64500000D01*
X96890476Y-64452380D02*
X97461904Y-64452380D01*
X97176190Y-65452380D02*
X97176190Y-64452380D01*
%TO.C,SW1*%
X95366666Y-51328571D02*
X95509523Y-51376190D01*
X95557142Y-51423809D01*
X95604761Y-51519047D01*
X95604761Y-51661904D01*
X95557142Y-51757142D01*
X95509523Y-51804761D01*
X95414285Y-51852380D01*
X95033333Y-51852380D01*
X95033333Y-50852380D01*
X95366666Y-50852380D01*
X95461904Y-50900000D01*
X95509523Y-50947619D01*
X95557142Y-51042857D01*
X95557142Y-51138095D01*
X95509523Y-51233333D01*
X95461904Y-51280952D01*
X95366666Y-51328571D01*
X95033333Y-51328571D01*
X95890476Y-50852380D02*
X96461904Y-50852380D01*
X96176190Y-51852380D02*
X96176190Y-50852380D01*
X96795238Y-51852380D02*
X96795238Y-50852380D01*
X97366666Y-51852380D01*
X97366666Y-50852380D01*
%TO.C,TP4*%
X100661904Y-58002380D02*
X101280952Y-58002380D01*
X100947619Y-58383333D01*
X101090476Y-58383333D01*
X101185714Y-58430952D01*
X101233333Y-58478571D01*
X101280952Y-58573809D01*
X101280952Y-58811904D01*
X101233333Y-58907142D01*
X101185714Y-58954761D01*
X101090476Y-59002380D01*
X100804761Y-59002380D01*
X100709523Y-58954761D01*
X100661904Y-58907142D01*
X101566666Y-58002380D02*
X101900000Y-59002380D01*
X102233333Y-58002380D01*
X102471428Y-58002380D02*
X103090476Y-58002380D01*
X102757142Y-58383333D01*
X102900000Y-58383333D01*
X102995238Y-58430952D01*
X103042857Y-58478571D01*
X103090476Y-58573809D01*
X103090476Y-58811904D01*
X103042857Y-58907142D01*
X102995238Y-58954761D01*
X102900000Y-59002380D01*
X102614285Y-59002380D01*
X102519047Y-58954761D01*
X102471428Y-58907142D01*
%TO.C,TP3*%
X112788095Y-49200000D02*
X112692857Y-49152380D01*
X112550000Y-49152380D01*
X112407142Y-49200000D01*
X112311904Y-49295238D01*
X112264285Y-49390476D01*
X112216666Y-49580952D01*
X112216666Y-49723809D01*
X112264285Y-49914285D01*
X112311904Y-50009523D01*
X112407142Y-50104761D01*
X112550000Y-50152380D01*
X112645238Y-50152380D01*
X112788095Y-50104761D01*
X112835714Y-50057142D01*
X112835714Y-49723809D01*
X112645238Y-49723809D01*
X113264285Y-50152380D02*
X113264285Y-49152380D01*
X113835714Y-50152380D01*
X113835714Y-49152380D01*
X114311904Y-50152380D02*
X114311904Y-49152380D01*
X114550000Y-49152380D01*
X114692857Y-49200000D01*
X114788095Y-49295238D01*
X114835714Y-49390476D01*
X114883333Y-49580952D01*
X114883333Y-49723809D01*
X114835714Y-49914285D01*
X114788095Y-50009523D01*
X114692857Y-50104761D01*
X114550000Y-50152380D01*
X114311904Y-50152380D01*
%TO.C,TP2*%
X101885714Y-92404761D02*
X102028571Y-92452380D01*
X102266666Y-92452380D01*
X102361904Y-92404761D01*
X102409523Y-92357142D01*
X102457142Y-92261904D01*
X102457142Y-92166666D01*
X102409523Y-92071428D01*
X102361904Y-92023809D01*
X102266666Y-91976190D01*
X102076190Y-91928571D01*
X101980952Y-91880952D01*
X101933333Y-91833333D01*
X101885714Y-91738095D01*
X101885714Y-91642857D01*
X101933333Y-91547619D01*
X101980952Y-91500000D01*
X102076190Y-91452380D01*
X102314285Y-91452380D01*
X102457142Y-91500000D01*
X103076190Y-91452380D02*
X103266666Y-91452380D01*
X103361904Y-91500000D01*
X103457142Y-91595238D01*
X103504761Y-91785714D01*
X103504761Y-92119047D01*
X103457142Y-92309523D01*
X103361904Y-92404761D01*
X103266666Y-92452380D01*
X103076190Y-92452380D01*
X102980952Y-92404761D01*
X102885714Y-92309523D01*
X102838095Y-92119047D01*
X102838095Y-91785714D01*
X102885714Y-91595238D01*
X102980952Y-91500000D01*
X103076190Y-91452380D01*
X103933333Y-91452380D02*
X103933333Y-92261904D01*
X103980952Y-92357142D01*
X104028571Y-92404761D01*
X104123809Y-92452380D01*
X104314285Y-92452380D01*
X104409523Y-92404761D01*
X104457142Y-92357142D01*
X104504761Y-92261904D01*
X104504761Y-91452380D01*
X104838095Y-91452380D02*
X105409523Y-91452380D01*
X105123809Y-92452380D02*
X105123809Y-91452380D01*
%TO.C,TP1*%
X93252380Y-92904761D02*
X93395238Y-92952380D01*
X93633333Y-92952380D01*
X93728571Y-92904761D01*
X93776190Y-92857142D01*
X93823809Y-92761904D01*
X93823809Y-92666666D01*
X93776190Y-92571428D01*
X93728571Y-92523809D01*
X93633333Y-92476190D01*
X93442857Y-92428571D01*
X93347619Y-92380952D01*
X93300000Y-92333333D01*
X93252380Y-92238095D01*
X93252380Y-92142857D01*
X93300000Y-92047619D01*
X93347619Y-92000000D01*
X93442857Y-91952380D01*
X93680952Y-91952380D01*
X93823809Y-92000000D01*
X94252380Y-92952380D02*
X94252380Y-91952380D01*
X94728571Y-92952380D02*
X94728571Y-91952380D01*
X95300000Y-92952380D01*
X95300000Y-91952380D01*
%TO.C,J1*%
X105722380Y-59763333D02*
X106436666Y-59763333D01*
X106579523Y-59810952D01*
X106674761Y-59906190D01*
X106722380Y-60049047D01*
X106722380Y-60144285D01*
X106722380Y-58763333D02*
X106722380Y-59334761D01*
X106722380Y-59049047D02*
X105722380Y-59049047D01*
X105865238Y-59144285D01*
X105960476Y-59239523D01*
X106008095Y-59334761D01*
%TO.C,U2*%
X101372380Y-52561904D02*
X102181904Y-52561904D01*
X102277142Y-52514285D01*
X102324761Y-52466666D01*
X102372380Y-52371428D01*
X102372380Y-52180952D01*
X102324761Y-52085714D01*
X102277142Y-52038095D01*
X102181904Y-51990476D01*
X101372380Y-51990476D01*
X101467619Y-51561904D02*
X101420000Y-51514285D01*
X101372380Y-51419047D01*
X101372380Y-51180952D01*
X101420000Y-51085714D01*
X101467619Y-51038095D01*
X101562857Y-50990476D01*
X101658095Y-50990476D01*
X101800952Y-51038095D01*
X102372380Y-51609523D01*
X102372380Y-50990476D01*
%TO.C,D4*%
X96946904Y-72027380D02*
X96946904Y-71027380D01*
X97185000Y-71027380D01*
X97327857Y-71075000D01*
X97423095Y-71170238D01*
X97470714Y-71265476D01*
X97518333Y-71455952D01*
X97518333Y-71598809D01*
X97470714Y-71789285D01*
X97423095Y-71884523D01*
X97327857Y-71979761D01*
X97185000Y-72027380D01*
X96946904Y-72027380D01*
X98375476Y-71360714D02*
X98375476Y-72027380D01*
X98137380Y-70979761D02*
X97899285Y-71694047D01*
X98518333Y-71694047D01*
%TO.C,J3*%
D15*
X108476666Y-82604523D02*
X108476666Y-83511666D01*
X108416190Y-83693095D01*
X108295238Y-83814047D01*
X108113809Y-83874523D01*
X107992857Y-83874523D01*
X108960476Y-82604523D02*
X109746666Y-82604523D01*
X109323333Y-83088333D01*
X109504761Y-83088333D01*
X109625714Y-83148809D01*
X109686190Y-83209285D01*
X109746666Y-83330238D01*
X109746666Y-83632619D01*
X109686190Y-83753571D01*
X109625714Y-83814047D01*
X109504761Y-83874523D01*
X109141904Y-83874523D01*
X109020952Y-83814047D01*
X108960476Y-83753571D01*
X114409285Y-85237380D02*
X114469761Y-85055952D01*
X114530238Y-84995476D01*
X114651190Y-84935000D01*
X114832619Y-84935000D01*
X114953571Y-84995476D01*
X115014047Y-85055952D01*
X115074523Y-85176904D01*
X115074523Y-85660714D01*
X113804523Y-85660714D01*
X113804523Y-85237380D01*
X113865000Y-85116428D01*
X113925476Y-85055952D01*
X114046428Y-84995476D01*
X114167380Y-84995476D01*
X114288333Y-85055952D01*
X114348809Y-85116428D01*
X114409285Y-85237380D01*
X114409285Y-85660714D01*
X114711666Y-84451190D02*
X114711666Y-83846428D01*
X115074523Y-84572142D02*
X113804523Y-84148809D01*
X115074523Y-83725476D01*
X113804523Y-83483571D02*
X113804523Y-82757857D01*
X115074523Y-83120714D02*
X113804523Y-83120714D01*
D16*
X111164033Y-89238940D02*
X112247766Y-89238940D01*
X105449033Y-89238940D02*
X106532766Y-89238940D01*
X105990900Y-89780806D02*
X105990900Y-88697073D01*
%TO.C,J6*%
D17*
X65666666Y-91052380D02*
X65666666Y-91766666D01*
X65619047Y-91909523D01*
X65523809Y-92004761D01*
X65380952Y-92052380D01*
X65285714Y-92052380D01*
X66571428Y-91052380D02*
X66380952Y-91052380D01*
X66285714Y-91100000D01*
X66238095Y-91147619D01*
X66142857Y-91290476D01*
X66095238Y-91480952D01*
X66095238Y-91861904D01*
X66142857Y-91957142D01*
X66190476Y-92004761D01*
X66285714Y-92052380D01*
X66476190Y-92052380D01*
X66571428Y-92004761D01*
X66619047Y-91957142D01*
X66666666Y-91861904D01*
X66666666Y-91623809D01*
X66619047Y-91528571D01*
X66571428Y-91480952D01*
X66476190Y-91433333D01*
X66285714Y-91433333D01*
X66190476Y-91480952D01*
X66142857Y-91528571D01*
X66095238Y-91623809D01*
%TO.C,J4*%
D10*
X110614285Y-69957142D02*
X110566666Y-70004761D01*
X110423809Y-70052380D01*
X110328571Y-70052380D01*
X110185714Y-70004761D01*
X110090476Y-69909523D01*
X110042857Y-69814285D01*
X109995238Y-69623809D01*
X109995238Y-69480952D01*
X110042857Y-69290476D01*
X110090476Y-69195238D01*
X110185714Y-69100000D01*
X110328571Y-69052380D01*
X110423809Y-69052380D01*
X110566666Y-69100000D01*
X110614285Y-69147619D01*
X111233333Y-69052380D02*
X111423809Y-69052380D01*
X111519047Y-69100000D01*
X111614285Y-69195238D01*
X111661904Y-69385714D01*
X111661904Y-69719047D01*
X111614285Y-69909523D01*
X111519047Y-70004761D01*
X111423809Y-70052380D01*
X111233333Y-70052380D01*
X111138095Y-70004761D01*
X111042857Y-69909523D01*
X110995238Y-69719047D01*
X110995238Y-69385714D01*
X111042857Y-69195238D01*
X111138095Y-69100000D01*
X111233333Y-69052380D01*
X112090476Y-70052380D02*
X112090476Y-69052380D01*
X112423809Y-69766666D01*
X112757142Y-69052380D01*
X112757142Y-70052380D01*
%TD*%
M02*
