M48
; DRILL file {KiCad 5.1.9+dfsg1-1} date Mon Dec 20 12:13:39 2021
; FORMAT={-:-/ absolute / metric / decimal}
; #@! TF.CreationDate,2021-12-20T12:13:39+01:00
; #@! TF.GenerationSoftware,Kicad,Pcbnew,5.1.9+dfsg1-1
FMAT,2
METRIC
T1C0.400
T2C0.500
T3C0.600
T4C0.750
T5C1.000
T6C2.750
%
G90
G05
T1
X52.65Y-44.65
X52.65Y-46.05
X53.75Y-56.75
X54.05Y-44.65
X54.05Y-46.05
X54.35Y-62.2
X55.0Y-56.75
X55.0Y-78.8
X55.5Y-69.0
X56.5Y-49.0
X57.25Y-91.6
X57.25Y-92.9
X57.75Y-52.0
X58.55Y-91.6
X58.55Y-92.9
X58.7Y-83.05
X59.9Y-87.9
X61.25Y-44.75
X62.315Y-47.935
X64.55Y-89.6
X65.25Y-47.75
X66.1Y-89.35
X67.55Y-89.6
X75.5Y-92.2
X76.25Y-93.55
X77.2Y-87.75
X77.45Y-46.95
X79.25Y-91.85
X80.25Y-49.0
X82.85Y-90.55
X83.5Y-87.75
X89.9Y-90.6
X90.05Y-86.4
X91.0Y-92.0
X91.7Y-84.35
X91.75Y-83.05
X91.85Y-90.6
X91.95Y-70.5
X93.4Y-70.3
X93.7Y-67.4
X93.75Y-93.55
X93.9Y-61.55
X94.3Y-57.25
X94.7Y-48.65
X94.7Y-87.5
X94.85Y-70.55
X94.9Y-58.75
X95.75Y-79.85
X96.35Y-67.95
X96.5Y-51.8
X96.5Y-60.1
X97.1Y-69.45
X97.25Y-89.2
X97.35Y-84.05
X97.85Y-54.4
X98.1Y-81.9
X98.5Y-87.2
X98.5Y-88.45
X98.55Y-84.05
X98.9Y-70.7
X99.7Y-53.05
X100.25Y-46.5
X100.95Y-68.2
X101.3Y-70.25
X101.9Y-48.3
X102.9Y-61.65
X103.0Y-52.35
X103.0Y-56.2
X103.25Y-86.55
X103.5Y-84.45
X104.1Y-60.15
X104.3Y-51.5
X104.7Y-48.7
X105.5Y-73.05
X105.5Y-88.45
X105.75Y-46.25
X105.85Y-47.9
X106.1Y-56.2
X106.15Y-84.45
X106.25Y-71.3
X106.5Y-86.45
X106.5Y-87.45
X106.5Y-88.45
X106.55Y-60.875
X107.4Y-51.95
X107.4Y-79.35
X108.05Y-85.6
X108.45Y-57.4
X108.7Y-56.3
X109.1Y-55.3
X109.15Y-91.05
X110.0Y-71.3
X110.37Y-52.975
X110.37Y-61.63
X111.4Y-56.55
X111.65Y-71.3
X112.7Y-56.25
X113.45Y-71.45
X113.45Y-87.5
X113.5Y-86.1
X113.55Y-74.15
X113.65Y-51.65
X113.8Y-39.25
X114.5Y-63.55
X114.8Y-86.15
X114.8Y-87.55
X115.0Y-78.4
X115.4Y-65.8
X115.45Y-60.6
X115.65Y-59.1
T2
X97.15Y-79.0
X98.95Y-63.45
X105.55Y-77.9
X108.85Y-77.85
T4
X93.4Y-72.11
X93.4Y-73.38
X93.4Y-74.65
T5
X53.7Y-81.0
X56.24Y-81.0
X59.67Y-40.73
X59.67Y-43.27
X62.21Y-40.73
X62.21Y-43.27
X64.75Y-40.73
X64.75Y-43.27
X67.29Y-40.73
X67.29Y-43.27
X69.83Y-40.73
X69.83Y-43.27
X72.37Y-40.73
X72.37Y-43.27
X74.91Y-40.73
X74.91Y-43.27
X77.45Y-40.73
X77.45Y-43.27
X79.99Y-40.73
X79.99Y-43.27
X82.53Y-40.73
X82.53Y-43.27
X85.07Y-40.73
X85.07Y-43.27
X87.61Y-40.73
X87.61Y-43.27
X90.15Y-40.73
X90.15Y-43.27
X92.69Y-40.73
X92.69Y-43.27
X95.23Y-40.73
X95.23Y-43.27
X95.23Y-66.55
X97.77Y-40.73
X97.77Y-43.27
X97.77Y-66.55
X100.31Y-40.73
X100.31Y-43.27
X100.31Y-66.55
X102.85Y-40.73
X102.85Y-43.27
X102.85Y-66.55
X105.39Y-40.73
X105.39Y-43.27
X107.85Y-47.46
X107.85Y-50.0
X107.93Y-40.73
X107.93Y-43.27
X110.39Y-47.46
X110.39Y-50.0
X112.93Y-47.46
X112.93Y-50.0
T6
X54.8Y-42.0
X54.8Y-91.0
X112.8Y-42.0
X112.8Y-91.0
T3
G00X61.705Y-87.6
M15
G01X61.705Y-88.2
M16
G05
G00X61.705Y-91.4
M15
G01X61.705Y-92.0
M16
G05
G00X70.345Y-87.6
M15
G01X70.345Y-88.2
M16
G05
G00X70.345Y-91.4
M15
G01X70.345Y-92.0
M16
G05
T0
M30
