%TF.GenerationSoftware,KiCad,Pcbnew,5.1.9+dfsg1-1*%
%TF.CreationDate,2021-12-20T12:13:36+01:00*%
%TF.ProjectId,RaspberryPi_UPS_HAT,52617370-6265-4727-9279-50695f555053,rev?*%
%TF.SameCoordinates,Original*%
%TF.FileFunction,Copper,L1,Top*%
%TF.FilePolarity,Positive*%
%FSLAX46Y46*%
G04 Gerber Fmt 4.6, Leading zero omitted, Abs format (unit mm)*
G04 Created by KiCad (PCBNEW 5.1.9+dfsg1-1) date 2021-12-20 12:13:36*
%MOMM*%
%LPD*%
G01*
G04 APERTURE LIST*
%TA.AperFunction,SMDPad,CuDef*%
%ADD10R,0.998220X4.599940*%
%TD*%
%TA.AperFunction,SMDPad,CuDef*%
%ADD11R,1.597660X3.398520*%
%TD*%
%TA.AperFunction,ComponentPad*%
%ADD12C,1.000000*%
%TD*%
%TA.AperFunction,ComponentPad*%
%ADD13O,1.700000X1.700000*%
%TD*%
%TA.AperFunction,ComponentPad*%
%ADD14R,1.700000X1.700000*%
%TD*%
%TA.AperFunction,SMDPad,CuDef*%
%ADD15R,1.000000X1.500000*%
%TD*%
%TA.AperFunction,SMDPad,CuDef*%
%ADD16C,0.150000*%
%TD*%
%TA.AperFunction,SMDPad,CuDef*%
%ADD17R,1.100000X1.800000*%
%TD*%
%TA.AperFunction,ComponentPad*%
%ADD18R,1.500000X1.050000*%
%TD*%
%TA.AperFunction,ComponentPad*%
%ADD19O,1.500000X1.050000*%
%TD*%
%TA.AperFunction,SMDPad,CuDef*%
%ADD20R,0.800000X2.200000*%
%TD*%
%TA.AperFunction,SMDPad,CuDef*%
%ADD21R,0.760000X2.200000*%
%TD*%
%TA.AperFunction,SMDPad,CuDef*%
%ADD22R,0.700000X2.200000*%
%TD*%
%TA.AperFunction,ComponentPad*%
%ADD23O,1.100000X2.200000*%
%TD*%
%TA.AperFunction,ViaPad*%
%ADD24C,1.000000*%
%TD*%
%TA.AperFunction,ViaPad*%
%ADD25C,0.800000*%
%TD*%
%TA.AperFunction,Conductor*%
%ADD26C,0.300000*%
%TD*%
%TA.AperFunction,Conductor*%
%ADD27C,0.250000*%
%TD*%
%TA.AperFunction,Conductor*%
%ADD28C,1.150000*%
%TD*%
%TA.AperFunction,Conductor*%
%ADD29C,0.500000*%
%TD*%
%TA.AperFunction,Conductor*%
%ADD30C,0.750000*%
%TD*%
%TA.AperFunction,Conductor*%
%ADD31C,0.254000*%
%TD*%
%TA.AperFunction,Conductor*%
%ADD32C,0.150000*%
%TD*%
G04 APERTURE END LIST*
D10*
%TO.P,J3,1*%
%TO.N,GND*%
X110501780Y-66601760D03*
%TO.P,J3,2*%
%TO.N,/V_BAT+*%
X112498220Y-66601760D03*
D11*
%TO.P,J3,NC1*%
%TO.N,N/C*%
X114898520Y-71798600D03*
%TO.P,J3,NC2*%
X108101480Y-71798600D03*
%TD*%
D12*
%TO.P,TP3,1*%
%TO.N,GND*%
X105550000Y-77900000D03*
%TD*%
%TO.P,TP4,1*%
%TO.N,+3V3*%
X98950000Y-63450000D03*
%TD*%
D13*
%TO.P,J1,6*%
%TO.N,GND*%
X112930000Y-47460000D03*
%TO.P,J1,5*%
%TO.N,RST*%
X112930000Y-50000000D03*
%TO.P,J1,4*%
%TO.N,I2C_SDA*%
X110390000Y-47460000D03*
%TO.P,J1,3*%
%TO.N,I2C_SCL*%
X110390000Y-50000000D03*
%TO.P,J1,2*%
%TO.N,+3V3*%
X107850000Y-47460000D03*
D14*
%TO.P,J1,1*%
%TO.N,ISP_MISO*%
X107850000Y-50000000D03*
%TD*%
D13*
%TO.P,J4,4*%
%TO.N,BTN*%
X95230000Y-66550000D03*
%TO.P,J4,3*%
%TO.N,GND*%
X97770000Y-66550000D03*
%TO.P,J4,2*%
X100310000Y-66550000D03*
D14*
%TO.P,J4,1*%
%TO.N,TX*%
X102850000Y-66550000D03*
%TD*%
%TO.P,J2,1*%
%TO.N,N/C*%
X59670000Y-43270000D03*
D13*
%TO.P,J2,2*%
%TO.N,/RPI_5V*%
X59670000Y-40730000D03*
%TO.P,J2,3*%
%TO.N,I2C_SDA*%
X62210000Y-43270000D03*
%TO.P,J2,4*%
%TO.N,/RPI_5V*%
X62210000Y-40730000D03*
%TO.P,J2,5*%
%TO.N,I2C_SCL*%
X64750000Y-43270000D03*
%TO.P,J2,6*%
%TO.N,GND*%
X64750000Y-40730000D03*
%TO.P,J2,7*%
%TO.N,N/C*%
X67290000Y-43270000D03*
%TO.P,J2,8*%
%TO.N,RPI_IS_ONLINE_IN*%
X67290000Y-40730000D03*
%TO.P,J2,9*%
%TO.N,GND*%
X69830000Y-43270000D03*
%TO.P,J2,10*%
%TO.N,TX*%
X69830000Y-40730000D03*
%TO.P,J2,11*%
%TO.N,N/C*%
X72370000Y-43270000D03*
%TO.P,J2,12*%
X72370000Y-40730000D03*
%TO.P,J2,13*%
X74910000Y-43270000D03*
%TO.P,J2,14*%
%TO.N,GND*%
X74910000Y-40730000D03*
%TO.P,J2,15*%
%TO.N,N/C*%
X77450000Y-43270000D03*
%TO.P,J2,16*%
X77450000Y-40730000D03*
%TO.P,J2,17*%
X79990000Y-43270000D03*
%TO.P,J2,18*%
X79990000Y-40730000D03*
%TO.P,J2,19*%
X82530000Y-43270000D03*
%TO.P,J2,20*%
%TO.N,GND*%
X82530000Y-40730000D03*
%TO.P,J2,21*%
%TO.N,N/C*%
X85070000Y-43270000D03*
%TO.P,J2,22*%
X85070000Y-40730000D03*
%TO.P,J2,23*%
X87610000Y-43270000D03*
%TO.P,J2,24*%
X87610000Y-40730000D03*
%TO.P,J2,25*%
%TO.N,GND*%
X90150000Y-43270000D03*
%TO.P,J2,26*%
%TO.N,N/C*%
X90150000Y-40730000D03*
%TO.P,J2,27*%
X92690000Y-43270000D03*
%TO.P,J2,28*%
X92690000Y-40730000D03*
%TO.P,J2,29*%
X95230000Y-43270000D03*
%TO.P,J2,30*%
%TO.N,GND*%
X95230000Y-40730000D03*
%TO.P,J2,31*%
%TO.N,N/C*%
X97770000Y-43270000D03*
%TO.P,J2,32*%
X97770000Y-40730000D03*
%TO.P,J2,33*%
X100310000Y-43270000D03*
%TO.P,J2,34*%
%TO.N,GND*%
X100310000Y-40730000D03*
%TO.P,J2,35*%
%TO.N,N/C*%
X102850000Y-43270000D03*
%TO.P,J2,36*%
X102850000Y-40730000D03*
%TO.P,J2,37*%
X105390000Y-43270000D03*
%TO.P,J2,38*%
X105390000Y-40730000D03*
%TO.P,J2,39*%
%TO.N,GND*%
X107930000Y-43270000D03*
%TO.P,J2,40*%
%TO.N,N/C*%
X107930000Y-40730000D03*
%TD*%
%TO.P,F1,2*%
%TO.N,/5V_IN*%
%TA.AperFunction,SMDPad,CuDef*%
G36*
G01*
X72649999Y-88575000D02*
X75550001Y-88575000D01*
G75*
G02*
X75800000Y-88824999I0J-249999D01*
G01*
X75800000Y-89450001D01*
G75*
G02*
X75550001Y-89700000I-249999J0D01*
G01*
X72649999Y-89700000D01*
G75*
G02*
X72400000Y-89450001I0J249999D01*
G01*
X72400000Y-88824999D01*
G75*
G02*
X72649999Y-88575000I249999J0D01*
G01*
G37*
%TD.AperFunction*%
%TO.P,F1,1*%
%TO.N,/VUSB*%
%TA.AperFunction,SMDPad,CuDef*%
G36*
G01*
X72649999Y-84300000D02*
X75550001Y-84300000D01*
G75*
G02*
X75800000Y-84549999I0J-249999D01*
G01*
X75800000Y-85175001D01*
G75*
G02*
X75550001Y-85425000I-249999J0D01*
G01*
X72649999Y-85425000D01*
G75*
G02*
X72400000Y-85175001I0J249999D01*
G01*
X72400000Y-84549999D01*
G75*
G02*
X72649999Y-84300000I249999J0D01*
G01*
G37*
%TD.AperFunction*%
%TD*%
D15*
%TO.P,JP1,2*%
%TO.N,/FAN_SUPPLY*%
X55150000Y-58960000D03*
%TA.AperFunction,SMDPad,CuDef*%
D16*
%TO.P,JP1,3*%
%TO.N,+3V3*%
G36*
X53850000Y-59709398D02*
G01*
X53825466Y-59709398D01*
X53776635Y-59704588D01*
X53728510Y-59695016D01*
X53681555Y-59680772D01*
X53636222Y-59661995D01*
X53592949Y-59638864D01*
X53552150Y-59611604D01*
X53514221Y-59580476D01*
X53479524Y-59545779D01*
X53448396Y-59507850D01*
X53421136Y-59467051D01*
X53398005Y-59423778D01*
X53379228Y-59378445D01*
X53364984Y-59331490D01*
X53355412Y-59283365D01*
X53350602Y-59234534D01*
X53350602Y-59210000D01*
X53350000Y-59210000D01*
X53350000Y-58710000D01*
X53350602Y-58710000D01*
X53350602Y-58685466D01*
X53355412Y-58636635D01*
X53364984Y-58588510D01*
X53379228Y-58541555D01*
X53398005Y-58496222D01*
X53421136Y-58452949D01*
X53448396Y-58412150D01*
X53479524Y-58374221D01*
X53514221Y-58339524D01*
X53552150Y-58308396D01*
X53592949Y-58281136D01*
X53636222Y-58258005D01*
X53681555Y-58239228D01*
X53728510Y-58224984D01*
X53776635Y-58215412D01*
X53825466Y-58210602D01*
X53850000Y-58210602D01*
X53850000Y-58210000D01*
X54400000Y-58210000D01*
X54400000Y-59710000D01*
X53850000Y-59710000D01*
X53850000Y-59709398D01*
G37*
%TD.AperFunction*%
%TA.AperFunction,SMDPad,CuDef*%
%TO.P,JP1,1*%
%TO.N,/STEPUP_OUT_5V*%
G36*
X55900000Y-58210000D02*
G01*
X56450000Y-58210000D01*
X56450000Y-58210602D01*
X56474534Y-58210602D01*
X56523365Y-58215412D01*
X56571490Y-58224984D01*
X56618445Y-58239228D01*
X56663778Y-58258005D01*
X56707051Y-58281136D01*
X56747850Y-58308396D01*
X56785779Y-58339524D01*
X56820476Y-58374221D01*
X56851604Y-58412150D01*
X56878864Y-58452949D01*
X56901995Y-58496222D01*
X56920772Y-58541555D01*
X56935016Y-58588510D01*
X56944588Y-58636635D01*
X56949398Y-58685466D01*
X56949398Y-58710000D01*
X56950000Y-58710000D01*
X56950000Y-59210000D01*
X56949398Y-59210000D01*
X56949398Y-59234534D01*
X56944588Y-59283365D01*
X56935016Y-59331490D01*
X56920772Y-59378445D01*
X56901995Y-59423778D01*
X56878864Y-59467051D01*
X56851604Y-59507850D01*
X56820476Y-59545779D01*
X56785779Y-59580476D01*
X56747850Y-59611604D01*
X56707051Y-59638864D01*
X56663778Y-59661995D01*
X56618445Y-59680772D01*
X56571490Y-59695016D01*
X56523365Y-59704588D01*
X56474534Y-59709398D01*
X56450000Y-59709398D01*
X56450000Y-59710000D01*
X55900000Y-59710000D01*
X55900000Y-58210000D01*
G37*
%TD.AperFunction*%
%TD*%
D13*
%TO.P,J5,2*%
%TO.N,/FAN+*%
X56240000Y-81000000D03*
D14*
%TO.P,J5,1*%
%TO.N,GND*%
X53700000Y-81000000D03*
%TD*%
D17*
%TO.P,SW2,2*%
%TO.N,GND*%
X92800000Y-54450000D03*
X92800000Y-48250000D03*
%TO.P,SW2,1*%
%TO.N,RST*%
X96500000Y-54450000D03*
X96500000Y-48250000D03*
%TD*%
%TO.P,SW1,2*%
%TO.N,GND*%
X92800000Y-63300000D03*
X92800000Y-57100000D03*
%TO.P,SW1,1*%
%TO.N,BTN*%
X96500000Y-63300000D03*
X96500000Y-57100000D03*
%TD*%
D12*
%TO.P,TP2,1*%
%TO.N,/STEPUP_OUT_5V*%
X97150000Y-79000000D03*
%TD*%
%TO.P,TP1,1*%
%TO.N,/STEPUP_IN*%
X108850000Y-77850000D03*
%TD*%
%TO.P,U2,1*%
%TO.N,+3V3*%
%TA.AperFunction,SMDPad,CuDef*%
G36*
G01*
X112760000Y-53000000D02*
X113060000Y-53000000D01*
G75*
G02*
X113210000Y-53150000I0J-150000D01*
G01*
X113210000Y-54800000D01*
G75*
G02*
X113060000Y-54950000I-150000J0D01*
G01*
X112760000Y-54950000D01*
G75*
G02*
X112610000Y-54800000I0J150000D01*
G01*
X112610000Y-53150000D01*
G75*
G02*
X112760000Y-53000000I150000J0D01*
G01*
G37*
%TD.AperFunction*%
%TO.P,U2,2*%
%TO.N,BTN*%
%TA.AperFunction,SMDPad,CuDef*%
G36*
G01*
X111490000Y-53000000D02*
X111790000Y-53000000D01*
G75*
G02*
X111940000Y-53150000I0J-150000D01*
G01*
X111940000Y-54800000D01*
G75*
G02*
X111790000Y-54950000I-150000J0D01*
G01*
X111490000Y-54950000D01*
G75*
G02*
X111340000Y-54800000I0J150000D01*
G01*
X111340000Y-53150000D01*
G75*
G02*
X111490000Y-53000000I150000J0D01*
G01*
G37*
%TD.AperFunction*%
%TO.P,U2,3*%
%TO.N,RPI_IS_ONLINE_IN*%
%TA.AperFunction,SMDPad,CuDef*%
G36*
G01*
X110220000Y-53000000D02*
X110520000Y-53000000D01*
G75*
G02*
X110670000Y-53150000I0J-150000D01*
G01*
X110670000Y-54800000D01*
G75*
G02*
X110520000Y-54950000I-150000J0D01*
G01*
X110220000Y-54950000D01*
G75*
G02*
X110070000Y-54800000I0J150000D01*
G01*
X110070000Y-53150000D01*
G75*
G02*
X110220000Y-53000000I150000J0D01*
G01*
G37*
%TD.AperFunction*%
%TO.P,U2,4*%
%TO.N,RST*%
%TA.AperFunction,SMDPad,CuDef*%
G36*
G01*
X108950000Y-53000000D02*
X109250000Y-53000000D01*
G75*
G02*
X109400000Y-53150000I0J-150000D01*
G01*
X109400000Y-54800000D01*
G75*
G02*
X109250000Y-54950000I-150000J0D01*
G01*
X108950000Y-54950000D01*
G75*
G02*
X108800000Y-54800000I0J150000D01*
G01*
X108800000Y-53150000D01*
G75*
G02*
X108950000Y-53000000I150000J0D01*
G01*
G37*
%TD.AperFunction*%
%TO.P,U2,5*%
%TO.N,ONE_WIRE*%
%TA.AperFunction,SMDPad,CuDef*%
G36*
G01*
X107680000Y-53000000D02*
X107980000Y-53000000D01*
G75*
G02*
X108130000Y-53150000I0J-150000D01*
G01*
X108130000Y-54800000D01*
G75*
G02*
X107980000Y-54950000I-150000J0D01*
G01*
X107680000Y-54950000D01*
G75*
G02*
X107530000Y-54800000I0J150000D01*
G01*
X107530000Y-53150000D01*
G75*
G02*
X107680000Y-53000000I150000J0D01*
G01*
G37*
%TD.AperFunction*%
%TO.P,U2,6*%
%TO.N,FAN_5V_OUT*%
%TA.AperFunction,SMDPad,CuDef*%
G36*
G01*
X106410000Y-53000000D02*
X106710000Y-53000000D01*
G75*
G02*
X106860000Y-53150000I0J-150000D01*
G01*
X106860000Y-54800000D01*
G75*
G02*
X106710000Y-54950000I-150000J0D01*
G01*
X106410000Y-54950000D01*
G75*
G02*
X106260000Y-54800000I0J150000D01*
G01*
X106260000Y-53150000D01*
G75*
G02*
X106410000Y-53000000I150000J0D01*
G01*
G37*
%TD.AperFunction*%
%TO.P,U2,7*%
%TO.N,I2C_SDA*%
%TA.AperFunction,SMDPad,CuDef*%
G36*
G01*
X105140000Y-53000000D02*
X105440000Y-53000000D01*
G75*
G02*
X105590000Y-53150000I0J-150000D01*
G01*
X105590000Y-54800000D01*
G75*
G02*
X105440000Y-54950000I-150000J0D01*
G01*
X105140000Y-54950000D01*
G75*
G02*
X104990000Y-54800000I0J150000D01*
G01*
X104990000Y-53150000D01*
G75*
G02*
X105140000Y-53000000I150000J0D01*
G01*
G37*
%TD.AperFunction*%
%TO.P,U2,8*%
%TO.N,ISP_MISO*%
%TA.AperFunction,SMDPad,CuDef*%
G36*
G01*
X105140000Y-57950000D02*
X105440000Y-57950000D01*
G75*
G02*
X105590000Y-58100000I0J-150000D01*
G01*
X105590000Y-59750000D01*
G75*
G02*
X105440000Y-59900000I-150000J0D01*
G01*
X105140000Y-59900000D01*
G75*
G02*
X104990000Y-59750000I0J150000D01*
G01*
X104990000Y-58100000D01*
G75*
G02*
X105140000Y-57950000I150000J0D01*
G01*
G37*
%TD.AperFunction*%
%TO.P,U2,9*%
%TO.N,I2C_SCL*%
%TA.AperFunction,SMDPad,CuDef*%
G36*
G01*
X106410000Y-57950000D02*
X106710000Y-57950000D01*
G75*
G02*
X106860000Y-58100000I0J-150000D01*
G01*
X106860000Y-59750000D01*
G75*
G02*
X106710000Y-59900000I-150000J0D01*
G01*
X106410000Y-59900000D01*
G75*
G02*
X106260000Y-59750000I0J150000D01*
G01*
X106260000Y-58100000D01*
G75*
G02*
X106410000Y-57950000I150000J0D01*
G01*
G37*
%TD.AperFunction*%
%TO.P,U2,10*%
%TO.N,RPI_POWER_ON_OUT*%
%TA.AperFunction,SMDPad,CuDef*%
G36*
G01*
X107680000Y-57950000D02*
X107980000Y-57950000D01*
G75*
G02*
X108130000Y-58100000I0J-150000D01*
G01*
X108130000Y-59750000D01*
G75*
G02*
X107980000Y-59900000I-150000J0D01*
G01*
X107680000Y-59900000D01*
G75*
G02*
X107530000Y-59750000I0J150000D01*
G01*
X107530000Y-58100000D01*
G75*
G02*
X107680000Y-57950000I150000J0D01*
G01*
G37*
%TD.AperFunction*%
%TO.P,U2,11*%
%TO.N,STEPUP_VOLTAGE_IN*%
%TA.AperFunction,SMDPad,CuDef*%
G36*
G01*
X108950000Y-57950000D02*
X109250000Y-57950000D01*
G75*
G02*
X109400000Y-58100000I0J-150000D01*
G01*
X109400000Y-59750000D01*
G75*
G02*
X109250000Y-59900000I-150000J0D01*
G01*
X108950000Y-59900000D01*
G75*
G02*
X108800000Y-59750000I0J150000D01*
G01*
X108800000Y-58100000D01*
G75*
G02*
X108950000Y-57950000I150000J0D01*
G01*
G37*
%TD.AperFunction*%
%TO.P,U2,12*%
%TO.N,TX*%
%TA.AperFunction,SMDPad,CuDef*%
G36*
G01*
X110220000Y-57950000D02*
X110520000Y-57950000D01*
G75*
G02*
X110670000Y-58100000I0J-150000D01*
G01*
X110670000Y-59750000D01*
G75*
G02*
X110520000Y-59900000I-150000J0D01*
G01*
X110220000Y-59900000D01*
G75*
G02*
X110070000Y-59750000I0J150000D01*
G01*
X110070000Y-58100000D01*
G75*
G02*
X110220000Y-57950000I150000J0D01*
G01*
G37*
%TD.AperFunction*%
%TO.P,U2,13*%
%TO.N,N/C*%
%TA.AperFunction,SMDPad,CuDef*%
G36*
G01*
X111490000Y-57950000D02*
X111790000Y-57950000D01*
G75*
G02*
X111940000Y-58100000I0J-150000D01*
G01*
X111940000Y-59750000D01*
G75*
G02*
X111790000Y-59900000I-150000J0D01*
G01*
X111490000Y-59900000D01*
G75*
G02*
X111340000Y-59750000I0J150000D01*
G01*
X111340000Y-58100000D01*
G75*
G02*
X111490000Y-57950000I150000J0D01*
G01*
G37*
%TD.AperFunction*%
%TO.P,U2,14*%
%TO.N,GND*%
%TA.AperFunction,SMDPad,CuDef*%
G36*
G01*
X112760000Y-57950000D02*
X113060000Y-57950000D01*
G75*
G02*
X113210000Y-58100000I0J-150000D01*
G01*
X113210000Y-59750000D01*
G75*
G02*
X113060000Y-59900000I-150000J0D01*
G01*
X112760000Y-59900000D01*
G75*
G02*
X112610000Y-59750000I0J150000D01*
G01*
X112610000Y-58100000D01*
G75*
G02*
X112760000Y-57950000I150000J0D01*
G01*
G37*
%TD.AperFunction*%
%TD*%
D18*
%TO.P,U3,1*%
%TO.N,GND*%
X93400000Y-74650000D03*
D19*
%TO.P,U3,3*%
%TO.N,+3V3*%
X93400000Y-72110000D03*
%TO.P,U3,2*%
%TO.N,ONE_WIRE*%
X93400000Y-73380000D03*
%TD*%
%TO.P,D4,2*%
%TO.N,/5V_IN*%
%TA.AperFunction,SMDPad,CuDef*%
G36*
G01*
X87987500Y-85043750D02*
X87987500Y-85956250D01*
G75*
G02*
X87743750Y-86200000I-243750J0D01*
G01*
X87256250Y-86200000D01*
G75*
G02*
X87012500Y-85956250I0J243750D01*
G01*
X87012500Y-85043750D01*
G75*
G02*
X87256250Y-84800000I243750J0D01*
G01*
X87743750Y-84800000D01*
G75*
G02*
X87987500Y-85043750I0J-243750D01*
G01*
G37*
%TD.AperFunction*%
%TO.P,D4,1*%
%TO.N,Net-(D4-Pad1)*%
%TA.AperFunction,SMDPad,CuDef*%
G36*
G01*
X89862500Y-85043750D02*
X89862500Y-85956250D01*
G75*
G02*
X89618750Y-86200000I-243750J0D01*
G01*
X89131250Y-86200000D01*
G75*
G02*
X88887500Y-85956250I0J243750D01*
G01*
X88887500Y-85043750D01*
G75*
G02*
X89131250Y-84800000I243750J0D01*
G01*
X89618750Y-84800000D01*
G75*
G02*
X89862500Y-85043750I0J-243750D01*
G01*
G37*
%TD.AperFunction*%
%TD*%
D20*
%TO.P,J6,B12*%
%TO.N,GND*%
X63275000Y-87350000D03*
%TO.P,J6,A12*%
X68775000Y-87350000D03*
D21*
%TO.P,J6,B9*%
%TO.N,/VUSB*%
X64505000Y-87350000D03*
%TO.P,J6,A9*%
X67545000Y-87350000D03*
D22*
%TO.P,J6,A5*%
%TO.N,Net-(J6-PadA5)*%
X65525000Y-87350000D03*
%TO.P,J6,B5*%
%TO.N,Net-(J6-PadB5)*%
X66525000Y-87350000D03*
D23*
%TO.P,J6,S1*%
%TO.N,N/C*%
X61705000Y-87900000D03*
%TO.P,J6,S2*%
X70345000Y-87900000D03*
%TO.P,J6,S3*%
X61705000Y-91700000D03*
%TO.P,J6,S4*%
X70345000Y-91700000D03*
%TD*%
D24*
%TO.N,GND*%
X97350000Y-84050000D03*
X98550000Y-84050000D03*
D25*
X59900000Y-87900000D03*
X55000000Y-78800000D03*
X54350000Y-62200000D03*
D24*
X52650000Y-44650000D03*
X54050000Y-44650000D03*
X54050000Y-46050000D03*
X52650000Y-46050000D03*
X57250000Y-92900000D03*
X58550000Y-92900000D03*
X58550000Y-91600000D03*
X57250000Y-91600000D03*
X114800000Y-87550000D03*
X113450000Y-87500000D03*
X113500000Y-86100000D03*
X114800000Y-86150000D03*
D25*
X103250000Y-86550000D03*
X61250000Y-44750000D03*
X65250000Y-47750000D03*
X57750000Y-52000000D03*
X55000000Y-56750000D03*
D24*
X98500000Y-88450000D03*
X98500000Y-87200000D03*
D25*
X106500000Y-88450000D03*
X106500000Y-87450000D03*
X106500000Y-86450000D03*
X106150000Y-84450000D03*
X103500000Y-84450000D03*
X105500000Y-88450000D03*
X115400000Y-65800000D03*
X104100000Y-60150000D03*
X115450000Y-60600000D03*
X100950000Y-68200000D03*
X94850000Y-70550000D03*
X98900000Y-70700000D03*
X106250000Y-71300000D03*
X95750000Y-79850000D03*
X108050000Y-85600000D03*
X113550000Y-74150000D03*
X98100000Y-81900000D03*
X94700000Y-87500000D03*
X93750000Y-93550000D03*
X89900000Y-90600000D03*
X91850000Y-90600000D03*
X91700000Y-84350000D03*
X79250000Y-91850000D03*
X76250000Y-93550000D03*
X75500000Y-92200000D03*
X94300000Y-57250000D03*
X94700000Y-48650000D03*
X93700000Y-67400000D03*
D24*
X96350000Y-67950000D03*
X93900000Y-61550000D03*
D25*
X115000000Y-78400000D03*
X113450000Y-71450000D03*
X110000000Y-71300000D03*
X109150000Y-91050000D03*
X107400000Y-79350000D03*
X77450000Y-46950000D03*
X113650000Y-51650000D03*
X103000000Y-52350000D03*
X111400000Y-56550000D03*
X108700000Y-56300000D03*
X66100000Y-89350000D03*
%TO.N,RST*%
X96500000Y-51800000D03*
X97850000Y-54400000D03*
X109100000Y-55300000D03*
%TO.N,I2C_SDA*%
X104700000Y-48700000D03*
%TO.N,I2C_SCL*%
X106550000Y-60875000D03*
%TO.N,ISP_MISO*%
X104300000Y-51500000D03*
%TO.N,TX*%
X115650000Y-59100000D03*
X110370000Y-61630000D03*
X113800000Y-39250000D03*
X102900000Y-61650000D03*
%TO.N,RPI_POWER_ON_OUT*%
X101900000Y-48300000D03*
X106100000Y-56200000D03*
X103000000Y-56200000D03*
%TO.N,ONE_WIRE*%
X91950000Y-70500000D03*
X94900000Y-58750000D03*
X108450000Y-57400000D03*
%TO.N,+3V3*%
X101300000Y-70250000D03*
X91750000Y-83050000D03*
X58700000Y-83050000D03*
X93400000Y-70300000D03*
X99700000Y-53050000D03*
X114500000Y-63550000D03*
%TO.N,FAN_5V_OUT*%
X53750000Y-56750000D03*
X105850000Y-47900000D03*
X100250000Y-46500000D03*
D24*
%TO.N,/STEPUP_IN*%
X97250000Y-89200000D03*
X82850000Y-90550000D03*
%TO.N,/STEPUP_OUT_5V*%
X56500000Y-49000000D03*
X80250000Y-49000000D03*
X97100000Y-69450000D03*
D25*
X62315000Y-47935000D03*
D24*
%TO.N,/5V_IN*%
X83500000Y-87750000D03*
X77200000Y-87750000D03*
%TO.N,/V_BAT+*%
X91000000Y-92000000D03*
X111650000Y-71300000D03*
D25*
%TO.N,Net-(D4-Pad1)*%
X90050000Y-86400000D03*
%TO.N,RPI_IS_ONLINE_IN*%
X110370000Y-52975000D03*
X107400000Y-51950000D03*
X105750000Y-46250000D03*
%TO.N,Net-(J6-PadB5)*%
X67550000Y-89600000D03*
%TO.N,Net-(J6-PadA5)*%
X64550000Y-89600000D03*
%TO.N,STEPUP_VOLTAGE_IN*%
X105500000Y-73050000D03*
%TO.N,BTN*%
X96500000Y-60100000D03*
X112700000Y-56250000D03*
D24*
%TO.N,/FAN_SUPPLY*%
X55500000Y-69000000D03*
%TD*%
D26*
%TO.N,GND*%
X93150000Y-56400000D02*
X93150000Y-56690000D01*
X93890001Y-42069999D02*
X95230000Y-40730000D01*
X91350001Y-42069999D02*
X93890001Y-42069999D01*
X90150000Y-43270000D02*
X91350001Y-42069999D01*
X73570001Y-42069999D02*
X74910000Y-40730000D01*
X71030001Y-42069999D02*
X73570001Y-42069999D01*
X81329999Y-41930001D02*
X82530000Y-40730000D01*
X76110001Y-41930001D02*
X81329999Y-41930001D01*
X74910000Y-40730000D02*
X76110001Y-41930001D01*
X82530000Y-40730000D02*
X83730001Y-41930001D01*
X108980001Y-41930001D02*
X109150000Y-42100000D01*
X88919999Y-42039999D02*
X88919999Y-41930001D01*
X90150000Y-43270000D02*
X88919999Y-42039999D01*
X83730001Y-41930001D02*
X88919999Y-41930001D01*
X96180001Y-41680001D02*
X96180001Y-41930001D01*
X95230000Y-40730000D02*
X96180001Y-41680001D01*
X88919999Y-41930001D02*
X96180001Y-41930001D01*
X99109999Y-41930001D02*
X98869999Y-41930001D01*
X100310000Y-40730000D02*
X99109999Y-41930001D01*
X96180001Y-41930001D02*
X98869999Y-41930001D01*
X101480001Y-41900001D02*
X101480001Y-41930001D01*
X100310000Y-40730000D02*
X101480001Y-41900001D01*
X101480001Y-41930001D02*
X108980001Y-41930001D01*
X98869999Y-41930001D02*
X101480001Y-41930001D01*
X66089999Y-42069999D02*
X66630001Y-42069999D01*
X64750000Y-40730000D02*
X66089999Y-42069999D01*
X68629999Y-42069999D02*
X69830000Y-43270000D01*
X63430001Y-42049999D02*
X63430001Y-42069999D01*
X64750000Y-40730000D02*
X63430001Y-42049999D01*
X63430001Y-42069999D02*
X57630001Y-42069999D01*
X66630001Y-42069999D02*
X63430001Y-42069999D01*
X70819999Y-42069999D02*
X70925000Y-42175000D01*
X68380001Y-42069999D02*
X70819999Y-42069999D01*
X69830000Y-43270000D02*
X70925000Y-42175000D01*
X70925000Y-42175000D02*
X71030001Y-42069999D01*
X66630001Y-42069999D02*
X68380001Y-42069999D01*
X68380001Y-42069999D02*
X68629999Y-42069999D01*
X73570001Y-42069999D02*
X75780001Y-42069999D01*
X75780001Y-42069999D02*
X75800000Y-42050000D01*
X75800000Y-42050000D02*
X76000000Y-42050000D01*
D27*
%TO.N,RST*%
X96500000Y-54450000D02*
X96500000Y-51800000D01*
X96500000Y-48250000D02*
X96500000Y-51800000D01*
X96550000Y-54400000D02*
X96500000Y-54450000D01*
X97850000Y-54400000D02*
X96550000Y-54400000D01*
X109100000Y-53975000D02*
X109100000Y-55300000D01*
%TO.N,I2C_SDA*%
X62210000Y-43270000D02*
X64240000Y-45300000D01*
X108230000Y-45300000D02*
X105500000Y-45300000D01*
X110390000Y-47460000D02*
X108230000Y-45300000D01*
X64240000Y-45300000D02*
X106200000Y-45300000D01*
X105290000Y-53975000D02*
X105290000Y-50140000D01*
X104700000Y-49550000D02*
X104700000Y-48700000D01*
X105290000Y-50140000D02*
X104700000Y-49550000D01*
X105500000Y-45300000D02*
X105680000Y-45300000D01*
%TO.N,I2C_SCL*%
X106560000Y-60865000D02*
X106550000Y-60875000D01*
X106560000Y-58925000D02*
X106560000Y-60865000D01*
X111565001Y-48824999D02*
X110390000Y-50000000D01*
X111565001Y-45965001D02*
X111565001Y-48824999D01*
X110449990Y-44849990D02*
X111565001Y-45965001D01*
X64750000Y-43270000D02*
X66329990Y-44849990D01*
X66329990Y-44849990D02*
X107050010Y-44849990D01*
X106350010Y-44849990D02*
X110449990Y-44849990D01*
%TO.N,ISP_MISO*%
X105290000Y-58925000D02*
X105290000Y-55810000D01*
X104300000Y-54820000D02*
X104300000Y-51500000D01*
X105290000Y-55810000D02*
X104300000Y-54820000D01*
%TO.N,TX*%
X69830000Y-40730000D02*
X69830000Y-41330000D01*
X110370000Y-58925000D02*
X110370000Y-60530000D01*
X110370000Y-58925000D02*
X110370000Y-61630000D01*
X114050000Y-39250000D02*
X113800000Y-39250000D01*
X115650000Y-40850000D02*
X114050000Y-39250000D01*
X115650000Y-59100000D02*
X115650000Y-40850000D01*
X102900000Y-66500000D02*
X102850000Y-66550000D01*
X102900000Y-61650000D02*
X102900000Y-66500000D01*
%TO.N,RPI_POWER_ON_OUT*%
X101900000Y-52250000D02*
X101900000Y-48300000D01*
X101900000Y-52250000D02*
X101900000Y-51650000D01*
X107830000Y-58080000D02*
X107830000Y-58925000D01*
X106802276Y-57052276D02*
X107830000Y-58080000D01*
X106100000Y-56200000D02*
X106802276Y-57052276D01*
X101900000Y-55100000D02*
X101900000Y-54900000D01*
X103000000Y-56200000D02*
X101900000Y-55100000D01*
X101900000Y-54900000D02*
X101900000Y-52250000D01*
%TO.N,ONE_WIRE*%
X91950000Y-70500000D02*
X91950000Y-67500000D01*
X94900000Y-64063590D02*
X94900000Y-58750000D01*
X91950000Y-67013590D02*
X94900000Y-64063590D01*
X91950000Y-67500000D02*
X91950000Y-67013590D01*
X107830000Y-56780000D02*
X108450000Y-57400000D01*
X107830000Y-53975000D02*
X107830000Y-56780000D01*
%TO.N,+3V3*%
X92540000Y-72110000D02*
X93400000Y-72110000D01*
X91750000Y-72900000D02*
X92540000Y-72110000D01*
X91750000Y-82500000D02*
X91750000Y-83050000D01*
X53850000Y-61150000D02*
X53850000Y-58960000D01*
X53400000Y-61600000D02*
X53850000Y-61150000D01*
X53400000Y-75200000D02*
X53400000Y-61600000D01*
X57850000Y-79650000D02*
X53400000Y-75200000D01*
X57850000Y-82200000D02*
X57850000Y-79650000D01*
X58700000Y-83050000D02*
X57850000Y-82200000D01*
X109214999Y-50664999D02*
X109214999Y-48824999D01*
X109214999Y-48824999D02*
X107850000Y-47460000D01*
X110100000Y-51550000D02*
X109214999Y-50664999D01*
X112000000Y-51550000D02*
X110100000Y-51550000D01*
X112910000Y-52460000D02*
X112000000Y-51550000D01*
X112910000Y-53975000D02*
X112910000Y-52460000D01*
X101300000Y-70250000D02*
X99050000Y-68000000D01*
X99050000Y-63550000D02*
X98950000Y-63450000D01*
X99050000Y-68000000D02*
X99050000Y-63550000D01*
X93400000Y-72110000D02*
X93400000Y-70300000D01*
X91750000Y-82500000D02*
X91750000Y-72900000D01*
X99700000Y-62700000D02*
X98950000Y-63450000D01*
X99700000Y-53050000D02*
X99700000Y-62700000D01*
X112910000Y-54060000D02*
X112910000Y-53975000D01*
X113450000Y-56700000D02*
X113450000Y-54600000D01*
X113450000Y-54600000D02*
X112910000Y-54060000D01*
X114500000Y-57750000D02*
X113450000Y-56700000D01*
X114500000Y-63550000D02*
X114500000Y-57750000D01*
%TO.N,FAN_5V_OUT*%
X105860000Y-47910000D02*
X105850000Y-47900000D01*
X106560000Y-53975000D02*
X106560000Y-52710000D01*
X105850000Y-52000000D02*
X105850000Y-47900000D01*
X106560000Y-52710000D02*
X105850000Y-52000000D01*
X99700000Y-45950000D02*
X100250000Y-46500000D01*
X55800000Y-45950000D02*
X99700000Y-45950000D01*
X53750000Y-48000000D02*
X55800000Y-45950000D01*
X53750000Y-56750000D02*
X53750000Y-48000000D01*
D28*
%TO.N,/STEPUP_IN*%
X88550000Y-89200000D02*
X97250000Y-89200000D01*
X87100000Y-90650000D02*
X88550000Y-89200000D01*
X82850000Y-90550000D02*
X87100000Y-90650000D01*
D29*
%TO.N,/STEPUP_OUT_5V*%
X56500000Y-49000000D02*
X56500000Y-58910000D01*
D28*
X97150000Y-79000000D02*
X97100000Y-69450000D01*
X79292894Y-49000000D02*
X80250000Y-49000000D01*
X63380000Y-49000000D02*
X62315000Y-47935000D01*
X64200000Y-49000000D02*
X63380000Y-49000000D01*
X79292894Y-49000000D02*
X64200000Y-49000000D01*
X62315000Y-47935000D02*
X61250000Y-49000000D01*
X61000000Y-49000000D02*
X56500000Y-49000000D01*
X61250000Y-49000000D02*
X61000000Y-49000000D01*
%TO.N,/5V_IN*%
X85750000Y-85500000D02*
X83500000Y-87750000D01*
X87500000Y-85500000D02*
X85750000Y-85500000D01*
X83500000Y-87750000D02*
X78600000Y-87750000D01*
X77500000Y-87750000D02*
X78600000Y-87750000D01*
X75812500Y-89137500D02*
X77200000Y-87750000D01*
X74100000Y-89137500D02*
X75812500Y-89137500D01*
X77200000Y-87750000D02*
X83500000Y-87750000D01*
%TO.N,/V_BAT+*%
X112498220Y-70451780D02*
X111650000Y-71300000D01*
X112498220Y-66601760D02*
X112498220Y-70451780D01*
X105500000Y-92000000D02*
X91000000Y-92000000D01*
X111650000Y-85850000D02*
X105500000Y-92000000D01*
X111650000Y-71300000D02*
X111650000Y-85850000D01*
D27*
%TO.N,Net-(D4-Pad1)*%
X90050000Y-86175000D02*
X89375000Y-85500000D01*
X90050000Y-86400000D02*
X90050000Y-86175000D01*
%TO.N,RPI_IS_ONLINE_IN*%
X110370000Y-53975000D02*
X110370000Y-52770000D01*
X110370000Y-53975000D02*
X110370000Y-52975000D01*
X107400000Y-51950000D02*
X106650000Y-51200000D01*
X106650000Y-51200000D02*
X106650000Y-48150000D01*
X106650000Y-47150000D02*
X105750000Y-46250000D01*
X106650000Y-48150000D02*
X106650000Y-47150000D01*
D28*
%TO.N,/RPI_5V*%
X62210000Y-40730000D02*
X59670000Y-40730000D01*
D27*
%TO.N,Net-(J6-PadB5)*%
X66525000Y-88575000D02*
X67550000Y-89600000D01*
X66525000Y-87350000D02*
X66525000Y-88575000D01*
%TO.N,Net-(J6-PadA5)*%
X65525000Y-88625000D02*
X64550000Y-89600000D01*
X65525000Y-87350000D02*
X65525000Y-88625000D01*
%TO.N,STEPUP_VOLTAGE_IN*%
X109100000Y-58925000D02*
X109100000Y-60300000D01*
X109100000Y-58925000D02*
X109100000Y-62600000D01*
X105500000Y-66200000D02*
X105500000Y-67200000D01*
X109100000Y-62600000D02*
X105500000Y-66200000D01*
X105500000Y-73050000D02*
X105500000Y-67200000D01*
D30*
%TO.N,/VUSB*%
X67550000Y-87150000D02*
X67550000Y-85800000D01*
X64500000Y-87150000D02*
X64500000Y-85455000D01*
D28*
X71262500Y-84862500D02*
X70805000Y-84405000D01*
X74100000Y-84862500D02*
X71262500Y-84862500D01*
X66705000Y-84405000D02*
X70805000Y-84405000D01*
X66705000Y-84405000D02*
X67495000Y-85195000D01*
X67495000Y-85745000D02*
X67550000Y-85800000D01*
X67495000Y-85195000D02*
X67495000Y-85745000D01*
X64500000Y-85155000D02*
X64500000Y-85455000D01*
X65250000Y-84405000D02*
X64500000Y-85155000D01*
X66705000Y-84405000D02*
X65250000Y-84405000D01*
D27*
%TO.N,BTN*%
X96300000Y-63300000D02*
X95230000Y-64370000D01*
X95230000Y-66550000D02*
X95230000Y-64370000D01*
X96500000Y-63300000D02*
X96500000Y-57100000D01*
X111640000Y-53975000D02*
X111640000Y-54390000D01*
X112700000Y-55450000D02*
X112700000Y-56250000D01*
X111640000Y-54390000D02*
X112700000Y-55450000D01*
%TO.N,/FAN_SUPPLY*%
X55150000Y-61150000D02*
X55150000Y-58960000D01*
X55500000Y-61500000D02*
X55150000Y-61150000D01*
X55500000Y-69000000D02*
X55500000Y-61500000D01*
%TD*%
D31*
%TO.N,GND*%
X112765000Y-39351939D02*
X112804774Y-39551898D01*
X112882795Y-39740256D01*
X112996063Y-39909774D01*
X113095736Y-40009447D01*
X112997968Y-39990000D01*
X112602032Y-39990000D01*
X112213704Y-40067243D01*
X111847908Y-40218761D01*
X111518699Y-40438731D01*
X111238731Y-40718699D01*
X111018761Y-41047908D01*
X110867243Y-41413704D01*
X110790000Y-41802032D01*
X110790000Y-42197968D01*
X110867243Y-42586296D01*
X111018761Y-42952092D01*
X111238731Y-43281301D01*
X111518699Y-43561269D01*
X111847908Y-43781239D01*
X112213704Y-43932757D01*
X112602032Y-44010000D01*
X112997968Y-44010000D01*
X113386296Y-43932757D01*
X113752092Y-43781239D01*
X114081301Y-43561269D01*
X114361269Y-43281301D01*
X114581239Y-42952092D01*
X114732757Y-42586296D01*
X114810000Y-42197968D01*
X114810000Y-41802032D01*
X114732757Y-41413704D01*
X114581239Y-41047908D01*
X114361269Y-40718699D01*
X114081301Y-40438731D01*
X113851226Y-40285000D01*
X113901939Y-40285000D01*
X113992237Y-40267039D01*
X114890001Y-41164803D01*
X114890000Y-57065198D01*
X114210000Y-56385199D01*
X114210000Y-54637322D01*
X114213676Y-54599999D01*
X114210000Y-54562676D01*
X114210000Y-54562667D01*
X114199003Y-54451014D01*
X114155546Y-54307753D01*
X114084974Y-54175724D01*
X113990001Y-54059999D01*
X113961002Y-54036200D01*
X113848072Y-53923270D01*
X113848072Y-53150000D01*
X113832929Y-52996255D01*
X113788084Y-52848418D01*
X113715258Y-52712171D01*
X113670000Y-52657024D01*
X113670000Y-52497322D01*
X113673676Y-52459999D01*
X113670000Y-52422676D01*
X113670000Y-52422667D01*
X113659003Y-52311014D01*
X113615546Y-52167753D01*
X113544974Y-52035724D01*
X113450001Y-51919999D01*
X113421003Y-51896201D01*
X113009802Y-51485000D01*
X113076260Y-51485000D01*
X113363158Y-51427932D01*
X113633411Y-51315990D01*
X113876632Y-51153475D01*
X114083475Y-50946632D01*
X114245990Y-50703411D01*
X114357932Y-50433158D01*
X114415000Y-50146260D01*
X114415000Y-49853740D01*
X114357932Y-49566842D01*
X114245990Y-49296589D01*
X114083475Y-49053368D01*
X113876632Y-48846525D01*
X113700594Y-48728900D01*
X113930269Y-48557588D01*
X114125178Y-48341355D01*
X114274157Y-48091252D01*
X114371481Y-47816891D01*
X114250814Y-47587000D01*
X113057000Y-47587000D01*
X113057000Y-47607000D01*
X112803000Y-47607000D01*
X112803000Y-47587000D01*
X112783000Y-47587000D01*
X112783000Y-47333000D01*
X112803000Y-47333000D01*
X112803000Y-46139845D01*
X113057000Y-46139845D01*
X113057000Y-47333000D01*
X114250814Y-47333000D01*
X114371481Y-47103109D01*
X114274157Y-46828748D01*
X114125178Y-46578645D01*
X113930269Y-46362412D01*
X113696920Y-46188359D01*
X113434099Y-46063175D01*
X113286890Y-46018524D01*
X113057000Y-46139845D01*
X112803000Y-46139845D01*
X112573110Y-46018524D01*
X112425901Y-46063175D01*
X112325001Y-46111235D01*
X112325001Y-46002326D01*
X112328677Y-45965001D01*
X112325001Y-45927676D01*
X112325001Y-45927668D01*
X112314004Y-45816015D01*
X112270547Y-45672754D01*
X112199975Y-45540725D01*
X112105002Y-45425000D01*
X112076005Y-45401203D01*
X111013794Y-44338992D01*
X110989991Y-44309989D01*
X110874266Y-44215016D01*
X110742237Y-44144444D01*
X110598976Y-44100987D01*
X110487323Y-44089990D01*
X110487312Y-44089990D01*
X110449990Y-44086314D01*
X110412668Y-44089990D01*
X109161731Y-44089990D01*
X109274157Y-43901252D01*
X109371481Y-43626891D01*
X109250814Y-43397000D01*
X108057000Y-43397000D01*
X108057000Y-43417000D01*
X107803000Y-43417000D01*
X107803000Y-43397000D01*
X107783000Y-43397000D01*
X107783000Y-43143000D01*
X107803000Y-43143000D01*
X107803000Y-43123000D01*
X108057000Y-43123000D01*
X108057000Y-43143000D01*
X109250814Y-43143000D01*
X109371481Y-42913109D01*
X109274157Y-42638748D01*
X109125178Y-42388645D01*
X108930269Y-42172412D01*
X108700594Y-42001100D01*
X108876632Y-41883475D01*
X109083475Y-41676632D01*
X109245990Y-41433411D01*
X109357932Y-41163158D01*
X109415000Y-40876260D01*
X109415000Y-40583740D01*
X109357932Y-40296842D01*
X109245990Y-40026589D01*
X109083475Y-39783368D01*
X108876632Y-39576525D01*
X108633411Y-39414010D01*
X108363158Y-39302068D01*
X108076260Y-39245000D01*
X107783740Y-39245000D01*
X107496842Y-39302068D01*
X107226589Y-39414010D01*
X106983368Y-39576525D01*
X106776525Y-39783368D01*
X106660000Y-39957760D01*
X106543475Y-39783368D01*
X106336632Y-39576525D01*
X106093411Y-39414010D01*
X105823158Y-39302068D01*
X105536260Y-39245000D01*
X105243740Y-39245000D01*
X104956842Y-39302068D01*
X104686589Y-39414010D01*
X104443368Y-39576525D01*
X104236525Y-39783368D01*
X104120000Y-39957760D01*
X104003475Y-39783368D01*
X103796632Y-39576525D01*
X103553411Y-39414010D01*
X103283158Y-39302068D01*
X102996260Y-39245000D01*
X102703740Y-39245000D01*
X102416842Y-39302068D01*
X102146589Y-39414010D01*
X101903368Y-39576525D01*
X101696525Y-39783368D01*
X101574805Y-39965534D01*
X101505178Y-39848645D01*
X101310269Y-39632412D01*
X101076920Y-39458359D01*
X100814099Y-39333175D01*
X100666890Y-39288524D01*
X100437000Y-39409845D01*
X100437000Y-40603000D01*
X100457000Y-40603000D01*
X100457000Y-40857000D01*
X100437000Y-40857000D01*
X100437000Y-40877000D01*
X100183000Y-40877000D01*
X100183000Y-40857000D01*
X100163000Y-40857000D01*
X100163000Y-40603000D01*
X100183000Y-40603000D01*
X100183000Y-39409845D01*
X99953110Y-39288524D01*
X99805901Y-39333175D01*
X99543080Y-39458359D01*
X99309731Y-39632412D01*
X99114822Y-39848645D01*
X99045195Y-39965534D01*
X98923475Y-39783368D01*
X98716632Y-39576525D01*
X98473411Y-39414010D01*
X98203158Y-39302068D01*
X97916260Y-39245000D01*
X97623740Y-39245000D01*
X97336842Y-39302068D01*
X97066589Y-39414010D01*
X96823368Y-39576525D01*
X96616525Y-39783368D01*
X96494805Y-39965534D01*
X96425178Y-39848645D01*
X96230269Y-39632412D01*
X95996920Y-39458359D01*
X95734099Y-39333175D01*
X95586890Y-39288524D01*
X95357000Y-39409845D01*
X95357000Y-40603000D01*
X95377000Y-40603000D01*
X95377000Y-40857000D01*
X95357000Y-40857000D01*
X95357000Y-40877000D01*
X95103000Y-40877000D01*
X95103000Y-40857000D01*
X95083000Y-40857000D01*
X95083000Y-40603000D01*
X95103000Y-40603000D01*
X95103000Y-39409845D01*
X94873110Y-39288524D01*
X94725901Y-39333175D01*
X94463080Y-39458359D01*
X94229731Y-39632412D01*
X94034822Y-39848645D01*
X93965195Y-39965534D01*
X93843475Y-39783368D01*
X93636632Y-39576525D01*
X93393411Y-39414010D01*
X93123158Y-39302068D01*
X92836260Y-39245000D01*
X92543740Y-39245000D01*
X92256842Y-39302068D01*
X91986589Y-39414010D01*
X91743368Y-39576525D01*
X91536525Y-39783368D01*
X91420000Y-39957760D01*
X91303475Y-39783368D01*
X91096632Y-39576525D01*
X90853411Y-39414010D01*
X90583158Y-39302068D01*
X90296260Y-39245000D01*
X90003740Y-39245000D01*
X89716842Y-39302068D01*
X89446589Y-39414010D01*
X89203368Y-39576525D01*
X88996525Y-39783368D01*
X88880000Y-39957760D01*
X88763475Y-39783368D01*
X88556632Y-39576525D01*
X88313411Y-39414010D01*
X88043158Y-39302068D01*
X87756260Y-39245000D01*
X87463740Y-39245000D01*
X87176842Y-39302068D01*
X86906589Y-39414010D01*
X86663368Y-39576525D01*
X86456525Y-39783368D01*
X86340000Y-39957760D01*
X86223475Y-39783368D01*
X86016632Y-39576525D01*
X85773411Y-39414010D01*
X85503158Y-39302068D01*
X85216260Y-39245000D01*
X84923740Y-39245000D01*
X84636842Y-39302068D01*
X84366589Y-39414010D01*
X84123368Y-39576525D01*
X83916525Y-39783368D01*
X83794805Y-39965534D01*
X83725178Y-39848645D01*
X83530269Y-39632412D01*
X83296920Y-39458359D01*
X83034099Y-39333175D01*
X82886890Y-39288524D01*
X82657000Y-39409845D01*
X82657000Y-40603000D01*
X82677000Y-40603000D01*
X82677000Y-40857000D01*
X82657000Y-40857000D01*
X82657000Y-40877000D01*
X82403000Y-40877000D01*
X82403000Y-40857000D01*
X82383000Y-40857000D01*
X82383000Y-40603000D01*
X82403000Y-40603000D01*
X82403000Y-39409845D01*
X82173110Y-39288524D01*
X82025901Y-39333175D01*
X81763080Y-39458359D01*
X81529731Y-39632412D01*
X81334822Y-39848645D01*
X81265195Y-39965534D01*
X81143475Y-39783368D01*
X80936632Y-39576525D01*
X80693411Y-39414010D01*
X80423158Y-39302068D01*
X80136260Y-39245000D01*
X79843740Y-39245000D01*
X79556842Y-39302068D01*
X79286589Y-39414010D01*
X79043368Y-39576525D01*
X78836525Y-39783368D01*
X78720000Y-39957760D01*
X78603475Y-39783368D01*
X78396632Y-39576525D01*
X78153411Y-39414010D01*
X77883158Y-39302068D01*
X77596260Y-39245000D01*
X77303740Y-39245000D01*
X77016842Y-39302068D01*
X76746589Y-39414010D01*
X76503368Y-39576525D01*
X76296525Y-39783368D01*
X76174805Y-39965534D01*
X76105178Y-39848645D01*
X75910269Y-39632412D01*
X75676920Y-39458359D01*
X75414099Y-39333175D01*
X75266890Y-39288524D01*
X75037000Y-39409845D01*
X75037000Y-40603000D01*
X75057000Y-40603000D01*
X75057000Y-40857000D01*
X75037000Y-40857000D01*
X75037000Y-40877000D01*
X74783000Y-40877000D01*
X74783000Y-40857000D01*
X74763000Y-40857000D01*
X74763000Y-40603000D01*
X74783000Y-40603000D01*
X74783000Y-39409845D01*
X74553110Y-39288524D01*
X74405901Y-39333175D01*
X74143080Y-39458359D01*
X73909731Y-39632412D01*
X73714822Y-39848645D01*
X73645195Y-39965534D01*
X73523475Y-39783368D01*
X73316632Y-39576525D01*
X73073411Y-39414010D01*
X72803158Y-39302068D01*
X72516260Y-39245000D01*
X72223740Y-39245000D01*
X71936842Y-39302068D01*
X71666589Y-39414010D01*
X71423368Y-39576525D01*
X71216525Y-39783368D01*
X71100000Y-39957760D01*
X70983475Y-39783368D01*
X70776632Y-39576525D01*
X70533411Y-39414010D01*
X70263158Y-39302068D01*
X69976260Y-39245000D01*
X69683740Y-39245000D01*
X69396842Y-39302068D01*
X69126589Y-39414010D01*
X68883368Y-39576525D01*
X68676525Y-39783368D01*
X68560000Y-39957760D01*
X68443475Y-39783368D01*
X68236632Y-39576525D01*
X67993411Y-39414010D01*
X67723158Y-39302068D01*
X67436260Y-39245000D01*
X67143740Y-39245000D01*
X66856842Y-39302068D01*
X66586589Y-39414010D01*
X66343368Y-39576525D01*
X66136525Y-39783368D01*
X66014805Y-39965534D01*
X65945178Y-39848645D01*
X65750269Y-39632412D01*
X65516920Y-39458359D01*
X65254099Y-39333175D01*
X65106890Y-39288524D01*
X64877000Y-39409845D01*
X64877000Y-40603000D01*
X64897000Y-40603000D01*
X64897000Y-40857000D01*
X64877000Y-40857000D01*
X64877000Y-40877000D01*
X64623000Y-40877000D01*
X64623000Y-40857000D01*
X64603000Y-40857000D01*
X64603000Y-40603000D01*
X64623000Y-40603000D01*
X64623000Y-39409845D01*
X64393110Y-39288524D01*
X64245901Y-39333175D01*
X63983080Y-39458359D01*
X63749731Y-39632412D01*
X63554822Y-39848645D01*
X63485195Y-39965534D01*
X63363475Y-39783368D01*
X63156632Y-39576525D01*
X62913411Y-39414010D01*
X62643158Y-39302068D01*
X62356260Y-39245000D01*
X62063740Y-39245000D01*
X61776842Y-39302068D01*
X61506589Y-39414010D01*
X61347964Y-39520000D01*
X60532036Y-39520000D01*
X60373411Y-39414010D01*
X60103158Y-39302068D01*
X59816260Y-39245000D01*
X59523740Y-39245000D01*
X59236842Y-39302068D01*
X58966589Y-39414010D01*
X58723368Y-39576525D01*
X58516525Y-39783368D01*
X58354010Y-40026589D01*
X58242068Y-40296842D01*
X58185000Y-40583740D01*
X58185000Y-40876260D01*
X58242068Y-41163158D01*
X58354010Y-41433411D01*
X58516525Y-41676632D01*
X58648380Y-41808487D01*
X58575820Y-41830498D01*
X58465506Y-41889463D01*
X58368815Y-41968815D01*
X58289463Y-42065506D01*
X58230498Y-42175820D01*
X58194188Y-42295518D01*
X58181928Y-42420000D01*
X58181928Y-44120000D01*
X58194188Y-44244482D01*
X58230498Y-44364180D01*
X58289463Y-44474494D01*
X58368815Y-44571185D01*
X58465506Y-44650537D01*
X58575820Y-44709502D01*
X58695518Y-44745812D01*
X58820000Y-44758072D01*
X60520000Y-44758072D01*
X60644482Y-44745812D01*
X60764180Y-44709502D01*
X60874494Y-44650537D01*
X60971185Y-44571185D01*
X61050537Y-44474494D01*
X61109502Y-44364180D01*
X61131513Y-44291620D01*
X61263368Y-44423475D01*
X61506589Y-44585990D01*
X61776842Y-44697932D01*
X62063740Y-44755000D01*
X62356260Y-44755000D01*
X62576408Y-44711209D01*
X63055198Y-45190000D01*
X55837323Y-45190000D01*
X55800000Y-45186324D01*
X55762677Y-45190000D01*
X55762667Y-45190000D01*
X55651014Y-45200997D01*
X55507753Y-45244454D01*
X55375724Y-45315026D01*
X55259999Y-45409999D01*
X55236201Y-45438997D01*
X53238998Y-47436201D01*
X53210000Y-47459999D01*
X53186202Y-47488997D01*
X53186201Y-47488998D01*
X53115026Y-47575724D01*
X53044454Y-47707754D01*
X53021031Y-47784973D01*
X53000998Y-47851014D01*
X52998564Y-47875724D01*
X52986324Y-48000000D01*
X52990001Y-48037332D01*
X52990000Y-56046289D01*
X52946063Y-56090226D01*
X52832795Y-56259744D01*
X52754774Y-56448102D01*
X52715000Y-56648061D01*
X52715000Y-56851939D01*
X52754774Y-57051898D01*
X52832795Y-57240256D01*
X52946063Y-57409774D01*
X53090226Y-57553937D01*
X53259744Y-57667205D01*
X53334930Y-57698348D01*
X53259808Y-57738502D01*
X53178309Y-57792958D01*
X53081618Y-57872310D01*
X53012310Y-57941618D01*
X52932958Y-58038309D01*
X52878502Y-58119808D01*
X52819536Y-58230125D01*
X52782027Y-58320681D01*
X52745718Y-58440377D01*
X52726596Y-58536510D01*
X52714336Y-58660991D01*
X52714336Y-58685550D01*
X52711928Y-58710000D01*
X52711928Y-59210000D01*
X52714336Y-59234450D01*
X52714336Y-59259009D01*
X52726596Y-59383490D01*
X52745718Y-59479623D01*
X52782027Y-59599319D01*
X52819536Y-59689875D01*
X52878502Y-59800192D01*
X52932958Y-59881691D01*
X53012310Y-59978382D01*
X53081618Y-60047690D01*
X53090001Y-60054569D01*
X53090000Y-60835199D01*
X52888998Y-61036201D01*
X52860000Y-61059999D01*
X52836202Y-61088997D01*
X52836201Y-61088998D01*
X52765026Y-61175724D01*
X52694454Y-61307754D01*
X52674705Y-61372860D01*
X52650998Y-61451014D01*
X52648697Y-61474376D01*
X52636324Y-61600000D01*
X52640001Y-61637332D01*
X52640000Y-75162678D01*
X52636324Y-75200000D01*
X52640000Y-75237322D01*
X52640000Y-75237332D01*
X52650997Y-75348985D01*
X52674577Y-75426719D01*
X52694454Y-75492246D01*
X52765026Y-75624276D01*
X52794088Y-75659688D01*
X52859999Y-75740001D01*
X52889003Y-75763804D01*
X56714313Y-79589115D01*
X56673158Y-79572068D01*
X56386260Y-79515000D01*
X56093740Y-79515000D01*
X55806842Y-79572068D01*
X55536589Y-79684010D01*
X55293368Y-79846525D01*
X55161513Y-79978380D01*
X55139502Y-79905820D01*
X55080537Y-79795506D01*
X55001185Y-79698815D01*
X54904494Y-79619463D01*
X54794180Y-79560498D01*
X54674482Y-79524188D01*
X54550000Y-79511928D01*
X53985750Y-79515000D01*
X53827000Y-79673750D01*
X53827000Y-80873000D01*
X53847000Y-80873000D01*
X53847000Y-81127000D01*
X53827000Y-81127000D01*
X53827000Y-82326250D01*
X53985750Y-82485000D01*
X54550000Y-82488072D01*
X54674482Y-82475812D01*
X54794180Y-82439502D01*
X54904494Y-82380537D01*
X55001185Y-82301185D01*
X55080537Y-82204494D01*
X55139502Y-82094180D01*
X55161513Y-82021620D01*
X55293368Y-82153475D01*
X55536589Y-82315990D01*
X55806842Y-82427932D01*
X56093740Y-82485000D01*
X56386260Y-82485000D01*
X56673158Y-82427932D01*
X56943411Y-82315990D01*
X57088218Y-82219233D01*
X57090000Y-82237322D01*
X57090000Y-82237332D01*
X57100997Y-82348985D01*
X57135482Y-82462668D01*
X57144454Y-82492246D01*
X57215026Y-82624276D01*
X57242119Y-82657288D01*
X57309999Y-82740001D01*
X57339002Y-82763803D01*
X57665000Y-83089801D01*
X57665000Y-83151939D01*
X57704774Y-83351898D01*
X57782795Y-83540256D01*
X57896063Y-83709774D01*
X58040226Y-83853937D01*
X58209744Y-83967205D01*
X58398102Y-84045226D01*
X58598061Y-84085000D01*
X58801939Y-84085000D01*
X59001898Y-84045226D01*
X59190256Y-83967205D01*
X59359774Y-83853937D01*
X59503937Y-83709774D01*
X59617205Y-83540256D01*
X59695226Y-83351898D01*
X59729152Y-83181339D01*
X59733155Y-83181731D01*
X59733163Y-83181731D01*
X59766353Y-83185000D01*
X62233647Y-83185000D01*
X62267426Y-83181673D01*
X62275221Y-83181673D01*
X62284733Y-83180673D01*
X62401104Y-83167620D01*
X62461831Y-83154712D01*
X62522737Y-83142652D01*
X62531874Y-83139823D01*
X62643492Y-83104415D01*
X62667426Y-83094157D01*
X62673386Y-83098139D01*
X62837292Y-83166031D01*
X63011294Y-83200642D01*
X63188706Y-83200642D01*
X63362708Y-83166031D01*
X63400000Y-83150584D01*
X63437292Y-83166031D01*
X63611294Y-83200642D01*
X63788706Y-83200642D01*
X63962708Y-83166031D01*
X64000000Y-83150584D01*
X64037292Y-83166031D01*
X64211294Y-83200642D01*
X64388706Y-83200642D01*
X64562708Y-83166031D01*
X64726614Y-83098139D01*
X64732631Y-83094118D01*
X64764236Y-83107664D01*
X64773369Y-83110491D01*
X64773375Y-83110493D01*
X64885474Y-83144337D01*
X64946378Y-83156396D01*
X65007103Y-83169304D01*
X65016614Y-83170304D01*
X65133156Y-83181731D01*
X65133163Y-83181731D01*
X65166353Y-83185000D01*
X84733647Y-83185000D01*
X84767426Y-83181673D01*
X84775221Y-83181673D01*
X84784733Y-83180673D01*
X84901104Y-83167620D01*
X84961831Y-83154712D01*
X85022737Y-83142652D01*
X85031874Y-83139823D01*
X85143492Y-83104415D01*
X85167426Y-83094157D01*
X85173386Y-83098139D01*
X85337292Y-83166031D01*
X85511294Y-83200642D01*
X85688706Y-83200642D01*
X85862708Y-83166031D01*
X85900000Y-83150584D01*
X85937292Y-83166031D01*
X86111294Y-83200642D01*
X86288706Y-83200642D01*
X86462708Y-83166031D01*
X86500000Y-83150584D01*
X86537292Y-83166031D01*
X86711294Y-83200642D01*
X86888706Y-83200642D01*
X87062708Y-83166031D01*
X87226614Y-83098139D01*
X87232631Y-83094118D01*
X87264236Y-83107664D01*
X87273369Y-83110491D01*
X87273375Y-83110493D01*
X87385474Y-83144337D01*
X87446378Y-83156396D01*
X87507103Y-83169304D01*
X87516614Y-83170304D01*
X87633156Y-83181731D01*
X87633163Y-83181731D01*
X87666353Y-83185000D01*
X90233647Y-83185000D01*
X90262955Y-83182113D01*
X90269066Y-83182156D01*
X90278585Y-83181223D01*
X90472682Y-83160822D01*
X90533496Y-83148339D01*
X90594481Y-83136705D01*
X90603637Y-83133941D01*
X90715000Y-83099469D01*
X90715000Y-83151939D01*
X90754774Y-83351898D01*
X90832795Y-83540256D01*
X90946063Y-83709774D01*
X91090226Y-83853937D01*
X91259744Y-83967205D01*
X91448102Y-84045226D01*
X91648061Y-84085000D01*
X91851939Y-84085000D01*
X92051898Y-84045226D01*
X92240256Y-83967205D01*
X92409774Y-83853937D01*
X92553937Y-83709774D01*
X92667205Y-83540256D01*
X92745226Y-83351898D01*
X92785000Y-83151939D01*
X92785000Y-82948061D01*
X92745226Y-82748102D01*
X92667205Y-82559744D01*
X92553937Y-82390226D01*
X92510000Y-82346289D01*
X92510000Y-75796105D01*
X92525518Y-75800812D01*
X92650000Y-75813072D01*
X93114250Y-75810000D01*
X93273000Y-75651250D01*
X93273000Y-74777000D01*
X93527000Y-74777000D01*
X93527000Y-75651250D01*
X93685750Y-75810000D01*
X94150000Y-75813072D01*
X94274482Y-75800812D01*
X94394180Y-75764502D01*
X94504494Y-75705537D01*
X94601185Y-75626185D01*
X94680537Y-75529494D01*
X94739502Y-75419180D01*
X94775812Y-75299482D01*
X94788072Y-75175000D01*
X94785000Y-74935750D01*
X94626250Y-74777000D01*
X93527000Y-74777000D01*
X93273000Y-74777000D01*
X93253000Y-74777000D01*
X93253000Y-74540000D01*
X93681979Y-74540000D01*
X93852400Y-74523215D01*
X93853109Y-74523000D01*
X94626250Y-74523000D01*
X94785000Y-74364250D01*
X94788072Y-74125000D01*
X94775812Y-74000518D01*
X94739502Y-73880820D01*
X94704907Y-73816098D01*
X94768215Y-73607400D01*
X94790612Y-73380000D01*
X94768215Y-73152600D01*
X94701885Y-72933940D01*
X94600895Y-72745000D01*
X94701885Y-72556060D01*
X94768215Y-72337400D01*
X94790612Y-72110000D01*
X94768215Y-71882600D01*
X94701885Y-71663940D01*
X94594171Y-71462421D01*
X94449212Y-71285788D01*
X94272579Y-71140829D01*
X94160000Y-71080654D01*
X94160000Y-71003711D01*
X94203937Y-70959774D01*
X94317205Y-70790256D01*
X94395226Y-70601898D01*
X94435000Y-70401939D01*
X94435000Y-70198061D01*
X94395226Y-69998102D01*
X94317205Y-69809744D01*
X94203937Y-69640226D01*
X94059774Y-69496063D01*
X93911365Y-69396899D01*
X95889706Y-69396899D01*
X95940328Y-79065771D01*
X95958767Y-79243441D01*
X96029149Y-79471161D01*
X96142605Y-79680775D01*
X96294774Y-79864228D01*
X96479811Y-80014468D01*
X96690601Y-80125723D01*
X96919046Y-80193717D01*
X97156365Y-80215837D01*
X97393441Y-80191233D01*
X97621161Y-80120851D01*
X97830775Y-80007395D01*
X98014228Y-79855226D01*
X98164468Y-79670190D01*
X98275723Y-79459399D01*
X98343717Y-79230954D01*
X98360294Y-79053101D01*
X98358332Y-78678166D01*
X104951439Y-78678166D01*
X104986550Y-78891588D01*
X105190826Y-78982458D01*
X105408905Y-79031731D01*
X105632406Y-79037511D01*
X105852740Y-78999577D01*
X106061440Y-78919387D01*
X106113450Y-78891588D01*
X106148561Y-78678166D01*
X105550000Y-78079605D01*
X104951439Y-78678166D01*
X98358332Y-78678166D01*
X98354689Y-77982406D01*
X104412489Y-77982406D01*
X104450423Y-78202740D01*
X104530613Y-78411440D01*
X104558412Y-78463450D01*
X104771834Y-78498561D01*
X105370395Y-77900000D01*
X105729605Y-77900000D01*
X106328166Y-78498561D01*
X106541588Y-78463450D01*
X106632458Y-78259174D01*
X106681731Y-78041095D01*
X106687511Y-77817594D01*
X106673845Y-77738212D01*
X107715000Y-77738212D01*
X107715000Y-77961788D01*
X107758617Y-78181067D01*
X107844176Y-78387624D01*
X107968388Y-78573520D01*
X108126480Y-78731612D01*
X108312376Y-78855824D01*
X108518933Y-78941383D01*
X108738212Y-78985000D01*
X108961788Y-78985000D01*
X109181067Y-78941383D01*
X109387624Y-78855824D01*
X109573520Y-78731612D01*
X109731612Y-78573520D01*
X109855824Y-78387624D01*
X109941383Y-78181067D01*
X109985000Y-77961788D01*
X109985000Y-77738212D01*
X109941383Y-77518933D01*
X109855824Y-77312376D01*
X109731612Y-77126480D01*
X109573520Y-76968388D01*
X109387624Y-76844176D01*
X109181067Y-76758617D01*
X108961788Y-76715000D01*
X108738212Y-76715000D01*
X108518933Y-76758617D01*
X108312376Y-76844176D01*
X108126480Y-76968388D01*
X107968388Y-77126480D01*
X107844176Y-77312376D01*
X107758617Y-77518933D01*
X107715000Y-77738212D01*
X106673845Y-77738212D01*
X106649577Y-77597260D01*
X106569387Y-77388560D01*
X106541588Y-77336550D01*
X106328166Y-77301439D01*
X105729605Y-77900000D01*
X105370395Y-77900000D01*
X104771834Y-77301439D01*
X104558412Y-77336550D01*
X104467542Y-77540826D01*
X104418269Y-77758905D01*
X104412489Y-77982406D01*
X98354689Y-77982406D01*
X98350184Y-77121834D01*
X104951439Y-77121834D01*
X105550000Y-77720395D01*
X106148561Y-77121834D01*
X106113450Y-76908412D01*
X105909174Y-76817542D01*
X105691095Y-76768269D01*
X105467594Y-76762489D01*
X105247260Y-76800423D01*
X105038560Y-76880613D01*
X104986550Y-76908412D01*
X104951439Y-77121834D01*
X98350184Y-77121834D01*
X98309672Y-69384229D01*
X98291233Y-69206559D01*
X98220851Y-68978839D01*
X98107395Y-68769225D01*
X97955226Y-68585772D01*
X97770189Y-68435532D01*
X97559399Y-68324277D01*
X97330954Y-68256283D01*
X97093635Y-68234163D01*
X96856559Y-68258767D01*
X96628839Y-68329149D01*
X96419225Y-68442605D01*
X96235772Y-68594774D01*
X96085532Y-68779811D01*
X95974277Y-68990601D01*
X95906283Y-69219046D01*
X95889706Y-69396899D01*
X93911365Y-69396899D01*
X93890256Y-69382795D01*
X93701898Y-69304774D01*
X93501939Y-69265000D01*
X93298061Y-69265000D01*
X93098102Y-69304774D01*
X92909744Y-69382795D01*
X92740226Y-69496063D01*
X92710000Y-69526289D01*
X92710000Y-67328391D01*
X93772400Y-66265991D01*
X93745000Y-66403740D01*
X93745000Y-66696260D01*
X93802068Y-66983158D01*
X93914010Y-67253411D01*
X94076525Y-67496632D01*
X94283368Y-67703475D01*
X94526589Y-67865990D01*
X94796842Y-67977932D01*
X95083740Y-68035000D01*
X95376260Y-68035000D01*
X95663158Y-67977932D01*
X95933411Y-67865990D01*
X96176632Y-67703475D01*
X96383475Y-67496632D01*
X96505195Y-67314466D01*
X96574822Y-67431355D01*
X96769731Y-67647588D01*
X97003080Y-67821641D01*
X97265901Y-67946825D01*
X97413110Y-67991476D01*
X97643000Y-67870155D01*
X97643000Y-66677000D01*
X97623000Y-66677000D01*
X97623000Y-66423000D01*
X97643000Y-66423000D01*
X97643000Y-65229845D01*
X97413110Y-65108524D01*
X97265901Y-65153175D01*
X97003080Y-65278359D01*
X96769731Y-65452412D01*
X96574822Y-65668645D01*
X96505195Y-65785534D01*
X96383475Y-65603368D01*
X96176632Y-65396525D01*
X95990000Y-65271822D01*
X95990000Y-64838072D01*
X97050000Y-64838072D01*
X97174482Y-64825812D01*
X97294180Y-64789502D01*
X97404494Y-64730537D01*
X97501185Y-64651185D01*
X97580537Y-64554494D01*
X97639502Y-64444180D01*
X97675812Y-64324482D01*
X97688072Y-64200000D01*
X97688072Y-63338212D01*
X97815000Y-63338212D01*
X97815000Y-63561788D01*
X97858617Y-63781067D01*
X97944176Y-63987624D01*
X98068388Y-64173520D01*
X98226480Y-64331612D01*
X98290001Y-64374055D01*
X98290001Y-65160749D01*
X98274099Y-65153175D01*
X98126890Y-65108524D01*
X97897000Y-65229845D01*
X97897000Y-66423000D01*
X97917000Y-66423000D01*
X97917000Y-66677000D01*
X97897000Y-66677000D01*
X97897000Y-67870155D01*
X98126890Y-67991476D01*
X98274099Y-67946825D01*
X98290000Y-67939251D01*
X98290000Y-67962677D01*
X98286324Y-68000000D01*
X98290000Y-68037322D01*
X98290000Y-68037332D01*
X98300997Y-68148985D01*
X98335788Y-68263677D01*
X98344454Y-68292246D01*
X98415026Y-68424276D01*
X98431358Y-68444176D01*
X98509999Y-68540001D01*
X98539003Y-68563804D01*
X100265000Y-70289802D01*
X100265000Y-70351939D01*
X100304774Y-70551898D01*
X100382795Y-70740256D01*
X100496063Y-70909774D01*
X100640226Y-71053937D01*
X100809744Y-71167205D01*
X100998102Y-71245226D01*
X101198061Y-71285000D01*
X101401939Y-71285000D01*
X101601898Y-71245226D01*
X101790256Y-71167205D01*
X101959774Y-71053937D01*
X102103937Y-70909774D01*
X102217205Y-70740256D01*
X102295226Y-70551898D01*
X102335000Y-70351939D01*
X102335000Y-70148061D01*
X102295226Y-69948102D01*
X102217205Y-69759744D01*
X102103937Y-69590226D01*
X101959774Y-69446063D01*
X101790256Y-69332795D01*
X101601898Y-69254774D01*
X101401939Y-69215000D01*
X101339802Y-69215000D01*
X100059913Y-67935112D01*
X100183000Y-67870155D01*
X100183000Y-66677000D01*
X100163000Y-66677000D01*
X100163000Y-66423000D01*
X100183000Y-66423000D01*
X100183000Y-65229845D01*
X100437000Y-65229845D01*
X100437000Y-66423000D01*
X100457000Y-66423000D01*
X100457000Y-66677000D01*
X100437000Y-66677000D01*
X100437000Y-67870155D01*
X100666890Y-67991476D01*
X100814099Y-67946825D01*
X101076920Y-67821641D01*
X101310269Y-67647588D01*
X101386034Y-67563534D01*
X101410498Y-67644180D01*
X101469463Y-67754494D01*
X101548815Y-67851185D01*
X101645506Y-67930537D01*
X101755820Y-67989502D01*
X101875518Y-68025812D01*
X102000000Y-68038072D01*
X103700000Y-68038072D01*
X103824482Y-68025812D01*
X103944180Y-67989502D01*
X104054494Y-67930537D01*
X104151185Y-67851185D01*
X104230537Y-67754494D01*
X104289502Y-67644180D01*
X104325812Y-67524482D01*
X104338072Y-67400000D01*
X104338072Y-65700000D01*
X104325812Y-65575518D01*
X104289502Y-65455820D01*
X104230537Y-65345506D01*
X104151185Y-65248815D01*
X104054494Y-65169463D01*
X103944180Y-65110498D01*
X103824482Y-65074188D01*
X103700000Y-65061928D01*
X103660000Y-65061928D01*
X103660000Y-62353711D01*
X103703937Y-62309774D01*
X103817205Y-62140256D01*
X103895226Y-61951898D01*
X103935000Y-61751939D01*
X103935000Y-61548061D01*
X103895226Y-61348102D01*
X103817205Y-61159744D01*
X103703937Y-60990226D01*
X103559774Y-60846063D01*
X103390256Y-60732795D01*
X103201898Y-60654774D01*
X103001939Y-60615000D01*
X102798061Y-60615000D01*
X102598102Y-60654774D01*
X102409744Y-60732795D01*
X102240226Y-60846063D01*
X102096063Y-60990226D01*
X101982795Y-61159744D01*
X101904774Y-61348102D01*
X101865000Y-61548061D01*
X101865000Y-61751939D01*
X101904774Y-61951898D01*
X101982795Y-62140256D01*
X102096063Y-62309774D01*
X102140000Y-62353711D01*
X102140001Y-65061928D01*
X102000000Y-65061928D01*
X101875518Y-65074188D01*
X101755820Y-65110498D01*
X101645506Y-65169463D01*
X101548815Y-65248815D01*
X101469463Y-65345506D01*
X101410498Y-65455820D01*
X101386034Y-65536466D01*
X101310269Y-65452412D01*
X101076920Y-65278359D01*
X100814099Y-65153175D01*
X100666890Y-65108524D01*
X100437000Y-65229845D01*
X100183000Y-65229845D01*
X99953110Y-65108524D01*
X99810000Y-65151932D01*
X99810000Y-64195132D01*
X99831612Y-64173520D01*
X99955824Y-63987624D01*
X100041383Y-63781067D01*
X100085000Y-63561788D01*
X100085000Y-63389802D01*
X100211002Y-63263799D01*
X100240001Y-63240001D01*
X100334974Y-63124276D01*
X100405546Y-62992247D01*
X100449003Y-62848986D01*
X100460000Y-62737333D01*
X100460000Y-62737324D01*
X100463676Y-62700001D01*
X100460000Y-62662678D01*
X100460000Y-53753711D01*
X100503937Y-53709774D01*
X100617205Y-53540256D01*
X100695226Y-53351898D01*
X100735000Y-53151939D01*
X100735000Y-52948061D01*
X100695226Y-52748102D01*
X100617205Y-52559744D01*
X100503937Y-52390226D01*
X100359774Y-52246063D01*
X100190256Y-52132795D01*
X100001898Y-52054774D01*
X99801939Y-52015000D01*
X99598061Y-52015000D01*
X99398102Y-52054774D01*
X99209744Y-52132795D01*
X99040226Y-52246063D01*
X98896063Y-52390226D01*
X98782795Y-52559744D01*
X98704774Y-52748102D01*
X98665000Y-52948061D01*
X98665000Y-53151939D01*
X98704774Y-53351898D01*
X98782795Y-53540256D01*
X98896063Y-53709774D01*
X98940000Y-53753711D01*
X98940001Y-62315000D01*
X98838212Y-62315000D01*
X98618933Y-62358617D01*
X98412376Y-62444176D01*
X98226480Y-62568388D01*
X98068388Y-62726480D01*
X97944176Y-62912376D01*
X97858617Y-63118933D01*
X97815000Y-63338212D01*
X97688072Y-63338212D01*
X97688072Y-62400000D01*
X97675812Y-62275518D01*
X97639502Y-62155820D01*
X97580537Y-62045506D01*
X97501185Y-61948815D01*
X97404494Y-61869463D01*
X97294180Y-61810498D01*
X97260000Y-61800130D01*
X97260000Y-60803711D01*
X97303937Y-60759774D01*
X97417205Y-60590256D01*
X97495226Y-60401898D01*
X97535000Y-60201939D01*
X97535000Y-59998061D01*
X97495226Y-59798102D01*
X97417205Y-59609744D01*
X97303937Y-59440226D01*
X97260000Y-59396289D01*
X97260000Y-58599870D01*
X97294180Y-58589502D01*
X97404494Y-58530537D01*
X97501185Y-58451185D01*
X97580537Y-58354494D01*
X97639502Y-58244180D01*
X97675812Y-58124482D01*
X97688072Y-58000000D01*
X97688072Y-56200000D01*
X97675812Y-56075518D01*
X97639502Y-55955820D01*
X97580537Y-55845506D01*
X97522674Y-55775000D01*
X97580537Y-55704494D01*
X97639502Y-55594180D01*
X97675812Y-55474482D01*
X97681014Y-55421664D01*
X97748061Y-55435000D01*
X97951939Y-55435000D01*
X98151898Y-55395226D01*
X98340256Y-55317205D01*
X98509774Y-55203937D01*
X98653937Y-55059774D01*
X98767205Y-54890256D01*
X98845226Y-54701898D01*
X98885000Y-54501939D01*
X98885000Y-54298061D01*
X98845226Y-54098102D01*
X98767205Y-53909744D01*
X98653937Y-53740226D01*
X98509774Y-53596063D01*
X98340256Y-53482795D01*
X98151898Y-53404774D01*
X97951939Y-53365000D01*
X97748061Y-53365000D01*
X97662610Y-53381997D01*
X97639502Y-53305820D01*
X97580537Y-53195506D01*
X97501185Y-53098815D01*
X97404494Y-53019463D01*
X97294180Y-52960498D01*
X97260000Y-52950130D01*
X97260000Y-52503711D01*
X97303937Y-52459774D01*
X97417205Y-52290256D01*
X97495226Y-52101898D01*
X97535000Y-51901939D01*
X97535000Y-51698061D01*
X97495226Y-51498102D01*
X97417205Y-51309744D01*
X97303937Y-51140226D01*
X97260000Y-51096289D01*
X97260000Y-49749870D01*
X97294180Y-49739502D01*
X97404494Y-49680537D01*
X97501185Y-49601185D01*
X97580537Y-49504494D01*
X97639502Y-49394180D01*
X97675812Y-49274482D01*
X97688072Y-49150000D01*
X97688072Y-48198061D01*
X100865000Y-48198061D01*
X100865000Y-48401939D01*
X100904774Y-48601898D01*
X100982795Y-48790256D01*
X101096063Y-48959774D01*
X101140001Y-49003712D01*
X101140000Y-52287332D01*
X101140001Y-52287342D01*
X101140000Y-54862667D01*
X101140000Y-55062678D01*
X101136324Y-55100000D01*
X101140000Y-55137322D01*
X101140000Y-55137332D01*
X101150997Y-55248985D01*
X101191986Y-55384109D01*
X101194454Y-55392246D01*
X101265026Y-55524276D01*
X101295927Y-55561928D01*
X101359999Y-55640001D01*
X101389002Y-55663804D01*
X101965000Y-56239802D01*
X101965000Y-56301939D01*
X102004774Y-56501898D01*
X102082795Y-56690256D01*
X102196063Y-56859774D01*
X102340226Y-57003937D01*
X102509744Y-57117205D01*
X102698102Y-57195226D01*
X102898061Y-57235000D01*
X103101939Y-57235000D01*
X103301898Y-57195226D01*
X103490256Y-57117205D01*
X103659774Y-57003937D01*
X103803937Y-56859774D01*
X103917205Y-56690256D01*
X103995226Y-56501898D01*
X104035000Y-56301939D01*
X104035000Y-56098061D01*
X103995226Y-55898102D01*
X103917205Y-55709744D01*
X103803937Y-55540226D01*
X103659774Y-55396063D01*
X103490256Y-55282795D01*
X103301898Y-55204774D01*
X103101939Y-55165000D01*
X103039802Y-55165000D01*
X102660000Y-54785199D01*
X102660000Y-49003711D01*
X102703937Y-48959774D01*
X102817205Y-48790256D01*
X102895226Y-48601898D01*
X102935000Y-48401939D01*
X102935000Y-48198061D01*
X102895226Y-47998102D01*
X102817205Y-47809744D01*
X102703937Y-47640226D01*
X102559774Y-47496063D01*
X102390256Y-47382795D01*
X102201898Y-47304774D01*
X102001939Y-47265000D01*
X101798061Y-47265000D01*
X101598102Y-47304774D01*
X101409744Y-47382795D01*
X101240226Y-47496063D01*
X101096063Y-47640226D01*
X100982795Y-47809744D01*
X100904774Y-47998102D01*
X100865000Y-48198061D01*
X97688072Y-48198061D01*
X97688072Y-47350000D01*
X97675812Y-47225518D01*
X97639502Y-47105820D01*
X97580537Y-46995506D01*
X97501185Y-46898815D01*
X97404494Y-46819463D01*
X97294180Y-46760498D01*
X97174482Y-46724188D01*
X97050000Y-46711928D01*
X95950000Y-46711928D01*
X95825518Y-46724188D01*
X95705820Y-46760498D01*
X95595506Y-46819463D01*
X95498815Y-46898815D01*
X95419463Y-46995506D01*
X95360498Y-47105820D01*
X95324188Y-47225518D01*
X95311928Y-47350000D01*
X95311928Y-49150000D01*
X95324188Y-49274482D01*
X95360498Y-49394180D01*
X95419463Y-49504494D01*
X95498815Y-49601185D01*
X95595506Y-49680537D01*
X95705820Y-49739502D01*
X95740000Y-49749871D01*
X95740001Y-51096288D01*
X95696063Y-51140226D01*
X95582795Y-51309744D01*
X95504774Y-51498102D01*
X95465000Y-51698061D01*
X95465000Y-51901939D01*
X95504774Y-52101898D01*
X95582795Y-52290256D01*
X95696063Y-52459774D01*
X95740001Y-52503712D01*
X95740001Y-52950129D01*
X95705820Y-52960498D01*
X95595506Y-53019463D01*
X95498815Y-53098815D01*
X95419463Y-53195506D01*
X95360498Y-53305820D01*
X95324188Y-53425518D01*
X95311928Y-53550000D01*
X95311928Y-55350000D01*
X95324188Y-55474482D01*
X95360498Y-55594180D01*
X95419463Y-55704494D01*
X95477326Y-55775000D01*
X95419463Y-55845506D01*
X95360498Y-55955820D01*
X95324188Y-56075518D01*
X95311928Y-56200000D01*
X95311928Y-57800350D01*
X95201898Y-57754774D01*
X95001939Y-57715000D01*
X94798061Y-57715000D01*
X94598102Y-57754774D01*
X94409744Y-57832795D01*
X94240226Y-57946063D01*
X94096063Y-58090226D01*
X93982795Y-58259744D01*
X93904774Y-58448102D01*
X93865000Y-58648061D01*
X93865000Y-58851939D01*
X93904774Y-59051898D01*
X93982795Y-59240256D01*
X94096063Y-59409774D01*
X94140001Y-59453712D01*
X94140000Y-63748788D01*
X93986583Y-63902205D01*
X93985000Y-63585750D01*
X93826250Y-63427000D01*
X92927000Y-63427000D01*
X92927000Y-64676250D01*
X93069769Y-64819019D01*
X91885000Y-66003789D01*
X91885000Y-64721915D01*
X91895506Y-64730537D01*
X92005820Y-64789502D01*
X92125518Y-64825812D01*
X92250000Y-64838072D01*
X92514250Y-64835000D01*
X92673000Y-64676250D01*
X92673000Y-63427000D01*
X92653000Y-63427000D01*
X92653000Y-63173000D01*
X92673000Y-63173000D01*
X92673000Y-61923750D01*
X92927000Y-61923750D01*
X92927000Y-63173000D01*
X93826250Y-63173000D01*
X93985000Y-63014250D01*
X93988072Y-62400000D01*
X93975812Y-62275518D01*
X93939502Y-62155820D01*
X93880537Y-62045506D01*
X93801185Y-61948815D01*
X93704494Y-61869463D01*
X93594180Y-61810498D01*
X93474482Y-61774188D01*
X93350000Y-61761928D01*
X93085750Y-61765000D01*
X92927000Y-61923750D01*
X92673000Y-61923750D01*
X92514250Y-61765000D01*
X92250000Y-61761928D01*
X92125518Y-61774188D01*
X92005820Y-61810498D01*
X91895506Y-61869463D01*
X91885000Y-61878085D01*
X91885000Y-58521915D01*
X91895506Y-58530537D01*
X92005820Y-58589502D01*
X92125518Y-58625812D01*
X92250000Y-58638072D01*
X92514250Y-58635000D01*
X92673000Y-58476250D01*
X92673000Y-57227000D01*
X92927000Y-57227000D01*
X92927000Y-58476250D01*
X93085750Y-58635000D01*
X93350000Y-58638072D01*
X93474482Y-58625812D01*
X93594180Y-58589502D01*
X93704494Y-58530537D01*
X93801185Y-58451185D01*
X93880537Y-58354494D01*
X93939502Y-58244180D01*
X93975812Y-58124482D01*
X93988072Y-58000000D01*
X93985000Y-57385750D01*
X93826250Y-57227000D01*
X92927000Y-57227000D01*
X92673000Y-57227000D01*
X92653000Y-57227000D01*
X92653000Y-56973000D01*
X92673000Y-56973000D01*
X92673000Y-54577000D01*
X92927000Y-54577000D01*
X92927000Y-56973000D01*
X93826250Y-56973000D01*
X93985000Y-56814250D01*
X93988072Y-56200000D01*
X93975812Y-56075518D01*
X93939502Y-55955820D01*
X93880537Y-55845506D01*
X93822674Y-55775000D01*
X93880537Y-55704494D01*
X93939502Y-55594180D01*
X93975812Y-55474482D01*
X93988072Y-55350000D01*
X93985000Y-54735750D01*
X93826250Y-54577000D01*
X92927000Y-54577000D01*
X92673000Y-54577000D01*
X92653000Y-54577000D01*
X92653000Y-54323000D01*
X92673000Y-54323000D01*
X92673000Y-53073750D01*
X92927000Y-53073750D01*
X92927000Y-54323000D01*
X93826250Y-54323000D01*
X93985000Y-54164250D01*
X93988072Y-53550000D01*
X93975812Y-53425518D01*
X93939502Y-53305820D01*
X93880537Y-53195506D01*
X93801185Y-53098815D01*
X93704494Y-53019463D01*
X93594180Y-52960498D01*
X93474482Y-52924188D01*
X93350000Y-52911928D01*
X93085750Y-52915000D01*
X92927000Y-53073750D01*
X92673000Y-53073750D01*
X92514250Y-52915000D01*
X92250000Y-52911928D01*
X92125518Y-52924188D01*
X92005820Y-52960498D01*
X91895506Y-53019463D01*
X91885000Y-53028085D01*
X91885000Y-50966353D01*
X91882113Y-50937045D01*
X91882156Y-50930933D01*
X91881223Y-50921415D01*
X91860822Y-50727318D01*
X91848339Y-50666504D01*
X91836705Y-50605519D01*
X91833941Y-50596363D01*
X91776229Y-50409925D01*
X91752170Y-50352692D01*
X91728913Y-50295127D01*
X91724423Y-50286682D01*
X91631598Y-50115006D01*
X91596878Y-50063532D01*
X91562883Y-50011582D01*
X91556838Y-50004170D01*
X91432435Y-49853793D01*
X91388362Y-49810027D01*
X91344943Y-49765689D01*
X91337574Y-49759592D01*
X91186332Y-49636242D01*
X91134614Y-49601881D01*
X91083393Y-49566809D01*
X91074980Y-49562260D01*
X90902657Y-49470635D01*
X90845261Y-49446978D01*
X90788193Y-49422519D01*
X90779057Y-49419690D01*
X90592220Y-49363281D01*
X90531302Y-49351219D01*
X90470590Y-49338314D01*
X90461078Y-49337314D01*
X90266845Y-49318269D01*
X90266837Y-49318269D01*
X90233647Y-49315000D01*
X87166353Y-49315000D01*
X87132574Y-49318327D01*
X87124779Y-49318327D01*
X87115267Y-49319327D01*
X86998897Y-49332380D01*
X86938203Y-49345281D01*
X86877263Y-49357348D01*
X86868126Y-49360176D01*
X86756508Y-49395585D01*
X86732574Y-49405843D01*
X86726614Y-49401861D01*
X86562708Y-49333969D01*
X86388706Y-49299358D01*
X86211294Y-49299358D01*
X86037292Y-49333969D01*
X86000000Y-49349416D01*
X85962708Y-49333969D01*
X85788706Y-49299358D01*
X85611294Y-49299358D01*
X85437292Y-49333969D01*
X85400000Y-49349416D01*
X85362708Y-49333969D01*
X85188706Y-49299358D01*
X85011294Y-49299358D01*
X84837292Y-49333969D01*
X84673386Y-49401861D01*
X84667369Y-49405882D01*
X84635764Y-49392336D01*
X84626631Y-49389509D01*
X84626625Y-49389507D01*
X84514526Y-49355663D01*
X84453630Y-49343605D01*
X84392898Y-49330696D01*
X84383386Y-49329696D01*
X84266845Y-49318269D01*
X84266837Y-49318269D01*
X84233647Y-49315000D01*
X81418892Y-49315000D01*
X81442492Y-49237201D01*
X81451080Y-49150000D01*
X91611928Y-49150000D01*
X91624188Y-49274482D01*
X91660498Y-49394180D01*
X91719463Y-49504494D01*
X91798815Y-49601185D01*
X91895506Y-49680537D01*
X92005820Y-49739502D01*
X92125518Y-49775812D01*
X92250000Y-49788072D01*
X92514250Y-49785000D01*
X92673000Y-49626250D01*
X92673000Y-48377000D01*
X92927000Y-48377000D01*
X92927000Y-49626250D01*
X93085750Y-49785000D01*
X93350000Y-49788072D01*
X93474482Y-49775812D01*
X93594180Y-49739502D01*
X93704494Y-49680537D01*
X93801185Y-49601185D01*
X93880537Y-49504494D01*
X93939502Y-49394180D01*
X93975812Y-49274482D01*
X93988072Y-49150000D01*
X93985000Y-48535750D01*
X93826250Y-48377000D01*
X92927000Y-48377000D01*
X92673000Y-48377000D01*
X91773750Y-48377000D01*
X91615000Y-48535750D01*
X91611928Y-49150000D01*
X81451080Y-49150000D01*
X81465854Y-49000000D01*
X81442492Y-48762799D01*
X81373303Y-48534713D01*
X81260946Y-48324508D01*
X81109739Y-48140261D01*
X80925492Y-47989054D01*
X80715287Y-47876697D01*
X80487201Y-47807508D01*
X80309437Y-47790000D01*
X63881198Y-47790000D01*
X63441198Y-47350000D01*
X91611928Y-47350000D01*
X91615000Y-47964250D01*
X91773750Y-48123000D01*
X92673000Y-48123000D01*
X92673000Y-46873750D01*
X92927000Y-46873750D01*
X92927000Y-48123000D01*
X93826250Y-48123000D01*
X93985000Y-47964250D01*
X93988072Y-47350000D01*
X93975812Y-47225518D01*
X93939502Y-47105820D01*
X93880537Y-46995506D01*
X93801185Y-46898815D01*
X93704494Y-46819463D01*
X93594180Y-46760498D01*
X93474482Y-46724188D01*
X93350000Y-46711928D01*
X93085750Y-46715000D01*
X92927000Y-46873750D01*
X92673000Y-46873750D01*
X92514250Y-46715000D01*
X92250000Y-46711928D01*
X92125518Y-46724188D01*
X92005820Y-46760498D01*
X91895506Y-46819463D01*
X91798815Y-46898815D01*
X91719463Y-46995506D01*
X91660498Y-47105820D01*
X91624188Y-47225518D01*
X91611928Y-47350000D01*
X63441198Y-47350000D01*
X63212627Y-47121430D01*
X63174738Y-47075262D01*
X62990492Y-46924055D01*
X62780287Y-46811698D01*
X62552201Y-46742509D01*
X62529327Y-46740256D01*
X62315000Y-46719146D01*
X62314999Y-46719146D01*
X62077797Y-46742509D01*
X61849712Y-46811698D01*
X61639506Y-46924055D01*
X61501428Y-47037373D01*
X61501420Y-47037381D01*
X61455262Y-47075262D01*
X61417381Y-47121421D01*
X60748802Y-47790000D01*
X56440563Y-47790000D01*
X56262799Y-47807508D01*
X56034713Y-47876697D01*
X55824508Y-47989054D01*
X55640261Y-48140261D01*
X55489054Y-48324508D01*
X55376697Y-48534713D01*
X55307508Y-48762799D01*
X55284146Y-49000000D01*
X55307508Y-49237201D01*
X55376697Y-49465287D01*
X55489054Y-49675492D01*
X55615000Y-49828958D01*
X55615001Y-57571928D01*
X54650000Y-57571928D01*
X54525518Y-57584188D01*
X54525000Y-57584345D01*
X54524482Y-57584188D01*
X54400000Y-57571928D01*
X54382848Y-57571928D01*
X54409774Y-57553937D01*
X54553937Y-57409774D01*
X54667205Y-57240256D01*
X54745226Y-57051898D01*
X54785000Y-56851939D01*
X54785000Y-56648061D01*
X54745226Y-56448102D01*
X54667205Y-56259744D01*
X54553937Y-56090226D01*
X54510000Y-56046289D01*
X54510000Y-48314801D01*
X56114802Y-46710000D01*
X99236494Y-46710000D01*
X99254774Y-46801898D01*
X99332795Y-46990256D01*
X99446063Y-47159774D01*
X99590226Y-47303937D01*
X99759744Y-47417205D01*
X99948102Y-47495226D01*
X100148061Y-47535000D01*
X100351939Y-47535000D01*
X100551898Y-47495226D01*
X100740256Y-47417205D01*
X100909774Y-47303937D01*
X101053937Y-47159774D01*
X101167205Y-46990256D01*
X101245226Y-46801898D01*
X101285000Y-46601939D01*
X101285000Y-46398061D01*
X101245226Y-46198102D01*
X101188022Y-46060000D01*
X104732516Y-46060000D01*
X104715000Y-46148061D01*
X104715000Y-46351939D01*
X104754774Y-46551898D01*
X104832795Y-46740256D01*
X104946063Y-46909774D01*
X105090226Y-47053937D01*
X105175424Y-47110865D01*
X105046063Y-47240226D01*
X104932795Y-47409744D01*
X104854774Y-47598102D01*
X104839963Y-47672563D01*
X104801939Y-47665000D01*
X104598061Y-47665000D01*
X104398102Y-47704774D01*
X104209744Y-47782795D01*
X104040226Y-47896063D01*
X103896063Y-48040226D01*
X103782795Y-48209744D01*
X103704774Y-48398102D01*
X103665000Y-48598061D01*
X103665000Y-48801939D01*
X103704774Y-49001898D01*
X103782795Y-49190256D01*
X103896063Y-49359774D01*
X103940000Y-49403711D01*
X103940000Y-49512678D01*
X103936324Y-49550000D01*
X103940000Y-49587322D01*
X103940000Y-49587332D01*
X103950997Y-49698985D01*
X103991287Y-49831807D01*
X103994454Y-49842246D01*
X104065026Y-49974276D01*
X104090917Y-50005824D01*
X104159999Y-50090001D01*
X104189002Y-50113803D01*
X104530001Y-50454803D01*
X104530001Y-50490473D01*
X104401939Y-50465000D01*
X104198061Y-50465000D01*
X103998102Y-50504774D01*
X103809744Y-50582795D01*
X103640226Y-50696063D01*
X103496063Y-50840226D01*
X103382795Y-51009744D01*
X103304774Y-51198102D01*
X103265000Y-51398061D01*
X103265000Y-51601939D01*
X103304774Y-51801898D01*
X103382795Y-51990256D01*
X103496063Y-52159774D01*
X103540001Y-52203712D01*
X103540000Y-54782677D01*
X103536324Y-54820000D01*
X103540000Y-54857322D01*
X103540000Y-54857332D01*
X103550997Y-54968985D01*
X103590124Y-55097971D01*
X103594454Y-55112246D01*
X103665026Y-55244276D01*
X103701489Y-55288706D01*
X103759999Y-55360001D01*
X103789002Y-55383803D01*
X104530001Y-56124803D01*
X104530000Y-57607023D01*
X104484742Y-57662171D01*
X104411916Y-57798418D01*
X104367071Y-57946255D01*
X104351928Y-58100000D01*
X104351928Y-59750000D01*
X104367071Y-59903745D01*
X104411916Y-60051582D01*
X104484742Y-60187829D01*
X104582749Y-60307251D01*
X104702171Y-60405258D01*
X104838418Y-60478084D01*
X104986255Y-60522929D01*
X105140000Y-60538072D01*
X105440000Y-60538072D01*
X105574783Y-60524797D01*
X105554774Y-60573102D01*
X105515000Y-60773061D01*
X105515000Y-60976939D01*
X105554774Y-61176898D01*
X105632795Y-61365256D01*
X105746063Y-61534774D01*
X105890226Y-61678937D01*
X106059744Y-61792205D01*
X106248102Y-61870226D01*
X106448061Y-61910000D01*
X106651939Y-61910000D01*
X106851898Y-61870226D01*
X107040256Y-61792205D01*
X107209774Y-61678937D01*
X107353937Y-61534774D01*
X107467205Y-61365256D01*
X107545226Y-61176898D01*
X107585000Y-60976939D01*
X107585000Y-60773061D01*
X107545226Y-60573102D01*
X107524183Y-60522301D01*
X107526255Y-60522929D01*
X107680000Y-60538072D01*
X107980000Y-60538072D01*
X108133745Y-60522929D01*
X108281582Y-60478084D01*
X108340000Y-60446859D01*
X108340001Y-62285197D01*
X104989003Y-65636196D01*
X104959999Y-65659999D01*
X104904871Y-65727174D01*
X104865026Y-65775724D01*
X104855015Y-65794454D01*
X104794454Y-65907754D01*
X104750997Y-66051015D01*
X104740000Y-66162668D01*
X104740000Y-66162678D01*
X104736324Y-66200000D01*
X104740000Y-66237323D01*
X104740001Y-67162667D01*
X104740000Y-72346289D01*
X104696063Y-72390226D01*
X104582795Y-72559744D01*
X104504774Y-72748102D01*
X104465000Y-72948061D01*
X104465000Y-73151939D01*
X104504774Y-73351898D01*
X104582795Y-73540256D01*
X104696063Y-73709774D01*
X104840226Y-73853937D01*
X105009744Y-73967205D01*
X105198102Y-74045226D01*
X105398061Y-74085000D01*
X105601939Y-74085000D01*
X105801898Y-74045226D01*
X105990256Y-73967205D01*
X106159774Y-73853937D01*
X106303937Y-73709774D01*
X106417205Y-73540256D01*
X106495226Y-73351898D01*
X106535000Y-73151939D01*
X106535000Y-72948061D01*
X106495226Y-72748102D01*
X106417205Y-72559744D01*
X106303937Y-72390226D01*
X106260000Y-72346289D01*
X106260000Y-70099340D01*
X106664578Y-70099340D01*
X106664578Y-73497860D01*
X106676838Y-73622342D01*
X106713148Y-73742040D01*
X106772113Y-73852354D01*
X106851465Y-73949045D01*
X106948156Y-74028397D01*
X107058470Y-74087362D01*
X107178168Y-74123672D01*
X107302650Y-74135932D01*
X108900310Y-74135932D01*
X109024792Y-74123672D01*
X109144490Y-74087362D01*
X109254804Y-74028397D01*
X109351495Y-73949045D01*
X109430847Y-73852354D01*
X109489812Y-73742040D01*
X109526122Y-73622342D01*
X109538382Y-73497860D01*
X109538382Y-70099340D01*
X109526122Y-69974858D01*
X109489812Y-69855160D01*
X109430847Y-69744846D01*
X109351495Y-69648155D01*
X109254804Y-69568803D01*
X109144490Y-69509838D01*
X109024792Y-69473528D01*
X108900310Y-69461268D01*
X107302650Y-69461268D01*
X107178168Y-69473528D01*
X107058470Y-69509838D01*
X106948156Y-69568803D01*
X106851465Y-69648155D01*
X106772113Y-69744846D01*
X106713148Y-69855160D01*
X106676838Y-69974858D01*
X106664578Y-70099340D01*
X106260000Y-70099340D01*
X106260000Y-68901730D01*
X109364598Y-68901730D01*
X109376858Y-69026212D01*
X109413168Y-69145910D01*
X109472133Y-69256224D01*
X109551485Y-69352915D01*
X109648176Y-69432267D01*
X109758490Y-69491232D01*
X109878188Y-69527542D01*
X110002670Y-69539802D01*
X110216030Y-69536730D01*
X110374780Y-69377980D01*
X110374780Y-66728760D01*
X109526420Y-66728760D01*
X109367670Y-66887510D01*
X109364598Y-68901730D01*
X106260000Y-68901730D01*
X106260000Y-66514801D01*
X108473011Y-64301790D01*
X109364598Y-64301790D01*
X109367670Y-66316010D01*
X109526420Y-66474760D01*
X110374780Y-66474760D01*
X110374780Y-63825540D01*
X110216030Y-63666790D01*
X110002670Y-63663718D01*
X109878188Y-63675978D01*
X109758490Y-63712288D01*
X109648176Y-63771253D01*
X109551485Y-63850605D01*
X109472133Y-63947296D01*
X109413168Y-64057610D01*
X109376858Y-64177308D01*
X109364598Y-64301790D01*
X108473011Y-64301790D01*
X109611003Y-63163799D01*
X109640001Y-63140001D01*
X109734974Y-63024276D01*
X109805546Y-62892247D01*
X109849003Y-62748986D01*
X109860000Y-62637333D01*
X109860000Y-62637323D01*
X109863676Y-62600000D01*
X109860000Y-62562677D01*
X109860000Y-62534013D01*
X109879744Y-62547205D01*
X110068102Y-62625226D01*
X110268061Y-62665000D01*
X110471939Y-62665000D01*
X110671898Y-62625226D01*
X110860256Y-62547205D01*
X111029774Y-62433937D01*
X111173937Y-62289774D01*
X111287205Y-62120256D01*
X111365226Y-61931898D01*
X111405000Y-61731939D01*
X111405000Y-61528061D01*
X111365226Y-61328102D01*
X111287205Y-61139744D01*
X111173937Y-60970226D01*
X111130000Y-60926289D01*
X111130000Y-60446859D01*
X111188418Y-60478084D01*
X111336255Y-60522929D01*
X111490000Y-60538072D01*
X111790000Y-60538072D01*
X111943745Y-60522929D01*
X112091582Y-60478084D01*
X112225936Y-60406270D01*
X112255506Y-60430537D01*
X112365820Y-60489502D01*
X112485518Y-60525812D01*
X112610000Y-60538072D01*
X112624250Y-60535000D01*
X112783000Y-60376250D01*
X112783000Y-59052000D01*
X112763000Y-59052000D01*
X112763000Y-58798000D01*
X112783000Y-58798000D01*
X112783000Y-57473750D01*
X112624250Y-57315000D01*
X112610000Y-57311928D01*
X112485518Y-57324188D01*
X112365820Y-57360498D01*
X112255506Y-57419463D01*
X112225936Y-57443730D01*
X112091582Y-57371916D01*
X111943745Y-57327071D01*
X111790000Y-57311928D01*
X111490000Y-57311928D01*
X111336255Y-57327071D01*
X111188418Y-57371916D01*
X111052171Y-57444742D01*
X111005000Y-57483454D01*
X110957829Y-57444742D01*
X110821582Y-57371916D01*
X110673745Y-57327071D01*
X110520000Y-57311928D01*
X110220000Y-57311928D01*
X110066255Y-57327071D01*
X109918418Y-57371916D01*
X109782171Y-57444742D01*
X109735000Y-57483454D01*
X109687829Y-57444742D01*
X109551582Y-57371916D01*
X109485000Y-57351719D01*
X109485000Y-57298061D01*
X109445226Y-57098102D01*
X109367205Y-56909744D01*
X109253937Y-56740226D01*
X109109774Y-56596063D01*
X108940256Y-56482795D01*
X108751898Y-56404774D01*
X108590000Y-56372571D01*
X108590000Y-56204013D01*
X108609744Y-56217205D01*
X108798102Y-56295226D01*
X108998061Y-56335000D01*
X109201939Y-56335000D01*
X109401898Y-56295226D01*
X109590256Y-56217205D01*
X109759774Y-56103937D01*
X109903937Y-55959774D01*
X110017205Y-55790256D01*
X110095226Y-55601898D01*
X110100321Y-55576284D01*
X110220000Y-55588072D01*
X110520000Y-55588072D01*
X110673745Y-55572929D01*
X110821582Y-55528084D01*
X110957829Y-55455258D01*
X111005000Y-55416546D01*
X111052171Y-55455258D01*
X111188418Y-55528084D01*
X111336255Y-55572929D01*
X111490000Y-55588072D01*
X111763270Y-55588072D01*
X111843736Y-55668539D01*
X111782795Y-55759744D01*
X111704774Y-55948102D01*
X111665000Y-56148061D01*
X111665000Y-56351939D01*
X111704774Y-56551898D01*
X111782795Y-56740256D01*
X111896063Y-56909774D01*
X112040226Y-57053937D01*
X112209744Y-57167205D01*
X112398102Y-57245226D01*
X112598061Y-57285000D01*
X112801939Y-57285000D01*
X112933052Y-57258920D01*
X112939002Y-57263804D01*
X113092974Y-57417776D01*
X113037000Y-57473750D01*
X113037000Y-58798000D01*
X113057000Y-58798000D01*
X113057000Y-59052000D01*
X113037000Y-59052000D01*
X113037000Y-60376250D01*
X113195750Y-60535000D01*
X113210000Y-60538072D01*
X113334482Y-60525812D01*
X113454180Y-60489502D01*
X113564494Y-60430537D01*
X113661185Y-60351185D01*
X113740001Y-60255148D01*
X113740000Y-62846289D01*
X113696063Y-62890226D01*
X113582795Y-63059744D01*
X113504774Y-63248102D01*
X113465000Y-63448061D01*
X113465000Y-63651939D01*
X113504774Y-63851898D01*
X113582795Y-64040256D01*
X113696063Y-64209774D01*
X113840226Y-64353937D01*
X114009744Y-64467205D01*
X114198102Y-64545226D01*
X114398061Y-64585000D01*
X114601939Y-64585000D01*
X114801898Y-64545226D01*
X114990256Y-64467205D01*
X115159774Y-64353937D01*
X115303937Y-64209774D01*
X115417205Y-64040256D01*
X115495226Y-63851898D01*
X115535000Y-63651939D01*
X115535000Y-63448061D01*
X115495226Y-63248102D01*
X115417205Y-63059744D01*
X115303937Y-62890226D01*
X115260000Y-62846289D01*
X115260000Y-60058733D01*
X115348102Y-60095226D01*
X115548061Y-60135000D01*
X115615000Y-60135000D01*
X115615001Y-69461268D01*
X114099690Y-69461268D01*
X113975208Y-69473528D01*
X113855510Y-69509838D01*
X113745196Y-69568803D01*
X113708220Y-69599148D01*
X113708220Y-66542323D01*
X113690712Y-66364559D01*
X113635402Y-66182226D01*
X113635402Y-64301790D01*
X113623142Y-64177308D01*
X113586832Y-64057610D01*
X113527867Y-63947296D01*
X113448515Y-63850605D01*
X113351824Y-63771253D01*
X113241510Y-63712288D01*
X113121812Y-63675978D01*
X112997330Y-63663718D01*
X111999110Y-63663718D01*
X111874628Y-63675978D01*
X111754930Y-63712288D01*
X111644616Y-63771253D01*
X111547925Y-63850605D01*
X111500000Y-63909002D01*
X111452075Y-63850605D01*
X111355384Y-63771253D01*
X111245070Y-63712288D01*
X111125372Y-63675978D01*
X111000890Y-63663718D01*
X110787530Y-63666790D01*
X110628780Y-63825540D01*
X110628780Y-66474760D01*
X110648780Y-66474760D01*
X110648780Y-66728760D01*
X110628780Y-66728760D01*
X110628780Y-69377980D01*
X110787530Y-69536730D01*
X111000890Y-69539802D01*
X111125372Y-69527542D01*
X111245070Y-69491232D01*
X111288221Y-69468167D01*
X111288221Y-69950581D01*
X110836439Y-70402364D01*
X110790261Y-70440261D01*
X110639054Y-70624509D01*
X110526697Y-70834714D01*
X110457508Y-71062800D01*
X110440273Y-71237792D01*
X110434146Y-71300000D01*
X110440000Y-71359435D01*
X110440001Y-85348800D01*
X104998803Y-90790000D01*
X90940563Y-90790000D01*
X90762799Y-90807508D01*
X90534713Y-90876697D01*
X90324508Y-90989054D01*
X90140261Y-91140261D01*
X89989054Y-91324508D01*
X89876697Y-91534713D01*
X89807508Y-91762799D01*
X89784146Y-92000000D01*
X89807508Y-92237201D01*
X89876697Y-92465287D01*
X89989054Y-92675492D01*
X90140261Y-92859739D01*
X90324508Y-93010946D01*
X90534713Y-93123303D01*
X90762799Y-93192492D01*
X90940563Y-93210000D01*
X105440565Y-93210000D01*
X105500000Y-93215854D01*
X105559435Y-93210000D01*
X105559437Y-93210000D01*
X105737201Y-93192492D01*
X105965287Y-93123303D01*
X106175492Y-93010946D01*
X106359739Y-92859739D01*
X106397637Y-92813560D01*
X108409165Y-90802032D01*
X110790000Y-90802032D01*
X110790000Y-91197968D01*
X110867243Y-91586296D01*
X111018761Y-91952092D01*
X111238731Y-92281301D01*
X111518699Y-92561269D01*
X111847908Y-92781239D01*
X112213704Y-92932757D01*
X112602032Y-93010000D01*
X112997968Y-93010000D01*
X113386296Y-92932757D01*
X113752092Y-92781239D01*
X114081301Y-92561269D01*
X114361269Y-92281301D01*
X114581239Y-91952092D01*
X114732757Y-91586296D01*
X114810000Y-91197968D01*
X114810000Y-90802032D01*
X114732757Y-90413704D01*
X114581239Y-90047908D01*
X114361269Y-89718699D01*
X114081301Y-89438731D01*
X113752092Y-89218761D01*
X113386296Y-89067243D01*
X112997968Y-88990000D01*
X112602032Y-88990000D01*
X112213704Y-89067243D01*
X111847908Y-89218761D01*
X111518699Y-89438731D01*
X111238731Y-89718699D01*
X111018761Y-90047908D01*
X110867243Y-90413704D01*
X110790000Y-90802032D01*
X108409165Y-90802032D01*
X112463571Y-86747628D01*
X112509739Y-86709739D01*
X112600394Y-86599275D01*
X112660945Y-86525494D01*
X112708068Y-86437333D01*
X112773303Y-86315287D01*
X112842492Y-86087201D01*
X112860000Y-85909437D01*
X112860000Y-85909436D01*
X112865854Y-85850001D01*
X112860000Y-85790566D01*
X112860000Y-71801198D01*
X113311790Y-71349409D01*
X113357959Y-71311519D01*
X113461618Y-71185210D01*
X113461618Y-73497860D01*
X113473878Y-73622342D01*
X113510188Y-73742040D01*
X113569153Y-73852354D01*
X113648505Y-73949045D01*
X113745196Y-74028397D01*
X113855510Y-74087362D01*
X113975208Y-74123672D01*
X114099690Y-74135932D01*
X115615001Y-74135932D01*
X115615001Y-91466485D01*
X115567688Y-91949016D01*
X115437287Y-92380927D01*
X115225480Y-92779280D01*
X114940325Y-93128914D01*
X114592697Y-93416497D01*
X114195825Y-93631085D01*
X113764834Y-93764500D01*
X113284346Y-93815000D01*
X54333504Y-93815000D01*
X53850984Y-93767688D01*
X53419073Y-93637287D01*
X53020720Y-93425480D01*
X52671086Y-93140325D01*
X52383503Y-92792697D01*
X52168915Y-92395825D01*
X52035500Y-91964834D01*
X51985000Y-91484346D01*
X51985000Y-90802032D01*
X52790000Y-90802032D01*
X52790000Y-91197968D01*
X52867243Y-91586296D01*
X53018761Y-91952092D01*
X53238731Y-92281301D01*
X53518699Y-92561269D01*
X53847908Y-92781239D01*
X54213704Y-92932757D01*
X54602032Y-93010000D01*
X54997968Y-93010000D01*
X55386296Y-92932757D01*
X55752092Y-92781239D01*
X56081301Y-92561269D01*
X56361269Y-92281301D01*
X56581239Y-91952092D01*
X56732757Y-91586296D01*
X56810000Y-91197968D01*
X56810000Y-91091794D01*
X60520000Y-91091794D01*
X60520000Y-92308207D01*
X60537147Y-92482300D01*
X60604906Y-92705674D01*
X60714943Y-92911536D01*
X60863026Y-93091975D01*
X61043465Y-93240058D01*
X61249327Y-93350094D01*
X61472701Y-93417853D01*
X61705000Y-93440733D01*
X61937300Y-93417853D01*
X62160674Y-93350094D01*
X62366536Y-93240058D01*
X62546975Y-93091975D01*
X62695058Y-92911536D01*
X62805094Y-92705674D01*
X62872853Y-92482300D01*
X62890000Y-92308207D01*
X62890000Y-91091794D01*
X69160000Y-91091794D01*
X69160000Y-92308207D01*
X69177147Y-92482300D01*
X69244906Y-92705674D01*
X69354943Y-92911536D01*
X69503026Y-93091975D01*
X69683465Y-93240058D01*
X69889327Y-93350094D01*
X70112701Y-93417853D01*
X70345000Y-93440733D01*
X70577300Y-93417853D01*
X70800674Y-93350094D01*
X71006536Y-93240058D01*
X71186975Y-93091975D01*
X71335058Y-92911536D01*
X71445094Y-92705674D01*
X71512853Y-92482300D01*
X71530000Y-92308207D01*
X71530000Y-91091793D01*
X71512853Y-90917700D01*
X71445094Y-90694326D01*
X71352663Y-90521400D01*
X81634483Y-90521400D01*
X81652259Y-90759084D01*
X81716063Y-90988734D01*
X81823445Y-91201524D01*
X81970276Y-91389277D01*
X82150915Y-91544776D01*
X82358419Y-91662047D01*
X82584814Y-91736582D01*
X82762117Y-91758267D01*
X87026374Y-91858602D01*
X87100000Y-91865854D01*
X87204439Y-91855567D01*
X87309084Y-91847741D01*
X87322916Y-91843898D01*
X87337201Y-91842491D01*
X87437606Y-91812034D01*
X87538734Y-91783937D01*
X87551552Y-91777468D01*
X87565287Y-91773302D01*
X87657834Y-91723835D01*
X87751524Y-91676555D01*
X87762831Y-91667712D01*
X87775492Y-91660945D01*
X87856605Y-91594377D01*
X87939277Y-91529724D01*
X87987547Y-91473650D01*
X89051198Y-90410000D01*
X97309437Y-90410000D01*
X97487201Y-90392492D01*
X97715287Y-90323303D01*
X97925492Y-90210946D01*
X98109739Y-90059739D01*
X98260946Y-89875492D01*
X98373303Y-89665287D01*
X98442492Y-89437201D01*
X98465854Y-89200000D01*
X98442492Y-88962799D01*
X98373303Y-88734713D01*
X98260946Y-88524508D01*
X98109739Y-88340261D01*
X97925492Y-88189054D01*
X97715287Y-88076697D01*
X97487201Y-88007508D01*
X97309437Y-87990000D01*
X88609435Y-87990000D01*
X88550000Y-87984146D01*
X88490565Y-87990000D01*
X88490563Y-87990000D01*
X88312799Y-88007508D01*
X88084713Y-88076697D01*
X87874508Y-88189054D01*
X87690261Y-88340261D01*
X87652367Y-88386435D01*
X86610652Y-89428151D01*
X82819043Y-89338937D01*
X82640916Y-89352259D01*
X82411266Y-89416063D01*
X82198476Y-89523445D01*
X82010723Y-89670276D01*
X81855224Y-89850915D01*
X81737953Y-90058419D01*
X81663418Y-90284814D01*
X81634483Y-90521400D01*
X71352663Y-90521400D01*
X71335058Y-90488464D01*
X71186975Y-90308025D01*
X71006535Y-90159942D01*
X70800673Y-90049906D01*
X70577299Y-89982147D01*
X70345000Y-89959267D01*
X70112700Y-89982147D01*
X69889326Y-90049906D01*
X69683464Y-90159942D01*
X69503025Y-90308025D01*
X69354942Y-90488465D01*
X69244906Y-90694327D01*
X69177147Y-90917701D01*
X69160000Y-91091794D01*
X62890000Y-91091794D01*
X62890000Y-91091793D01*
X62872853Y-90917700D01*
X62805094Y-90694326D01*
X62695058Y-90488464D01*
X62546975Y-90308025D01*
X62366535Y-90159942D01*
X62160673Y-90049906D01*
X61937299Y-89982147D01*
X61705000Y-89959267D01*
X61472700Y-89982147D01*
X61249326Y-90049906D01*
X61043464Y-90159942D01*
X60863025Y-90308025D01*
X60714942Y-90488465D01*
X60604906Y-90694327D01*
X60537147Y-90917701D01*
X60520000Y-91091794D01*
X56810000Y-91091794D01*
X56810000Y-90802032D01*
X56732757Y-90413704D01*
X56581239Y-90047908D01*
X56361269Y-89718699D01*
X56081301Y-89438731D01*
X55752092Y-89218761D01*
X55386296Y-89067243D01*
X54997968Y-88990000D01*
X54602032Y-88990000D01*
X54213704Y-89067243D01*
X53847908Y-89218761D01*
X53518699Y-89438731D01*
X53238731Y-89718699D01*
X53018761Y-90047908D01*
X52867243Y-90413704D01*
X52790000Y-90802032D01*
X51985000Y-90802032D01*
X51985000Y-87291794D01*
X60520000Y-87291794D01*
X60520000Y-88508207D01*
X60537147Y-88682300D01*
X60604906Y-88905674D01*
X60714943Y-89111536D01*
X60863026Y-89291975D01*
X61043465Y-89440058D01*
X61249327Y-89550094D01*
X61472701Y-89617853D01*
X61705000Y-89640733D01*
X61937300Y-89617853D01*
X62160674Y-89550094D01*
X62366536Y-89440058D01*
X62546975Y-89291975D01*
X62695058Y-89111536D01*
X62719227Y-89066320D01*
X62750518Y-89075812D01*
X62875000Y-89088072D01*
X62989250Y-89085000D01*
X63148000Y-88926250D01*
X63148000Y-87477000D01*
X63128000Y-87477000D01*
X63128000Y-87223000D01*
X63148000Y-87223000D01*
X63148000Y-85773750D01*
X62989250Y-85615000D01*
X62875000Y-85611928D01*
X62750518Y-85624188D01*
X62630820Y-85660498D01*
X62520506Y-85719463D01*
X62423815Y-85798815D01*
X62344463Y-85895506D01*
X62285498Y-86005820D01*
X62249188Y-86125518D01*
X62236928Y-86250000D01*
X62237082Y-86290747D01*
X62160673Y-86249906D01*
X61937299Y-86182147D01*
X61705000Y-86159267D01*
X61472700Y-86182147D01*
X61249326Y-86249906D01*
X61043464Y-86359942D01*
X60863025Y-86508025D01*
X60714942Y-86688465D01*
X60604906Y-86894327D01*
X60537147Y-87117701D01*
X60520000Y-87291794D01*
X51985000Y-87291794D01*
X51985000Y-85155000D01*
X63284146Y-85155000D01*
X63290000Y-85214435D01*
X63290000Y-85514437D01*
X63307508Y-85692201D01*
X63376697Y-85920287D01*
X63402000Y-85967625D01*
X63402000Y-87223000D01*
X63422000Y-87223000D01*
X63422000Y-87477000D01*
X63402000Y-87477000D01*
X63402000Y-88926250D01*
X63560750Y-89085000D01*
X63647765Y-89087340D01*
X63632795Y-89109744D01*
X63554774Y-89298102D01*
X63515000Y-89498061D01*
X63515000Y-89701939D01*
X63554774Y-89901898D01*
X63632795Y-90090256D01*
X63746063Y-90259774D01*
X63890226Y-90403937D01*
X64059744Y-90517205D01*
X64248102Y-90595226D01*
X64448061Y-90635000D01*
X64651939Y-90635000D01*
X64851898Y-90595226D01*
X65040256Y-90517205D01*
X65209774Y-90403937D01*
X65353937Y-90259774D01*
X65467205Y-90090256D01*
X65545226Y-89901898D01*
X65585000Y-89701939D01*
X65585000Y-89639802D01*
X66036003Y-89188799D01*
X66051379Y-89176180D01*
X66515000Y-89639802D01*
X66515000Y-89701939D01*
X66554774Y-89901898D01*
X66632795Y-90090256D01*
X66746063Y-90259774D01*
X66890226Y-90403937D01*
X67059744Y-90517205D01*
X67248102Y-90595226D01*
X67448061Y-90635000D01*
X67651939Y-90635000D01*
X67851898Y-90595226D01*
X68040256Y-90517205D01*
X68209774Y-90403937D01*
X68353937Y-90259774D01*
X68467205Y-90090256D01*
X68545226Y-89901898D01*
X68585000Y-89701939D01*
X68585000Y-89498061D01*
X68545226Y-89298102D01*
X68467205Y-89109744D01*
X68451353Y-89086019D01*
X68489250Y-89085000D01*
X68648000Y-88926250D01*
X68648000Y-87477000D01*
X68628000Y-87477000D01*
X68628000Y-87223000D01*
X68648000Y-87223000D01*
X68648000Y-86312624D01*
X68673302Y-86265287D01*
X68742491Y-86037201D01*
X68765854Y-85800000D01*
X68747633Y-85615000D01*
X69060750Y-85615000D01*
X68902000Y-85773750D01*
X68902000Y-87223000D01*
X68922000Y-87223000D01*
X68922000Y-87477000D01*
X68902000Y-87477000D01*
X68902000Y-88926250D01*
X69060750Y-89085000D01*
X69175000Y-89088072D01*
X69299482Y-89075812D01*
X69330774Y-89066320D01*
X69354943Y-89111536D01*
X69503026Y-89291975D01*
X69683465Y-89440058D01*
X69889327Y-89550094D01*
X70112701Y-89617853D01*
X70345000Y-89640733D01*
X70577300Y-89617853D01*
X70800674Y-89550094D01*
X71006536Y-89440058D01*
X71186975Y-89291975D01*
X71335058Y-89111536D01*
X71445094Y-88905674D01*
X71469566Y-88824999D01*
X71761928Y-88824999D01*
X71761928Y-89450001D01*
X71778992Y-89623255D01*
X71829528Y-89789851D01*
X71911595Y-89943387D01*
X72022038Y-90077962D01*
X72156613Y-90188405D01*
X72310149Y-90270472D01*
X72476745Y-90321008D01*
X72649999Y-90338072D01*
X73944838Y-90338072D01*
X74040563Y-90347500D01*
X75753065Y-90347500D01*
X75812500Y-90353354D01*
X75871935Y-90347500D01*
X75871937Y-90347500D01*
X76049701Y-90329992D01*
X76277787Y-90260803D01*
X76487992Y-90148446D01*
X76672239Y-89997239D01*
X76710136Y-89951061D01*
X77701198Y-88960000D01*
X83440565Y-88960000D01*
X83500000Y-88965854D01*
X83559435Y-88960000D01*
X83559437Y-88960000D01*
X83737201Y-88942492D01*
X83965287Y-88873303D01*
X84175492Y-88760946D01*
X84359739Y-88609739D01*
X84397637Y-88563560D01*
X86251198Y-86710000D01*
X86804767Y-86710000D01*
X86918791Y-86770947D01*
X87084215Y-86821128D01*
X87256250Y-86838072D01*
X87743750Y-86838072D01*
X87915785Y-86821128D01*
X88081209Y-86770947D01*
X88233664Y-86689458D01*
X88367292Y-86579792D01*
X88437500Y-86494244D01*
X88507708Y-86579792D01*
X88641336Y-86689458D01*
X88793791Y-86770947D01*
X88959215Y-86821128D01*
X89110326Y-86836011D01*
X89132795Y-86890256D01*
X89246063Y-87059774D01*
X89390226Y-87203937D01*
X89559744Y-87317205D01*
X89748102Y-87395226D01*
X89948061Y-87435000D01*
X90151939Y-87435000D01*
X90351898Y-87395226D01*
X90540256Y-87317205D01*
X90709774Y-87203937D01*
X90853937Y-87059774D01*
X90967205Y-86890256D01*
X91045226Y-86701898D01*
X91085000Y-86501939D01*
X91085000Y-86298061D01*
X91045226Y-86098102D01*
X90967205Y-85909744D01*
X90853937Y-85740226D01*
X90709774Y-85596063D01*
X90540256Y-85482795D01*
X90500572Y-85466357D01*
X90500572Y-85043750D01*
X90483628Y-84871715D01*
X90433447Y-84706291D01*
X90351958Y-84553836D01*
X90242292Y-84420208D01*
X90108664Y-84310542D01*
X89956209Y-84229053D01*
X89790785Y-84178872D01*
X89618750Y-84161928D01*
X89131250Y-84161928D01*
X88959215Y-84178872D01*
X88793791Y-84229053D01*
X88641336Y-84310542D01*
X88507708Y-84420208D01*
X88437500Y-84505756D01*
X88367292Y-84420208D01*
X88233664Y-84310542D01*
X88081209Y-84229053D01*
X87915785Y-84178872D01*
X87743750Y-84161928D01*
X87256250Y-84161928D01*
X87084215Y-84178872D01*
X86918791Y-84229053D01*
X86804767Y-84290000D01*
X85809438Y-84290000D01*
X85750000Y-84284146D01*
X85512798Y-84307508D01*
X85284712Y-84376697D01*
X85172355Y-84436754D01*
X85074508Y-84489054D01*
X84890261Y-84640261D01*
X84852368Y-84686434D01*
X82998803Y-86540000D01*
X77259434Y-86540000D01*
X77199999Y-86534146D01*
X77140564Y-86540000D01*
X77140563Y-86540000D01*
X76962799Y-86557508D01*
X76734713Y-86626697D01*
X76524508Y-86739054D01*
X76340261Y-86890261D01*
X76302372Y-86936429D01*
X75311302Y-87927500D01*
X74040563Y-87927500D01*
X73944838Y-87936928D01*
X72649999Y-87936928D01*
X72476745Y-87953992D01*
X72310149Y-88004528D01*
X72156613Y-88086595D01*
X72022038Y-88197038D01*
X71911595Y-88331613D01*
X71829528Y-88485149D01*
X71778992Y-88651745D01*
X71761928Y-88824999D01*
X71469566Y-88824999D01*
X71512853Y-88682300D01*
X71530000Y-88508207D01*
X71530000Y-87291793D01*
X71512853Y-87117700D01*
X71445094Y-86894326D01*
X71335058Y-86688464D01*
X71186975Y-86508025D01*
X71006535Y-86359942D01*
X70800673Y-86249906D01*
X70577299Y-86182147D01*
X70345000Y-86159267D01*
X70112700Y-86182147D01*
X69889326Y-86249906D01*
X69812918Y-86290747D01*
X69813072Y-86250000D01*
X69800812Y-86125518D01*
X69764502Y-86005820D01*
X69705537Y-85895506D01*
X69626185Y-85798815D01*
X69529494Y-85719463D01*
X69419180Y-85660498D01*
X69299482Y-85624188D01*
X69206192Y-85615000D01*
X70303803Y-85615000D01*
X70364863Y-85676060D01*
X70402761Y-85722239D01*
X70587008Y-85873446D01*
X70797213Y-85985803D01*
X71025299Y-86054992D01*
X71203063Y-86072500D01*
X71203065Y-86072500D01*
X71262500Y-86078354D01*
X71321935Y-86072500D01*
X74159437Y-86072500D01*
X74255162Y-86063072D01*
X75550001Y-86063072D01*
X75723255Y-86046008D01*
X75889851Y-85995472D01*
X76043387Y-85913405D01*
X76177962Y-85802962D01*
X76288405Y-85668387D01*
X76370472Y-85514851D01*
X76421008Y-85348255D01*
X76438072Y-85175001D01*
X76438072Y-84549999D01*
X76421008Y-84376745D01*
X76370472Y-84210149D01*
X76288405Y-84056613D01*
X76177962Y-83922038D01*
X76043387Y-83811595D01*
X75889851Y-83729528D01*
X75723255Y-83678992D01*
X75550001Y-83661928D01*
X74255162Y-83661928D01*
X74159437Y-83652500D01*
X71763697Y-83652500D01*
X71702637Y-83591440D01*
X71664739Y-83545261D01*
X71480492Y-83394054D01*
X71270287Y-83281697D01*
X71042201Y-83212508D01*
X70864437Y-83195000D01*
X70864435Y-83195000D01*
X70805000Y-83189146D01*
X70745565Y-83195000D01*
X66764435Y-83195000D01*
X66705000Y-83189146D01*
X66645565Y-83195000D01*
X65309434Y-83195000D01*
X65249999Y-83189146D01*
X65190564Y-83195000D01*
X65190563Y-83195000D01*
X65012799Y-83212508D01*
X64784713Y-83281697D01*
X64574508Y-83394054D01*
X64390261Y-83545261D01*
X64352367Y-83591435D01*
X63686439Y-84257364D01*
X63640261Y-84295261D01*
X63489054Y-84479509D01*
X63376697Y-84689714D01*
X63307508Y-84917800D01*
X63291300Y-85082367D01*
X63284146Y-85155000D01*
X51985000Y-85155000D01*
X51985000Y-81850000D01*
X52211928Y-81850000D01*
X52224188Y-81974482D01*
X52260498Y-82094180D01*
X52319463Y-82204494D01*
X52398815Y-82301185D01*
X52495506Y-82380537D01*
X52605820Y-82439502D01*
X52725518Y-82475812D01*
X52850000Y-82488072D01*
X53414250Y-82485000D01*
X53573000Y-82326250D01*
X53573000Y-81127000D01*
X52373750Y-81127000D01*
X52215000Y-81285750D01*
X52211928Y-81850000D01*
X51985000Y-81850000D01*
X51985000Y-80150000D01*
X52211928Y-80150000D01*
X52215000Y-80714250D01*
X52373750Y-80873000D01*
X53573000Y-80873000D01*
X53573000Y-79673750D01*
X53414250Y-79515000D01*
X52850000Y-79511928D01*
X52725518Y-79524188D01*
X52605820Y-79560498D01*
X52495506Y-79619463D01*
X52398815Y-79698815D01*
X52319463Y-79795506D01*
X52260498Y-79905820D01*
X52224188Y-80025518D01*
X52211928Y-80150000D01*
X51985000Y-80150000D01*
X51985000Y-41802032D01*
X52790000Y-41802032D01*
X52790000Y-42197968D01*
X52867243Y-42586296D01*
X53018761Y-42952092D01*
X53238731Y-43281301D01*
X53518699Y-43561269D01*
X53847908Y-43781239D01*
X54213704Y-43932757D01*
X54602032Y-44010000D01*
X54997968Y-44010000D01*
X55386296Y-43932757D01*
X55752092Y-43781239D01*
X56081301Y-43561269D01*
X56361269Y-43281301D01*
X56581239Y-42952092D01*
X56732757Y-42586296D01*
X56810000Y-42197968D01*
X56810000Y-41802032D01*
X56732757Y-41413704D01*
X56581239Y-41047908D01*
X56361269Y-40718699D01*
X56081301Y-40438731D01*
X55752092Y-40218761D01*
X55386296Y-40067243D01*
X54997968Y-39990000D01*
X54602032Y-39990000D01*
X54213704Y-40067243D01*
X53847908Y-40218761D01*
X53518699Y-40438731D01*
X53238731Y-40718699D01*
X53018761Y-41047908D01*
X52867243Y-41413704D01*
X52790000Y-41802032D01*
X51985000Y-41802032D01*
X51985000Y-41533505D01*
X52032312Y-41050984D01*
X52162714Y-40619070D01*
X52374524Y-40220715D01*
X52659675Y-39871086D01*
X53007303Y-39583503D01*
X53404177Y-39368914D01*
X53835161Y-39235502D01*
X54315654Y-39185000D01*
X112765000Y-39185000D01*
X112765000Y-39351939D01*
%TA.AperFunction,Conductor*%
D32*
G36*
X112765000Y-39351939D02*
G01*
X112804774Y-39551898D01*
X112882795Y-39740256D01*
X112996063Y-39909774D01*
X113095736Y-40009447D01*
X112997968Y-39990000D01*
X112602032Y-39990000D01*
X112213704Y-40067243D01*
X111847908Y-40218761D01*
X111518699Y-40438731D01*
X111238731Y-40718699D01*
X111018761Y-41047908D01*
X110867243Y-41413704D01*
X110790000Y-41802032D01*
X110790000Y-42197968D01*
X110867243Y-42586296D01*
X111018761Y-42952092D01*
X111238731Y-43281301D01*
X111518699Y-43561269D01*
X111847908Y-43781239D01*
X112213704Y-43932757D01*
X112602032Y-44010000D01*
X112997968Y-44010000D01*
X113386296Y-43932757D01*
X113752092Y-43781239D01*
X114081301Y-43561269D01*
X114361269Y-43281301D01*
X114581239Y-42952092D01*
X114732757Y-42586296D01*
X114810000Y-42197968D01*
X114810000Y-41802032D01*
X114732757Y-41413704D01*
X114581239Y-41047908D01*
X114361269Y-40718699D01*
X114081301Y-40438731D01*
X113851226Y-40285000D01*
X113901939Y-40285000D01*
X113992237Y-40267039D01*
X114890001Y-41164803D01*
X114890000Y-57065198D01*
X114210000Y-56385199D01*
X114210000Y-54637322D01*
X114213676Y-54599999D01*
X114210000Y-54562676D01*
X114210000Y-54562667D01*
X114199003Y-54451014D01*
X114155546Y-54307753D01*
X114084974Y-54175724D01*
X113990001Y-54059999D01*
X113961002Y-54036200D01*
X113848072Y-53923270D01*
X113848072Y-53150000D01*
X113832929Y-52996255D01*
X113788084Y-52848418D01*
X113715258Y-52712171D01*
X113670000Y-52657024D01*
X113670000Y-52497322D01*
X113673676Y-52459999D01*
X113670000Y-52422676D01*
X113670000Y-52422667D01*
X113659003Y-52311014D01*
X113615546Y-52167753D01*
X113544974Y-52035724D01*
X113450001Y-51919999D01*
X113421003Y-51896201D01*
X113009802Y-51485000D01*
X113076260Y-51485000D01*
X113363158Y-51427932D01*
X113633411Y-51315990D01*
X113876632Y-51153475D01*
X114083475Y-50946632D01*
X114245990Y-50703411D01*
X114357932Y-50433158D01*
X114415000Y-50146260D01*
X114415000Y-49853740D01*
X114357932Y-49566842D01*
X114245990Y-49296589D01*
X114083475Y-49053368D01*
X113876632Y-48846525D01*
X113700594Y-48728900D01*
X113930269Y-48557588D01*
X114125178Y-48341355D01*
X114274157Y-48091252D01*
X114371481Y-47816891D01*
X114250814Y-47587000D01*
X113057000Y-47587000D01*
X113057000Y-47607000D01*
X112803000Y-47607000D01*
X112803000Y-47587000D01*
X112783000Y-47587000D01*
X112783000Y-47333000D01*
X112803000Y-47333000D01*
X112803000Y-46139845D01*
X113057000Y-46139845D01*
X113057000Y-47333000D01*
X114250814Y-47333000D01*
X114371481Y-47103109D01*
X114274157Y-46828748D01*
X114125178Y-46578645D01*
X113930269Y-46362412D01*
X113696920Y-46188359D01*
X113434099Y-46063175D01*
X113286890Y-46018524D01*
X113057000Y-46139845D01*
X112803000Y-46139845D01*
X112573110Y-46018524D01*
X112425901Y-46063175D01*
X112325001Y-46111235D01*
X112325001Y-46002326D01*
X112328677Y-45965001D01*
X112325001Y-45927676D01*
X112325001Y-45927668D01*
X112314004Y-45816015D01*
X112270547Y-45672754D01*
X112199975Y-45540725D01*
X112105002Y-45425000D01*
X112076005Y-45401203D01*
X111013794Y-44338992D01*
X110989991Y-44309989D01*
X110874266Y-44215016D01*
X110742237Y-44144444D01*
X110598976Y-44100987D01*
X110487323Y-44089990D01*
X110487312Y-44089990D01*
X110449990Y-44086314D01*
X110412668Y-44089990D01*
X109161731Y-44089990D01*
X109274157Y-43901252D01*
X109371481Y-43626891D01*
X109250814Y-43397000D01*
X108057000Y-43397000D01*
X108057000Y-43417000D01*
X107803000Y-43417000D01*
X107803000Y-43397000D01*
X107783000Y-43397000D01*
X107783000Y-43143000D01*
X107803000Y-43143000D01*
X107803000Y-43123000D01*
X108057000Y-43123000D01*
X108057000Y-43143000D01*
X109250814Y-43143000D01*
X109371481Y-42913109D01*
X109274157Y-42638748D01*
X109125178Y-42388645D01*
X108930269Y-42172412D01*
X108700594Y-42001100D01*
X108876632Y-41883475D01*
X109083475Y-41676632D01*
X109245990Y-41433411D01*
X109357932Y-41163158D01*
X109415000Y-40876260D01*
X109415000Y-40583740D01*
X109357932Y-40296842D01*
X109245990Y-40026589D01*
X109083475Y-39783368D01*
X108876632Y-39576525D01*
X108633411Y-39414010D01*
X108363158Y-39302068D01*
X108076260Y-39245000D01*
X107783740Y-39245000D01*
X107496842Y-39302068D01*
X107226589Y-39414010D01*
X106983368Y-39576525D01*
X106776525Y-39783368D01*
X106660000Y-39957760D01*
X106543475Y-39783368D01*
X106336632Y-39576525D01*
X106093411Y-39414010D01*
X105823158Y-39302068D01*
X105536260Y-39245000D01*
X105243740Y-39245000D01*
X104956842Y-39302068D01*
X104686589Y-39414010D01*
X104443368Y-39576525D01*
X104236525Y-39783368D01*
X104120000Y-39957760D01*
X104003475Y-39783368D01*
X103796632Y-39576525D01*
X103553411Y-39414010D01*
X103283158Y-39302068D01*
X102996260Y-39245000D01*
X102703740Y-39245000D01*
X102416842Y-39302068D01*
X102146589Y-39414010D01*
X101903368Y-39576525D01*
X101696525Y-39783368D01*
X101574805Y-39965534D01*
X101505178Y-39848645D01*
X101310269Y-39632412D01*
X101076920Y-39458359D01*
X100814099Y-39333175D01*
X100666890Y-39288524D01*
X100437000Y-39409845D01*
X100437000Y-40603000D01*
X100457000Y-40603000D01*
X100457000Y-40857000D01*
X100437000Y-40857000D01*
X100437000Y-40877000D01*
X100183000Y-40877000D01*
X100183000Y-40857000D01*
X100163000Y-40857000D01*
X100163000Y-40603000D01*
X100183000Y-40603000D01*
X100183000Y-39409845D01*
X99953110Y-39288524D01*
X99805901Y-39333175D01*
X99543080Y-39458359D01*
X99309731Y-39632412D01*
X99114822Y-39848645D01*
X99045195Y-39965534D01*
X98923475Y-39783368D01*
X98716632Y-39576525D01*
X98473411Y-39414010D01*
X98203158Y-39302068D01*
X97916260Y-39245000D01*
X97623740Y-39245000D01*
X97336842Y-39302068D01*
X97066589Y-39414010D01*
X96823368Y-39576525D01*
X96616525Y-39783368D01*
X96494805Y-39965534D01*
X96425178Y-39848645D01*
X96230269Y-39632412D01*
X95996920Y-39458359D01*
X95734099Y-39333175D01*
X95586890Y-39288524D01*
X95357000Y-39409845D01*
X95357000Y-40603000D01*
X95377000Y-40603000D01*
X95377000Y-40857000D01*
X95357000Y-40857000D01*
X95357000Y-40877000D01*
X95103000Y-40877000D01*
X95103000Y-40857000D01*
X95083000Y-40857000D01*
X95083000Y-40603000D01*
X95103000Y-40603000D01*
X95103000Y-39409845D01*
X94873110Y-39288524D01*
X94725901Y-39333175D01*
X94463080Y-39458359D01*
X94229731Y-39632412D01*
X94034822Y-39848645D01*
X93965195Y-39965534D01*
X93843475Y-39783368D01*
X93636632Y-39576525D01*
X93393411Y-39414010D01*
X93123158Y-39302068D01*
X92836260Y-39245000D01*
X92543740Y-39245000D01*
X92256842Y-39302068D01*
X91986589Y-39414010D01*
X91743368Y-39576525D01*
X91536525Y-39783368D01*
X91420000Y-39957760D01*
X91303475Y-39783368D01*
X91096632Y-39576525D01*
X90853411Y-39414010D01*
X90583158Y-39302068D01*
X90296260Y-39245000D01*
X90003740Y-39245000D01*
X89716842Y-39302068D01*
X89446589Y-39414010D01*
X89203368Y-39576525D01*
X88996525Y-39783368D01*
X88880000Y-39957760D01*
X88763475Y-39783368D01*
X88556632Y-39576525D01*
X88313411Y-39414010D01*
X88043158Y-39302068D01*
X87756260Y-39245000D01*
X87463740Y-39245000D01*
X87176842Y-39302068D01*
X86906589Y-39414010D01*
X86663368Y-39576525D01*
X86456525Y-39783368D01*
X86340000Y-39957760D01*
X86223475Y-39783368D01*
X86016632Y-39576525D01*
X85773411Y-39414010D01*
X85503158Y-39302068D01*
X85216260Y-39245000D01*
X84923740Y-39245000D01*
X84636842Y-39302068D01*
X84366589Y-39414010D01*
X84123368Y-39576525D01*
X83916525Y-39783368D01*
X83794805Y-39965534D01*
X83725178Y-39848645D01*
X83530269Y-39632412D01*
X83296920Y-39458359D01*
X83034099Y-39333175D01*
X82886890Y-39288524D01*
X82657000Y-39409845D01*
X82657000Y-40603000D01*
X82677000Y-40603000D01*
X82677000Y-40857000D01*
X82657000Y-40857000D01*
X82657000Y-40877000D01*
X82403000Y-40877000D01*
X82403000Y-40857000D01*
X82383000Y-40857000D01*
X82383000Y-40603000D01*
X82403000Y-40603000D01*
X82403000Y-39409845D01*
X82173110Y-39288524D01*
X82025901Y-39333175D01*
X81763080Y-39458359D01*
X81529731Y-39632412D01*
X81334822Y-39848645D01*
X81265195Y-39965534D01*
X81143475Y-39783368D01*
X80936632Y-39576525D01*
X80693411Y-39414010D01*
X80423158Y-39302068D01*
X80136260Y-39245000D01*
X79843740Y-39245000D01*
X79556842Y-39302068D01*
X79286589Y-39414010D01*
X79043368Y-39576525D01*
X78836525Y-39783368D01*
X78720000Y-39957760D01*
X78603475Y-39783368D01*
X78396632Y-39576525D01*
X78153411Y-39414010D01*
X77883158Y-39302068D01*
X77596260Y-39245000D01*
X77303740Y-39245000D01*
X77016842Y-39302068D01*
X76746589Y-39414010D01*
X76503368Y-39576525D01*
X76296525Y-39783368D01*
X76174805Y-39965534D01*
X76105178Y-39848645D01*
X75910269Y-39632412D01*
X75676920Y-39458359D01*
X75414099Y-39333175D01*
X75266890Y-39288524D01*
X75037000Y-39409845D01*
X75037000Y-40603000D01*
X75057000Y-40603000D01*
X75057000Y-40857000D01*
X75037000Y-40857000D01*
X75037000Y-40877000D01*
X74783000Y-40877000D01*
X74783000Y-40857000D01*
X74763000Y-40857000D01*
X74763000Y-40603000D01*
X74783000Y-40603000D01*
X74783000Y-39409845D01*
X74553110Y-39288524D01*
X74405901Y-39333175D01*
X74143080Y-39458359D01*
X73909731Y-39632412D01*
X73714822Y-39848645D01*
X73645195Y-39965534D01*
X73523475Y-39783368D01*
X73316632Y-39576525D01*
X73073411Y-39414010D01*
X72803158Y-39302068D01*
X72516260Y-39245000D01*
X72223740Y-39245000D01*
X71936842Y-39302068D01*
X71666589Y-39414010D01*
X71423368Y-39576525D01*
X71216525Y-39783368D01*
X71100000Y-39957760D01*
X70983475Y-39783368D01*
X70776632Y-39576525D01*
X70533411Y-39414010D01*
X70263158Y-39302068D01*
X69976260Y-39245000D01*
X69683740Y-39245000D01*
X69396842Y-39302068D01*
X69126589Y-39414010D01*
X68883368Y-39576525D01*
X68676525Y-39783368D01*
X68560000Y-39957760D01*
X68443475Y-39783368D01*
X68236632Y-39576525D01*
X67993411Y-39414010D01*
X67723158Y-39302068D01*
X67436260Y-39245000D01*
X67143740Y-39245000D01*
X66856842Y-39302068D01*
X66586589Y-39414010D01*
X66343368Y-39576525D01*
X66136525Y-39783368D01*
X66014805Y-39965534D01*
X65945178Y-39848645D01*
X65750269Y-39632412D01*
X65516920Y-39458359D01*
X65254099Y-39333175D01*
X65106890Y-39288524D01*
X64877000Y-39409845D01*
X64877000Y-40603000D01*
X64897000Y-40603000D01*
X64897000Y-40857000D01*
X64877000Y-40857000D01*
X64877000Y-40877000D01*
X64623000Y-40877000D01*
X64623000Y-40857000D01*
X64603000Y-40857000D01*
X64603000Y-40603000D01*
X64623000Y-40603000D01*
X64623000Y-39409845D01*
X64393110Y-39288524D01*
X64245901Y-39333175D01*
X63983080Y-39458359D01*
X63749731Y-39632412D01*
X63554822Y-39848645D01*
X63485195Y-39965534D01*
X63363475Y-39783368D01*
X63156632Y-39576525D01*
X62913411Y-39414010D01*
X62643158Y-39302068D01*
X62356260Y-39245000D01*
X62063740Y-39245000D01*
X61776842Y-39302068D01*
X61506589Y-39414010D01*
X61347964Y-39520000D01*
X60532036Y-39520000D01*
X60373411Y-39414010D01*
X60103158Y-39302068D01*
X59816260Y-39245000D01*
X59523740Y-39245000D01*
X59236842Y-39302068D01*
X58966589Y-39414010D01*
X58723368Y-39576525D01*
X58516525Y-39783368D01*
X58354010Y-40026589D01*
X58242068Y-40296842D01*
X58185000Y-40583740D01*
X58185000Y-40876260D01*
X58242068Y-41163158D01*
X58354010Y-41433411D01*
X58516525Y-41676632D01*
X58648380Y-41808487D01*
X58575820Y-41830498D01*
X58465506Y-41889463D01*
X58368815Y-41968815D01*
X58289463Y-42065506D01*
X58230498Y-42175820D01*
X58194188Y-42295518D01*
X58181928Y-42420000D01*
X58181928Y-44120000D01*
X58194188Y-44244482D01*
X58230498Y-44364180D01*
X58289463Y-44474494D01*
X58368815Y-44571185D01*
X58465506Y-44650537D01*
X58575820Y-44709502D01*
X58695518Y-44745812D01*
X58820000Y-44758072D01*
X60520000Y-44758072D01*
X60644482Y-44745812D01*
X60764180Y-44709502D01*
X60874494Y-44650537D01*
X60971185Y-44571185D01*
X61050537Y-44474494D01*
X61109502Y-44364180D01*
X61131513Y-44291620D01*
X61263368Y-44423475D01*
X61506589Y-44585990D01*
X61776842Y-44697932D01*
X62063740Y-44755000D01*
X62356260Y-44755000D01*
X62576408Y-44711209D01*
X63055198Y-45190000D01*
X55837323Y-45190000D01*
X55800000Y-45186324D01*
X55762677Y-45190000D01*
X55762667Y-45190000D01*
X55651014Y-45200997D01*
X55507753Y-45244454D01*
X55375724Y-45315026D01*
X55259999Y-45409999D01*
X55236201Y-45438997D01*
X53238998Y-47436201D01*
X53210000Y-47459999D01*
X53186202Y-47488997D01*
X53186201Y-47488998D01*
X53115026Y-47575724D01*
X53044454Y-47707754D01*
X53021031Y-47784973D01*
X53000998Y-47851014D01*
X52998564Y-47875724D01*
X52986324Y-48000000D01*
X52990001Y-48037332D01*
X52990000Y-56046289D01*
X52946063Y-56090226D01*
X52832795Y-56259744D01*
X52754774Y-56448102D01*
X52715000Y-56648061D01*
X52715000Y-56851939D01*
X52754774Y-57051898D01*
X52832795Y-57240256D01*
X52946063Y-57409774D01*
X53090226Y-57553937D01*
X53259744Y-57667205D01*
X53334930Y-57698348D01*
X53259808Y-57738502D01*
X53178309Y-57792958D01*
X53081618Y-57872310D01*
X53012310Y-57941618D01*
X52932958Y-58038309D01*
X52878502Y-58119808D01*
X52819536Y-58230125D01*
X52782027Y-58320681D01*
X52745718Y-58440377D01*
X52726596Y-58536510D01*
X52714336Y-58660991D01*
X52714336Y-58685550D01*
X52711928Y-58710000D01*
X52711928Y-59210000D01*
X52714336Y-59234450D01*
X52714336Y-59259009D01*
X52726596Y-59383490D01*
X52745718Y-59479623D01*
X52782027Y-59599319D01*
X52819536Y-59689875D01*
X52878502Y-59800192D01*
X52932958Y-59881691D01*
X53012310Y-59978382D01*
X53081618Y-60047690D01*
X53090001Y-60054569D01*
X53090000Y-60835199D01*
X52888998Y-61036201D01*
X52860000Y-61059999D01*
X52836202Y-61088997D01*
X52836201Y-61088998D01*
X52765026Y-61175724D01*
X52694454Y-61307754D01*
X52674705Y-61372860D01*
X52650998Y-61451014D01*
X52648697Y-61474376D01*
X52636324Y-61600000D01*
X52640001Y-61637332D01*
X52640000Y-75162678D01*
X52636324Y-75200000D01*
X52640000Y-75237322D01*
X52640000Y-75237332D01*
X52650997Y-75348985D01*
X52674577Y-75426719D01*
X52694454Y-75492246D01*
X52765026Y-75624276D01*
X52794088Y-75659688D01*
X52859999Y-75740001D01*
X52889003Y-75763804D01*
X56714313Y-79589115D01*
X56673158Y-79572068D01*
X56386260Y-79515000D01*
X56093740Y-79515000D01*
X55806842Y-79572068D01*
X55536589Y-79684010D01*
X55293368Y-79846525D01*
X55161513Y-79978380D01*
X55139502Y-79905820D01*
X55080537Y-79795506D01*
X55001185Y-79698815D01*
X54904494Y-79619463D01*
X54794180Y-79560498D01*
X54674482Y-79524188D01*
X54550000Y-79511928D01*
X53985750Y-79515000D01*
X53827000Y-79673750D01*
X53827000Y-80873000D01*
X53847000Y-80873000D01*
X53847000Y-81127000D01*
X53827000Y-81127000D01*
X53827000Y-82326250D01*
X53985750Y-82485000D01*
X54550000Y-82488072D01*
X54674482Y-82475812D01*
X54794180Y-82439502D01*
X54904494Y-82380537D01*
X55001185Y-82301185D01*
X55080537Y-82204494D01*
X55139502Y-82094180D01*
X55161513Y-82021620D01*
X55293368Y-82153475D01*
X55536589Y-82315990D01*
X55806842Y-82427932D01*
X56093740Y-82485000D01*
X56386260Y-82485000D01*
X56673158Y-82427932D01*
X56943411Y-82315990D01*
X57088218Y-82219233D01*
X57090000Y-82237322D01*
X57090000Y-82237332D01*
X57100997Y-82348985D01*
X57135482Y-82462668D01*
X57144454Y-82492246D01*
X57215026Y-82624276D01*
X57242119Y-82657288D01*
X57309999Y-82740001D01*
X57339002Y-82763803D01*
X57665000Y-83089801D01*
X57665000Y-83151939D01*
X57704774Y-83351898D01*
X57782795Y-83540256D01*
X57896063Y-83709774D01*
X58040226Y-83853937D01*
X58209744Y-83967205D01*
X58398102Y-84045226D01*
X58598061Y-84085000D01*
X58801939Y-84085000D01*
X59001898Y-84045226D01*
X59190256Y-83967205D01*
X59359774Y-83853937D01*
X59503937Y-83709774D01*
X59617205Y-83540256D01*
X59695226Y-83351898D01*
X59729152Y-83181339D01*
X59733155Y-83181731D01*
X59733163Y-83181731D01*
X59766353Y-83185000D01*
X62233647Y-83185000D01*
X62267426Y-83181673D01*
X62275221Y-83181673D01*
X62284733Y-83180673D01*
X62401104Y-83167620D01*
X62461831Y-83154712D01*
X62522737Y-83142652D01*
X62531874Y-83139823D01*
X62643492Y-83104415D01*
X62667426Y-83094157D01*
X62673386Y-83098139D01*
X62837292Y-83166031D01*
X63011294Y-83200642D01*
X63188706Y-83200642D01*
X63362708Y-83166031D01*
X63400000Y-83150584D01*
X63437292Y-83166031D01*
X63611294Y-83200642D01*
X63788706Y-83200642D01*
X63962708Y-83166031D01*
X64000000Y-83150584D01*
X64037292Y-83166031D01*
X64211294Y-83200642D01*
X64388706Y-83200642D01*
X64562708Y-83166031D01*
X64726614Y-83098139D01*
X64732631Y-83094118D01*
X64764236Y-83107664D01*
X64773369Y-83110491D01*
X64773375Y-83110493D01*
X64885474Y-83144337D01*
X64946378Y-83156396D01*
X65007103Y-83169304D01*
X65016614Y-83170304D01*
X65133156Y-83181731D01*
X65133163Y-83181731D01*
X65166353Y-83185000D01*
X84733647Y-83185000D01*
X84767426Y-83181673D01*
X84775221Y-83181673D01*
X84784733Y-83180673D01*
X84901104Y-83167620D01*
X84961831Y-83154712D01*
X85022737Y-83142652D01*
X85031874Y-83139823D01*
X85143492Y-83104415D01*
X85167426Y-83094157D01*
X85173386Y-83098139D01*
X85337292Y-83166031D01*
X85511294Y-83200642D01*
X85688706Y-83200642D01*
X85862708Y-83166031D01*
X85900000Y-83150584D01*
X85937292Y-83166031D01*
X86111294Y-83200642D01*
X86288706Y-83200642D01*
X86462708Y-83166031D01*
X86500000Y-83150584D01*
X86537292Y-83166031D01*
X86711294Y-83200642D01*
X86888706Y-83200642D01*
X87062708Y-83166031D01*
X87226614Y-83098139D01*
X87232631Y-83094118D01*
X87264236Y-83107664D01*
X87273369Y-83110491D01*
X87273375Y-83110493D01*
X87385474Y-83144337D01*
X87446378Y-83156396D01*
X87507103Y-83169304D01*
X87516614Y-83170304D01*
X87633156Y-83181731D01*
X87633163Y-83181731D01*
X87666353Y-83185000D01*
X90233647Y-83185000D01*
X90262955Y-83182113D01*
X90269066Y-83182156D01*
X90278585Y-83181223D01*
X90472682Y-83160822D01*
X90533496Y-83148339D01*
X90594481Y-83136705D01*
X90603637Y-83133941D01*
X90715000Y-83099469D01*
X90715000Y-83151939D01*
X90754774Y-83351898D01*
X90832795Y-83540256D01*
X90946063Y-83709774D01*
X91090226Y-83853937D01*
X91259744Y-83967205D01*
X91448102Y-84045226D01*
X91648061Y-84085000D01*
X91851939Y-84085000D01*
X92051898Y-84045226D01*
X92240256Y-83967205D01*
X92409774Y-83853937D01*
X92553937Y-83709774D01*
X92667205Y-83540256D01*
X92745226Y-83351898D01*
X92785000Y-83151939D01*
X92785000Y-82948061D01*
X92745226Y-82748102D01*
X92667205Y-82559744D01*
X92553937Y-82390226D01*
X92510000Y-82346289D01*
X92510000Y-75796105D01*
X92525518Y-75800812D01*
X92650000Y-75813072D01*
X93114250Y-75810000D01*
X93273000Y-75651250D01*
X93273000Y-74777000D01*
X93527000Y-74777000D01*
X93527000Y-75651250D01*
X93685750Y-75810000D01*
X94150000Y-75813072D01*
X94274482Y-75800812D01*
X94394180Y-75764502D01*
X94504494Y-75705537D01*
X94601185Y-75626185D01*
X94680537Y-75529494D01*
X94739502Y-75419180D01*
X94775812Y-75299482D01*
X94788072Y-75175000D01*
X94785000Y-74935750D01*
X94626250Y-74777000D01*
X93527000Y-74777000D01*
X93273000Y-74777000D01*
X93253000Y-74777000D01*
X93253000Y-74540000D01*
X93681979Y-74540000D01*
X93852400Y-74523215D01*
X93853109Y-74523000D01*
X94626250Y-74523000D01*
X94785000Y-74364250D01*
X94788072Y-74125000D01*
X94775812Y-74000518D01*
X94739502Y-73880820D01*
X94704907Y-73816098D01*
X94768215Y-73607400D01*
X94790612Y-73380000D01*
X94768215Y-73152600D01*
X94701885Y-72933940D01*
X94600895Y-72745000D01*
X94701885Y-72556060D01*
X94768215Y-72337400D01*
X94790612Y-72110000D01*
X94768215Y-71882600D01*
X94701885Y-71663940D01*
X94594171Y-71462421D01*
X94449212Y-71285788D01*
X94272579Y-71140829D01*
X94160000Y-71080654D01*
X94160000Y-71003711D01*
X94203937Y-70959774D01*
X94317205Y-70790256D01*
X94395226Y-70601898D01*
X94435000Y-70401939D01*
X94435000Y-70198061D01*
X94395226Y-69998102D01*
X94317205Y-69809744D01*
X94203937Y-69640226D01*
X94059774Y-69496063D01*
X93911365Y-69396899D01*
X95889706Y-69396899D01*
X95940328Y-79065771D01*
X95958767Y-79243441D01*
X96029149Y-79471161D01*
X96142605Y-79680775D01*
X96294774Y-79864228D01*
X96479811Y-80014468D01*
X96690601Y-80125723D01*
X96919046Y-80193717D01*
X97156365Y-80215837D01*
X97393441Y-80191233D01*
X97621161Y-80120851D01*
X97830775Y-80007395D01*
X98014228Y-79855226D01*
X98164468Y-79670190D01*
X98275723Y-79459399D01*
X98343717Y-79230954D01*
X98360294Y-79053101D01*
X98358332Y-78678166D01*
X104951439Y-78678166D01*
X104986550Y-78891588D01*
X105190826Y-78982458D01*
X105408905Y-79031731D01*
X105632406Y-79037511D01*
X105852740Y-78999577D01*
X106061440Y-78919387D01*
X106113450Y-78891588D01*
X106148561Y-78678166D01*
X105550000Y-78079605D01*
X104951439Y-78678166D01*
X98358332Y-78678166D01*
X98354689Y-77982406D01*
X104412489Y-77982406D01*
X104450423Y-78202740D01*
X104530613Y-78411440D01*
X104558412Y-78463450D01*
X104771834Y-78498561D01*
X105370395Y-77900000D01*
X105729605Y-77900000D01*
X106328166Y-78498561D01*
X106541588Y-78463450D01*
X106632458Y-78259174D01*
X106681731Y-78041095D01*
X106687511Y-77817594D01*
X106673845Y-77738212D01*
X107715000Y-77738212D01*
X107715000Y-77961788D01*
X107758617Y-78181067D01*
X107844176Y-78387624D01*
X107968388Y-78573520D01*
X108126480Y-78731612D01*
X108312376Y-78855824D01*
X108518933Y-78941383D01*
X108738212Y-78985000D01*
X108961788Y-78985000D01*
X109181067Y-78941383D01*
X109387624Y-78855824D01*
X109573520Y-78731612D01*
X109731612Y-78573520D01*
X109855824Y-78387624D01*
X109941383Y-78181067D01*
X109985000Y-77961788D01*
X109985000Y-77738212D01*
X109941383Y-77518933D01*
X109855824Y-77312376D01*
X109731612Y-77126480D01*
X109573520Y-76968388D01*
X109387624Y-76844176D01*
X109181067Y-76758617D01*
X108961788Y-76715000D01*
X108738212Y-76715000D01*
X108518933Y-76758617D01*
X108312376Y-76844176D01*
X108126480Y-76968388D01*
X107968388Y-77126480D01*
X107844176Y-77312376D01*
X107758617Y-77518933D01*
X107715000Y-77738212D01*
X106673845Y-77738212D01*
X106649577Y-77597260D01*
X106569387Y-77388560D01*
X106541588Y-77336550D01*
X106328166Y-77301439D01*
X105729605Y-77900000D01*
X105370395Y-77900000D01*
X104771834Y-77301439D01*
X104558412Y-77336550D01*
X104467542Y-77540826D01*
X104418269Y-77758905D01*
X104412489Y-77982406D01*
X98354689Y-77982406D01*
X98350184Y-77121834D01*
X104951439Y-77121834D01*
X105550000Y-77720395D01*
X106148561Y-77121834D01*
X106113450Y-76908412D01*
X105909174Y-76817542D01*
X105691095Y-76768269D01*
X105467594Y-76762489D01*
X105247260Y-76800423D01*
X105038560Y-76880613D01*
X104986550Y-76908412D01*
X104951439Y-77121834D01*
X98350184Y-77121834D01*
X98309672Y-69384229D01*
X98291233Y-69206559D01*
X98220851Y-68978839D01*
X98107395Y-68769225D01*
X97955226Y-68585772D01*
X97770189Y-68435532D01*
X97559399Y-68324277D01*
X97330954Y-68256283D01*
X97093635Y-68234163D01*
X96856559Y-68258767D01*
X96628839Y-68329149D01*
X96419225Y-68442605D01*
X96235772Y-68594774D01*
X96085532Y-68779811D01*
X95974277Y-68990601D01*
X95906283Y-69219046D01*
X95889706Y-69396899D01*
X93911365Y-69396899D01*
X93890256Y-69382795D01*
X93701898Y-69304774D01*
X93501939Y-69265000D01*
X93298061Y-69265000D01*
X93098102Y-69304774D01*
X92909744Y-69382795D01*
X92740226Y-69496063D01*
X92710000Y-69526289D01*
X92710000Y-67328391D01*
X93772400Y-66265991D01*
X93745000Y-66403740D01*
X93745000Y-66696260D01*
X93802068Y-66983158D01*
X93914010Y-67253411D01*
X94076525Y-67496632D01*
X94283368Y-67703475D01*
X94526589Y-67865990D01*
X94796842Y-67977932D01*
X95083740Y-68035000D01*
X95376260Y-68035000D01*
X95663158Y-67977932D01*
X95933411Y-67865990D01*
X96176632Y-67703475D01*
X96383475Y-67496632D01*
X96505195Y-67314466D01*
X96574822Y-67431355D01*
X96769731Y-67647588D01*
X97003080Y-67821641D01*
X97265901Y-67946825D01*
X97413110Y-67991476D01*
X97643000Y-67870155D01*
X97643000Y-66677000D01*
X97623000Y-66677000D01*
X97623000Y-66423000D01*
X97643000Y-66423000D01*
X97643000Y-65229845D01*
X97413110Y-65108524D01*
X97265901Y-65153175D01*
X97003080Y-65278359D01*
X96769731Y-65452412D01*
X96574822Y-65668645D01*
X96505195Y-65785534D01*
X96383475Y-65603368D01*
X96176632Y-65396525D01*
X95990000Y-65271822D01*
X95990000Y-64838072D01*
X97050000Y-64838072D01*
X97174482Y-64825812D01*
X97294180Y-64789502D01*
X97404494Y-64730537D01*
X97501185Y-64651185D01*
X97580537Y-64554494D01*
X97639502Y-64444180D01*
X97675812Y-64324482D01*
X97688072Y-64200000D01*
X97688072Y-63338212D01*
X97815000Y-63338212D01*
X97815000Y-63561788D01*
X97858617Y-63781067D01*
X97944176Y-63987624D01*
X98068388Y-64173520D01*
X98226480Y-64331612D01*
X98290001Y-64374055D01*
X98290001Y-65160749D01*
X98274099Y-65153175D01*
X98126890Y-65108524D01*
X97897000Y-65229845D01*
X97897000Y-66423000D01*
X97917000Y-66423000D01*
X97917000Y-66677000D01*
X97897000Y-66677000D01*
X97897000Y-67870155D01*
X98126890Y-67991476D01*
X98274099Y-67946825D01*
X98290000Y-67939251D01*
X98290000Y-67962677D01*
X98286324Y-68000000D01*
X98290000Y-68037322D01*
X98290000Y-68037332D01*
X98300997Y-68148985D01*
X98335788Y-68263677D01*
X98344454Y-68292246D01*
X98415026Y-68424276D01*
X98431358Y-68444176D01*
X98509999Y-68540001D01*
X98539003Y-68563804D01*
X100265000Y-70289802D01*
X100265000Y-70351939D01*
X100304774Y-70551898D01*
X100382795Y-70740256D01*
X100496063Y-70909774D01*
X100640226Y-71053937D01*
X100809744Y-71167205D01*
X100998102Y-71245226D01*
X101198061Y-71285000D01*
X101401939Y-71285000D01*
X101601898Y-71245226D01*
X101790256Y-71167205D01*
X101959774Y-71053937D01*
X102103937Y-70909774D01*
X102217205Y-70740256D01*
X102295226Y-70551898D01*
X102335000Y-70351939D01*
X102335000Y-70148061D01*
X102295226Y-69948102D01*
X102217205Y-69759744D01*
X102103937Y-69590226D01*
X101959774Y-69446063D01*
X101790256Y-69332795D01*
X101601898Y-69254774D01*
X101401939Y-69215000D01*
X101339802Y-69215000D01*
X100059913Y-67935112D01*
X100183000Y-67870155D01*
X100183000Y-66677000D01*
X100163000Y-66677000D01*
X100163000Y-66423000D01*
X100183000Y-66423000D01*
X100183000Y-65229845D01*
X100437000Y-65229845D01*
X100437000Y-66423000D01*
X100457000Y-66423000D01*
X100457000Y-66677000D01*
X100437000Y-66677000D01*
X100437000Y-67870155D01*
X100666890Y-67991476D01*
X100814099Y-67946825D01*
X101076920Y-67821641D01*
X101310269Y-67647588D01*
X101386034Y-67563534D01*
X101410498Y-67644180D01*
X101469463Y-67754494D01*
X101548815Y-67851185D01*
X101645506Y-67930537D01*
X101755820Y-67989502D01*
X101875518Y-68025812D01*
X102000000Y-68038072D01*
X103700000Y-68038072D01*
X103824482Y-68025812D01*
X103944180Y-67989502D01*
X104054494Y-67930537D01*
X104151185Y-67851185D01*
X104230537Y-67754494D01*
X104289502Y-67644180D01*
X104325812Y-67524482D01*
X104338072Y-67400000D01*
X104338072Y-65700000D01*
X104325812Y-65575518D01*
X104289502Y-65455820D01*
X104230537Y-65345506D01*
X104151185Y-65248815D01*
X104054494Y-65169463D01*
X103944180Y-65110498D01*
X103824482Y-65074188D01*
X103700000Y-65061928D01*
X103660000Y-65061928D01*
X103660000Y-62353711D01*
X103703937Y-62309774D01*
X103817205Y-62140256D01*
X103895226Y-61951898D01*
X103935000Y-61751939D01*
X103935000Y-61548061D01*
X103895226Y-61348102D01*
X103817205Y-61159744D01*
X103703937Y-60990226D01*
X103559774Y-60846063D01*
X103390256Y-60732795D01*
X103201898Y-60654774D01*
X103001939Y-60615000D01*
X102798061Y-60615000D01*
X102598102Y-60654774D01*
X102409744Y-60732795D01*
X102240226Y-60846063D01*
X102096063Y-60990226D01*
X101982795Y-61159744D01*
X101904774Y-61348102D01*
X101865000Y-61548061D01*
X101865000Y-61751939D01*
X101904774Y-61951898D01*
X101982795Y-62140256D01*
X102096063Y-62309774D01*
X102140000Y-62353711D01*
X102140001Y-65061928D01*
X102000000Y-65061928D01*
X101875518Y-65074188D01*
X101755820Y-65110498D01*
X101645506Y-65169463D01*
X101548815Y-65248815D01*
X101469463Y-65345506D01*
X101410498Y-65455820D01*
X101386034Y-65536466D01*
X101310269Y-65452412D01*
X101076920Y-65278359D01*
X100814099Y-65153175D01*
X100666890Y-65108524D01*
X100437000Y-65229845D01*
X100183000Y-65229845D01*
X99953110Y-65108524D01*
X99810000Y-65151932D01*
X99810000Y-64195132D01*
X99831612Y-64173520D01*
X99955824Y-63987624D01*
X100041383Y-63781067D01*
X100085000Y-63561788D01*
X100085000Y-63389802D01*
X100211002Y-63263799D01*
X100240001Y-63240001D01*
X100334974Y-63124276D01*
X100405546Y-62992247D01*
X100449003Y-62848986D01*
X100460000Y-62737333D01*
X100460000Y-62737324D01*
X100463676Y-62700001D01*
X100460000Y-62662678D01*
X100460000Y-53753711D01*
X100503937Y-53709774D01*
X100617205Y-53540256D01*
X100695226Y-53351898D01*
X100735000Y-53151939D01*
X100735000Y-52948061D01*
X100695226Y-52748102D01*
X100617205Y-52559744D01*
X100503937Y-52390226D01*
X100359774Y-52246063D01*
X100190256Y-52132795D01*
X100001898Y-52054774D01*
X99801939Y-52015000D01*
X99598061Y-52015000D01*
X99398102Y-52054774D01*
X99209744Y-52132795D01*
X99040226Y-52246063D01*
X98896063Y-52390226D01*
X98782795Y-52559744D01*
X98704774Y-52748102D01*
X98665000Y-52948061D01*
X98665000Y-53151939D01*
X98704774Y-53351898D01*
X98782795Y-53540256D01*
X98896063Y-53709774D01*
X98940000Y-53753711D01*
X98940001Y-62315000D01*
X98838212Y-62315000D01*
X98618933Y-62358617D01*
X98412376Y-62444176D01*
X98226480Y-62568388D01*
X98068388Y-62726480D01*
X97944176Y-62912376D01*
X97858617Y-63118933D01*
X97815000Y-63338212D01*
X97688072Y-63338212D01*
X97688072Y-62400000D01*
X97675812Y-62275518D01*
X97639502Y-62155820D01*
X97580537Y-62045506D01*
X97501185Y-61948815D01*
X97404494Y-61869463D01*
X97294180Y-61810498D01*
X97260000Y-61800130D01*
X97260000Y-60803711D01*
X97303937Y-60759774D01*
X97417205Y-60590256D01*
X97495226Y-60401898D01*
X97535000Y-60201939D01*
X97535000Y-59998061D01*
X97495226Y-59798102D01*
X97417205Y-59609744D01*
X97303937Y-59440226D01*
X97260000Y-59396289D01*
X97260000Y-58599870D01*
X97294180Y-58589502D01*
X97404494Y-58530537D01*
X97501185Y-58451185D01*
X97580537Y-58354494D01*
X97639502Y-58244180D01*
X97675812Y-58124482D01*
X97688072Y-58000000D01*
X97688072Y-56200000D01*
X97675812Y-56075518D01*
X97639502Y-55955820D01*
X97580537Y-55845506D01*
X97522674Y-55775000D01*
X97580537Y-55704494D01*
X97639502Y-55594180D01*
X97675812Y-55474482D01*
X97681014Y-55421664D01*
X97748061Y-55435000D01*
X97951939Y-55435000D01*
X98151898Y-55395226D01*
X98340256Y-55317205D01*
X98509774Y-55203937D01*
X98653937Y-55059774D01*
X98767205Y-54890256D01*
X98845226Y-54701898D01*
X98885000Y-54501939D01*
X98885000Y-54298061D01*
X98845226Y-54098102D01*
X98767205Y-53909744D01*
X98653937Y-53740226D01*
X98509774Y-53596063D01*
X98340256Y-53482795D01*
X98151898Y-53404774D01*
X97951939Y-53365000D01*
X97748061Y-53365000D01*
X97662610Y-53381997D01*
X97639502Y-53305820D01*
X97580537Y-53195506D01*
X97501185Y-53098815D01*
X97404494Y-53019463D01*
X97294180Y-52960498D01*
X97260000Y-52950130D01*
X97260000Y-52503711D01*
X97303937Y-52459774D01*
X97417205Y-52290256D01*
X97495226Y-52101898D01*
X97535000Y-51901939D01*
X97535000Y-51698061D01*
X97495226Y-51498102D01*
X97417205Y-51309744D01*
X97303937Y-51140226D01*
X97260000Y-51096289D01*
X97260000Y-49749870D01*
X97294180Y-49739502D01*
X97404494Y-49680537D01*
X97501185Y-49601185D01*
X97580537Y-49504494D01*
X97639502Y-49394180D01*
X97675812Y-49274482D01*
X97688072Y-49150000D01*
X97688072Y-48198061D01*
X100865000Y-48198061D01*
X100865000Y-48401939D01*
X100904774Y-48601898D01*
X100982795Y-48790256D01*
X101096063Y-48959774D01*
X101140001Y-49003712D01*
X101140000Y-52287332D01*
X101140001Y-52287342D01*
X101140000Y-54862667D01*
X101140000Y-55062678D01*
X101136324Y-55100000D01*
X101140000Y-55137322D01*
X101140000Y-55137332D01*
X101150997Y-55248985D01*
X101191986Y-55384109D01*
X101194454Y-55392246D01*
X101265026Y-55524276D01*
X101295927Y-55561928D01*
X101359999Y-55640001D01*
X101389002Y-55663804D01*
X101965000Y-56239802D01*
X101965000Y-56301939D01*
X102004774Y-56501898D01*
X102082795Y-56690256D01*
X102196063Y-56859774D01*
X102340226Y-57003937D01*
X102509744Y-57117205D01*
X102698102Y-57195226D01*
X102898061Y-57235000D01*
X103101939Y-57235000D01*
X103301898Y-57195226D01*
X103490256Y-57117205D01*
X103659774Y-57003937D01*
X103803937Y-56859774D01*
X103917205Y-56690256D01*
X103995226Y-56501898D01*
X104035000Y-56301939D01*
X104035000Y-56098061D01*
X103995226Y-55898102D01*
X103917205Y-55709744D01*
X103803937Y-55540226D01*
X103659774Y-55396063D01*
X103490256Y-55282795D01*
X103301898Y-55204774D01*
X103101939Y-55165000D01*
X103039802Y-55165000D01*
X102660000Y-54785199D01*
X102660000Y-49003711D01*
X102703937Y-48959774D01*
X102817205Y-48790256D01*
X102895226Y-48601898D01*
X102935000Y-48401939D01*
X102935000Y-48198061D01*
X102895226Y-47998102D01*
X102817205Y-47809744D01*
X102703937Y-47640226D01*
X102559774Y-47496063D01*
X102390256Y-47382795D01*
X102201898Y-47304774D01*
X102001939Y-47265000D01*
X101798061Y-47265000D01*
X101598102Y-47304774D01*
X101409744Y-47382795D01*
X101240226Y-47496063D01*
X101096063Y-47640226D01*
X100982795Y-47809744D01*
X100904774Y-47998102D01*
X100865000Y-48198061D01*
X97688072Y-48198061D01*
X97688072Y-47350000D01*
X97675812Y-47225518D01*
X97639502Y-47105820D01*
X97580537Y-46995506D01*
X97501185Y-46898815D01*
X97404494Y-46819463D01*
X97294180Y-46760498D01*
X97174482Y-46724188D01*
X97050000Y-46711928D01*
X95950000Y-46711928D01*
X95825518Y-46724188D01*
X95705820Y-46760498D01*
X95595506Y-46819463D01*
X95498815Y-46898815D01*
X95419463Y-46995506D01*
X95360498Y-47105820D01*
X95324188Y-47225518D01*
X95311928Y-47350000D01*
X95311928Y-49150000D01*
X95324188Y-49274482D01*
X95360498Y-49394180D01*
X95419463Y-49504494D01*
X95498815Y-49601185D01*
X95595506Y-49680537D01*
X95705820Y-49739502D01*
X95740000Y-49749871D01*
X95740001Y-51096288D01*
X95696063Y-51140226D01*
X95582795Y-51309744D01*
X95504774Y-51498102D01*
X95465000Y-51698061D01*
X95465000Y-51901939D01*
X95504774Y-52101898D01*
X95582795Y-52290256D01*
X95696063Y-52459774D01*
X95740001Y-52503712D01*
X95740001Y-52950129D01*
X95705820Y-52960498D01*
X95595506Y-53019463D01*
X95498815Y-53098815D01*
X95419463Y-53195506D01*
X95360498Y-53305820D01*
X95324188Y-53425518D01*
X95311928Y-53550000D01*
X95311928Y-55350000D01*
X95324188Y-55474482D01*
X95360498Y-55594180D01*
X95419463Y-55704494D01*
X95477326Y-55775000D01*
X95419463Y-55845506D01*
X95360498Y-55955820D01*
X95324188Y-56075518D01*
X95311928Y-56200000D01*
X95311928Y-57800350D01*
X95201898Y-57754774D01*
X95001939Y-57715000D01*
X94798061Y-57715000D01*
X94598102Y-57754774D01*
X94409744Y-57832795D01*
X94240226Y-57946063D01*
X94096063Y-58090226D01*
X93982795Y-58259744D01*
X93904774Y-58448102D01*
X93865000Y-58648061D01*
X93865000Y-58851939D01*
X93904774Y-59051898D01*
X93982795Y-59240256D01*
X94096063Y-59409774D01*
X94140001Y-59453712D01*
X94140000Y-63748788D01*
X93986583Y-63902205D01*
X93985000Y-63585750D01*
X93826250Y-63427000D01*
X92927000Y-63427000D01*
X92927000Y-64676250D01*
X93069769Y-64819019D01*
X91885000Y-66003789D01*
X91885000Y-64721915D01*
X91895506Y-64730537D01*
X92005820Y-64789502D01*
X92125518Y-64825812D01*
X92250000Y-64838072D01*
X92514250Y-64835000D01*
X92673000Y-64676250D01*
X92673000Y-63427000D01*
X92653000Y-63427000D01*
X92653000Y-63173000D01*
X92673000Y-63173000D01*
X92673000Y-61923750D01*
X92927000Y-61923750D01*
X92927000Y-63173000D01*
X93826250Y-63173000D01*
X93985000Y-63014250D01*
X93988072Y-62400000D01*
X93975812Y-62275518D01*
X93939502Y-62155820D01*
X93880537Y-62045506D01*
X93801185Y-61948815D01*
X93704494Y-61869463D01*
X93594180Y-61810498D01*
X93474482Y-61774188D01*
X93350000Y-61761928D01*
X93085750Y-61765000D01*
X92927000Y-61923750D01*
X92673000Y-61923750D01*
X92514250Y-61765000D01*
X92250000Y-61761928D01*
X92125518Y-61774188D01*
X92005820Y-61810498D01*
X91895506Y-61869463D01*
X91885000Y-61878085D01*
X91885000Y-58521915D01*
X91895506Y-58530537D01*
X92005820Y-58589502D01*
X92125518Y-58625812D01*
X92250000Y-58638072D01*
X92514250Y-58635000D01*
X92673000Y-58476250D01*
X92673000Y-57227000D01*
X92927000Y-57227000D01*
X92927000Y-58476250D01*
X93085750Y-58635000D01*
X93350000Y-58638072D01*
X93474482Y-58625812D01*
X93594180Y-58589502D01*
X93704494Y-58530537D01*
X93801185Y-58451185D01*
X93880537Y-58354494D01*
X93939502Y-58244180D01*
X93975812Y-58124482D01*
X93988072Y-58000000D01*
X93985000Y-57385750D01*
X93826250Y-57227000D01*
X92927000Y-57227000D01*
X92673000Y-57227000D01*
X92653000Y-57227000D01*
X92653000Y-56973000D01*
X92673000Y-56973000D01*
X92673000Y-54577000D01*
X92927000Y-54577000D01*
X92927000Y-56973000D01*
X93826250Y-56973000D01*
X93985000Y-56814250D01*
X93988072Y-56200000D01*
X93975812Y-56075518D01*
X93939502Y-55955820D01*
X93880537Y-55845506D01*
X93822674Y-55775000D01*
X93880537Y-55704494D01*
X93939502Y-55594180D01*
X93975812Y-55474482D01*
X93988072Y-55350000D01*
X93985000Y-54735750D01*
X93826250Y-54577000D01*
X92927000Y-54577000D01*
X92673000Y-54577000D01*
X92653000Y-54577000D01*
X92653000Y-54323000D01*
X92673000Y-54323000D01*
X92673000Y-53073750D01*
X92927000Y-53073750D01*
X92927000Y-54323000D01*
X93826250Y-54323000D01*
X93985000Y-54164250D01*
X93988072Y-53550000D01*
X93975812Y-53425518D01*
X93939502Y-53305820D01*
X93880537Y-53195506D01*
X93801185Y-53098815D01*
X93704494Y-53019463D01*
X93594180Y-52960498D01*
X93474482Y-52924188D01*
X93350000Y-52911928D01*
X93085750Y-52915000D01*
X92927000Y-53073750D01*
X92673000Y-53073750D01*
X92514250Y-52915000D01*
X92250000Y-52911928D01*
X92125518Y-52924188D01*
X92005820Y-52960498D01*
X91895506Y-53019463D01*
X91885000Y-53028085D01*
X91885000Y-50966353D01*
X91882113Y-50937045D01*
X91882156Y-50930933D01*
X91881223Y-50921415D01*
X91860822Y-50727318D01*
X91848339Y-50666504D01*
X91836705Y-50605519D01*
X91833941Y-50596363D01*
X91776229Y-50409925D01*
X91752170Y-50352692D01*
X91728913Y-50295127D01*
X91724423Y-50286682D01*
X91631598Y-50115006D01*
X91596878Y-50063532D01*
X91562883Y-50011582D01*
X91556838Y-50004170D01*
X91432435Y-49853793D01*
X91388362Y-49810027D01*
X91344943Y-49765689D01*
X91337574Y-49759592D01*
X91186332Y-49636242D01*
X91134614Y-49601881D01*
X91083393Y-49566809D01*
X91074980Y-49562260D01*
X90902657Y-49470635D01*
X90845261Y-49446978D01*
X90788193Y-49422519D01*
X90779057Y-49419690D01*
X90592220Y-49363281D01*
X90531302Y-49351219D01*
X90470590Y-49338314D01*
X90461078Y-49337314D01*
X90266845Y-49318269D01*
X90266837Y-49318269D01*
X90233647Y-49315000D01*
X87166353Y-49315000D01*
X87132574Y-49318327D01*
X87124779Y-49318327D01*
X87115267Y-49319327D01*
X86998897Y-49332380D01*
X86938203Y-49345281D01*
X86877263Y-49357348D01*
X86868126Y-49360176D01*
X86756508Y-49395585D01*
X86732574Y-49405843D01*
X86726614Y-49401861D01*
X86562708Y-49333969D01*
X86388706Y-49299358D01*
X86211294Y-49299358D01*
X86037292Y-49333969D01*
X86000000Y-49349416D01*
X85962708Y-49333969D01*
X85788706Y-49299358D01*
X85611294Y-49299358D01*
X85437292Y-49333969D01*
X85400000Y-49349416D01*
X85362708Y-49333969D01*
X85188706Y-49299358D01*
X85011294Y-49299358D01*
X84837292Y-49333969D01*
X84673386Y-49401861D01*
X84667369Y-49405882D01*
X84635764Y-49392336D01*
X84626631Y-49389509D01*
X84626625Y-49389507D01*
X84514526Y-49355663D01*
X84453630Y-49343605D01*
X84392898Y-49330696D01*
X84383386Y-49329696D01*
X84266845Y-49318269D01*
X84266837Y-49318269D01*
X84233647Y-49315000D01*
X81418892Y-49315000D01*
X81442492Y-49237201D01*
X81451080Y-49150000D01*
X91611928Y-49150000D01*
X91624188Y-49274482D01*
X91660498Y-49394180D01*
X91719463Y-49504494D01*
X91798815Y-49601185D01*
X91895506Y-49680537D01*
X92005820Y-49739502D01*
X92125518Y-49775812D01*
X92250000Y-49788072D01*
X92514250Y-49785000D01*
X92673000Y-49626250D01*
X92673000Y-48377000D01*
X92927000Y-48377000D01*
X92927000Y-49626250D01*
X93085750Y-49785000D01*
X93350000Y-49788072D01*
X93474482Y-49775812D01*
X93594180Y-49739502D01*
X93704494Y-49680537D01*
X93801185Y-49601185D01*
X93880537Y-49504494D01*
X93939502Y-49394180D01*
X93975812Y-49274482D01*
X93988072Y-49150000D01*
X93985000Y-48535750D01*
X93826250Y-48377000D01*
X92927000Y-48377000D01*
X92673000Y-48377000D01*
X91773750Y-48377000D01*
X91615000Y-48535750D01*
X91611928Y-49150000D01*
X81451080Y-49150000D01*
X81465854Y-49000000D01*
X81442492Y-48762799D01*
X81373303Y-48534713D01*
X81260946Y-48324508D01*
X81109739Y-48140261D01*
X80925492Y-47989054D01*
X80715287Y-47876697D01*
X80487201Y-47807508D01*
X80309437Y-47790000D01*
X63881198Y-47790000D01*
X63441198Y-47350000D01*
X91611928Y-47350000D01*
X91615000Y-47964250D01*
X91773750Y-48123000D01*
X92673000Y-48123000D01*
X92673000Y-46873750D01*
X92927000Y-46873750D01*
X92927000Y-48123000D01*
X93826250Y-48123000D01*
X93985000Y-47964250D01*
X93988072Y-47350000D01*
X93975812Y-47225518D01*
X93939502Y-47105820D01*
X93880537Y-46995506D01*
X93801185Y-46898815D01*
X93704494Y-46819463D01*
X93594180Y-46760498D01*
X93474482Y-46724188D01*
X93350000Y-46711928D01*
X93085750Y-46715000D01*
X92927000Y-46873750D01*
X92673000Y-46873750D01*
X92514250Y-46715000D01*
X92250000Y-46711928D01*
X92125518Y-46724188D01*
X92005820Y-46760498D01*
X91895506Y-46819463D01*
X91798815Y-46898815D01*
X91719463Y-46995506D01*
X91660498Y-47105820D01*
X91624188Y-47225518D01*
X91611928Y-47350000D01*
X63441198Y-47350000D01*
X63212627Y-47121430D01*
X63174738Y-47075262D01*
X62990492Y-46924055D01*
X62780287Y-46811698D01*
X62552201Y-46742509D01*
X62529327Y-46740256D01*
X62315000Y-46719146D01*
X62314999Y-46719146D01*
X62077797Y-46742509D01*
X61849712Y-46811698D01*
X61639506Y-46924055D01*
X61501428Y-47037373D01*
X61501420Y-47037381D01*
X61455262Y-47075262D01*
X61417381Y-47121421D01*
X60748802Y-47790000D01*
X56440563Y-47790000D01*
X56262799Y-47807508D01*
X56034713Y-47876697D01*
X55824508Y-47989054D01*
X55640261Y-48140261D01*
X55489054Y-48324508D01*
X55376697Y-48534713D01*
X55307508Y-48762799D01*
X55284146Y-49000000D01*
X55307508Y-49237201D01*
X55376697Y-49465287D01*
X55489054Y-49675492D01*
X55615000Y-49828958D01*
X55615001Y-57571928D01*
X54650000Y-57571928D01*
X54525518Y-57584188D01*
X54525000Y-57584345D01*
X54524482Y-57584188D01*
X54400000Y-57571928D01*
X54382848Y-57571928D01*
X54409774Y-57553937D01*
X54553937Y-57409774D01*
X54667205Y-57240256D01*
X54745226Y-57051898D01*
X54785000Y-56851939D01*
X54785000Y-56648061D01*
X54745226Y-56448102D01*
X54667205Y-56259744D01*
X54553937Y-56090226D01*
X54510000Y-56046289D01*
X54510000Y-48314801D01*
X56114802Y-46710000D01*
X99236494Y-46710000D01*
X99254774Y-46801898D01*
X99332795Y-46990256D01*
X99446063Y-47159774D01*
X99590226Y-47303937D01*
X99759744Y-47417205D01*
X99948102Y-47495226D01*
X100148061Y-47535000D01*
X100351939Y-47535000D01*
X100551898Y-47495226D01*
X100740256Y-47417205D01*
X100909774Y-47303937D01*
X101053937Y-47159774D01*
X101167205Y-46990256D01*
X101245226Y-46801898D01*
X101285000Y-46601939D01*
X101285000Y-46398061D01*
X101245226Y-46198102D01*
X101188022Y-46060000D01*
X104732516Y-46060000D01*
X104715000Y-46148061D01*
X104715000Y-46351939D01*
X104754774Y-46551898D01*
X104832795Y-46740256D01*
X104946063Y-46909774D01*
X105090226Y-47053937D01*
X105175424Y-47110865D01*
X105046063Y-47240226D01*
X104932795Y-47409744D01*
X104854774Y-47598102D01*
X104839963Y-47672563D01*
X104801939Y-47665000D01*
X104598061Y-47665000D01*
X104398102Y-47704774D01*
X104209744Y-47782795D01*
X104040226Y-47896063D01*
X103896063Y-48040226D01*
X103782795Y-48209744D01*
X103704774Y-48398102D01*
X103665000Y-48598061D01*
X103665000Y-48801939D01*
X103704774Y-49001898D01*
X103782795Y-49190256D01*
X103896063Y-49359774D01*
X103940000Y-49403711D01*
X103940000Y-49512678D01*
X103936324Y-49550000D01*
X103940000Y-49587322D01*
X103940000Y-49587332D01*
X103950997Y-49698985D01*
X103991287Y-49831807D01*
X103994454Y-49842246D01*
X104065026Y-49974276D01*
X104090917Y-50005824D01*
X104159999Y-50090001D01*
X104189002Y-50113803D01*
X104530001Y-50454803D01*
X104530001Y-50490473D01*
X104401939Y-50465000D01*
X104198061Y-50465000D01*
X103998102Y-50504774D01*
X103809744Y-50582795D01*
X103640226Y-50696063D01*
X103496063Y-50840226D01*
X103382795Y-51009744D01*
X103304774Y-51198102D01*
X103265000Y-51398061D01*
X103265000Y-51601939D01*
X103304774Y-51801898D01*
X103382795Y-51990256D01*
X103496063Y-52159774D01*
X103540001Y-52203712D01*
X103540000Y-54782677D01*
X103536324Y-54820000D01*
X103540000Y-54857322D01*
X103540000Y-54857332D01*
X103550997Y-54968985D01*
X103590124Y-55097971D01*
X103594454Y-55112246D01*
X103665026Y-55244276D01*
X103701489Y-55288706D01*
X103759999Y-55360001D01*
X103789002Y-55383803D01*
X104530001Y-56124803D01*
X104530000Y-57607023D01*
X104484742Y-57662171D01*
X104411916Y-57798418D01*
X104367071Y-57946255D01*
X104351928Y-58100000D01*
X104351928Y-59750000D01*
X104367071Y-59903745D01*
X104411916Y-60051582D01*
X104484742Y-60187829D01*
X104582749Y-60307251D01*
X104702171Y-60405258D01*
X104838418Y-60478084D01*
X104986255Y-60522929D01*
X105140000Y-60538072D01*
X105440000Y-60538072D01*
X105574783Y-60524797D01*
X105554774Y-60573102D01*
X105515000Y-60773061D01*
X105515000Y-60976939D01*
X105554774Y-61176898D01*
X105632795Y-61365256D01*
X105746063Y-61534774D01*
X105890226Y-61678937D01*
X106059744Y-61792205D01*
X106248102Y-61870226D01*
X106448061Y-61910000D01*
X106651939Y-61910000D01*
X106851898Y-61870226D01*
X107040256Y-61792205D01*
X107209774Y-61678937D01*
X107353937Y-61534774D01*
X107467205Y-61365256D01*
X107545226Y-61176898D01*
X107585000Y-60976939D01*
X107585000Y-60773061D01*
X107545226Y-60573102D01*
X107524183Y-60522301D01*
X107526255Y-60522929D01*
X107680000Y-60538072D01*
X107980000Y-60538072D01*
X108133745Y-60522929D01*
X108281582Y-60478084D01*
X108340000Y-60446859D01*
X108340001Y-62285197D01*
X104989003Y-65636196D01*
X104959999Y-65659999D01*
X104904871Y-65727174D01*
X104865026Y-65775724D01*
X104855015Y-65794454D01*
X104794454Y-65907754D01*
X104750997Y-66051015D01*
X104740000Y-66162668D01*
X104740000Y-66162678D01*
X104736324Y-66200000D01*
X104740000Y-66237323D01*
X104740001Y-67162667D01*
X104740000Y-72346289D01*
X104696063Y-72390226D01*
X104582795Y-72559744D01*
X104504774Y-72748102D01*
X104465000Y-72948061D01*
X104465000Y-73151939D01*
X104504774Y-73351898D01*
X104582795Y-73540256D01*
X104696063Y-73709774D01*
X104840226Y-73853937D01*
X105009744Y-73967205D01*
X105198102Y-74045226D01*
X105398061Y-74085000D01*
X105601939Y-74085000D01*
X105801898Y-74045226D01*
X105990256Y-73967205D01*
X106159774Y-73853937D01*
X106303937Y-73709774D01*
X106417205Y-73540256D01*
X106495226Y-73351898D01*
X106535000Y-73151939D01*
X106535000Y-72948061D01*
X106495226Y-72748102D01*
X106417205Y-72559744D01*
X106303937Y-72390226D01*
X106260000Y-72346289D01*
X106260000Y-70099340D01*
X106664578Y-70099340D01*
X106664578Y-73497860D01*
X106676838Y-73622342D01*
X106713148Y-73742040D01*
X106772113Y-73852354D01*
X106851465Y-73949045D01*
X106948156Y-74028397D01*
X107058470Y-74087362D01*
X107178168Y-74123672D01*
X107302650Y-74135932D01*
X108900310Y-74135932D01*
X109024792Y-74123672D01*
X109144490Y-74087362D01*
X109254804Y-74028397D01*
X109351495Y-73949045D01*
X109430847Y-73852354D01*
X109489812Y-73742040D01*
X109526122Y-73622342D01*
X109538382Y-73497860D01*
X109538382Y-70099340D01*
X109526122Y-69974858D01*
X109489812Y-69855160D01*
X109430847Y-69744846D01*
X109351495Y-69648155D01*
X109254804Y-69568803D01*
X109144490Y-69509838D01*
X109024792Y-69473528D01*
X108900310Y-69461268D01*
X107302650Y-69461268D01*
X107178168Y-69473528D01*
X107058470Y-69509838D01*
X106948156Y-69568803D01*
X106851465Y-69648155D01*
X106772113Y-69744846D01*
X106713148Y-69855160D01*
X106676838Y-69974858D01*
X106664578Y-70099340D01*
X106260000Y-70099340D01*
X106260000Y-68901730D01*
X109364598Y-68901730D01*
X109376858Y-69026212D01*
X109413168Y-69145910D01*
X109472133Y-69256224D01*
X109551485Y-69352915D01*
X109648176Y-69432267D01*
X109758490Y-69491232D01*
X109878188Y-69527542D01*
X110002670Y-69539802D01*
X110216030Y-69536730D01*
X110374780Y-69377980D01*
X110374780Y-66728760D01*
X109526420Y-66728760D01*
X109367670Y-66887510D01*
X109364598Y-68901730D01*
X106260000Y-68901730D01*
X106260000Y-66514801D01*
X108473011Y-64301790D01*
X109364598Y-64301790D01*
X109367670Y-66316010D01*
X109526420Y-66474760D01*
X110374780Y-66474760D01*
X110374780Y-63825540D01*
X110216030Y-63666790D01*
X110002670Y-63663718D01*
X109878188Y-63675978D01*
X109758490Y-63712288D01*
X109648176Y-63771253D01*
X109551485Y-63850605D01*
X109472133Y-63947296D01*
X109413168Y-64057610D01*
X109376858Y-64177308D01*
X109364598Y-64301790D01*
X108473011Y-64301790D01*
X109611003Y-63163799D01*
X109640001Y-63140001D01*
X109734974Y-63024276D01*
X109805546Y-62892247D01*
X109849003Y-62748986D01*
X109860000Y-62637333D01*
X109860000Y-62637323D01*
X109863676Y-62600000D01*
X109860000Y-62562677D01*
X109860000Y-62534013D01*
X109879744Y-62547205D01*
X110068102Y-62625226D01*
X110268061Y-62665000D01*
X110471939Y-62665000D01*
X110671898Y-62625226D01*
X110860256Y-62547205D01*
X111029774Y-62433937D01*
X111173937Y-62289774D01*
X111287205Y-62120256D01*
X111365226Y-61931898D01*
X111405000Y-61731939D01*
X111405000Y-61528061D01*
X111365226Y-61328102D01*
X111287205Y-61139744D01*
X111173937Y-60970226D01*
X111130000Y-60926289D01*
X111130000Y-60446859D01*
X111188418Y-60478084D01*
X111336255Y-60522929D01*
X111490000Y-60538072D01*
X111790000Y-60538072D01*
X111943745Y-60522929D01*
X112091582Y-60478084D01*
X112225936Y-60406270D01*
X112255506Y-60430537D01*
X112365820Y-60489502D01*
X112485518Y-60525812D01*
X112610000Y-60538072D01*
X112624250Y-60535000D01*
X112783000Y-60376250D01*
X112783000Y-59052000D01*
X112763000Y-59052000D01*
X112763000Y-58798000D01*
X112783000Y-58798000D01*
X112783000Y-57473750D01*
X112624250Y-57315000D01*
X112610000Y-57311928D01*
X112485518Y-57324188D01*
X112365820Y-57360498D01*
X112255506Y-57419463D01*
X112225936Y-57443730D01*
X112091582Y-57371916D01*
X111943745Y-57327071D01*
X111790000Y-57311928D01*
X111490000Y-57311928D01*
X111336255Y-57327071D01*
X111188418Y-57371916D01*
X111052171Y-57444742D01*
X111005000Y-57483454D01*
X110957829Y-57444742D01*
X110821582Y-57371916D01*
X110673745Y-57327071D01*
X110520000Y-57311928D01*
X110220000Y-57311928D01*
X110066255Y-57327071D01*
X109918418Y-57371916D01*
X109782171Y-57444742D01*
X109735000Y-57483454D01*
X109687829Y-57444742D01*
X109551582Y-57371916D01*
X109485000Y-57351719D01*
X109485000Y-57298061D01*
X109445226Y-57098102D01*
X109367205Y-56909744D01*
X109253937Y-56740226D01*
X109109774Y-56596063D01*
X108940256Y-56482795D01*
X108751898Y-56404774D01*
X108590000Y-56372571D01*
X108590000Y-56204013D01*
X108609744Y-56217205D01*
X108798102Y-56295226D01*
X108998061Y-56335000D01*
X109201939Y-56335000D01*
X109401898Y-56295226D01*
X109590256Y-56217205D01*
X109759774Y-56103937D01*
X109903937Y-55959774D01*
X110017205Y-55790256D01*
X110095226Y-55601898D01*
X110100321Y-55576284D01*
X110220000Y-55588072D01*
X110520000Y-55588072D01*
X110673745Y-55572929D01*
X110821582Y-55528084D01*
X110957829Y-55455258D01*
X111005000Y-55416546D01*
X111052171Y-55455258D01*
X111188418Y-55528084D01*
X111336255Y-55572929D01*
X111490000Y-55588072D01*
X111763270Y-55588072D01*
X111843736Y-55668539D01*
X111782795Y-55759744D01*
X111704774Y-55948102D01*
X111665000Y-56148061D01*
X111665000Y-56351939D01*
X111704774Y-56551898D01*
X111782795Y-56740256D01*
X111896063Y-56909774D01*
X112040226Y-57053937D01*
X112209744Y-57167205D01*
X112398102Y-57245226D01*
X112598061Y-57285000D01*
X112801939Y-57285000D01*
X112933052Y-57258920D01*
X112939002Y-57263804D01*
X113092974Y-57417776D01*
X113037000Y-57473750D01*
X113037000Y-58798000D01*
X113057000Y-58798000D01*
X113057000Y-59052000D01*
X113037000Y-59052000D01*
X113037000Y-60376250D01*
X113195750Y-60535000D01*
X113210000Y-60538072D01*
X113334482Y-60525812D01*
X113454180Y-60489502D01*
X113564494Y-60430537D01*
X113661185Y-60351185D01*
X113740001Y-60255148D01*
X113740000Y-62846289D01*
X113696063Y-62890226D01*
X113582795Y-63059744D01*
X113504774Y-63248102D01*
X113465000Y-63448061D01*
X113465000Y-63651939D01*
X113504774Y-63851898D01*
X113582795Y-64040256D01*
X113696063Y-64209774D01*
X113840226Y-64353937D01*
X114009744Y-64467205D01*
X114198102Y-64545226D01*
X114398061Y-64585000D01*
X114601939Y-64585000D01*
X114801898Y-64545226D01*
X114990256Y-64467205D01*
X115159774Y-64353937D01*
X115303937Y-64209774D01*
X115417205Y-64040256D01*
X115495226Y-63851898D01*
X115535000Y-63651939D01*
X115535000Y-63448061D01*
X115495226Y-63248102D01*
X115417205Y-63059744D01*
X115303937Y-62890226D01*
X115260000Y-62846289D01*
X115260000Y-60058733D01*
X115348102Y-60095226D01*
X115548061Y-60135000D01*
X115615000Y-60135000D01*
X115615001Y-69461268D01*
X114099690Y-69461268D01*
X113975208Y-69473528D01*
X113855510Y-69509838D01*
X113745196Y-69568803D01*
X113708220Y-69599148D01*
X113708220Y-66542323D01*
X113690712Y-66364559D01*
X113635402Y-66182226D01*
X113635402Y-64301790D01*
X113623142Y-64177308D01*
X113586832Y-64057610D01*
X113527867Y-63947296D01*
X113448515Y-63850605D01*
X113351824Y-63771253D01*
X113241510Y-63712288D01*
X113121812Y-63675978D01*
X112997330Y-63663718D01*
X111999110Y-63663718D01*
X111874628Y-63675978D01*
X111754930Y-63712288D01*
X111644616Y-63771253D01*
X111547925Y-63850605D01*
X111500000Y-63909002D01*
X111452075Y-63850605D01*
X111355384Y-63771253D01*
X111245070Y-63712288D01*
X111125372Y-63675978D01*
X111000890Y-63663718D01*
X110787530Y-63666790D01*
X110628780Y-63825540D01*
X110628780Y-66474760D01*
X110648780Y-66474760D01*
X110648780Y-66728760D01*
X110628780Y-66728760D01*
X110628780Y-69377980D01*
X110787530Y-69536730D01*
X111000890Y-69539802D01*
X111125372Y-69527542D01*
X111245070Y-69491232D01*
X111288221Y-69468167D01*
X111288221Y-69950581D01*
X110836439Y-70402364D01*
X110790261Y-70440261D01*
X110639054Y-70624509D01*
X110526697Y-70834714D01*
X110457508Y-71062800D01*
X110440273Y-71237792D01*
X110434146Y-71300000D01*
X110440000Y-71359435D01*
X110440001Y-85348800D01*
X104998803Y-90790000D01*
X90940563Y-90790000D01*
X90762799Y-90807508D01*
X90534713Y-90876697D01*
X90324508Y-90989054D01*
X90140261Y-91140261D01*
X89989054Y-91324508D01*
X89876697Y-91534713D01*
X89807508Y-91762799D01*
X89784146Y-92000000D01*
X89807508Y-92237201D01*
X89876697Y-92465287D01*
X89989054Y-92675492D01*
X90140261Y-92859739D01*
X90324508Y-93010946D01*
X90534713Y-93123303D01*
X90762799Y-93192492D01*
X90940563Y-93210000D01*
X105440565Y-93210000D01*
X105500000Y-93215854D01*
X105559435Y-93210000D01*
X105559437Y-93210000D01*
X105737201Y-93192492D01*
X105965287Y-93123303D01*
X106175492Y-93010946D01*
X106359739Y-92859739D01*
X106397637Y-92813560D01*
X108409165Y-90802032D01*
X110790000Y-90802032D01*
X110790000Y-91197968D01*
X110867243Y-91586296D01*
X111018761Y-91952092D01*
X111238731Y-92281301D01*
X111518699Y-92561269D01*
X111847908Y-92781239D01*
X112213704Y-92932757D01*
X112602032Y-93010000D01*
X112997968Y-93010000D01*
X113386296Y-92932757D01*
X113752092Y-92781239D01*
X114081301Y-92561269D01*
X114361269Y-92281301D01*
X114581239Y-91952092D01*
X114732757Y-91586296D01*
X114810000Y-91197968D01*
X114810000Y-90802032D01*
X114732757Y-90413704D01*
X114581239Y-90047908D01*
X114361269Y-89718699D01*
X114081301Y-89438731D01*
X113752092Y-89218761D01*
X113386296Y-89067243D01*
X112997968Y-88990000D01*
X112602032Y-88990000D01*
X112213704Y-89067243D01*
X111847908Y-89218761D01*
X111518699Y-89438731D01*
X111238731Y-89718699D01*
X111018761Y-90047908D01*
X110867243Y-90413704D01*
X110790000Y-90802032D01*
X108409165Y-90802032D01*
X112463571Y-86747628D01*
X112509739Y-86709739D01*
X112600394Y-86599275D01*
X112660945Y-86525494D01*
X112708068Y-86437333D01*
X112773303Y-86315287D01*
X112842492Y-86087201D01*
X112860000Y-85909437D01*
X112860000Y-85909436D01*
X112865854Y-85850001D01*
X112860000Y-85790566D01*
X112860000Y-71801198D01*
X113311790Y-71349409D01*
X113357959Y-71311519D01*
X113461618Y-71185210D01*
X113461618Y-73497860D01*
X113473878Y-73622342D01*
X113510188Y-73742040D01*
X113569153Y-73852354D01*
X113648505Y-73949045D01*
X113745196Y-74028397D01*
X113855510Y-74087362D01*
X113975208Y-74123672D01*
X114099690Y-74135932D01*
X115615001Y-74135932D01*
X115615001Y-91466485D01*
X115567688Y-91949016D01*
X115437287Y-92380927D01*
X115225480Y-92779280D01*
X114940325Y-93128914D01*
X114592697Y-93416497D01*
X114195825Y-93631085D01*
X113764834Y-93764500D01*
X113284346Y-93815000D01*
X54333504Y-93815000D01*
X53850984Y-93767688D01*
X53419073Y-93637287D01*
X53020720Y-93425480D01*
X52671086Y-93140325D01*
X52383503Y-92792697D01*
X52168915Y-92395825D01*
X52035500Y-91964834D01*
X51985000Y-91484346D01*
X51985000Y-90802032D01*
X52790000Y-90802032D01*
X52790000Y-91197968D01*
X52867243Y-91586296D01*
X53018761Y-91952092D01*
X53238731Y-92281301D01*
X53518699Y-92561269D01*
X53847908Y-92781239D01*
X54213704Y-92932757D01*
X54602032Y-93010000D01*
X54997968Y-93010000D01*
X55386296Y-92932757D01*
X55752092Y-92781239D01*
X56081301Y-92561269D01*
X56361269Y-92281301D01*
X56581239Y-91952092D01*
X56732757Y-91586296D01*
X56810000Y-91197968D01*
X56810000Y-91091794D01*
X60520000Y-91091794D01*
X60520000Y-92308207D01*
X60537147Y-92482300D01*
X60604906Y-92705674D01*
X60714943Y-92911536D01*
X60863026Y-93091975D01*
X61043465Y-93240058D01*
X61249327Y-93350094D01*
X61472701Y-93417853D01*
X61705000Y-93440733D01*
X61937300Y-93417853D01*
X62160674Y-93350094D01*
X62366536Y-93240058D01*
X62546975Y-93091975D01*
X62695058Y-92911536D01*
X62805094Y-92705674D01*
X62872853Y-92482300D01*
X62890000Y-92308207D01*
X62890000Y-91091794D01*
X69160000Y-91091794D01*
X69160000Y-92308207D01*
X69177147Y-92482300D01*
X69244906Y-92705674D01*
X69354943Y-92911536D01*
X69503026Y-93091975D01*
X69683465Y-93240058D01*
X69889327Y-93350094D01*
X70112701Y-93417853D01*
X70345000Y-93440733D01*
X70577300Y-93417853D01*
X70800674Y-93350094D01*
X71006536Y-93240058D01*
X71186975Y-93091975D01*
X71335058Y-92911536D01*
X71445094Y-92705674D01*
X71512853Y-92482300D01*
X71530000Y-92308207D01*
X71530000Y-91091793D01*
X71512853Y-90917700D01*
X71445094Y-90694326D01*
X71352663Y-90521400D01*
X81634483Y-90521400D01*
X81652259Y-90759084D01*
X81716063Y-90988734D01*
X81823445Y-91201524D01*
X81970276Y-91389277D01*
X82150915Y-91544776D01*
X82358419Y-91662047D01*
X82584814Y-91736582D01*
X82762117Y-91758267D01*
X87026374Y-91858602D01*
X87100000Y-91865854D01*
X87204439Y-91855567D01*
X87309084Y-91847741D01*
X87322916Y-91843898D01*
X87337201Y-91842491D01*
X87437606Y-91812034D01*
X87538734Y-91783937D01*
X87551552Y-91777468D01*
X87565287Y-91773302D01*
X87657834Y-91723835D01*
X87751524Y-91676555D01*
X87762831Y-91667712D01*
X87775492Y-91660945D01*
X87856605Y-91594377D01*
X87939277Y-91529724D01*
X87987547Y-91473650D01*
X89051198Y-90410000D01*
X97309437Y-90410000D01*
X97487201Y-90392492D01*
X97715287Y-90323303D01*
X97925492Y-90210946D01*
X98109739Y-90059739D01*
X98260946Y-89875492D01*
X98373303Y-89665287D01*
X98442492Y-89437201D01*
X98465854Y-89200000D01*
X98442492Y-88962799D01*
X98373303Y-88734713D01*
X98260946Y-88524508D01*
X98109739Y-88340261D01*
X97925492Y-88189054D01*
X97715287Y-88076697D01*
X97487201Y-88007508D01*
X97309437Y-87990000D01*
X88609435Y-87990000D01*
X88550000Y-87984146D01*
X88490565Y-87990000D01*
X88490563Y-87990000D01*
X88312799Y-88007508D01*
X88084713Y-88076697D01*
X87874508Y-88189054D01*
X87690261Y-88340261D01*
X87652367Y-88386435D01*
X86610652Y-89428151D01*
X82819043Y-89338937D01*
X82640916Y-89352259D01*
X82411266Y-89416063D01*
X82198476Y-89523445D01*
X82010723Y-89670276D01*
X81855224Y-89850915D01*
X81737953Y-90058419D01*
X81663418Y-90284814D01*
X81634483Y-90521400D01*
X71352663Y-90521400D01*
X71335058Y-90488464D01*
X71186975Y-90308025D01*
X71006535Y-90159942D01*
X70800673Y-90049906D01*
X70577299Y-89982147D01*
X70345000Y-89959267D01*
X70112700Y-89982147D01*
X69889326Y-90049906D01*
X69683464Y-90159942D01*
X69503025Y-90308025D01*
X69354942Y-90488465D01*
X69244906Y-90694327D01*
X69177147Y-90917701D01*
X69160000Y-91091794D01*
X62890000Y-91091794D01*
X62890000Y-91091793D01*
X62872853Y-90917700D01*
X62805094Y-90694326D01*
X62695058Y-90488464D01*
X62546975Y-90308025D01*
X62366535Y-90159942D01*
X62160673Y-90049906D01*
X61937299Y-89982147D01*
X61705000Y-89959267D01*
X61472700Y-89982147D01*
X61249326Y-90049906D01*
X61043464Y-90159942D01*
X60863025Y-90308025D01*
X60714942Y-90488465D01*
X60604906Y-90694327D01*
X60537147Y-90917701D01*
X60520000Y-91091794D01*
X56810000Y-91091794D01*
X56810000Y-90802032D01*
X56732757Y-90413704D01*
X56581239Y-90047908D01*
X56361269Y-89718699D01*
X56081301Y-89438731D01*
X55752092Y-89218761D01*
X55386296Y-89067243D01*
X54997968Y-88990000D01*
X54602032Y-88990000D01*
X54213704Y-89067243D01*
X53847908Y-89218761D01*
X53518699Y-89438731D01*
X53238731Y-89718699D01*
X53018761Y-90047908D01*
X52867243Y-90413704D01*
X52790000Y-90802032D01*
X51985000Y-90802032D01*
X51985000Y-87291794D01*
X60520000Y-87291794D01*
X60520000Y-88508207D01*
X60537147Y-88682300D01*
X60604906Y-88905674D01*
X60714943Y-89111536D01*
X60863026Y-89291975D01*
X61043465Y-89440058D01*
X61249327Y-89550094D01*
X61472701Y-89617853D01*
X61705000Y-89640733D01*
X61937300Y-89617853D01*
X62160674Y-89550094D01*
X62366536Y-89440058D01*
X62546975Y-89291975D01*
X62695058Y-89111536D01*
X62719227Y-89066320D01*
X62750518Y-89075812D01*
X62875000Y-89088072D01*
X62989250Y-89085000D01*
X63148000Y-88926250D01*
X63148000Y-87477000D01*
X63128000Y-87477000D01*
X63128000Y-87223000D01*
X63148000Y-87223000D01*
X63148000Y-85773750D01*
X62989250Y-85615000D01*
X62875000Y-85611928D01*
X62750518Y-85624188D01*
X62630820Y-85660498D01*
X62520506Y-85719463D01*
X62423815Y-85798815D01*
X62344463Y-85895506D01*
X62285498Y-86005820D01*
X62249188Y-86125518D01*
X62236928Y-86250000D01*
X62237082Y-86290747D01*
X62160673Y-86249906D01*
X61937299Y-86182147D01*
X61705000Y-86159267D01*
X61472700Y-86182147D01*
X61249326Y-86249906D01*
X61043464Y-86359942D01*
X60863025Y-86508025D01*
X60714942Y-86688465D01*
X60604906Y-86894327D01*
X60537147Y-87117701D01*
X60520000Y-87291794D01*
X51985000Y-87291794D01*
X51985000Y-85155000D01*
X63284146Y-85155000D01*
X63290000Y-85214435D01*
X63290000Y-85514437D01*
X63307508Y-85692201D01*
X63376697Y-85920287D01*
X63402000Y-85967625D01*
X63402000Y-87223000D01*
X63422000Y-87223000D01*
X63422000Y-87477000D01*
X63402000Y-87477000D01*
X63402000Y-88926250D01*
X63560750Y-89085000D01*
X63647765Y-89087340D01*
X63632795Y-89109744D01*
X63554774Y-89298102D01*
X63515000Y-89498061D01*
X63515000Y-89701939D01*
X63554774Y-89901898D01*
X63632795Y-90090256D01*
X63746063Y-90259774D01*
X63890226Y-90403937D01*
X64059744Y-90517205D01*
X64248102Y-90595226D01*
X64448061Y-90635000D01*
X64651939Y-90635000D01*
X64851898Y-90595226D01*
X65040256Y-90517205D01*
X65209774Y-90403937D01*
X65353937Y-90259774D01*
X65467205Y-90090256D01*
X65545226Y-89901898D01*
X65585000Y-89701939D01*
X65585000Y-89639802D01*
X66036003Y-89188799D01*
X66051379Y-89176180D01*
X66515000Y-89639802D01*
X66515000Y-89701939D01*
X66554774Y-89901898D01*
X66632795Y-90090256D01*
X66746063Y-90259774D01*
X66890226Y-90403937D01*
X67059744Y-90517205D01*
X67248102Y-90595226D01*
X67448061Y-90635000D01*
X67651939Y-90635000D01*
X67851898Y-90595226D01*
X68040256Y-90517205D01*
X68209774Y-90403937D01*
X68353937Y-90259774D01*
X68467205Y-90090256D01*
X68545226Y-89901898D01*
X68585000Y-89701939D01*
X68585000Y-89498061D01*
X68545226Y-89298102D01*
X68467205Y-89109744D01*
X68451353Y-89086019D01*
X68489250Y-89085000D01*
X68648000Y-88926250D01*
X68648000Y-87477000D01*
X68628000Y-87477000D01*
X68628000Y-87223000D01*
X68648000Y-87223000D01*
X68648000Y-86312624D01*
X68673302Y-86265287D01*
X68742491Y-86037201D01*
X68765854Y-85800000D01*
X68747633Y-85615000D01*
X69060750Y-85615000D01*
X68902000Y-85773750D01*
X68902000Y-87223000D01*
X68922000Y-87223000D01*
X68922000Y-87477000D01*
X68902000Y-87477000D01*
X68902000Y-88926250D01*
X69060750Y-89085000D01*
X69175000Y-89088072D01*
X69299482Y-89075812D01*
X69330774Y-89066320D01*
X69354943Y-89111536D01*
X69503026Y-89291975D01*
X69683465Y-89440058D01*
X69889327Y-89550094D01*
X70112701Y-89617853D01*
X70345000Y-89640733D01*
X70577300Y-89617853D01*
X70800674Y-89550094D01*
X71006536Y-89440058D01*
X71186975Y-89291975D01*
X71335058Y-89111536D01*
X71445094Y-88905674D01*
X71469566Y-88824999D01*
X71761928Y-88824999D01*
X71761928Y-89450001D01*
X71778992Y-89623255D01*
X71829528Y-89789851D01*
X71911595Y-89943387D01*
X72022038Y-90077962D01*
X72156613Y-90188405D01*
X72310149Y-90270472D01*
X72476745Y-90321008D01*
X72649999Y-90338072D01*
X73944838Y-90338072D01*
X74040563Y-90347500D01*
X75753065Y-90347500D01*
X75812500Y-90353354D01*
X75871935Y-90347500D01*
X75871937Y-90347500D01*
X76049701Y-90329992D01*
X76277787Y-90260803D01*
X76487992Y-90148446D01*
X76672239Y-89997239D01*
X76710136Y-89951061D01*
X77701198Y-88960000D01*
X83440565Y-88960000D01*
X83500000Y-88965854D01*
X83559435Y-88960000D01*
X83559437Y-88960000D01*
X83737201Y-88942492D01*
X83965287Y-88873303D01*
X84175492Y-88760946D01*
X84359739Y-88609739D01*
X84397637Y-88563560D01*
X86251198Y-86710000D01*
X86804767Y-86710000D01*
X86918791Y-86770947D01*
X87084215Y-86821128D01*
X87256250Y-86838072D01*
X87743750Y-86838072D01*
X87915785Y-86821128D01*
X88081209Y-86770947D01*
X88233664Y-86689458D01*
X88367292Y-86579792D01*
X88437500Y-86494244D01*
X88507708Y-86579792D01*
X88641336Y-86689458D01*
X88793791Y-86770947D01*
X88959215Y-86821128D01*
X89110326Y-86836011D01*
X89132795Y-86890256D01*
X89246063Y-87059774D01*
X89390226Y-87203937D01*
X89559744Y-87317205D01*
X89748102Y-87395226D01*
X89948061Y-87435000D01*
X90151939Y-87435000D01*
X90351898Y-87395226D01*
X90540256Y-87317205D01*
X90709774Y-87203937D01*
X90853937Y-87059774D01*
X90967205Y-86890256D01*
X91045226Y-86701898D01*
X91085000Y-86501939D01*
X91085000Y-86298061D01*
X91045226Y-86098102D01*
X90967205Y-85909744D01*
X90853937Y-85740226D01*
X90709774Y-85596063D01*
X90540256Y-85482795D01*
X90500572Y-85466357D01*
X90500572Y-85043750D01*
X90483628Y-84871715D01*
X90433447Y-84706291D01*
X90351958Y-84553836D01*
X90242292Y-84420208D01*
X90108664Y-84310542D01*
X89956209Y-84229053D01*
X89790785Y-84178872D01*
X89618750Y-84161928D01*
X89131250Y-84161928D01*
X88959215Y-84178872D01*
X88793791Y-84229053D01*
X88641336Y-84310542D01*
X88507708Y-84420208D01*
X88437500Y-84505756D01*
X88367292Y-84420208D01*
X88233664Y-84310542D01*
X88081209Y-84229053D01*
X87915785Y-84178872D01*
X87743750Y-84161928D01*
X87256250Y-84161928D01*
X87084215Y-84178872D01*
X86918791Y-84229053D01*
X86804767Y-84290000D01*
X85809438Y-84290000D01*
X85750000Y-84284146D01*
X85512798Y-84307508D01*
X85284712Y-84376697D01*
X85172355Y-84436754D01*
X85074508Y-84489054D01*
X84890261Y-84640261D01*
X84852368Y-84686434D01*
X82998803Y-86540000D01*
X77259434Y-86540000D01*
X77199999Y-86534146D01*
X77140564Y-86540000D01*
X77140563Y-86540000D01*
X76962799Y-86557508D01*
X76734713Y-86626697D01*
X76524508Y-86739054D01*
X76340261Y-86890261D01*
X76302372Y-86936429D01*
X75311302Y-87927500D01*
X74040563Y-87927500D01*
X73944838Y-87936928D01*
X72649999Y-87936928D01*
X72476745Y-87953992D01*
X72310149Y-88004528D01*
X72156613Y-88086595D01*
X72022038Y-88197038D01*
X71911595Y-88331613D01*
X71829528Y-88485149D01*
X71778992Y-88651745D01*
X71761928Y-88824999D01*
X71469566Y-88824999D01*
X71512853Y-88682300D01*
X71530000Y-88508207D01*
X71530000Y-87291793D01*
X71512853Y-87117700D01*
X71445094Y-86894326D01*
X71335058Y-86688464D01*
X71186975Y-86508025D01*
X71006535Y-86359942D01*
X70800673Y-86249906D01*
X70577299Y-86182147D01*
X70345000Y-86159267D01*
X70112700Y-86182147D01*
X69889326Y-86249906D01*
X69812918Y-86290747D01*
X69813072Y-86250000D01*
X69800812Y-86125518D01*
X69764502Y-86005820D01*
X69705537Y-85895506D01*
X69626185Y-85798815D01*
X69529494Y-85719463D01*
X69419180Y-85660498D01*
X69299482Y-85624188D01*
X69206192Y-85615000D01*
X70303803Y-85615000D01*
X70364863Y-85676060D01*
X70402761Y-85722239D01*
X70587008Y-85873446D01*
X70797213Y-85985803D01*
X71025299Y-86054992D01*
X71203063Y-86072500D01*
X71203065Y-86072500D01*
X71262500Y-86078354D01*
X71321935Y-86072500D01*
X74159437Y-86072500D01*
X74255162Y-86063072D01*
X75550001Y-86063072D01*
X75723255Y-86046008D01*
X75889851Y-85995472D01*
X76043387Y-85913405D01*
X76177962Y-85802962D01*
X76288405Y-85668387D01*
X76370472Y-85514851D01*
X76421008Y-85348255D01*
X76438072Y-85175001D01*
X76438072Y-84549999D01*
X76421008Y-84376745D01*
X76370472Y-84210149D01*
X76288405Y-84056613D01*
X76177962Y-83922038D01*
X76043387Y-83811595D01*
X75889851Y-83729528D01*
X75723255Y-83678992D01*
X75550001Y-83661928D01*
X74255162Y-83661928D01*
X74159437Y-83652500D01*
X71763697Y-83652500D01*
X71702637Y-83591440D01*
X71664739Y-83545261D01*
X71480492Y-83394054D01*
X71270287Y-83281697D01*
X71042201Y-83212508D01*
X70864437Y-83195000D01*
X70864435Y-83195000D01*
X70805000Y-83189146D01*
X70745565Y-83195000D01*
X66764435Y-83195000D01*
X66705000Y-83189146D01*
X66645565Y-83195000D01*
X65309434Y-83195000D01*
X65249999Y-83189146D01*
X65190564Y-83195000D01*
X65190563Y-83195000D01*
X65012799Y-83212508D01*
X64784713Y-83281697D01*
X64574508Y-83394054D01*
X64390261Y-83545261D01*
X64352367Y-83591435D01*
X63686439Y-84257364D01*
X63640261Y-84295261D01*
X63489054Y-84479509D01*
X63376697Y-84689714D01*
X63307508Y-84917800D01*
X63291300Y-85082367D01*
X63284146Y-85155000D01*
X51985000Y-85155000D01*
X51985000Y-81850000D01*
X52211928Y-81850000D01*
X52224188Y-81974482D01*
X52260498Y-82094180D01*
X52319463Y-82204494D01*
X52398815Y-82301185D01*
X52495506Y-82380537D01*
X52605820Y-82439502D01*
X52725518Y-82475812D01*
X52850000Y-82488072D01*
X53414250Y-82485000D01*
X53573000Y-82326250D01*
X53573000Y-81127000D01*
X52373750Y-81127000D01*
X52215000Y-81285750D01*
X52211928Y-81850000D01*
X51985000Y-81850000D01*
X51985000Y-80150000D01*
X52211928Y-80150000D01*
X52215000Y-80714250D01*
X52373750Y-80873000D01*
X53573000Y-80873000D01*
X53573000Y-79673750D01*
X53414250Y-79515000D01*
X52850000Y-79511928D01*
X52725518Y-79524188D01*
X52605820Y-79560498D01*
X52495506Y-79619463D01*
X52398815Y-79698815D01*
X52319463Y-79795506D01*
X52260498Y-79905820D01*
X52224188Y-80025518D01*
X52211928Y-80150000D01*
X51985000Y-80150000D01*
X51985000Y-41802032D01*
X52790000Y-41802032D01*
X52790000Y-42197968D01*
X52867243Y-42586296D01*
X53018761Y-42952092D01*
X53238731Y-43281301D01*
X53518699Y-43561269D01*
X53847908Y-43781239D01*
X54213704Y-43932757D01*
X54602032Y-44010000D01*
X54997968Y-44010000D01*
X55386296Y-43932757D01*
X55752092Y-43781239D01*
X56081301Y-43561269D01*
X56361269Y-43281301D01*
X56581239Y-42952092D01*
X56732757Y-42586296D01*
X56810000Y-42197968D01*
X56810000Y-41802032D01*
X56732757Y-41413704D01*
X56581239Y-41047908D01*
X56361269Y-40718699D01*
X56081301Y-40438731D01*
X55752092Y-40218761D01*
X55386296Y-40067243D01*
X54997968Y-39990000D01*
X54602032Y-39990000D01*
X54213704Y-40067243D01*
X53847908Y-40218761D01*
X53518699Y-40438731D01*
X53238731Y-40718699D01*
X53018761Y-41047908D01*
X52867243Y-41413704D01*
X52790000Y-41802032D01*
X51985000Y-41802032D01*
X51985000Y-41533505D01*
X52032312Y-41050984D01*
X52162714Y-40619070D01*
X52374524Y-40220715D01*
X52659675Y-39871086D01*
X53007303Y-39583503D01*
X53404177Y-39368914D01*
X53835161Y-39235502D01*
X54315654Y-39185000D01*
X112765000Y-39185000D01*
X112765000Y-39351939D01*
G37*
%TD.AperFunction*%
D31*
X58270635Y-50297343D02*
X58246978Y-50354739D01*
X58222519Y-50411807D01*
X58219690Y-50420943D01*
X58163281Y-50607780D01*
X58151219Y-50668698D01*
X58138314Y-50729410D01*
X58137314Y-50738922D01*
X58118269Y-50933155D01*
X58118269Y-50933164D01*
X58115000Y-50966354D01*
X58115001Y-54333647D01*
X58118327Y-54367416D01*
X58118327Y-54375221D01*
X58119327Y-54384733D01*
X58132380Y-54501104D01*
X58145288Y-54561831D01*
X58157348Y-54622737D01*
X58160177Y-54631874D01*
X58195585Y-54743492D01*
X58205843Y-54767426D01*
X58201861Y-54773386D01*
X58133969Y-54937292D01*
X58099358Y-55111294D01*
X58099358Y-55288706D01*
X58133969Y-55462708D01*
X58149416Y-55500000D01*
X58133969Y-55537292D01*
X58099358Y-55711294D01*
X58099358Y-55888706D01*
X58133969Y-56062708D01*
X58149416Y-56100000D01*
X58133969Y-56137292D01*
X58099358Y-56311294D01*
X58099358Y-56488706D01*
X58133969Y-56662708D01*
X58201861Y-56826614D01*
X58205882Y-56832631D01*
X58192336Y-56864236D01*
X58189508Y-56873373D01*
X58155663Y-56985474D01*
X58143605Y-57046370D01*
X58130696Y-57107102D01*
X58129696Y-57116614D01*
X58118269Y-57233155D01*
X58118269Y-57233164D01*
X58115000Y-57266354D01*
X58115001Y-68166344D01*
X58115000Y-68166354D01*
X58115001Y-76633647D01*
X58118327Y-76667416D01*
X58118327Y-76675221D01*
X58119327Y-76684733D01*
X58132380Y-76801104D01*
X58145288Y-76861831D01*
X58157348Y-76922737D01*
X58160177Y-76931874D01*
X58195585Y-77043492D01*
X58205843Y-77067426D01*
X58201861Y-77073386D01*
X58133969Y-77237292D01*
X58099358Y-77411294D01*
X58099358Y-77588706D01*
X58133969Y-77762708D01*
X58149416Y-77800000D01*
X58133969Y-77837292D01*
X58099358Y-78011294D01*
X58099358Y-78188706D01*
X58133969Y-78362708D01*
X58149416Y-78400000D01*
X58133969Y-78437292D01*
X58099358Y-78611294D01*
X58099358Y-78788706D01*
X58108260Y-78833458D01*
X54160000Y-74885199D01*
X54160000Y-61914801D01*
X54360998Y-61713803D01*
X54390001Y-61690001D01*
X54465024Y-61598585D01*
X54484974Y-61574277D01*
X54500000Y-61546165D01*
X54515026Y-61574276D01*
X54550193Y-61617127D01*
X54609999Y-61690001D01*
X54639003Y-61713804D01*
X54740001Y-61814802D01*
X54740000Y-68154868D01*
X54618388Y-68276480D01*
X54494176Y-68462376D01*
X54408617Y-68668933D01*
X54365000Y-68888212D01*
X54365000Y-69111788D01*
X54408617Y-69331067D01*
X54494176Y-69537624D01*
X54618388Y-69723520D01*
X54776480Y-69881612D01*
X54962376Y-70005824D01*
X55168933Y-70091383D01*
X55388212Y-70135000D01*
X55611788Y-70135000D01*
X55831067Y-70091383D01*
X56037624Y-70005824D01*
X56223520Y-69881612D01*
X56381612Y-69723520D01*
X56505824Y-69537624D01*
X56591383Y-69331067D01*
X56635000Y-69111788D01*
X56635000Y-68888212D01*
X56591383Y-68668933D01*
X56505824Y-68462376D01*
X56381612Y-68276480D01*
X56260000Y-68154868D01*
X56260000Y-61537325D01*
X56263676Y-61500000D01*
X56260000Y-61462675D01*
X56260000Y-61462667D01*
X56249003Y-61351014D01*
X56205546Y-61207753D01*
X56134974Y-61075724D01*
X56040001Y-60959999D01*
X56010997Y-60936196D01*
X55910000Y-60835199D01*
X55910000Y-60348072D01*
X56450000Y-60348072D01*
X56474450Y-60345664D01*
X56499009Y-60345664D01*
X56623490Y-60333404D01*
X56719623Y-60314282D01*
X56839319Y-60277973D01*
X56929875Y-60240464D01*
X57040192Y-60181498D01*
X57121691Y-60127042D01*
X57218382Y-60047690D01*
X57287690Y-59978382D01*
X57367042Y-59881691D01*
X57421498Y-59800192D01*
X57480464Y-59689875D01*
X57517973Y-59599319D01*
X57554282Y-59479623D01*
X57573404Y-59383490D01*
X57585664Y-59259009D01*
X57585664Y-59234450D01*
X57588072Y-59210000D01*
X57588072Y-58710000D01*
X57585664Y-58685550D01*
X57585664Y-58660991D01*
X57573404Y-58536510D01*
X57554282Y-58440377D01*
X57517973Y-58320681D01*
X57480464Y-58230125D01*
X57421498Y-58119808D01*
X57385000Y-58065185D01*
X57385000Y-50210000D01*
X58317076Y-50210000D01*
X58270635Y-50297343D01*
%TA.AperFunction,Conductor*%
D32*
G36*
X58270635Y-50297343D02*
G01*
X58246978Y-50354739D01*
X58222519Y-50411807D01*
X58219690Y-50420943D01*
X58163281Y-50607780D01*
X58151219Y-50668698D01*
X58138314Y-50729410D01*
X58137314Y-50738922D01*
X58118269Y-50933155D01*
X58118269Y-50933164D01*
X58115000Y-50966354D01*
X58115001Y-54333647D01*
X58118327Y-54367416D01*
X58118327Y-54375221D01*
X58119327Y-54384733D01*
X58132380Y-54501104D01*
X58145288Y-54561831D01*
X58157348Y-54622737D01*
X58160177Y-54631874D01*
X58195585Y-54743492D01*
X58205843Y-54767426D01*
X58201861Y-54773386D01*
X58133969Y-54937292D01*
X58099358Y-55111294D01*
X58099358Y-55288706D01*
X58133969Y-55462708D01*
X58149416Y-55500000D01*
X58133969Y-55537292D01*
X58099358Y-55711294D01*
X58099358Y-55888706D01*
X58133969Y-56062708D01*
X58149416Y-56100000D01*
X58133969Y-56137292D01*
X58099358Y-56311294D01*
X58099358Y-56488706D01*
X58133969Y-56662708D01*
X58201861Y-56826614D01*
X58205882Y-56832631D01*
X58192336Y-56864236D01*
X58189508Y-56873373D01*
X58155663Y-56985474D01*
X58143605Y-57046370D01*
X58130696Y-57107102D01*
X58129696Y-57116614D01*
X58118269Y-57233155D01*
X58118269Y-57233164D01*
X58115000Y-57266354D01*
X58115001Y-68166344D01*
X58115000Y-68166354D01*
X58115001Y-76633647D01*
X58118327Y-76667416D01*
X58118327Y-76675221D01*
X58119327Y-76684733D01*
X58132380Y-76801104D01*
X58145288Y-76861831D01*
X58157348Y-76922737D01*
X58160177Y-76931874D01*
X58195585Y-77043492D01*
X58205843Y-77067426D01*
X58201861Y-77073386D01*
X58133969Y-77237292D01*
X58099358Y-77411294D01*
X58099358Y-77588706D01*
X58133969Y-77762708D01*
X58149416Y-77800000D01*
X58133969Y-77837292D01*
X58099358Y-78011294D01*
X58099358Y-78188706D01*
X58133969Y-78362708D01*
X58149416Y-78400000D01*
X58133969Y-78437292D01*
X58099358Y-78611294D01*
X58099358Y-78788706D01*
X58108260Y-78833458D01*
X54160000Y-74885199D01*
X54160000Y-61914801D01*
X54360998Y-61713803D01*
X54390001Y-61690001D01*
X54465024Y-61598585D01*
X54484974Y-61574277D01*
X54500000Y-61546165D01*
X54515026Y-61574276D01*
X54550193Y-61617127D01*
X54609999Y-61690001D01*
X54639003Y-61713804D01*
X54740001Y-61814802D01*
X54740000Y-68154868D01*
X54618388Y-68276480D01*
X54494176Y-68462376D01*
X54408617Y-68668933D01*
X54365000Y-68888212D01*
X54365000Y-69111788D01*
X54408617Y-69331067D01*
X54494176Y-69537624D01*
X54618388Y-69723520D01*
X54776480Y-69881612D01*
X54962376Y-70005824D01*
X55168933Y-70091383D01*
X55388212Y-70135000D01*
X55611788Y-70135000D01*
X55831067Y-70091383D01*
X56037624Y-70005824D01*
X56223520Y-69881612D01*
X56381612Y-69723520D01*
X56505824Y-69537624D01*
X56591383Y-69331067D01*
X56635000Y-69111788D01*
X56635000Y-68888212D01*
X56591383Y-68668933D01*
X56505824Y-68462376D01*
X56381612Y-68276480D01*
X56260000Y-68154868D01*
X56260000Y-61537325D01*
X56263676Y-61500000D01*
X56260000Y-61462675D01*
X56260000Y-61462667D01*
X56249003Y-61351014D01*
X56205546Y-61207753D01*
X56134974Y-61075724D01*
X56040001Y-60959999D01*
X56010997Y-60936196D01*
X55910000Y-60835199D01*
X55910000Y-60348072D01*
X56450000Y-60348072D01*
X56474450Y-60345664D01*
X56499009Y-60345664D01*
X56623490Y-60333404D01*
X56719623Y-60314282D01*
X56839319Y-60277973D01*
X56929875Y-60240464D01*
X57040192Y-60181498D01*
X57121691Y-60127042D01*
X57218382Y-60047690D01*
X57287690Y-59978382D01*
X57367042Y-59881691D01*
X57421498Y-59800192D01*
X57480464Y-59689875D01*
X57517973Y-59599319D01*
X57554282Y-59479623D01*
X57573404Y-59383490D01*
X57585664Y-59259009D01*
X57585664Y-59234450D01*
X57588072Y-59210000D01*
X57588072Y-58710000D01*
X57585664Y-58685550D01*
X57585664Y-58660991D01*
X57573404Y-58536510D01*
X57554282Y-58440377D01*
X57517973Y-58320681D01*
X57480464Y-58230125D01*
X57421498Y-58119808D01*
X57385000Y-58065185D01*
X57385000Y-50210000D01*
X58317076Y-50210000D01*
X58270635Y-50297343D01*
G37*
%TD.AperFunction*%
D31*
X90277000Y-43143000D02*
X90297000Y-43143000D01*
X90297000Y-43397000D01*
X90277000Y-43397000D01*
X90277000Y-43417000D01*
X90023000Y-43417000D01*
X90023000Y-43397000D01*
X90003000Y-43397000D01*
X90003000Y-43143000D01*
X90023000Y-43143000D01*
X90023000Y-43123000D01*
X90277000Y-43123000D01*
X90277000Y-43143000D01*
%TA.AperFunction,Conductor*%
D32*
G36*
X90277000Y-43143000D02*
G01*
X90297000Y-43143000D01*
X90297000Y-43397000D01*
X90277000Y-43397000D01*
X90277000Y-43417000D01*
X90023000Y-43417000D01*
X90023000Y-43397000D01*
X90003000Y-43397000D01*
X90003000Y-43143000D01*
X90023000Y-43143000D01*
X90023000Y-43123000D01*
X90277000Y-43123000D01*
X90277000Y-43143000D01*
G37*
%TD.AperFunction*%
D31*
X69957000Y-43143000D02*
X69977000Y-43143000D01*
X69977000Y-43397000D01*
X69957000Y-43397000D01*
X69957000Y-43417000D01*
X69703000Y-43417000D01*
X69703000Y-43397000D01*
X69683000Y-43397000D01*
X69683000Y-43143000D01*
X69703000Y-43143000D01*
X69703000Y-43123000D01*
X69957000Y-43123000D01*
X69957000Y-43143000D01*
%TA.AperFunction,Conductor*%
D32*
G36*
X69957000Y-43143000D02*
G01*
X69977000Y-43143000D01*
X69977000Y-43397000D01*
X69957000Y-43397000D01*
X69957000Y-43417000D01*
X69703000Y-43417000D01*
X69703000Y-43397000D01*
X69683000Y-43397000D01*
X69683000Y-43143000D01*
X69703000Y-43143000D01*
X69703000Y-43123000D01*
X69957000Y-43123000D01*
X69957000Y-43143000D01*
G37*
%TD.AperFunction*%
D31*
X71216525Y-41676632D02*
X71423368Y-41883475D01*
X71597760Y-42000000D01*
X71423368Y-42116525D01*
X71216525Y-42323368D01*
X71094805Y-42505534D01*
X71025178Y-42388645D01*
X70830269Y-42172412D01*
X70600594Y-42001100D01*
X70776632Y-41883475D01*
X70983475Y-41676632D01*
X71100000Y-41502240D01*
X71216525Y-41676632D01*
%TA.AperFunction,Conductor*%
D32*
G36*
X71216525Y-41676632D02*
G01*
X71423368Y-41883475D01*
X71597760Y-42000000D01*
X71423368Y-42116525D01*
X71216525Y-42323368D01*
X71094805Y-42505534D01*
X71025178Y-42388645D01*
X70830269Y-42172412D01*
X70600594Y-42001100D01*
X70776632Y-41883475D01*
X70983475Y-41676632D01*
X71100000Y-41502240D01*
X71216525Y-41676632D01*
G37*
%TD.AperFunction*%
D31*
X68676525Y-41676632D02*
X68883368Y-41883475D01*
X69059406Y-42001100D01*
X68829731Y-42172412D01*
X68634822Y-42388645D01*
X68565195Y-42505534D01*
X68443475Y-42323368D01*
X68236632Y-42116525D01*
X68062240Y-42000000D01*
X68236632Y-41883475D01*
X68443475Y-41676632D01*
X68560000Y-41502240D01*
X68676525Y-41676632D01*
%TA.AperFunction,Conductor*%
D32*
G36*
X68676525Y-41676632D02*
G01*
X68883368Y-41883475D01*
X69059406Y-42001100D01*
X68829731Y-42172412D01*
X68634822Y-42388645D01*
X68565195Y-42505534D01*
X68443475Y-42323368D01*
X68236632Y-42116525D01*
X68062240Y-42000000D01*
X68236632Y-41883475D01*
X68443475Y-41676632D01*
X68560000Y-41502240D01*
X68676525Y-41676632D01*
G37*
%TD.AperFunction*%
D31*
X88996525Y-41676632D02*
X89203368Y-41883475D01*
X89379406Y-42001100D01*
X89149731Y-42172412D01*
X88954822Y-42388645D01*
X88885195Y-42505534D01*
X88763475Y-42323368D01*
X88556632Y-42116525D01*
X88382240Y-42000000D01*
X88556632Y-41883475D01*
X88763475Y-41676632D01*
X88880000Y-41502240D01*
X88996525Y-41676632D01*
%TA.AperFunction,Conductor*%
D32*
G36*
X88996525Y-41676632D02*
G01*
X89203368Y-41883475D01*
X89379406Y-42001100D01*
X89149731Y-42172412D01*
X88954822Y-42388645D01*
X88885195Y-42505534D01*
X88763475Y-42323368D01*
X88556632Y-42116525D01*
X88382240Y-42000000D01*
X88556632Y-41883475D01*
X88763475Y-41676632D01*
X88880000Y-41502240D01*
X88996525Y-41676632D01*
G37*
%TD.AperFunction*%
D31*
X91536525Y-41676632D02*
X91743368Y-41883475D01*
X91917760Y-42000000D01*
X91743368Y-42116525D01*
X91536525Y-42323368D01*
X91414805Y-42505534D01*
X91345178Y-42388645D01*
X91150269Y-42172412D01*
X90920594Y-42001100D01*
X91096632Y-41883475D01*
X91303475Y-41676632D01*
X91420000Y-41502240D01*
X91536525Y-41676632D01*
%TA.AperFunction,Conductor*%
D32*
G36*
X91536525Y-41676632D02*
G01*
X91743368Y-41883475D01*
X91917760Y-42000000D01*
X91743368Y-42116525D01*
X91536525Y-42323368D01*
X91414805Y-42505534D01*
X91345178Y-42388645D01*
X91150269Y-42172412D01*
X90920594Y-42001100D01*
X91096632Y-41883475D01*
X91303475Y-41676632D01*
X91420000Y-41502240D01*
X91536525Y-41676632D01*
G37*
%TD.AperFunction*%
D31*
X66136525Y-41676632D02*
X66343368Y-41883475D01*
X66517760Y-42000000D01*
X66343368Y-42116525D01*
X66136525Y-42323368D01*
X66020000Y-42497760D01*
X65903475Y-42323368D01*
X65696632Y-42116525D01*
X65520594Y-41998900D01*
X65750269Y-41827588D01*
X65945178Y-41611355D01*
X66014805Y-41494466D01*
X66136525Y-41676632D01*
%TA.AperFunction,Conductor*%
D32*
G36*
X66136525Y-41676632D02*
G01*
X66343368Y-41883475D01*
X66517760Y-42000000D01*
X66343368Y-42116525D01*
X66136525Y-42323368D01*
X66020000Y-42497760D01*
X65903475Y-42323368D01*
X65696632Y-42116525D01*
X65520594Y-41998900D01*
X65750269Y-41827588D01*
X65945178Y-41611355D01*
X66014805Y-41494466D01*
X66136525Y-41676632D01*
G37*
%TD.AperFunction*%
D31*
X83916525Y-41676632D02*
X84123368Y-41883475D01*
X84297760Y-42000000D01*
X84123368Y-42116525D01*
X83916525Y-42323368D01*
X83800000Y-42497760D01*
X83683475Y-42323368D01*
X83476632Y-42116525D01*
X83300594Y-41998900D01*
X83530269Y-41827588D01*
X83725178Y-41611355D01*
X83794805Y-41494466D01*
X83916525Y-41676632D01*
%TA.AperFunction,Conductor*%
D32*
G36*
X83916525Y-41676632D02*
G01*
X84123368Y-41883475D01*
X84297760Y-42000000D01*
X84123368Y-42116525D01*
X83916525Y-42323368D01*
X83800000Y-42497760D01*
X83683475Y-42323368D01*
X83476632Y-42116525D01*
X83300594Y-41998900D01*
X83530269Y-41827588D01*
X83725178Y-41611355D01*
X83794805Y-41494466D01*
X83916525Y-41676632D01*
G37*
%TD.AperFunction*%
D31*
X76296525Y-41676632D02*
X76503368Y-41883475D01*
X76677760Y-42000000D01*
X76503368Y-42116525D01*
X76296525Y-42323368D01*
X76180000Y-42497760D01*
X76063475Y-42323368D01*
X75856632Y-42116525D01*
X75680594Y-41998900D01*
X75910269Y-41827588D01*
X76105178Y-41611355D01*
X76174805Y-41494466D01*
X76296525Y-41676632D01*
%TA.AperFunction,Conductor*%
D32*
G36*
X76296525Y-41676632D02*
G01*
X76503368Y-41883475D01*
X76677760Y-42000000D01*
X76503368Y-42116525D01*
X76296525Y-42323368D01*
X76180000Y-42497760D01*
X76063475Y-42323368D01*
X75856632Y-42116525D01*
X75680594Y-41998900D01*
X75910269Y-41827588D01*
X76105178Y-41611355D01*
X76174805Y-41494466D01*
X76296525Y-41676632D01*
G37*
%TD.AperFunction*%
D31*
X73714822Y-41611355D02*
X73909731Y-41827588D01*
X74139406Y-41998900D01*
X73963368Y-42116525D01*
X73756525Y-42323368D01*
X73640000Y-42497760D01*
X73523475Y-42323368D01*
X73316632Y-42116525D01*
X73142240Y-42000000D01*
X73316632Y-41883475D01*
X73523475Y-41676632D01*
X73645195Y-41494466D01*
X73714822Y-41611355D01*
%TA.AperFunction,Conductor*%
D32*
G36*
X73714822Y-41611355D02*
G01*
X73909731Y-41827588D01*
X74139406Y-41998900D01*
X73963368Y-42116525D01*
X73756525Y-42323368D01*
X73640000Y-42497760D01*
X73523475Y-42323368D01*
X73316632Y-42116525D01*
X73142240Y-42000000D01*
X73316632Y-41883475D01*
X73523475Y-41676632D01*
X73645195Y-41494466D01*
X73714822Y-41611355D01*
G37*
%TD.AperFunction*%
D31*
X81334822Y-41611355D02*
X81529731Y-41827588D01*
X81759406Y-41998900D01*
X81583368Y-42116525D01*
X81376525Y-42323368D01*
X81260000Y-42497760D01*
X81143475Y-42323368D01*
X80936632Y-42116525D01*
X80762240Y-42000000D01*
X80936632Y-41883475D01*
X81143475Y-41676632D01*
X81265195Y-41494466D01*
X81334822Y-41611355D01*
%TA.AperFunction,Conductor*%
D32*
G36*
X81334822Y-41611355D02*
G01*
X81529731Y-41827588D01*
X81759406Y-41998900D01*
X81583368Y-42116525D01*
X81376525Y-42323368D01*
X81260000Y-42497760D01*
X81143475Y-42323368D01*
X80936632Y-42116525D01*
X80762240Y-42000000D01*
X80936632Y-41883475D01*
X81143475Y-41676632D01*
X81265195Y-41494466D01*
X81334822Y-41611355D01*
G37*
%TD.AperFunction*%
D31*
X63554822Y-41611355D02*
X63749731Y-41827588D01*
X63979406Y-41998900D01*
X63803368Y-42116525D01*
X63596525Y-42323368D01*
X63480000Y-42497760D01*
X63363475Y-42323368D01*
X63156632Y-42116525D01*
X62982240Y-42000000D01*
X63156632Y-41883475D01*
X63363475Y-41676632D01*
X63485195Y-41494466D01*
X63554822Y-41611355D01*
%TA.AperFunction,Conductor*%
D32*
G36*
X63554822Y-41611355D02*
G01*
X63749731Y-41827588D01*
X63979406Y-41998900D01*
X63803368Y-42116525D01*
X63596525Y-42323368D01*
X63480000Y-42497760D01*
X63363475Y-42323368D01*
X63156632Y-42116525D01*
X62982240Y-42000000D01*
X63156632Y-41883475D01*
X63363475Y-41676632D01*
X63485195Y-41494466D01*
X63554822Y-41611355D01*
G37*
%TD.AperFunction*%
D31*
X94034822Y-41611355D02*
X94229731Y-41827588D01*
X94459406Y-41998900D01*
X94283368Y-42116525D01*
X94076525Y-42323368D01*
X93960000Y-42497760D01*
X93843475Y-42323368D01*
X93636632Y-42116525D01*
X93462240Y-42000000D01*
X93636632Y-41883475D01*
X93843475Y-41676632D01*
X93965195Y-41494466D01*
X94034822Y-41611355D01*
%TA.AperFunction,Conductor*%
D32*
G36*
X94034822Y-41611355D02*
G01*
X94229731Y-41827588D01*
X94459406Y-41998900D01*
X94283368Y-42116525D01*
X94076525Y-42323368D01*
X93960000Y-42497760D01*
X93843475Y-42323368D01*
X93636632Y-42116525D01*
X93462240Y-42000000D01*
X93636632Y-41883475D01*
X93843475Y-41676632D01*
X93965195Y-41494466D01*
X94034822Y-41611355D01*
G37*
%TD.AperFunction*%
D31*
X96616525Y-41676632D02*
X96823368Y-41883475D01*
X96997760Y-42000000D01*
X96823368Y-42116525D01*
X96616525Y-42323368D01*
X96500000Y-42497760D01*
X96383475Y-42323368D01*
X96176632Y-42116525D01*
X96000594Y-41998900D01*
X96230269Y-41827588D01*
X96425178Y-41611355D01*
X96494805Y-41494466D01*
X96616525Y-41676632D01*
%TA.AperFunction,Conductor*%
D32*
G36*
X96616525Y-41676632D02*
G01*
X96823368Y-41883475D01*
X96997760Y-42000000D01*
X96823368Y-42116525D01*
X96616525Y-42323368D01*
X96500000Y-42497760D01*
X96383475Y-42323368D01*
X96176632Y-42116525D01*
X96000594Y-41998900D01*
X96230269Y-41827588D01*
X96425178Y-41611355D01*
X96494805Y-41494466D01*
X96616525Y-41676632D01*
G37*
%TD.AperFunction*%
D31*
X101696525Y-41676632D02*
X101903368Y-41883475D01*
X102077760Y-42000000D01*
X101903368Y-42116525D01*
X101696525Y-42323368D01*
X101580000Y-42497760D01*
X101463475Y-42323368D01*
X101256632Y-42116525D01*
X101080594Y-41998900D01*
X101310269Y-41827588D01*
X101505178Y-41611355D01*
X101574805Y-41494466D01*
X101696525Y-41676632D01*
%TA.AperFunction,Conductor*%
D32*
G36*
X101696525Y-41676632D02*
G01*
X101903368Y-41883475D01*
X102077760Y-42000000D01*
X101903368Y-42116525D01*
X101696525Y-42323368D01*
X101580000Y-42497760D01*
X101463475Y-42323368D01*
X101256632Y-42116525D01*
X101080594Y-41998900D01*
X101310269Y-41827588D01*
X101505178Y-41611355D01*
X101574805Y-41494466D01*
X101696525Y-41676632D01*
G37*
%TD.AperFunction*%
D31*
X99114822Y-41611355D02*
X99309731Y-41827588D01*
X99539406Y-41998900D01*
X99363368Y-42116525D01*
X99156525Y-42323368D01*
X99040000Y-42497760D01*
X98923475Y-42323368D01*
X98716632Y-42116525D01*
X98542240Y-42000000D01*
X98716632Y-41883475D01*
X98923475Y-41676632D01*
X99045195Y-41494466D01*
X99114822Y-41611355D01*
%TA.AperFunction,Conductor*%
D32*
G36*
X99114822Y-41611355D02*
G01*
X99309731Y-41827588D01*
X99539406Y-41998900D01*
X99363368Y-42116525D01*
X99156525Y-42323368D01*
X99040000Y-42497760D01*
X98923475Y-42323368D01*
X98716632Y-42116525D01*
X98542240Y-42000000D01*
X98716632Y-41883475D01*
X98923475Y-41676632D01*
X99045195Y-41494466D01*
X99114822Y-41611355D01*
G37*
%TD.AperFunction*%
%TD*%
M02*
