%TF.GenerationSoftware,KiCad,Pcbnew,5.1.9+dfsg1-1*%
%TF.CreationDate,2021-12-12T20:19:36+01:00*%
%TF.ProjectId,RaspberryPi_UPS_HAT,52617370-6265-4727-9279-50695f555053,rev?*%
%TF.SameCoordinates,Original*%
%TF.FileFunction,Paste,Bot*%
%TF.FilePolarity,Positive*%
%FSLAX46Y46*%
G04 Gerber Fmt 4.6, Leading zero omitted, Abs format (unit mm)*
G04 Created by KiCad (PCBNEW 5.1.9+dfsg1-1) date 2021-12-12 20:19:36*
%MOMM*%
%LPD*%
G01*
G04 APERTURE LIST*
%ADD10R,0.900000X0.800000*%
%ADD11R,0.800000X0.900000*%
%ADD12R,2.500000X1.800000*%
%ADD13R,1.560000X0.650000*%
%ADD14R,1.500000X2.400000*%
%ADD15R,1.800000X2.500000*%
G04 APERTURE END LIST*
%TO.C,F1*%
G36*
G01*
X77675000Y-90750001D02*
X77675000Y-87849999D01*
G75*
G02*
X77924999Y-87600000I249999J0D01*
G01*
X78550001Y-87600000D01*
G75*
G02*
X78800000Y-87849999I0J-249999D01*
G01*
X78800000Y-90750001D01*
G75*
G02*
X78550001Y-91000000I-249999J0D01*
G01*
X77924999Y-91000000D01*
G75*
G02*
X77675000Y-90750001I0J249999D01*
G01*
G37*
G36*
G01*
X73400000Y-90750001D02*
X73400000Y-87849999D01*
G75*
G02*
X73649999Y-87600000I249999J0D01*
G01*
X74275001Y-87600000D01*
G75*
G02*
X74525000Y-87849999I0J-249999D01*
G01*
X74525000Y-90750001D01*
G75*
G02*
X74275001Y-91000000I-249999J0D01*
G01*
X73649999Y-91000000D01*
G75*
G02*
X73400000Y-90750001I0J249999D01*
G01*
G37*
%TD*%
%TO.C,R15*%
G36*
G01*
X101630000Y-59870001D02*
X101630000Y-58969999D01*
G75*
G02*
X101879999Y-58720000I249999J0D01*
G01*
X102405001Y-58720000D01*
G75*
G02*
X102655000Y-58969999I0J-249999D01*
G01*
X102655000Y-59870001D01*
G75*
G02*
X102405001Y-60120000I-249999J0D01*
G01*
X101879999Y-60120000D01*
G75*
G02*
X101630000Y-59870001I0J249999D01*
G01*
G37*
G36*
G01*
X99805000Y-59870001D02*
X99805000Y-58969999D01*
G75*
G02*
X100054999Y-58720000I249999J0D01*
G01*
X100580001Y-58720000D01*
G75*
G02*
X100830000Y-58969999I0J-249999D01*
G01*
X100830000Y-59870001D01*
G75*
G02*
X100580001Y-60120000I-249999J0D01*
G01*
X100054999Y-60120000D01*
G75*
G02*
X99805000Y-59870001I0J249999D01*
G01*
G37*
%TD*%
D10*
%TO.C,Q2*%
X66560000Y-47070000D03*
X68560000Y-48020000D03*
X68560000Y-46120000D03*
%TD*%
D11*
%TO.C,Q1*%
X54500000Y-65390000D03*
X55450000Y-63390000D03*
X53550000Y-63390000D03*
%TD*%
%TO.C,R14*%
G36*
G01*
X96850000Y-53500001D02*
X96850000Y-52599999D01*
G75*
G02*
X97099999Y-52350000I249999J0D01*
G01*
X97625001Y-52350000D01*
G75*
G02*
X97875000Y-52599999I0J-249999D01*
G01*
X97875000Y-53500001D01*
G75*
G02*
X97625001Y-53750000I-249999J0D01*
G01*
X97099999Y-53750000D01*
G75*
G02*
X96850000Y-53500001I0J249999D01*
G01*
G37*
G36*
G01*
X95025000Y-53500001D02*
X95025000Y-52599999D01*
G75*
G02*
X95274999Y-52350000I249999J0D01*
G01*
X95800001Y-52350000D01*
G75*
G02*
X96050000Y-52599999I0J-249999D01*
G01*
X96050000Y-53500001D01*
G75*
G02*
X95800001Y-53750000I-249999J0D01*
G01*
X95274999Y-53750000D01*
G75*
G02*
X95025000Y-53500001I0J249999D01*
G01*
G37*
%TD*%
%TO.C,R13*%
G36*
G01*
X98100000Y-71450001D02*
X98100000Y-70549999D01*
G75*
G02*
X98349999Y-70300000I249999J0D01*
G01*
X98875001Y-70300000D01*
G75*
G02*
X99125000Y-70549999I0J-249999D01*
G01*
X99125000Y-71450001D01*
G75*
G02*
X98875001Y-71700000I-249999J0D01*
G01*
X98349999Y-71700000D01*
G75*
G02*
X98100000Y-71450001I0J249999D01*
G01*
G37*
G36*
G01*
X96275000Y-71450001D02*
X96275000Y-70549999D01*
G75*
G02*
X96524999Y-70300000I249999J0D01*
G01*
X97050001Y-70300000D01*
G75*
G02*
X97300000Y-70549999I0J-249999D01*
G01*
X97300000Y-71450001D01*
G75*
G02*
X97050001Y-71700000I-249999J0D01*
G01*
X96524999Y-71700000D01*
G75*
G02*
X96275000Y-71450001I0J249999D01*
G01*
G37*
%TD*%
%TO.C,R12*%
G36*
G01*
X97300000Y-68449999D02*
X97300000Y-69350001D01*
G75*
G02*
X97050001Y-69600000I-249999J0D01*
G01*
X96524999Y-69600000D01*
G75*
G02*
X96275000Y-69350001I0J249999D01*
G01*
X96275000Y-68449999D01*
G75*
G02*
X96524999Y-68200000I249999J0D01*
G01*
X97050001Y-68200000D01*
G75*
G02*
X97300000Y-68449999I0J-249999D01*
G01*
G37*
G36*
G01*
X99125000Y-68449999D02*
X99125000Y-69350001D01*
G75*
G02*
X98875001Y-69600000I-249999J0D01*
G01*
X98349999Y-69600000D01*
G75*
G02*
X98100000Y-69350001I0J249999D01*
G01*
X98100000Y-68449999D01*
G75*
G02*
X98349999Y-68200000I249999J0D01*
G01*
X98875001Y-68200000D01*
G75*
G02*
X99125000Y-68449999I0J-249999D01*
G01*
G37*
%TD*%
%TO.C,R11*%
G36*
G01*
X98550000Y-87399999D02*
X98550000Y-88300001D01*
G75*
G02*
X98300001Y-88550000I-249999J0D01*
G01*
X97774999Y-88550000D01*
G75*
G02*
X97525000Y-88300001I0J249999D01*
G01*
X97525000Y-87399999D01*
G75*
G02*
X97774999Y-87150000I249999J0D01*
G01*
X98300001Y-87150000D01*
G75*
G02*
X98550000Y-87399999I0J-249999D01*
G01*
G37*
G36*
G01*
X100375000Y-87399999D02*
X100375000Y-88300001D01*
G75*
G02*
X100125001Y-88550000I-249999J0D01*
G01*
X99599999Y-88550000D01*
G75*
G02*
X99350000Y-88300001I0J249999D01*
G01*
X99350000Y-87399999D01*
G75*
G02*
X99599999Y-87150000I249999J0D01*
G01*
X100125001Y-87150000D01*
G75*
G02*
X100375000Y-87399999I0J-249999D01*
G01*
G37*
%TD*%
%TO.C,R10*%
G36*
G01*
X103080000Y-90099999D02*
X103080000Y-91000001D01*
G75*
G02*
X102830001Y-91250000I-249999J0D01*
G01*
X102304999Y-91250000D01*
G75*
G02*
X102055000Y-91000001I0J249999D01*
G01*
X102055000Y-90099999D01*
G75*
G02*
X102304999Y-89850000I249999J0D01*
G01*
X102830001Y-89850000D01*
G75*
G02*
X103080000Y-90099999I0J-249999D01*
G01*
G37*
G36*
G01*
X104905000Y-90099999D02*
X104905000Y-91000001D01*
G75*
G02*
X104655001Y-91250000I-249999J0D01*
G01*
X104129999Y-91250000D01*
G75*
G02*
X103880000Y-91000001I0J249999D01*
G01*
X103880000Y-90099999D01*
G75*
G02*
X104129999Y-89850000I249999J0D01*
G01*
X104655001Y-89850000D01*
G75*
G02*
X104905000Y-90099999I0J-249999D01*
G01*
G37*
%TD*%
%TO.C,R9*%
G36*
G01*
X102950001Y-71200000D02*
X102049999Y-71200000D01*
G75*
G02*
X101800000Y-70950001I0J249999D01*
G01*
X101800000Y-70424999D01*
G75*
G02*
X102049999Y-70175000I249999J0D01*
G01*
X102950001Y-70175000D01*
G75*
G02*
X103200000Y-70424999I0J-249999D01*
G01*
X103200000Y-70950001D01*
G75*
G02*
X102950001Y-71200000I-249999J0D01*
G01*
G37*
G36*
G01*
X102950001Y-73025000D02*
X102049999Y-73025000D01*
G75*
G02*
X101800000Y-72775001I0J249999D01*
G01*
X101800000Y-72249999D01*
G75*
G02*
X102049999Y-72000000I249999J0D01*
G01*
X102950001Y-72000000D01*
G75*
G02*
X103200000Y-72249999I0J-249999D01*
G01*
X103200000Y-72775001D01*
G75*
G02*
X102950001Y-73025000I-249999J0D01*
G01*
G37*
%TD*%
%TO.C,R8*%
G36*
G01*
X66874999Y-87925000D02*
X67775001Y-87925000D01*
G75*
G02*
X68025000Y-88174999I0J-249999D01*
G01*
X68025000Y-88700001D01*
G75*
G02*
X67775001Y-88950000I-249999J0D01*
G01*
X66874999Y-88950000D01*
G75*
G02*
X66625000Y-88700001I0J249999D01*
G01*
X66625000Y-88174999D01*
G75*
G02*
X66874999Y-87925000I249999J0D01*
G01*
G37*
G36*
G01*
X66874999Y-86100000D02*
X67775001Y-86100000D01*
G75*
G02*
X68025000Y-86349999I0J-249999D01*
G01*
X68025000Y-86875001D01*
G75*
G02*
X67775001Y-87125000I-249999J0D01*
G01*
X66874999Y-87125000D01*
G75*
G02*
X66625000Y-86875001I0J249999D01*
G01*
X66625000Y-86349999D01*
G75*
G02*
X66874999Y-86100000I249999J0D01*
G01*
G37*
%TD*%
%TO.C,R7*%
G36*
G01*
X63224999Y-47385000D02*
X64125001Y-47385000D01*
G75*
G02*
X64375000Y-47634999I0J-249999D01*
G01*
X64375000Y-48160001D01*
G75*
G02*
X64125001Y-48410000I-249999J0D01*
G01*
X63224999Y-48410000D01*
G75*
G02*
X62975000Y-48160001I0J249999D01*
G01*
X62975000Y-47634999D01*
G75*
G02*
X63224999Y-47385000I249999J0D01*
G01*
G37*
G36*
G01*
X63224999Y-45560000D02*
X64125001Y-45560000D01*
G75*
G02*
X64375000Y-45809999I0J-249999D01*
G01*
X64375000Y-46335001D01*
G75*
G02*
X64125001Y-46585000I-249999J0D01*
G01*
X63224999Y-46585000D01*
G75*
G02*
X62975000Y-46335001I0J249999D01*
G01*
X62975000Y-45809999D01*
G75*
G02*
X63224999Y-45560000I249999J0D01*
G01*
G37*
%TD*%
%TO.C,R6*%
G36*
G01*
X54885000Y-71190001D02*
X54885000Y-70289999D01*
G75*
G02*
X55134999Y-70040000I249999J0D01*
G01*
X55660001Y-70040000D01*
G75*
G02*
X55910000Y-70289999I0J-249999D01*
G01*
X55910000Y-71190001D01*
G75*
G02*
X55660001Y-71440000I-249999J0D01*
G01*
X55134999Y-71440000D01*
G75*
G02*
X54885000Y-71190001I0J249999D01*
G01*
G37*
G36*
G01*
X53060000Y-71190001D02*
X53060000Y-70289999D01*
G75*
G02*
X53309999Y-70040000I249999J0D01*
G01*
X53835001Y-70040000D01*
G75*
G02*
X54085000Y-70289999I0J-249999D01*
G01*
X54085000Y-71190001D01*
G75*
G02*
X53835001Y-71440000I-249999J0D01*
G01*
X53309999Y-71440000D01*
G75*
G02*
X53060000Y-71190001I0J249999D01*
G01*
G37*
%TD*%
%TO.C,R5*%
G36*
G01*
X54885000Y-60940001D02*
X54885000Y-60039999D01*
G75*
G02*
X55134999Y-59790000I249999J0D01*
G01*
X55660001Y-59790000D01*
G75*
G02*
X55910000Y-60039999I0J-249999D01*
G01*
X55910000Y-60940001D01*
G75*
G02*
X55660001Y-61190000I-249999J0D01*
G01*
X55134999Y-61190000D01*
G75*
G02*
X54885000Y-60940001I0J249999D01*
G01*
G37*
G36*
G01*
X53060000Y-60940001D02*
X53060000Y-60039999D01*
G75*
G02*
X53309999Y-59790000I249999J0D01*
G01*
X53835001Y-59790000D01*
G75*
G02*
X54085000Y-60039999I0J-249999D01*
G01*
X54085000Y-60940001D01*
G75*
G02*
X53835001Y-61190000I-249999J0D01*
G01*
X53309999Y-61190000D01*
G75*
G02*
X53060000Y-60940001I0J249999D01*
G01*
G37*
%TD*%
%TO.C,R4*%
G36*
G01*
X70474999Y-47385000D02*
X71375001Y-47385000D01*
G75*
G02*
X71625000Y-47634999I0J-249999D01*
G01*
X71625000Y-48160001D01*
G75*
G02*
X71375001Y-48410000I-249999J0D01*
G01*
X70474999Y-48410000D01*
G75*
G02*
X70225000Y-48160001I0J249999D01*
G01*
X70225000Y-47634999D01*
G75*
G02*
X70474999Y-47385000I249999J0D01*
G01*
G37*
G36*
G01*
X70474999Y-45560000D02*
X71375001Y-45560000D01*
G75*
G02*
X71625000Y-45809999I0J-249999D01*
G01*
X71625000Y-46335001D01*
G75*
G02*
X71375001Y-46585000I-249999J0D01*
G01*
X70474999Y-46585000D01*
G75*
G02*
X70225000Y-46335001I0J249999D01*
G01*
X70225000Y-45809999D01*
G75*
G02*
X70474999Y-45560000I249999J0D01*
G01*
G37*
%TD*%
%TO.C,R3*%
G36*
G01*
X64624999Y-87925000D02*
X65525001Y-87925000D01*
G75*
G02*
X65775000Y-88174999I0J-249999D01*
G01*
X65775000Y-88700001D01*
G75*
G02*
X65525001Y-88950000I-249999J0D01*
G01*
X64624999Y-88950000D01*
G75*
G02*
X64375000Y-88700001I0J249999D01*
G01*
X64375000Y-88174999D01*
G75*
G02*
X64624999Y-87925000I249999J0D01*
G01*
G37*
G36*
G01*
X64624999Y-86100000D02*
X65525001Y-86100000D01*
G75*
G02*
X65775000Y-86349999I0J-249999D01*
G01*
X65775000Y-86875001D01*
G75*
G02*
X65525001Y-87125000I-249999J0D01*
G01*
X64624999Y-87125000D01*
G75*
G02*
X64375000Y-86875001I0J249999D01*
G01*
X64375000Y-86349999D01*
G75*
G02*
X64624999Y-86100000I249999J0D01*
G01*
G37*
%TD*%
%TO.C,R2*%
G36*
G01*
X98100000Y-65150001D02*
X98100000Y-64249999D01*
G75*
G02*
X98349999Y-64000000I249999J0D01*
G01*
X98875001Y-64000000D01*
G75*
G02*
X99125000Y-64249999I0J-249999D01*
G01*
X99125000Y-65150001D01*
G75*
G02*
X98875001Y-65400000I-249999J0D01*
G01*
X98349999Y-65400000D01*
G75*
G02*
X98100000Y-65150001I0J249999D01*
G01*
G37*
G36*
G01*
X96275000Y-65150001D02*
X96275000Y-64249999D01*
G75*
G02*
X96524999Y-64000000I249999J0D01*
G01*
X97050001Y-64000000D01*
G75*
G02*
X97300000Y-64249999I0J-249999D01*
G01*
X97300000Y-65150001D01*
G75*
G02*
X97050001Y-65400000I-249999J0D01*
G01*
X96524999Y-65400000D01*
G75*
G02*
X96275000Y-65150001I0J249999D01*
G01*
G37*
%TD*%
%TO.C,R1*%
G36*
G01*
X98100000Y-67250001D02*
X98100000Y-66349999D01*
G75*
G02*
X98349999Y-66100000I249999J0D01*
G01*
X98875001Y-66100000D01*
G75*
G02*
X99125000Y-66349999I0J-249999D01*
G01*
X99125000Y-67250001D01*
G75*
G02*
X98875001Y-67500000I-249999J0D01*
G01*
X98349999Y-67500000D01*
G75*
G02*
X98100000Y-67250001I0J249999D01*
G01*
G37*
G36*
G01*
X96275000Y-67250001D02*
X96275000Y-66349999D01*
G75*
G02*
X96524999Y-66100000I249999J0D01*
G01*
X97050001Y-66100000D01*
G75*
G02*
X97300000Y-66349999I0J-249999D01*
G01*
X97300000Y-67250001D01*
G75*
G02*
X97050001Y-67500000I-249999J0D01*
G01*
X96524999Y-67500000D01*
G75*
G02*
X96275000Y-67250001I0J249999D01*
G01*
G37*
%TD*%
D12*
%TO.C,D3*%
X54100000Y-85900000D03*
X58100000Y-85900000D03*
%TD*%
%TO.C,C12*%
G36*
G01*
X54450000Y-52300000D02*
X55550000Y-52300000D01*
G75*
G02*
X55800000Y-52550000I0J-250000D01*
G01*
X55800000Y-55550000D01*
G75*
G02*
X55550000Y-55800000I-250000J0D01*
G01*
X54450000Y-55800000D01*
G75*
G02*
X54200000Y-55550000I0J250000D01*
G01*
X54200000Y-52550000D01*
G75*
G02*
X54450000Y-52300000I250000J0D01*
G01*
G37*
G36*
G01*
X54450000Y-46700000D02*
X55550000Y-46700000D01*
G75*
G02*
X55800000Y-46950000I0J-250000D01*
G01*
X55800000Y-49950000D01*
G75*
G02*
X55550000Y-50200000I-250000J0D01*
G01*
X54450000Y-50200000D01*
G75*
G02*
X54200000Y-49950000I0J250000D01*
G01*
X54200000Y-46950000D01*
G75*
G02*
X54450000Y-46700000I250000J0D01*
G01*
G37*
%TD*%
D13*
%TO.C,U4*%
X97560000Y-84535000D03*
X97560000Y-83585000D03*
X97560000Y-85485000D03*
X100260000Y-85485000D03*
X100260000Y-84535000D03*
X100260000Y-83585000D03*
%TD*%
%TO.C,C11*%
G36*
G01*
X97000000Y-56435000D02*
X97000000Y-55485000D01*
G75*
G02*
X97250000Y-55235000I250000J0D01*
G01*
X97750000Y-55235000D01*
G75*
G02*
X98000000Y-55485000I0J-250000D01*
G01*
X98000000Y-56435000D01*
G75*
G02*
X97750000Y-56685000I-250000J0D01*
G01*
X97250000Y-56685000D01*
G75*
G02*
X97000000Y-56435000I0J250000D01*
G01*
G37*
G36*
G01*
X95100000Y-56435000D02*
X95100000Y-55485000D01*
G75*
G02*
X95350000Y-55235000I250000J0D01*
G01*
X95850000Y-55235000D01*
G75*
G02*
X96100000Y-55485000I0J-250000D01*
G01*
X96100000Y-56435000D01*
G75*
G02*
X95850000Y-56685000I-250000J0D01*
G01*
X95350000Y-56685000D01*
G75*
G02*
X95100000Y-56435000I0J250000D01*
G01*
G37*
%TD*%
%TO.C,C10*%
G36*
G01*
X96000000Y-50075000D02*
X96000000Y-51025000D01*
G75*
G02*
X95750000Y-51275000I-250000J0D01*
G01*
X95250000Y-51275000D01*
G75*
G02*
X95000000Y-51025000I0J250000D01*
G01*
X95000000Y-50075000D01*
G75*
G02*
X95250000Y-49825000I250000J0D01*
G01*
X95750000Y-49825000D01*
G75*
G02*
X96000000Y-50075000I0J-250000D01*
G01*
G37*
G36*
G01*
X97900000Y-50075000D02*
X97900000Y-51025000D01*
G75*
G02*
X97650000Y-51275000I-250000J0D01*
G01*
X97150000Y-51275000D01*
G75*
G02*
X96900000Y-51025000I0J250000D01*
G01*
X96900000Y-50075000D01*
G75*
G02*
X97150000Y-49825000I250000J0D01*
G01*
X97650000Y-49825000D01*
G75*
G02*
X97900000Y-50075000I0J-250000D01*
G01*
G37*
%TD*%
D11*
%TO.C,Q3*%
X54485000Y-75440000D03*
X55435000Y-73440000D03*
X53535000Y-73440000D03*
%TD*%
D10*
%TO.C,Q4*%
X59025000Y-46985000D03*
X61025000Y-47935000D03*
X61025000Y-46035000D03*
%TD*%
D12*
%TO.C,D2*%
X85105000Y-87710000D03*
X89105000Y-87710000D03*
%TD*%
%TO.C,C1*%
G36*
G01*
X114150000Y-71275000D02*
X114150000Y-70325000D01*
G75*
G02*
X114400000Y-70075000I250000J0D01*
G01*
X114900000Y-70075000D01*
G75*
G02*
X115150000Y-70325000I0J-250000D01*
G01*
X115150000Y-71275000D01*
G75*
G02*
X114900000Y-71525000I-250000J0D01*
G01*
X114400000Y-71525000D01*
G75*
G02*
X114150000Y-71275000I0J250000D01*
G01*
G37*
G36*
G01*
X112250000Y-71275000D02*
X112250000Y-70325000D01*
G75*
G02*
X112500000Y-70075000I250000J0D01*
G01*
X113000000Y-70075000D01*
G75*
G02*
X113250000Y-70325000I0J-250000D01*
G01*
X113250000Y-71275000D01*
G75*
G02*
X113000000Y-71525000I-250000J0D01*
G01*
X112500000Y-71525000D01*
G75*
G02*
X112250000Y-71275000I0J250000D01*
G01*
G37*
%TD*%
%TO.C,C2*%
G36*
G01*
X94280000Y-85500000D02*
X94280000Y-86450000D01*
G75*
G02*
X94030000Y-86700000I-250000J0D01*
G01*
X93530000Y-86700000D01*
G75*
G02*
X93280000Y-86450000I0J250000D01*
G01*
X93280000Y-85500000D01*
G75*
G02*
X93530000Y-85250000I250000J0D01*
G01*
X94030000Y-85250000D01*
G75*
G02*
X94280000Y-85500000I0J-250000D01*
G01*
G37*
G36*
G01*
X96180000Y-85500000D02*
X96180000Y-86450000D01*
G75*
G02*
X95930000Y-86700000I-250000J0D01*
G01*
X95430000Y-86700000D01*
G75*
G02*
X95180000Y-86450000I0J250000D01*
G01*
X95180000Y-85500000D01*
G75*
G02*
X95430000Y-85250000I250000J0D01*
G01*
X95930000Y-85250000D01*
G75*
G02*
X96180000Y-85500000I0J-250000D01*
G01*
G37*
%TD*%
%TO.C,C3*%
G36*
G01*
X94280000Y-87775000D02*
X94280000Y-88725000D01*
G75*
G02*
X94030000Y-88975000I-250000J0D01*
G01*
X93530000Y-88975000D01*
G75*
G02*
X93280000Y-88725000I0J250000D01*
G01*
X93280000Y-87775000D01*
G75*
G02*
X93530000Y-87525000I250000J0D01*
G01*
X94030000Y-87525000D01*
G75*
G02*
X94280000Y-87775000I0J-250000D01*
G01*
G37*
G36*
G01*
X96180000Y-87775000D02*
X96180000Y-88725000D01*
G75*
G02*
X95930000Y-88975000I-250000J0D01*
G01*
X95430000Y-88975000D01*
G75*
G02*
X95180000Y-88725000I0J250000D01*
G01*
X95180000Y-87775000D01*
G75*
G02*
X95430000Y-87525000I250000J0D01*
G01*
X95930000Y-87525000D01*
G75*
G02*
X96180000Y-87775000I0J-250000D01*
G01*
G37*
%TD*%
%TO.C,C4*%
G36*
G01*
X94280000Y-90000000D02*
X94280000Y-90950000D01*
G75*
G02*
X94030000Y-91200000I-250000J0D01*
G01*
X93530000Y-91200000D01*
G75*
G02*
X93280000Y-90950000I0J250000D01*
G01*
X93280000Y-90000000D01*
G75*
G02*
X93530000Y-89750000I250000J0D01*
G01*
X94030000Y-89750000D01*
G75*
G02*
X94280000Y-90000000I0J-250000D01*
G01*
G37*
G36*
G01*
X96180000Y-90000000D02*
X96180000Y-90950000D01*
G75*
G02*
X95930000Y-91200000I-250000J0D01*
G01*
X95430000Y-91200000D01*
G75*
G02*
X95180000Y-90950000I0J250000D01*
G01*
X95180000Y-90000000D01*
G75*
G02*
X95430000Y-89750000I250000J0D01*
G01*
X95930000Y-89750000D01*
G75*
G02*
X96180000Y-90000000I0J-250000D01*
G01*
G37*
%TD*%
%TO.C,C5*%
G36*
G01*
X102920000Y-87845000D02*
X102920000Y-88795000D01*
G75*
G02*
X102670000Y-89045000I-250000J0D01*
G01*
X102170000Y-89045000D01*
G75*
G02*
X101920000Y-88795000I0J250000D01*
G01*
X101920000Y-87845000D01*
G75*
G02*
X102170000Y-87595000I250000J0D01*
G01*
X102670000Y-87595000D01*
G75*
G02*
X102920000Y-87845000I0J-250000D01*
G01*
G37*
G36*
G01*
X104820000Y-87845000D02*
X104820000Y-88795000D01*
G75*
G02*
X104570000Y-89045000I-250000J0D01*
G01*
X104070000Y-89045000D01*
G75*
G02*
X103820000Y-88795000I0J250000D01*
G01*
X103820000Y-87845000D01*
G75*
G02*
X104070000Y-87595000I250000J0D01*
G01*
X104570000Y-87595000D01*
G75*
G02*
X104820000Y-87845000I0J-250000D01*
G01*
G37*
%TD*%
%TO.C,C6*%
G36*
G01*
X102920000Y-85605000D02*
X102920000Y-86555000D01*
G75*
G02*
X102670000Y-86805000I-250000J0D01*
G01*
X102170000Y-86805000D01*
G75*
G02*
X101920000Y-86555000I0J250000D01*
G01*
X101920000Y-85605000D01*
G75*
G02*
X102170000Y-85355000I250000J0D01*
G01*
X102670000Y-85355000D01*
G75*
G02*
X102920000Y-85605000I0J-250000D01*
G01*
G37*
G36*
G01*
X104820000Y-85605000D02*
X104820000Y-86555000D01*
G75*
G02*
X104570000Y-86805000I-250000J0D01*
G01*
X104070000Y-86805000D01*
G75*
G02*
X103820000Y-86555000I0J250000D01*
G01*
X103820000Y-85605000D01*
G75*
G02*
X104070000Y-85355000I250000J0D01*
G01*
X104570000Y-85355000D01*
G75*
G02*
X104820000Y-85605000I0J-250000D01*
G01*
G37*
%TD*%
D14*
%TO.C,L1*%
X94150000Y-79150000D03*
X99650000Y-79150000D03*
%TD*%
%TO.C,C7*%
G36*
G01*
X94250000Y-83275000D02*
X94250000Y-84225000D01*
G75*
G02*
X94000000Y-84475000I-250000J0D01*
G01*
X93500000Y-84475000D01*
G75*
G02*
X93250000Y-84225000I0J250000D01*
G01*
X93250000Y-83275000D01*
G75*
G02*
X93500000Y-83025000I250000J0D01*
G01*
X94000000Y-83025000D01*
G75*
G02*
X94250000Y-83275000I0J-250000D01*
G01*
G37*
G36*
G01*
X96150000Y-83275000D02*
X96150000Y-84225000D01*
G75*
G02*
X95900000Y-84475000I-250000J0D01*
G01*
X95400000Y-84475000D01*
G75*
G02*
X95150000Y-84225000I0J250000D01*
G01*
X95150000Y-83275000D01*
G75*
G02*
X95400000Y-83025000I250000J0D01*
G01*
X95900000Y-83025000D01*
G75*
G02*
X96150000Y-83275000I0J-250000D01*
G01*
G37*
%TD*%
%TO.C,C8*%
G36*
G01*
X80725000Y-90730000D02*
X81675000Y-90730000D01*
G75*
G02*
X81925000Y-90980000I0J-250000D01*
G01*
X81925000Y-91480000D01*
G75*
G02*
X81675000Y-91730000I-250000J0D01*
G01*
X80725000Y-91730000D01*
G75*
G02*
X80475000Y-91480000I0J250000D01*
G01*
X80475000Y-90980000D01*
G75*
G02*
X80725000Y-90730000I250000J0D01*
G01*
G37*
G36*
G01*
X80725000Y-88830000D02*
X81675000Y-88830000D01*
G75*
G02*
X81925000Y-89080000I0J-250000D01*
G01*
X81925000Y-89580000D01*
G75*
G02*
X81675000Y-89830000I-250000J0D01*
G01*
X80725000Y-89830000D01*
G75*
G02*
X80475000Y-89580000I0J250000D01*
G01*
X80475000Y-89080000D01*
G75*
G02*
X80725000Y-88830000I250000J0D01*
G01*
G37*
%TD*%
%TO.C,C9*%
G36*
G01*
X114150000Y-73575000D02*
X114150000Y-72625000D01*
G75*
G02*
X114400000Y-72375000I250000J0D01*
G01*
X114900000Y-72375000D01*
G75*
G02*
X115150000Y-72625000I0J-250000D01*
G01*
X115150000Y-73575000D01*
G75*
G02*
X114900000Y-73825000I-250000J0D01*
G01*
X114400000Y-73825000D01*
G75*
G02*
X114150000Y-73575000I0J250000D01*
G01*
G37*
G36*
G01*
X112250000Y-73575000D02*
X112250000Y-72625000D01*
G75*
G02*
X112500000Y-72375000I250000J0D01*
G01*
X113000000Y-72375000D01*
G75*
G02*
X113250000Y-72625000I0J-250000D01*
G01*
X113250000Y-73575000D01*
G75*
G02*
X113000000Y-73825000I-250000J0D01*
G01*
X112500000Y-73825000D01*
G75*
G02*
X112250000Y-73575000I0J250000D01*
G01*
G37*
%TD*%
D12*
%TO.C,D1*%
X85080000Y-92535000D03*
X89080000Y-92535000D03*
%TD*%
D11*
%TO.C,Q5*%
X105400000Y-72600000D03*
X106350000Y-70600000D03*
X104450000Y-70600000D03*
%TD*%
D15*
%TO.C,D5*%
X103500000Y-79350000D03*
X103500000Y-83350000D03*
%TD*%
M02*
