%TF.GenerationSoftware,KiCad,Pcbnew,5.1.9+dfsg1-1*%
%TF.CreationDate,2021-12-20T12:13:36+01:00*%
%TF.ProjectId,RaspberryPi_UPS_HAT,52617370-6265-4727-9279-50695f555053,rev?*%
%TF.SameCoordinates,Original*%
%TF.FileFunction,Soldermask,Bot*%
%TF.FilePolarity,Negative*%
%FSLAX46Y46*%
G04 Gerber Fmt 4.6, Leading zero omitted, Abs format (unit mm)*
G04 Created by KiCad (PCBNEW 5.1.9+dfsg1-1) date 2021-12-20 12:13:36*
%MOMM*%
%LPD*%
G01*
G04 APERTURE LIST*
%ADD10C,1.000000*%
%ADD11O,1.700000X1.700000*%
%ADD12R,1.700000X1.700000*%
%ADD13R,1.060000X0.650000*%
%ADD14R,1.500000X2.000000*%
%ADD15R,3.800000X2.000000*%
%ADD16R,0.650000X1.560000*%
%ADD17R,0.900000X0.800000*%
%ADD18R,0.800000X0.900000*%
%ADD19R,2.500000X1.800000*%
%ADD20C,2.750000*%
%ADD21R,1.500000X1.050000*%
%ADD22O,1.500000X1.050000*%
%ADD23R,2.400000X1.500000*%
%ADD24O,1.100000X2.200000*%
G04 APERTURE END LIST*
D10*
%TO.C,TP3*%
X105550000Y-77900000D03*
%TD*%
%TO.C,TP4*%
X98950000Y-63450000D03*
%TD*%
D11*
%TO.C,J1*%
X112930000Y-47460000D03*
X112930000Y-50000000D03*
X110390000Y-47460000D03*
X110390000Y-50000000D03*
X107850000Y-47460000D03*
D12*
X107850000Y-50000000D03*
%TD*%
D11*
%TO.C,J4*%
X95230000Y-66550000D03*
X97770000Y-66550000D03*
X100310000Y-66550000D03*
D12*
X102850000Y-66550000D03*
%TD*%
D13*
%TO.C,U5*%
X86150000Y-87250000D03*
X86150000Y-89150000D03*
X88350000Y-89150000D03*
X88350000Y-88200000D03*
X88350000Y-87250000D03*
%TD*%
D14*
%TO.C,U1*%
X114300000Y-83850000D03*
X109700000Y-83850000D03*
X112000000Y-83850000D03*
D15*
X112000000Y-77550000D03*
%TD*%
D12*
%TO.C,J2*%
X59670000Y-43270000D03*
D11*
X59670000Y-40730000D03*
X62210000Y-43270000D03*
X62210000Y-40730000D03*
X64750000Y-43270000D03*
X64750000Y-40730000D03*
X67290000Y-43270000D03*
X67290000Y-40730000D03*
X69830000Y-43270000D03*
X69830000Y-40730000D03*
X72370000Y-43270000D03*
X72370000Y-40730000D03*
X74910000Y-43270000D03*
X74910000Y-40730000D03*
X77450000Y-43270000D03*
X77450000Y-40730000D03*
X79990000Y-43270000D03*
X79990000Y-40730000D03*
X82530000Y-43270000D03*
X82530000Y-40730000D03*
X85070000Y-43270000D03*
X85070000Y-40730000D03*
X87610000Y-43270000D03*
X87610000Y-40730000D03*
X90150000Y-43270000D03*
X90150000Y-40730000D03*
X92690000Y-43270000D03*
X92690000Y-40730000D03*
X95230000Y-43270000D03*
X95230000Y-40730000D03*
X97770000Y-43270000D03*
X97770000Y-40730000D03*
X100310000Y-43270000D03*
X100310000Y-40730000D03*
X102850000Y-43270000D03*
X102850000Y-40730000D03*
X105390000Y-43270000D03*
X105390000Y-40730000D03*
X107930000Y-43270000D03*
X107930000Y-40730000D03*
%TD*%
D16*
%TO.C,U4*%
X100335000Y-85190000D03*
X101285000Y-85190000D03*
X102235000Y-85190000D03*
X102235000Y-87890000D03*
X100335000Y-87890000D03*
X101285000Y-87890000D03*
%TD*%
%TO.C,R15*%
G36*
G01*
X96949999Y-73200000D02*
X97850001Y-73200000D01*
G75*
G02*
X98100000Y-73449999I0J-249999D01*
G01*
X98100000Y-73975001D01*
G75*
G02*
X97850001Y-74225000I-249999J0D01*
G01*
X96949999Y-74225000D01*
G75*
G02*
X96700000Y-73975001I0J249999D01*
G01*
X96700000Y-73449999D01*
G75*
G02*
X96949999Y-73200000I249999J0D01*
G01*
G37*
G36*
G01*
X96949999Y-71375000D02*
X97850001Y-71375000D01*
G75*
G02*
X98100000Y-71624999I0J-249999D01*
G01*
X98100000Y-72150001D01*
G75*
G02*
X97850001Y-72400000I-249999J0D01*
G01*
X96949999Y-72400000D01*
G75*
G02*
X96700000Y-72150001I0J249999D01*
G01*
X96700000Y-71624999D01*
G75*
G02*
X96949999Y-71375000I249999J0D01*
G01*
G37*
%TD*%
D17*
%TO.C,Q2*%
X66560000Y-47070000D03*
X68560000Y-48020000D03*
X68560000Y-46120000D03*
%TD*%
D18*
%TO.C,Q1*%
X54500000Y-65390000D03*
X55450000Y-63390000D03*
X53550000Y-63390000D03*
%TD*%
%TO.C,R14*%
G36*
G01*
X96850000Y-53500001D02*
X96850000Y-52599999D01*
G75*
G02*
X97099999Y-52350000I249999J0D01*
G01*
X97625001Y-52350000D01*
G75*
G02*
X97875000Y-52599999I0J-249999D01*
G01*
X97875000Y-53500001D01*
G75*
G02*
X97625001Y-53750000I-249999J0D01*
G01*
X97099999Y-53750000D01*
G75*
G02*
X96850000Y-53500001I0J249999D01*
G01*
G37*
G36*
G01*
X95025000Y-53500001D02*
X95025000Y-52599999D01*
G75*
G02*
X95274999Y-52350000I249999J0D01*
G01*
X95800001Y-52350000D01*
G75*
G02*
X96050000Y-52599999I0J-249999D01*
G01*
X96050000Y-53500001D01*
G75*
G02*
X95800001Y-53750000I-249999J0D01*
G01*
X95274999Y-53750000D01*
G75*
G02*
X95025000Y-53500001I0J249999D01*
G01*
G37*
%TD*%
%TO.C,R13*%
G36*
G01*
X88850000Y-84699999D02*
X88850000Y-85600001D01*
G75*
G02*
X88600001Y-85850000I-249999J0D01*
G01*
X88074999Y-85850000D01*
G75*
G02*
X87825000Y-85600001I0J249999D01*
G01*
X87825000Y-84699999D01*
G75*
G02*
X88074999Y-84450000I249999J0D01*
G01*
X88600001Y-84450000D01*
G75*
G02*
X88850000Y-84699999I0J-249999D01*
G01*
G37*
G36*
G01*
X90675000Y-84699999D02*
X90675000Y-85600001D01*
G75*
G02*
X90425001Y-85850000I-249999J0D01*
G01*
X89899999Y-85850000D01*
G75*
G02*
X89650000Y-85600001I0J249999D01*
G01*
X89650000Y-84699999D01*
G75*
G02*
X89899999Y-84450000I249999J0D01*
G01*
X90425001Y-84450000D01*
G75*
G02*
X90675000Y-84699999I0J-249999D01*
G01*
G37*
%TD*%
%TO.C,R12*%
G36*
G01*
X85100000Y-84699999D02*
X85100000Y-85600001D01*
G75*
G02*
X84850001Y-85850000I-249999J0D01*
G01*
X84324999Y-85850000D01*
G75*
G02*
X84075000Y-85600001I0J249999D01*
G01*
X84075000Y-84699999D01*
G75*
G02*
X84324999Y-84450000I249999J0D01*
G01*
X84850001Y-84450000D01*
G75*
G02*
X85100000Y-84699999I0J-249999D01*
G01*
G37*
G36*
G01*
X86925000Y-84699999D02*
X86925000Y-85600001D01*
G75*
G02*
X86675001Y-85850000I-249999J0D01*
G01*
X86149999Y-85850000D01*
G75*
G02*
X85900000Y-85600001I0J249999D01*
G01*
X85900000Y-84699999D01*
G75*
G02*
X86149999Y-84450000I249999J0D01*
G01*
X86675001Y-84450000D01*
G75*
G02*
X86925000Y-84699999I0J-249999D01*
G01*
G37*
%TD*%
%TO.C,R11*%
G36*
G01*
X104149999Y-86900000D02*
X105050001Y-86900000D01*
G75*
G02*
X105300000Y-87149999I0J-249999D01*
G01*
X105300000Y-87675001D01*
G75*
G02*
X105050001Y-87925000I-249999J0D01*
G01*
X104149999Y-87925000D01*
G75*
G02*
X103900000Y-87675001I0J249999D01*
G01*
X103900000Y-87149999D01*
G75*
G02*
X104149999Y-86900000I249999J0D01*
G01*
G37*
G36*
G01*
X104149999Y-85075000D02*
X105050001Y-85075000D01*
G75*
G02*
X105300000Y-85324999I0J-249999D01*
G01*
X105300000Y-85850001D01*
G75*
G02*
X105050001Y-86100000I-249999J0D01*
G01*
X104149999Y-86100000D01*
G75*
G02*
X103900000Y-85850001I0J249999D01*
G01*
X103900000Y-85324999D01*
G75*
G02*
X104149999Y-85075000I249999J0D01*
G01*
G37*
%TD*%
%TO.C,R10*%
G36*
G01*
X106849999Y-82370000D02*
X107750001Y-82370000D01*
G75*
G02*
X108000000Y-82619999I0J-249999D01*
G01*
X108000000Y-83145001D01*
G75*
G02*
X107750001Y-83395000I-249999J0D01*
G01*
X106849999Y-83395000D01*
G75*
G02*
X106600000Y-83145001I0J249999D01*
G01*
X106600000Y-82619999D01*
G75*
G02*
X106849999Y-82370000I249999J0D01*
G01*
G37*
G36*
G01*
X106849999Y-80545000D02*
X107750001Y-80545000D01*
G75*
G02*
X108000000Y-80794999I0J-249999D01*
G01*
X108000000Y-81320001D01*
G75*
G02*
X107750001Y-81570000I-249999J0D01*
G01*
X106849999Y-81570000D01*
G75*
G02*
X106600000Y-81320001I0J249999D01*
G01*
X106600000Y-80794999D01*
G75*
G02*
X106849999Y-80545000I249999J0D01*
G01*
G37*
%TD*%
%TO.C,R9*%
G36*
G01*
X93700001Y-81550000D02*
X92799999Y-81550000D01*
G75*
G02*
X92550000Y-81300001I0J249999D01*
G01*
X92550000Y-80774999D01*
G75*
G02*
X92799999Y-80525000I249999J0D01*
G01*
X93700001Y-80525000D01*
G75*
G02*
X93950000Y-80774999I0J-249999D01*
G01*
X93950000Y-81300001D01*
G75*
G02*
X93700001Y-81550000I-249999J0D01*
G01*
G37*
G36*
G01*
X93700001Y-83375000D02*
X92799999Y-83375000D01*
G75*
G02*
X92550000Y-83125001I0J249999D01*
G01*
X92550000Y-82599999D01*
G75*
G02*
X92799999Y-82350000I249999J0D01*
G01*
X93700001Y-82350000D01*
G75*
G02*
X93950000Y-82599999I0J-249999D01*
G01*
X93950000Y-83125001D01*
G75*
G02*
X93700001Y-83375000I-249999J0D01*
G01*
G37*
%TD*%
%TO.C,R8*%
G36*
G01*
X67099999Y-91650000D02*
X68000001Y-91650000D01*
G75*
G02*
X68250000Y-91899999I0J-249999D01*
G01*
X68250000Y-92425001D01*
G75*
G02*
X68000001Y-92675000I-249999J0D01*
G01*
X67099999Y-92675000D01*
G75*
G02*
X66850000Y-92425001I0J249999D01*
G01*
X66850000Y-91899999D01*
G75*
G02*
X67099999Y-91650000I249999J0D01*
G01*
G37*
G36*
G01*
X67099999Y-89825000D02*
X68000001Y-89825000D01*
G75*
G02*
X68250000Y-90074999I0J-249999D01*
G01*
X68250000Y-90600001D01*
G75*
G02*
X68000001Y-90850000I-249999J0D01*
G01*
X67099999Y-90850000D01*
G75*
G02*
X66850000Y-90600001I0J249999D01*
G01*
X66850000Y-90074999D01*
G75*
G02*
X67099999Y-89825000I249999J0D01*
G01*
G37*
%TD*%
%TO.C,R7*%
G36*
G01*
X63224999Y-47385000D02*
X64125001Y-47385000D01*
G75*
G02*
X64375000Y-47634999I0J-249999D01*
G01*
X64375000Y-48160001D01*
G75*
G02*
X64125001Y-48410000I-249999J0D01*
G01*
X63224999Y-48410000D01*
G75*
G02*
X62975000Y-48160001I0J249999D01*
G01*
X62975000Y-47634999D01*
G75*
G02*
X63224999Y-47385000I249999J0D01*
G01*
G37*
G36*
G01*
X63224999Y-45560000D02*
X64125001Y-45560000D01*
G75*
G02*
X64375000Y-45809999I0J-249999D01*
G01*
X64375000Y-46335001D01*
G75*
G02*
X64125001Y-46585000I-249999J0D01*
G01*
X63224999Y-46585000D01*
G75*
G02*
X62975000Y-46335001I0J249999D01*
G01*
X62975000Y-45809999D01*
G75*
G02*
X63224999Y-45560000I249999J0D01*
G01*
G37*
%TD*%
%TO.C,R6*%
G36*
G01*
X54885000Y-71190001D02*
X54885000Y-70289999D01*
G75*
G02*
X55134999Y-70040000I249999J0D01*
G01*
X55660001Y-70040000D01*
G75*
G02*
X55910000Y-70289999I0J-249999D01*
G01*
X55910000Y-71190001D01*
G75*
G02*
X55660001Y-71440000I-249999J0D01*
G01*
X55134999Y-71440000D01*
G75*
G02*
X54885000Y-71190001I0J249999D01*
G01*
G37*
G36*
G01*
X53060000Y-71190001D02*
X53060000Y-70289999D01*
G75*
G02*
X53309999Y-70040000I249999J0D01*
G01*
X53835001Y-70040000D01*
G75*
G02*
X54085000Y-70289999I0J-249999D01*
G01*
X54085000Y-71190001D01*
G75*
G02*
X53835001Y-71440000I-249999J0D01*
G01*
X53309999Y-71440000D01*
G75*
G02*
X53060000Y-71190001I0J249999D01*
G01*
G37*
%TD*%
%TO.C,R5*%
G36*
G01*
X54885000Y-60940001D02*
X54885000Y-60039999D01*
G75*
G02*
X55134999Y-59790000I249999J0D01*
G01*
X55660001Y-59790000D01*
G75*
G02*
X55910000Y-60039999I0J-249999D01*
G01*
X55910000Y-60940001D01*
G75*
G02*
X55660001Y-61190000I-249999J0D01*
G01*
X55134999Y-61190000D01*
G75*
G02*
X54885000Y-60940001I0J249999D01*
G01*
G37*
G36*
G01*
X53060000Y-60940001D02*
X53060000Y-60039999D01*
G75*
G02*
X53309999Y-59790000I249999J0D01*
G01*
X53835001Y-59790000D01*
G75*
G02*
X54085000Y-60039999I0J-249999D01*
G01*
X54085000Y-60940001D01*
G75*
G02*
X53835001Y-61190000I-249999J0D01*
G01*
X53309999Y-61190000D01*
G75*
G02*
X53060000Y-60940001I0J249999D01*
G01*
G37*
%TD*%
%TO.C,R4*%
G36*
G01*
X70474999Y-47385000D02*
X71375001Y-47385000D01*
G75*
G02*
X71625000Y-47634999I0J-249999D01*
G01*
X71625000Y-48160001D01*
G75*
G02*
X71375001Y-48410000I-249999J0D01*
G01*
X70474999Y-48410000D01*
G75*
G02*
X70225000Y-48160001I0J249999D01*
G01*
X70225000Y-47634999D01*
G75*
G02*
X70474999Y-47385000I249999J0D01*
G01*
G37*
G36*
G01*
X70474999Y-45560000D02*
X71375001Y-45560000D01*
G75*
G02*
X71625000Y-45809999I0J-249999D01*
G01*
X71625000Y-46335001D01*
G75*
G02*
X71375001Y-46585000I-249999J0D01*
G01*
X70474999Y-46585000D01*
G75*
G02*
X70225000Y-46335001I0J249999D01*
G01*
X70225000Y-45809999D01*
G75*
G02*
X70474999Y-45560000I249999J0D01*
G01*
G37*
%TD*%
%TO.C,R3*%
G36*
G01*
X64099999Y-91650000D02*
X65000001Y-91650000D01*
G75*
G02*
X65250000Y-91899999I0J-249999D01*
G01*
X65250000Y-92425001D01*
G75*
G02*
X65000001Y-92675000I-249999J0D01*
G01*
X64099999Y-92675000D01*
G75*
G02*
X63850000Y-92425001I0J249999D01*
G01*
X63850000Y-91899999D01*
G75*
G02*
X64099999Y-91650000I249999J0D01*
G01*
G37*
G36*
G01*
X64099999Y-89825000D02*
X65000001Y-89825000D01*
G75*
G02*
X65250000Y-90074999I0J-249999D01*
G01*
X65250000Y-90600001D01*
G75*
G02*
X65000001Y-90850000I-249999J0D01*
G01*
X64099999Y-90850000D01*
G75*
G02*
X63850000Y-90600001I0J249999D01*
G01*
X63850000Y-90074999D01*
G75*
G02*
X64099999Y-89825000I249999J0D01*
G01*
G37*
%TD*%
%TO.C,R2*%
G36*
G01*
X109050000Y-73500001D02*
X109050000Y-72599999D01*
G75*
G02*
X109299999Y-72350000I249999J0D01*
G01*
X109825001Y-72350000D01*
G75*
G02*
X110075000Y-72599999I0J-249999D01*
G01*
X110075000Y-73500001D01*
G75*
G02*
X109825001Y-73750000I-249999J0D01*
G01*
X109299999Y-73750000D01*
G75*
G02*
X109050000Y-73500001I0J249999D01*
G01*
G37*
G36*
G01*
X107225000Y-73500001D02*
X107225000Y-72599999D01*
G75*
G02*
X107474999Y-72350000I249999J0D01*
G01*
X108000001Y-72350000D01*
G75*
G02*
X108250000Y-72599999I0J-249999D01*
G01*
X108250000Y-73500001D01*
G75*
G02*
X108000001Y-73750000I-249999J0D01*
G01*
X107474999Y-73750000D01*
G75*
G02*
X107225000Y-73500001I0J249999D01*
G01*
G37*
%TD*%
%TO.C,R1*%
G36*
G01*
X109050000Y-75600001D02*
X109050000Y-74699999D01*
G75*
G02*
X109299999Y-74450000I249999J0D01*
G01*
X109825001Y-74450000D01*
G75*
G02*
X110075000Y-74699999I0J-249999D01*
G01*
X110075000Y-75600001D01*
G75*
G02*
X109825001Y-75850000I-249999J0D01*
G01*
X109299999Y-75850000D01*
G75*
G02*
X109050000Y-75600001I0J249999D01*
G01*
G37*
G36*
G01*
X107225000Y-75600001D02*
X107225000Y-74699999D01*
G75*
G02*
X107474999Y-74450000I249999J0D01*
G01*
X108000001Y-74450000D01*
G75*
G02*
X108250000Y-74699999I0J-249999D01*
G01*
X108250000Y-75600001D01*
G75*
G02*
X108000001Y-75850000I-249999J0D01*
G01*
X107474999Y-75850000D01*
G75*
G02*
X107225000Y-75600001I0J249999D01*
G01*
G37*
%TD*%
D19*
%TO.C,D3*%
X58100000Y-85900000D03*
X54100000Y-85900000D03*
%TD*%
D11*
%TO.C,J5*%
X56240000Y-81000000D03*
D12*
X53700000Y-81000000D03*
%TD*%
%TO.C,C12*%
G36*
G01*
X54450000Y-52550000D02*
X55550000Y-52550000D01*
G75*
G02*
X55800000Y-52800000I0J-250000D01*
G01*
X55800000Y-55800000D01*
G75*
G02*
X55550000Y-56050000I-250000J0D01*
G01*
X54450000Y-56050000D01*
G75*
G02*
X54200000Y-55800000I0J250000D01*
G01*
X54200000Y-52800000D01*
G75*
G02*
X54450000Y-52550000I250000J0D01*
G01*
G37*
G36*
G01*
X54450000Y-46950000D02*
X55550000Y-46950000D01*
G75*
G02*
X55800000Y-47200000I0J-250000D01*
G01*
X55800000Y-50200000D01*
G75*
G02*
X55550000Y-50450000I-250000J0D01*
G01*
X54450000Y-50450000D01*
G75*
G02*
X54200000Y-50200000I0J250000D01*
G01*
X54200000Y-47200000D01*
G75*
G02*
X54450000Y-46950000I250000J0D01*
G01*
G37*
%TD*%
D20*
%TO.C,*%
X54800000Y-42000000D03*
%TD*%
%TO.C,*%
X112800000Y-42000000D03*
%TD*%
%TO.C,*%
X112800000Y-91000000D03*
%TD*%
%TO.C,*%
X54800000Y-91000000D03*
%TD*%
%TO.C,C11*%
G36*
G01*
X97000000Y-56435000D02*
X97000000Y-55485000D01*
G75*
G02*
X97250000Y-55235000I250000J0D01*
G01*
X97750000Y-55235000D01*
G75*
G02*
X98000000Y-55485000I0J-250000D01*
G01*
X98000000Y-56435000D01*
G75*
G02*
X97750000Y-56685000I-250000J0D01*
G01*
X97250000Y-56685000D01*
G75*
G02*
X97000000Y-56435000I0J250000D01*
G01*
G37*
G36*
G01*
X95100000Y-56435000D02*
X95100000Y-55485000D01*
G75*
G02*
X95350000Y-55235000I250000J0D01*
G01*
X95850000Y-55235000D01*
G75*
G02*
X96100000Y-55485000I0J-250000D01*
G01*
X96100000Y-56435000D01*
G75*
G02*
X95850000Y-56685000I-250000J0D01*
G01*
X95350000Y-56685000D01*
G75*
G02*
X95100000Y-56435000I0J250000D01*
G01*
G37*
%TD*%
%TO.C,C10*%
G36*
G01*
X96000000Y-50075000D02*
X96000000Y-51025000D01*
G75*
G02*
X95750000Y-51275000I-250000J0D01*
G01*
X95250000Y-51275000D01*
G75*
G02*
X95000000Y-51025000I0J250000D01*
G01*
X95000000Y-50075000D01*
G75*
G02*
X95250000Y-49825000I250000J0D01*
G01*
X95750000Y-49825000D01*
G75*
G02*
X96000000Y-50075000I0J-250000D01*
G01*
G37*
G36*
G01*
X97900000Y-50075000D02*
X97900000Y-51025000D01*
G75*
G02*
X97650000Y-51275000I-250000J0D01*
G01*
X97150000Y-51275000D01*
G75*
G02*
X96900000Y-51025000I0J250000D01*
G01*
X96900000Y-50075000D01*
G75*
G02*
X97150000Y-49825000I250000J0D01*
G01*
X97650000Y-49825000D01*
G75*
G02*
X97900000Y-50075000I0J-250000D01*
G01*
G37*
%TD*%
D10*
%TO.C,TP2*%
X97150000Y-79000000D03*
%TD*%
%TO.C,TP1*%
X108850000Y-77850000D03*
%TD*%
D18*
%TO.C,Q3*%
X54485000Y-75440000D03*
X55435000Y-73440000D03*
X53535000Y-73440000D03*
%TD*%
D17*
%TO.C,Q4*%
X59025000Y-46985000D03*
X61025000Y-47935000D03*
X61025000Y-46035000D03*
%TD*%
D21*
%TO.C,U3*%
X93400000Y-74650000D03*
D22*
X93400000Y-72110000D03*
X93400000Y-73380000D03*
%TD*%
D19*
%TO.C,D2*%
X77305000Y-85710000D03*
X81305000Y-85710000D03*
%TD*%
%TO.C,C1*%
G36*
G01*
X113050000Y-75725000D02*
X113050000Y-74775000D01*
G75*
G02*
X113300000Y-74525000I250000J0D01*
G01*
X113800000Y-74525000D01*
G75*
G02*
X114050000Y-74775000I0J-250000D01*
G01*
X114050000Y-75725000D01*
G75*
G02*
X113800000Y-75975000I-250000J0D01*
G01*
X113300000Y-75975000D01*
G75*
G02*
X113050000Y-75725000I0J250000D01*
G01*
G37*
G36*
G01*
X111150000Y-75725000D02*
X111150000Y-74775000D01*
G75*
G02*
X111400000Y-74525000I250000J0D01*
G01*
X111900000Y-74525000D01*
G75*
G02*
X112150000Y-74775000I0J-250000D01*
G01*
X112150000Y-75725000D01*
G75*
G02*
X111900000Y-75975000I-250000J0D01*
G01*
X111400000Y-75975000D01*
G75*
G02*
X111150000Y-75725000I0J250000D01*
G01*
G37*
%TD*%
%TO.C,C2*%
G36*
G01*
X102250000Y-91170000D02*
X103200000Y-91170000D01*
G75*
G02*
X103450000Y-91420000I0J-250000D01*
G01*
X103450000Y-91920000D01*
G75*
G02*
X103200000Y-92170000I-250000J0D01*
G01*
X102250000Y-92170000D01*
G75*
G02*
X102000000Y-91920000I0J250000D01*
G01*
X102000000Y-91420000D01*
G75*
G02*
X102250000Y-91170000I250000J0D01*
G01*
G37*
G36*
G01*
X102250000Y-89270000D02*
X103200000Y-89270000D01*
G75*
G02*
X103450000Y-89520000I0J-250000D01*
G01*
X103450000Y-90020000D01*
G75*
G02*
X103200000Y-90270000I-250000J0D01*
G01*
X102250000Y-90270000D01*
G75*
G02*
X102000000Y-90020000I0J250000D01*
G01*
X102000000Y-89520000D01*
G75*
G02*
X102250000Y-89270000I250000J0D01*
G01*
G37*
%TD*%
%TO.C,C3*%
G36*
G01*
X104525000Y-91170000D02*
X105475000Y-91170000D01*
G75*
G02*
X105725000Y-91420000I0J-250000D01*
G01*
X105725000Y-91920000D01*
G75*
G02*
X105475000Y-92170000I-250000J0D01*
G01*
X104525000Y-92170000D01*
G75*
G02*
X104275000Y-91920000I0J250000D01*
G01*
X104275000Y-91420000D01*
G75*
G02*
X104525000Y-91170000I250000J0D01*
G01*
G37*
G36*
G01*
X104525000Y-89270000D02*
X105475000Y-89270000D01*
G75*
G02*
X105725000Y-89520000I0J-250000D01*
G01*
X105725000Y-90020000D01*
G75*
G02*
X105475000Y-90270000I-250000J0D01*
G01*
X104525000Y-90270000D01*
G75*
G02*
X104275000Y-90020000I0J250000D01*
G01*
X104275000Y-89520000D01*
G75*
G02*
X104525000Y-89270000I250000J0D01*
G01*
G37*
%TD*%
%TO.C,C4*%
G36*
G01*
X106750000Y-91170000D02*
X107700000Y-91170000D01*
G75*
G02*
X107950000Y-91420000I0J-250000D01*
G01*
X107950000Y-91920000D01*
G75*
G02*
X107700000Y-92170000I-250000J0D01*
G01*
X106750000Y-92170000D01*
G75*
G02*
X106500000Y-91920000I0J250000D01*
G01*
X106500000Y-91420000D01*
G75*
G02*
X106750000Y-91170000I250000J0D01*
G01*
G37*
G36*
G01*
X106750000Y-89270000D02*
X107700000Y-89270000D01*
G75*
G02*
X107950000Y-89520000I0J-250000D01*
G01*
X107950000Y-90020000D01*
G75*
G02*
X107700000Y-90270000I-250000J0D01*
G01*
X106750000Y-90270000D01*
G75*
G02*
X106500000Y-90020000I0J250000D01*
G01*
X106500000Y-89520000D01*
G75*
G02*
X106750000Y-89270000I250000J0D01*
G01*
G37*
%TD*%
%TO.C,C5*%
G36*
G01*
X104595000Y-82530000D02*
X105545000Y-82530000D01*
G75*
G02*
X105795000Y-82780000I0J-250000D01*
G01*
X105795000Y-83280000D01*
G75*
G02*
X105545000Y-83530000I-250000J0D01*
G01*
X104595000Y-83530000D01*
G75*
G02*
X104345000Y-83280000I0J250000D01*
G01*
X104345000Y-82780000D01*
G75*
G02*
X104595000Y-82530000I250000J0D01*
G01*
G37*
G36*
G01*
X104595000Y-80630000D02*
X105545000Y-80630000D01*
G75*
G02*
X105795000Y-80880000I0J-250000D01*
G01*
X105795000Y-81380000D01*
G75*
G02*
X105545000Y-81630000I-250000J0D01*
G01*
X104595000Y-81630000D01*
G75*
G02*
X104345000Y-81380000I0J250000D01*
G01*
X104345000Y-80880000D01*
G75*
G02*
X104595000Y-80630000I250000J0D01*
G01*
G37*
%TD*%
%TO.C,C6*%
G36*
G01*
X102355000Y-82530000D02*
X103305000Y-82530000D01*
G75*
G02*
X103555000Y-82780000I0J-250000D01*
G01*
X103555000Y-83280000D01*
G75*
G02*
X103305000Y-83530000I-250000J0D01*
G01*
X102355000Y-83530000D01*
G75*
G02*
X102105000Y-83280000I0J250000D01*
G01*
X102105000Y-82780000D01*
G75*
G02*
X102355000Y-82530000I250000J0D01*
G01*
G37*
G36*
G01*
X102355000Y-80630000D02*
X103305000Y-80630000D01*
G75*
G02*
X103555000Y-80880000I0J-250000D01*
G01*
X103555000Y-81380000D01*
G75*
G02*
X103305000Y-81630000I-250000J0D01*
G01*
X102355000Y-81630000D01*
G75*
G02*
X102105000Y-81380000I0J250000D01*
G01*
X102105000Y-80880000D01*
G75*
G02*
X102355000Y-80630000I250000J0D01*
G01*
G37*
%TD*%
D23*
%TO.C,L1*%
X95900000Y-91300000D03*
X95900000Y-85800000D03*
%TD*%
%TO.C,C7*%
G36*
G01*
X100025000Y-91200000D02*
X100975000Y-91200000D01*
G75*
G02*
X101225000Y-91450000I0J-250000D01*
G01*
X101225000Y-91950000D01*
G75*
G02*
X100975000Y-92200000I-250000J0D01*
G01*
X100025000Y-92200000D01*
G75*
G02*
X99775000Y-91950000I0J250000D01*
G01*
X99775000Y-91450000D01*
G75*
G02*
X100025000Y-91200000I250000J0D01*
G01*
G37*
G36*
G01*
X100025000Y-89300000D02*
X100975000Y-89300000D01*
G75*
G02*
X101225000Y-89550000I0J-250000D01*
G01*
X101225000Y-90050000D01*
G75*
G02*
X100975000Y-90300000I-250000J0D01*
G01*
X100025000Y-90300000D01*
G75*
G02*
X99775000Y-90050000I0J250000D01*
G01*
X99775000Y-89550000D01*
G75*
G02*
X100025000Y-89300000I250000J0D01*
G01*
G37*
%TD*%
%TO.C,C8*%
G36*
G01*
X72825000Y-90400000D02*
X73775000Y-90400000D01*
G75*
G02*
X74025000Y-90650000I0J-250000D01*
G01*
X74025000Y-91150000D01*
G75*
G02*
X73775000Y-91400000I-250000J0D01*
G01*
X72825000Y-91400000D01*
G75*
G02*
X72575000Y-91150000I0J250000D01*
G01*
X72575000Y-90650000D01*
G75*
G02*
X72825000Y-90400000I250000J0D01*
G01*
G37*
G36*
G01*
X72825000Y-88500000D02*
X73775000Y-88500000D01*
G75*
G02*
X74025000Y-88750000I0J-250000D01*
G01*
X74025000Y-89250000D01*
G75*
G02*
X73775000Y-89500000I-250000J0D01*
G01*
X72825000Y-89500000D01*
G75*
G02*
X72575000Y-89250000I0J250000D01*
G01*
X72575000Y-88750000D01*
G75*
G02*
X72825000Y-88500000I250000J0D01*
G01*
G37*
%TD*%
%TO.C,C9*%
G36*
G01*
X113000000Y-73575000D02*
X113000000Y-72625000D01*
G75*
G02*
X113250000Y-72375000I250000J0D01*
G01*
X113750000Y-72375000D01*
G75*
G02*
X114000000Y-72625000I0J-250000D01*
G01*
X114000000Y-73575000D01*
G75*
G02*
X113750000Y-73825000I-250000J0D01*
G01*
X113250000Y-73825000D01*
G75*
G02*
X113000000Y-73575000I0J250000D01*
G01*
G37*
G36*
G01*
X111100000Y-73575000D02*
X111100000Y-72625000D01*
G75*
G02*
X111350000Y-72375000I250000J0D01*
G01*
X111850000Y-72375000D01*
G75*
G02*
X112100000Y-72625000I0J-250000D01*
G01*
X112100000Y-73575000D01*
G75*
G02*
X111850000Y-73825000I-250000J0D01*
G01*
X111350000Y-73825000D01*
G75*
G02*
X111100000Y-73575000I0J250000D01*
G01*
G37*
%TD*%
D19*
%TO.C,D1*%
X77280000Y-90535000D03*
X81280000Y-90535000D03*
%TD*%
D17*
%TO.C,Q5*%
X88250000Y-92000000D03*
X86250000Y-91050000D03*
X86250000Y-92950000D03*
%TD*%
D24*
%TO.C,J6*%
X61705000Y-87900000D03*
X70345000Y-87900000D03*
X61705000Y-91700000D03*
X70345000Y-91700000D03*
%TD*%
D19*
%TO.C,D5*%
X96100000Y-81950000D03*
X100100000Y-81950000D03*
%TD*%
M02*
