%TF.GenerationSoftware,KiCad,Pcbnew,5.1.9+dfsg1-1*%
%TF.CreationDate,2021-12-20T12:13:36+01:00*%
%TF.ProjectId,RaspberryPi_UPS_HAT,52617370-6265-4727-9279-50695f555053,rev?*%
%TF.SameCoordinates,Original*%
%TF.FileFunction,Paste,Top*%
%TF.FilePolarity,Positive*%
%FSLAX46Y46*%
G04 Gerber Fmt 4.6, Leading zero omitted, Abs format (unit mm)*
G04 Created by KiCad (PCBNEW 5.1.9+dfsg1-1) date 2021-12-20 12:13:36*
%MOMM*%
%LPD*%
G01*
G04 APERTURE LIST*
%ADD10R,0.998220X4.599940*%
%ADD11R,1.597660X3.398520*%
%ADD12R,1.100000X1.800000*%
%ADD13R,0.800000X2.200000*%
%ADD14R,0.760000X2.200000*%
%ADD15R,0.700000X2.200000*%
G04 APERTURE END LIST*
D10*
%TO.C,J3*%
X110501780Y-66601760D03*
X112498220Y-66601760D03*
D11*
X114898520Y-71798600D03*
X108101480Y-71798600D03*
%TD*%
%TO.C,F1*%
G36*
G01*
X72649999Y-88575000D02*
X75550001Y-88575000D01*
G75*
G02*
X75800000Y-88824999I0J-249999D01*
G01*
X75800000Y-89450001D01*
G75*
G02*
X75550001Y-89700000I-249999J0D01*
G01*
X72649999Y-89700000D01*
G75*
G02*
X72400000Y-89450001I0J249999D01*
G01*
X72400000Y-88824999D01*
G75*
G02*
X72649999Y-88575000I249999J0D01*
G01*
G37*
G36*
G01*
X72649999Y-84300000D02*
X75550001Y-84300000D01*
G75*
G02*
X75800000Y-84549999I0J-249999D01*
G01*
X75800000Y-85175001D01*
G75*
G02*
X75550001Y-85425000I-249999J0D01*
G01*
X72649999Y-85425000D01*
G75*
G02*
X72400000Y-85175001I0J249999D01*
G01*
X72400000Y-84549999D01*
G75*
G02*
X72649999Y-84300000I249999J0D01*
G01*
G37*
%TD*%
D12*
%TO.C,SW2*%
X92800000Y-54450000D03*
X92800000Y-48250000D03*
X96500000Y-54450000D03*
X96500000Y-48250000D03*
%TD*%
%TO.C,SW1*%
X92800000Y-63300000D03*
X92800000Y-57100000D03*
X96500000Y-63300000D03*
X96500000Y-57100000D03*
%TD*%
%TO.C,U2*%
G36*
G01*
X112760000Y-53000000D02*
X113060000Y-53000000D01*
G75*
G02*
X113210000Y-53150000I0J-150000D01*
G01*
X113210000Y-54800000D01*
G75*
G02*
X113060000Y-54950000I-150000J0D01*
G01*
X112760000Y-54950000D01*
G75*
G02*
X112610000Y-54800000I0J150000D01*
G01*
X112610000Y-53150000D01*
G75*
G02*
X112760000Y-53000000I150000J0D01*
G01*
G37*
G36*
G01*
X111490000Y-53000000D02*
X111790000Y-53000000D01*
G75*
G02*
X111940000Y-53150000I0J-150000D01*
G01*
X111940000Y-54800000D01*
G75*
G02*
X111790000Y-54950000I-150000J0D01*
G01*
X111490000Y-54950000D01*
G75*
G02*
X111340000Y-54800000I0J150000D01*
G01*
X111340000Y-53150000D01*
G75*
G02*
X111490000Y-53000000I150000J0D01*
G01*
G37*
G36*
G01*
X110220000Y-53000000D02*
X110520000Y-53000000D01*
G75*
G02*
X110670000Y-53150000I0J-150000D01*
G01*
X110670000Y-54800000D01*
G75*
G02*
X110520000Y-54950000I-150000J0D01*
G01*
X110220000Y-54950000D01*
G75*
G02*
X110070000Y-54800000I0J150000D01*
G01*
X110070000Y-53150000D01*
G75*
G02*
X110220000Y-53000000I150000J0D01*
G01*
G37*
G36*
G01*
X108950000Y-53000000D02*
X109250000Y-53000000D01*
G75*
G02*
X109400000Y-53150000I0J-150000D01*
G01*
X109400000Y-54800000D01*
G75*
G02*
X109250000Y-54950000I-150000J0D01*
G01*
X108950000Y-54950000D01*
G75*
G02*
X108800000Y-54800000I0J150000D01*
G01*
X108800000Y-53150000D01*
G75*
G02*
X108950000Y-53000000I150000J0D01*
G01*
G37*
G36*
G01*
X107680000Y-53000000D02*
X107980000Y-53000000D01*
G75*
G02*
X108130000Y-53150000I0J-150000D01*
G01*
X108130000Y-54800000D01*
G75*
G02*
X107980000Y-54950000I-150000J0D01*
G01*
X107680000Y-54950000D01*
G75*
G02*
X107530000Y-54800000I0J150000D01*
G01*
X107530000Y-53150000D01*
G75*
G02*
X107680000Y-53000000I150000J0D01*
G01*
G37*
G36*
G01*
X106410000Y-53000000D02*
X106710000Y-53000000D01*
G75*
G02*
X106860000Y-53150000I0J-150000D01*
G01*
X106860000Y-54800000D01*
G75*
G02*
X106710000Y-54950000I-150000J0D01*
G01*
X106410000Y-54950000D01*
G75*
G02*
X106260000Y-54800000I0J150000D01*
G01*
X106260000Y-53150000D01*
G75*
G02*
X106410000Y-53000000I150000J0D01*
G01*
G37*
G36*
G01*
X105140000Y-53000000D02*
X105440000Y-53000000D01*
G75*
G02*
X105590000Y-53150000I0J-150000D01*
G01*
X105590000Y-54800000D01*
G75*
G02*
X105440000Y-54950000I-150000J0D01*
G01*
X105140000Y-54950000D01*
G75*
G02*
X104990000Y-54800000I0J150000D01*
G01*
X104990000Y-53150000D01*
G75*
G02*
X105140000Y-53000000I150000J0D01*
G01*
G37*
G36*
G01*
X105140000Y-57950000D02*
X105440000Y-57950000D01*
G75*
G02*
X105590000Y-58100000I0J-150000D01*
G01*
X105590000Y-59750000D01*
G75*
G02*
X105440000Y-59900000I-150000J0D01*
G01*
X105140000Y-59900000D01*
G75*
G02*
X104990000Y-59750000I0J150000D01*
G01*
X104990000Y-58100000D01*
G75*
G02*
X105140000Y-57950000I150000J0D01*
G01*
G37*
G36*
G01*
X106410000Y-57950000D02*
X106710000Y-57950000D01*
G75*
G02*
X106860000Y-58100000I0J-150000D01*
G01*
X106860000Y-59750000D01*
G75*
G02*
X106710000Y-59900000I-150000J0D01*
G01*
X106410000Y-59900000D01*
G75*
G02*
X106260000Y-59750000I0J150000D01*
G01*
X106260000Y-58100000D01*
G75*
G02*
X106410000Y-57950000I150000J0D01*
G01*
G37*
G36*
G01*
X107680000Y-57950000D02*
X107980000Y-57950000D01*
G75*
G02*
X108130000Y-58100000I0J-150000D01*
G01*
X108130000Y-59750000D01*
G75*
G02*
X107980000Y-59900000I-150000J0D01*
G01*
X107680000Y-59900000D01*
G75*
G02*
X107530000Y-59750000I0J150000D01*
G01*
X107530000Y-58100000D01*
G75*
G02*
X107680000Y-57950000I150000J0D01*
G01*
G37*
G36*
G01*
X108950000Y-57950000D02*
X109250000Y-57950000D01*
G75*
G02*
X109400000Y-58100000I0J-150000D01*
G01*
X109400000Y-59750000D01*
G75*
G02*
X109250000Y-59900000I-150000J0D01*
G01*
X108950000Y-59900000D01*
G75*
G02*
X108800000Y-59750000I0J150000D01*
G01*
X108800000Y-58100000D01*
G75*
G02*
X108950000Y-57950000I150000J0D01*
G01*
G37*
G36*
G01*
X110220000Y-57950000D02*
X110520000Y-57950000D01*
G75*
G02*
X110670000Y-58100000I0J-150000D01*
G01*
X110670000Y-59750000D01*
G75*
G02*
X110520000Y-59900000I-150000J0D01*
G01*
X110220000Y-59900000D01*
G75*
G02*
X110070000Y-59750000I0J150000D01*
G01*
X110070000Y-58100000D01*
G75*
G02*
X110220000Y-57950000I150000J0D01*
G01*
G37*
G36*
G01*
X111490000Y-57950000D02*
X111790000Y-57950000D01*
G75*
G02*
X111940000Y-58100000I0J-150000D01*
G01*
X111940000Y-59750000D01*
G75*
G02*
X111790000Y-59900000I-150000J0D01*
G01*
X111490000Y-59900000D01*
G75*
G02*
X111340000Y-59750000I0J150000D01*
G01*
X111340000Y-58100000D01*
G75*
G02*
X111490000Y-57950000I150000J0D01*
G01*
G37*
G36*
G01*
X112760000Y-57950000D02*
X113060000Y-57950000D01*
G75*
G02*
X113210000Y-58100000I0J-150000D01*
G01*
X113210000Y-59750000D01*
G75*
G02*
X113060000Y-59900000I-150000J0D01*
G01*
X112760000Y-59900000D01*
G75*
G02*
X112610000Y-59750000I0J150000D01*
G01*
X112610000Y-58100000D01*
G75*
G02*
X112760000Y-57950000I150000J0D01*
G01*
G37*
%TD*%
%TO.C,D4*%
G36*
G01*
X87987500Y-85043750D02*
X87987500Y-85956250D01*
G75*
G02*
X87743750Y-86200000I-243750J0D01*
G01*
X87256250Y-86200000D01*
G75*
G02*
X87012500Y-85956250I0J243750D01*
G01*
X87012500Y-85043750D01*
G75*
G02*
X87256250Y-84800000I243750J0D01*
G01*
X87743750Y-84800000D01*
G75*
G02*
X87987500Y-85043750I0J-243750D01*
G01*
G37*
G36*
G01*
X89862500Y-85043750D02*
X89862500Y-85956250D01*
G75*
G02*
X89618750Y-86200000I-243750J0D01*
G01*
X89131250Y-86200000D01*
G75*
G02*
X88887500Y-85956250I0J243750D01*
G01*
X88887500Y-85043750D01*
G75*
G02*
X89131250Y-84800000I243750J0D01*
G01*
X89618750Y-84800000D01*
G75*
G02*
X89862500Y-85043750I0J-243750D01*
G01*
G37*
%TD*%
D13*
%TO.C,J6*%
X63275000Y-87350000D03*
X68775000Y-87350000D03*
D14*
X64505000Y-87350000D03*
X67545000Y-87350000D03*
D15*
X65525000Y-87350000D03*
X66525000Y-87350000D03*
%TD*%
M02*
